G04 #@! TF.FileFunction,Soldermask,Top*
%FSLAX46Y46*%
G04 Gerber Fmt 4.6, Leading zero omitted, Abs format (unit mm)*
G04 Created by KiCad (PCBNEW 4.0.0-stable) date Wednesday, July 20, 2016 'PMt' 02:43:05 PM*
%MOMM*%
G01*
G04 APERTURE LIST*
%ADD10C,0.100000*%
%ADD11R,1.300000X1.000000*%
%ADD12R,0.900000X1.000000*%
%ADD13R,1.850000X0.850000*%
%ADD14C,6.400000*%
%ADD15R,1.700000X1.100000*%
%ADD16R,1.400000X3.150000*%
%ADD17R,0.900000X1.300000*%
%ADD18R,1.000000X1.100000*%
%ADD19R,1.150000X1.200000*%
%ADD20R,1.300000X0.900000*%
%ADD21R,2.432000X2.432000*%
%ADD22O,2.432000X2.432000*%
%ADD23R,1.460000X1.050000*%
%ADD24R,1.197560X1.197560*%
%ADD25R,1.200100X1.200100*%
%ADD26R,1.700000X1.450000*%
%ADD27R,1.149300X0.798780*%
%ADD28R,2.100000X1.300000*%
%ADD29R,1.200000X1.150000*%
%ADD30R,0.800000X1.750000*%
%ADD31R,2.200000X2.300000*%
%ADD32C,1.100000*%
%ADD33R,2.200000X2.000000*%
%ADD34R,2.000000X1.400000*%
%ADD35R,1.289000X2.080000*%
%ADD36C,1.900000*%
%ADD37C,0.254000*%
G04 APERTURE END LIST*
D10*
G36*
X18798097Y7393577D02*
X18303122Y6898602D01*
X16959619Y8242105D01*
X17454594Y8737080D01*
X18798097Y7393577D01*
X18798097Y7393577D01*
G37*
G36*
X19151651Y7747130D02*
X18656676Y7252155D01*
X17313173Y8595658D01*
X17808148Y9090633D01*
X19151651Y7747130D01*
X19151651Y7747130D01*
G37*
G36*
X19505204Y8100684D02*
X19010229Y7605709D01*
X17666726Y8949212D01*
X18161701Y9444187D01*
X19505204Y8100684D01*
X19505204Y8100684D01*
G37*
G36*
X19858757Y8454237D02*
X19363782Y7959262D01*
X18020279Y9302765D01*
X18515254Y9797740D01*
X19858757Y8454237D01*
X19858757Y8454237D01*
G37*
G36*
X20212311Y8807790D02*
X19717336Y8312815D01*
X18373833Y9656318D01*
X18868808Y10151293D01*
X20212311Y8807790D01*
X20212311Y8807790D01*
G37*
G36*
X20565864Y9161344D02*
X20070889Y8666369D01*
X18727386Y10009872D01*
X19222361Y10504847D01*
X20565864Y9161344D01*
X20565864Y9161344D01*
G37*
G36*
X20919418Y9514897D02*
X20424443Y9019922D01*
X19080940Y10363425D01*
X19575915Y10858400D01*
X20919418Y9514897D01*
X20919418Y9514897D01*
G37*
G36*
X21272971Y9868451D02*
X20777996Y9373476D01*
X19434493Y10716979D01*
X19929468Y11211954D01*
X21272971Y9868451D01*
X21272971Y9868451D01*
G37*
G36*
X21626524Y10222004D02*
X21131549Y9727029D01*
X19788046Y11070532D01*
X20283021Y11565507D01*
X21626524Y10222004D01*
X21626524Y10222004D01*
G37*
G36*
X21980078Y10575557D02*
X21485103Y10080582D01*
X20141600Y11424085D01*
X20636575Y11919060D01*
X21980078Y10575557D01*
X21980078Y10575557D01*
G37*
G36*
X22333631Y10929111D02*
X21838656Y10434136D01*
X20495153Y11777639D01*
X20990128Y12272614D01*
X22333631Y10929111D01*
X22333631Y10929111D01*
G37*
G36*
X22687185Y11282664D02*
X22192210Y10787689D01*
X20848707Y12131192D01*
X21343682Y12626167D01*
X22687185Y11282664D01*
X22687185Y11282664D01*
G37*
G36*
X23040738Y11636218D02*
X22545763Y11141243D01*
X21202260Y12484746D01*
X21697235Y12979721D01*
X23040738Y11636218D01*
X23040738Y11636218D01*
G37*
G36*
X23394291Y11989771D02*
X22899316Y11494796D01*
X21555813Y12838299D01*
X22050788Y13333274D01*
X23394291Y11989771D01*
X23394291Y11989771D01*
G37*
G36*
X23747845Y12343324D02*
X23252870Y11848349D01*
X21909367Y13191852D01*
X22404342Y13686827D01*
X23747845Y12343324D01*
X23747845Y12343324D01*
G37*
G36*
X24101398Y12696878D02*
X23606423Y12201903D01*
X22262920Y13545406D01*
X22757895Y14040381D01*
X24101398Y12696878D01*
X24101398Y12696878D01*
G37*
G36*
X23606423Y16798097D02*
X24101398Y16303122D01*
X22757895Y14959619D01*
X22262920Y15454594D01*
X23606423Y16798097D01*
X23606423Y16798097D01*
G37*
G36*
X23252870Y17151651D02*
X23747845Y16656676D01*
X22404342Y15313173D01*
X21909367Y15808148D01*
X23252870Y17151651D01*
X23252870Y17151651D01*
G37*
G36*
X22899316Y17505204D02*
X23394291Y17010229D01*
X22050788Y15666726D01*
X21555813Y16161701D01*
X22899316Y17505204D01*
X22899316Y17505204D01*
G37*
G36*
X22545763Y17858757D02*
X23040738Y17363782D01*
X21697235Y16020279D01*
X21202260Y16515254D01*
X22545763Y17858757D01*
X22545763Y17858757D01*
G37*
G36*
X22192210Y18212311D02*
X22687185Y17717336D01*
X21343682Y16373833D01*
X20848707Y16868808D01*
X22192210Y18212311D01*
X22192210Y18212311D01*
G37*
G36*
X21838656Y18565864D02*
X22333631Y18070889D01*
X20990128Y16727386D01*
X20495153Y17222361D01*
X21838656Y18565864D01*
X21838656Y18565864D01*
G37*
G36*
X21485103Y18919418D02*
X21980078Y18424443D01*
X20636575Y17080940D01*
X20141600Y17575915D01*
X21485103Y18919418D01*
X21485103Y18919418D01*
G37*
G36*
X21131549Y19272971D02*
X21626524Y18777996D01*
X20283021Y17434493D01*
X19788046Y17929468D01*
X21131549Y19272971D01*
X21131549Y19272971D01*
G37*
G36*
X20777996Y19626524D02*
X21272971Y19131549D01*
X19929468Y17788046D01*
X19434493Y18283021D01*
X20777996Y19626524D01*
X20777996Y19626524D01*
G37*
G36*
X20424443Y19980078D02*
X20919418Y19485103D01*
X19575915Y18141600D01*
X19080940Y18636575D01*
X20424443Y19980078D01*
X20424443Y19980078D01*
G37*
G36*
X20070889Y20333631D02*
X20565864Y19838656D01*
X19222361Y18495153D01*
X18727386Y18990128D01*
X20070889Y20333631D01*
X20070889Y20333631D01*
G37*
G36*
X19717336Y20687185D02*
X20212311Y20192210D01*
X18868808Y18848707D01*
X18373833Y19343682D01*
X19717336Y20687185D01*
X19717336Y20687185D01*
G37*
G36*
X19363782Y21040738D02*
X19858757Y20545763D01*
X18515254Y19202260D01*
X18020279Y19697235D01*
X19363782Y21040738D01*
X19363782Y21040738D01*
G37*
G36*
X19010229Y21394291D02*
X19505204Y20899316D01*
X18161701Y19555813D01*
X17666726Y20050788D01*
X19010229Y21394291D01*
X19010229Y21394291D01*
G37*
G36*
X18656676Y21747845D02*
X19151651Y21252870D01*
X17808148Y19909367D01*
X17313173Y20404342D01*
X18656676Y21747845D01*
X18656676Y21747845D01*
G37*
G36*
X18303122Y22101398D02*
X18798097Y21606423D01*
X17454594Y20262920D01*
X16959619Y20757895D01*
X18303122Y22101398D01*
X18303122Y22101398D01*
G37*
G36*
X16040381Y20757895D02*
X15545406Y20262920D01*
X14201903Y21606423D01*
X14696878Y22101398D01*
X16040381Y20757895D01*
X16040381Y20757895D01*
G37*
G36*
X15686827Y20404342D02*
X15191852Y19909367D01*
X13848349Y21252870D01*
X14343324Y21747845D01*
X15686827Y20404342D01*
X15686827Y20404342D01*
G37*
G36*
X15333274Y20050788D02*
X14838299Y19555813D01*
X13494796Y20899316D01*
X13989771Y21394291D01*
X15333274Y20050788D01*
X15333274Y20050788D01*
G37*
G36*
X14979721Y19697235D02*
X14484746Y19202260D01*
X13141243Y20545763D01*
X13636218Y21040738D01*
X14979721Y19697235D01*
X14979721Y19697235D01*
G37*
G36*
X14626167Y19343682D02*
X14131192Y18848707D01*
X12787689Y20192210D01*
X13282664Y20687185D01*
X14626167Y19343682D01*
X14626167Y19343682D01*
G37*
G36*
X14272614Y18990128D02*
X13777639Y18495153D01*
X12434136Y19838656D01*
X12929111Y20333631D01*
X14272614Y18990128D01*
X14272614Y18990128D01*
G37*
G36*
X13919060Y18636575D02*
X13424085Y18141600D01*
X12080582Y19485103D01*
X12575557Y19980078D01*
X13919060Y18636575D01*
X13919060Y18636575D01*
G37*
G36*
X13565507Y18283021D02*
X13070532Y17788046D01*
X11727029Y19131549D01*
X12222004Y19626524D01*
X13565507Y18283021D01*
X13565507Y18283021D01*
G37*
G36*
X13211954Y17929468D02*
X12716979Y17434493D01*
X11373476Y18777996D01*
X11868451Y19272971D01*
X13211954Y17929468D01*
X13211954Y17929468D01*
G37*
G36*
X12858400Y17575915D02*
X12363425Y17080940D01*
X11019922Y18424443D01*
X11514897Y18919418D01*
X12858400Y17575915D01*
X12858400Y17575915D01*
G37*
G36*
X12504847Y17222361D02*
X12009872Y16727386D01*
X10666369Y18070889D01*
X11161344Y18565864D01*
X12504847Y17222361D01*
X12504847Y17222361D01*
G37*
G36*
X12151293Y16868808D02*
X11656318Y16373833D01*
X10312815Y17717336D01*
X10807790Y18212311D01*
X12151293Y16868808D01*
X12151293Y16868808D01*
G37*
G36*
X11797740Y16515254D02*
X11302765Y16020279D01*
X9959262Y17363782D01*
X10454237Y17858757D01*
X11797740Y16515254D01*
X11797740Y16515254D01*
G37*
G36*
X11444187Y16161701D02*
X10949212Y15666726D01*
X9605709Y17010229D01*
X10100684Y17505204D01*
X11444187Y16161701D01*
X11444187Y16161701D01*
G37*
G36*
X11090633Y15808148D02*
X10595658Y15313173D01*
X9252155Y16656676D01*
X9747130Y17151651D01*
X11090633Y15808148D01*
X11090633Y15808148D01*
G37*
G36*
X10737080Y15454594D02*
X10242105Y14959619D01*
X8898602Y16303122D01*
X9393577Y16798097D01*
X10737080Y15454594D01*
X10737080Y15454594D01*
G37*
G36*
X10242105Y14040381D02*
X10737080Y13545406D01*
X9393577Y12201903D01*
X8898602Y12696878D01*
X10242105Y14040381D01*
X10242105Y14040381D01*
G37*
G36*
X10595658Y13686827D02*
X11090633Y13191852D01*
X9747130Y11848349D01*
X9252155Y12343324D01*
X10595658Y13686827D01*
X10595658Y13686827D01*
G37*
G36*
X10949212Y13333274D02*
X11444187Y12838299D01*
X10100684Y11494796D01*
X9605709Y11989771D01*
X10949212Y13333274D01*
X10949212Y13333274D01*
G37*
G36*
X11302765Y12979721D02*
X11797740Y12484746D01*
X10454237Y11141243D01*
X9959262Y11636218D01*
X11302765Y12979721D01*
X11302765Y12979721D01*
G37*
G36*
X11656318Y12626167D02*
X12151293Y12131192D01*
X10807790Y10787689D01*
X10312815Y11282664D01*
X11656318Y12626167D01*
X11656318Y12626167D01*
G37*
G36*
X12009872Y12272614D02*
X12504847Y11777639D01*
X11161344Y10434136D01*
X10666369Y10929111D01*
X12009872Y12272614D01*
X12009872Y12272614D01*
G37*
G36*
X12363425Y11919060D02*
X12858400Y11424085D01*
X11514897Y10080582D01*
X11019922Y10575557D01*
X12363425Y11919060D01*
X12363425Y11919060D01*
G37*
G36*
X12716979Y11565507D02*
X13211954Y11070532D01*
X11868451Y9727029D01*
X11373476Y10222004D01*
X12716979Y11565507D01*
X12716979Y11565507D01*
G37*
G36*
X13070532Y11211954D02*
X13565507Y10716979D01*
X12222004Y9373476D01*
X11727029Y9868451D01*
X13070532Y11211954D01*
X13070532Y11211954D01*
G37*
G36*
X13424085Y10858400D02*
X13919060Y10363425D01*
X12575557Y9019922D01*
X12080582Y9514897D01*
X13424085Y10858400D01*
X13424085Y10858400D01*
G37*
G36*
X13777639Y10504847D02*
X14272614Y10009872D01*
X12929111Y8666369D01*
X12434136Y9161344D01*
X13777639Y10504847D01*
X13777639Y10504847D01*
G37*
G36*
X14131192Y10151293D02*
X14626167Y9656318D01*
X13282664Y8312815D01*
X12787689Y8807790D01*
X14131192Y10151293D01*
X14131192Y10151293D01*
G37*
G36*
X14484746Y9797740D02*
X14979721Y9302765D01*
X13636218Y7959262D01*
X13141243Y8454237D01*
X14484746Y9797740D01*
X14484746Y9797740D01*
G37*
G36*
X14838299Y9444187D02*
X15333274Y8949212D01*
X13989771Y7605709D01*
X13494796Y8100684D01*
X14838299Y9444187D01*
X14838299Y9444187D01*
G37*
G36*
X15191852Y9090633D02*
X15686827Y8595658D01*
X14343324Y7252155D01*
X13848349Y7747130D01*
X15191852Y9090633D01*
X15191852Y9090633D01*
G37*
G36*
X15545406Y8737080D02*
X16040381Y8242105D01*
X14696878Y6898602D01*
X14201903Y7393577D01*
X15545406Y8737080D01*
X15545406Y8737080D01*
G37*
D11*
X32500000Y9750000D03*
D12*
X30800000Y9750000D03*
X30800000Y7750000D03*
X32700000Y7750000D03*
D13*
X7700000Y8275000D03*
X7700000Y8925000D03*
X7700000Y9575000D03*
X7700000Y10225000D03*
X1800000Y10225000D03*
X1800000Y9575000D03*
X1800000Y8925000D03*
X1800000Y8275000D03*
D14*
X3500000Y3500000D03*
D15*
X26500000Y5950000D03*
X26500000Y4050000D03*
X22000000Y5950000D03*
X22000000Y4050000D03*
D16*
X41500000Y13125000D03*
X41500000Y7375000D03*
X45500000Y7375000D03*
X45500000Y13125000D03*
D17*
X58500000Y8000000D03*
X57000000Y8000000D03*
D18*
X24800000Y22000000D03*
X23400000Y22000000D03*
X24800000Y20700000D03*
X23400000Y20700000D03*
D19*
X45500000Y21500000D03*
X45500000Y20000000D03*
D20*
X58000000Y21500000D03*
X58000000Y20000000D03*
X60000000Y21500000D03*
X60000000Y20000000D03*
X56000000Y21500000D03*
X56000000Y20000000D03*
D21*
X62980000Y21420000D03*
D22*
X62980000Y18880000D03*
D23*
X29600000Y15300000D03*
X29600000Y16250000D03*
X29600000Y17200000D03*
X27400000Y17200000D03*
X27400000Y15300000D03*
D19*
X27500000Y13500000D03*
X27500000Y12000000D03*
X29500000Y13500000D03*
X29500000Y12000000D03*
D17*
X4250000Y19250000D03*
X5750000Y19250000D03*
D24*
X1250700Y19250000D03*
X2749300Y19250000D03*
D20*
X36000000Y13500000D03*
X36000000Y12000000D03*
X36000000Y15500000D03*
X36000000Y17000000D03*
D23*
X31900000Y17200000D03*
X31900000Y16250000D03*
X31900000Y15300000D03*
X34100000Y15300000D03*
X34100000Y17200000D03*
X34100000Y16250000D03*
D25*
X33950000Y13750760D03*
X32050000Y13750760D03*
X33000000Y11751780D03*
D26*
X15350000Y1575000D03*
X17650000Y1575000D03*
X17650000Y3425000D03*
X15350000Y3425000D03*
D27*
X55199960Y11349760D03*
X55199960Y12000000D03*
X55199960Y12650240D03*
X53300040Y12650240D03*
X53300040Y12000000D03*
X53300040Y11349760D03*
D17*
X27750000Y7750000D03*
X29250000Y7750000D03*
X4250000Y14500000D03*
X5750000Y14500000D03*
X4250000Y16500000D03*
X5750000Y16500000D03*
D20*
X60250000Y12750000D03*
X60250000Y11250000D03*
D28*
X57750000Y12700000D03*
X57750000Y9800000D03*
D20*
X60250000Y9250000D03*
X60250000Y7750000D03*
X39000000Y21250000D03*
X39000000Y19750000D03*
X55250000Y9250000D03*
X55250000Y7750000D03*
X53250000Y7750000D03*
X53250000Y9250000D03*
D17*
X4250000Y12250000D03*
X5750000Y12250000D03*
X1250000Y12250000D03*
X2750000Y12250000D03*
D14*
X3500000Y26500000D03*
X61500000Y26500000D03*
X61500000Y3500000D03*
D24*
X1250700Y14500000D03*
X2749300Y14500000D03*
X1250700Y16500000D03*
X2749300Y16500000D03*
D19*
X19500000Y3250000D03*
X19500000Y1750000D03*
X22000000Y2750000D03*
X22000000Y1250000D03*
X13500000Y1750000D03*
X13500000Y3250000D03*
X8000000Y15750000D03*
X8000000Y17250000D03*
X26500000Y2750000D03*
X26500000Y1250000D03*
X8000000Y12250000D03*
X8000000Y13750000D03*
X10250000Y9750000D03*
X10250000Y8250000D03*
D29*
X8000000Y19250000D03*
X9500000Y19250000D03*
D19*
X13500000Y6250000D03*
X13500000Y4750000D03*
D29*
X20150000Y22000000D03*
X21650000Y22000000D03*
X12650000Y21700000D03*
X11150000Y21700000D03*
X23350000Y19200000D03*
X24850000Y19200000D03*
D19*
X25500000Y12000000D03*
X25500000Y13500000D03*
D17*
X27750000Y9750000D03*
X29250000Y9750000D03*
D13*
X47800000Y21725000D03*
X47800000Y21075000D03*
X47800000Y20425000D03*
X47800000Y19775000D03*
X53700000Y19775000D03*
X53700000Y20425000D03*
X53700000Y21075000D03*
X53700000Y21725000D03*
D30*
X33699100Y4285389D03*
X34349100Y4285389D03*
X34999100Y4285389D03*
X35649100Y4285389D03*
X36299100Y4285389D03*
D31*
X30950000Y1572849D03*
X33800000Y1572849D03*
X36200000Y1572849D03*
X39050000Y1572849D03*
D32*
X37075000Y4022849D03*
X32925000Y4022849D03*
D33*
X39050000Y4122849D03*
X30950000Y4122849D03*
D34*
X51000000Y11500000D03*
X51000000Y8500000D03*
X48250000Y11500000D03*
X48250000Y8500000D03*
X28500000Y5000000D03*
X28500000Y2000000D03*
X11250000Y5000000D03*
X11250000Y2000000D03*
X24000000Y5000000D03*
X24000000Y2000000D03*
D21*
X62980000Y8720000D03*
D22*
X62980000Y11260000D03*
D35*
X8370000Y23920000D03*
X8370000Y29080000D03*
X10910000Y23920000D03*
X10910000Y29080000D03*
X13450000Y23920000D03*
X13450000Y29080000D03*
X15990000Y23920000D03*
X15990000Y29080000D03*
X18530000Y23920000D03*
X18530000Y29080000D03*
X21070000Y23920000D03*
X21070000Y29080000D03*
X23610000Y23920000D03*
X23610000Y29080000D03*
X26150000Y23920000D03*
X26150000Y29080000D03*
X28690000Y23920000D03*
X28690000Y29080000D03*
X31230000Y23920000D03*
X31230000Y29080000D03*
X33770000Y23920000D03*
X33770000Y29080000D03*
X36310000Y23920000D03*
X36310000Y29080000D03*
X38850000Y23920000D03*
X38850000Y29080000D03*
D36*
X8370000Y25230000D03*
X8370000Y27770000D03*
X10910000Y25230000D03*
X13450000Y25230000D03*
X15990000Y25230000D03*
X18530000Y25230000D03*
X21070000Y25230000D03*
X23610000Y25230000D03*
X26150000Y25230000D03*
X28690000Y25230000D03*
X31230000Y25230000D03*
X33770000Y25230000D03*
X36310000Y25230000D03*
X38850000Y25230000D03*
X10910000Y27770000D03*
X13450000Y27770000D03*
X15990000Y27770000D03*
X18530000Y27770000D03*
X21070000Y27770000D03*
X23610000Y27770000D03*
X26150000Y27770000D03*
X28690000Y27770000D03*
X31230000Y27770000D03*
X33770000Y27770000D03*
X36310000Y27770000D03*
X38850000Y27770000D03*
X41390000Y25230000D03*
X43930000Y25230000D03*
X46470000Y25230000D03*
X49010000Y25230000D03*
X51550000Y25230000D03*
X54090000Y25230000D03*
X56630000Y25230000D03*
X56630000Y27770000D03*
X54090000Y27770000D03*
X51550000Y27770000D03*
X49010000Y27770000D03*
X46470000Y27770000D03*
X43930000Y27770000D03*
X41390000Y27770000D03*
D35*
X41390000Y23920000D03*
X43930000Y23920000D03*
X46470000Y23920000D03*
X49010000Y23920000D03*
X51550000Y23920000D03*
X54090000Y23920000D03*
X56630000Y23920000D03*
X56630000Y29080000D03*
X54090000Y29080000D03*
X51550000Y29080000D03*
X49010000Y29080000D03*
X46470000Y29080000D03*
X43930000Y29080000D03*
X41390000Y29080000D03*
D37*
G36*
X57623000Y877000D02*
X41377000Y877000D01*
X41377000Y3123000D01*
X57623000Y3123000D01*
X57623000Y877000D01*
X57623000Y877000D01*
G37*
X57623000Y877000D02*
X41377000Y877000D01*
X41377000Y3123000D01*
X57623000Y3123000D01*
X57623000Y877000D01*
M02*
