G04 #@! TF.FileFunction,Copper,L1,Top,Signal*
%FSLAX46Y46*%
G04 Gerber Fmt 4.6, Leading zero omitted, Abs format (unit mm)*
G04 Created by KiCad (PCBNEW 4.0.0-stable) date Wednesday, July 20, 2016 'PMt' 02:43:05 PM*
%MOMM*%
G01*
G04 APERTURE LIST*
%ADD10C,0.100000*%
%ADD11R,0.900000X0.600000*%
%ADD12R,0.500000X0.600000*%
%ADD13R,1.450000X0.450000*%
%ADD14C,6.000000*%
%ADD15R,1.300000X0.700000*%
%ADD16R,1.000000X2.750000*%
%ADD17R,0.500000X0.900000*%
%ADD18R,0.600000X0.700000*%
%ADD19R,0.750000X0.800000*%
%ADD20R,0.900000X0.500000*%
%ADD21R,2.032000X2.032000*%
%ADD22O,2.032000X2.032000*%
%ADD23R,1.060000X0.650000*%
%ADD24R,0.797560X0.797560*%
%ADD25R,0.800100X0.800100*%
%ADD26R,1.300000X1.050000*%
%ADD27R,0.749300X0.398780*%
%ADD28R,1.700000X0.900000*%
%ADD29R,0.800000X0.750000*%
%ADD30R,0.400000X1.350000*%
%ADD31R,1.800000X1.900000*%
%ADD32R,1.800000X1.600000*%
%ADD33R,1.600000X1.000000*%
%ADD34R,0.889000X1.680000*%
%ADD35C,1.500000*%
%ADD36C,0.609600*%
%ADD37C,0.200000*%
%ADD38C,0.400000*%
%ADD39C,0.600000*%
%ADD40C,0.304800*%
%ADD41C,0.254000*%
G04 APERTURE END LIST*
D10*
G36*
X18515254Y7393577D02*
X18303122Y7181445D01*
X17242462Y8242105D01*
X17454594Y8454237D01*
X18515254Y7393577D01*
X18515254Y7393577D01*
G37*
G36*
X18868808Y7747130D02*
X18656676Y7534998D01*
X17596016Y8595658D01*
X17808148Y8807790D01*
X18868808Y7747130D01*
X18868808Y7747130D01*
G37*
G36*
X19222361Y8100684D02*
X19010229Y7888552D01*
X17949569Y8949212D01*
X18161701Y9161344D01*
X19222361Y8100684D01*
X19222361Y8100684D01*
G37*
G36*
X19575914Y8454237D02*
X19363782Y8242105D01*
X18303122Y9302765D01*
X18515254Y9514897D01*
X19575914Y8454237D01*
X19575914Y8454237D01*
G37*
G36*
X19929468Y8807790D02*
X19717336Y8595658D01*
X18656676Y9656318D01*
X18868808Y9868450D01*
X19929468Y8807790D01*
X19929468Y8807790D01*
G37*
G36*
X20283021Y9161344D02*
X20070889Y8949212D01*
X19010229Y10009872D01*
X19222361Y10222004D01*
X20283021Y9161344D01*
X20283021Y9161344D01*
G37*
G36*
X20636575Y9514897D02*
X20424443Y9302765D01*
X19363783Y10363425D01*
X19575915Y10575557D01*
X20636575Y9514897D01*
X20636575Y9514897D01*
G37*
G36*
X20990128Y9868451D02*
X20777996Y9656319D01*
X19717336Y10716979D01*
X19929468Y10929111D01*
X20990128Y9868451D01*
X20990128Y9868451D01*
G37*
G36*
X21343681Y10222004D02*
X21131549Y10009872D01*
X20070889Y11070532D01*
X20283021Y11282664D01*
X21343681Y10222004D01*
X21343681Y10222004D01*
G37*
G36*
X21697235Y10575557D02*
X21485103Y10363425D01*
X20424443Y11424085D01*
X20636575Y11636217D01*
X21697235Y10575557D01*
X21697235Y10575557D01*
G37*
G36*
X22050788Y10929111D02*
X21838656Y10716979D01*
X20777996Y11777639D01*
X20990128Y11989771D01*
X22050788Y10929111D01*
X22050788Y10929111D01*
G37*
G36*
X22404342Y11282664D02*
X22192210Y11070532D01*
X21131550Y12131192D01*
X21343682Y12343324D01*
X22404342Y11282664D01*
X22404342Y11282664D01*
G37*
G36*
X22757895Y11636218D02*
X22545763Y11424086D01*
X21485103Y12484746D01*
X21697235Y12696878D01*
X22757895Y11636218D01*
X22757895Y11636218D01*
G37*
G36*
X23111448Y11989771D02*
X22899316Y11777639D01*
X21838656Y12838299D01*
X22050788Y13050431D01*
X23111448Y11989771D01*
X23111448Y11989771D01*
G37*
G36*
X23465002Y12343324D02*
X23252870Y12131192D01*
X22192210Y13191852D01*
X22404342Y13403984D01*
X23465002Y12343324D01*
X23465002Y12343324D01*
G37*
G36*
X23818555Y12696878D02*
X23606423Y12484746D01*
X22545763Y13545406D01*
X22757895Y13757538D01*
X23818555Y12696878D01*
X23818555Y12696878D01*
G37*
G36*
X23606423Y16515254D02*
X23818555Y16303122D01*
X22757895Y15242462D01*
X22545763Y15454594D01*
X23606423Y16515254D01*
X23606423Y16515254D01*
G37*
G36*
X23252870Y16868808D02*
X23465002Y16656676D01*
X22404342Y15596016D01*
X22192210Y15808148D01*
X23252870Y16868808D01*
X23252870Y16868808D01*
G37*
G36*
X22899316Y17222361D02*
X23111448Y17010229D01*
X22050788Y15949569D01*
X21838656Y16161701D01*
X22899316Y17222361D01*
X22899316Y17222361D01*
G37*
G36*
X22545763Y17575914D02*
X22757895Y17363782D01*
X21697235Y16303122D01*
X21485103Y16515254D01*
X22545763Y17575914D01*
X22545763Y17575914D01*
G37*
G36*
X22192210Y17929468D02*
X22404342Y17717336D01*
X21343682Y16656676D01*
X21131550Y16868808D01*
X22192210Y17929468D01*
X22192210Y17929468D01*
G37*
G36*
X21838656Y18283021D02*
X22050788Y18070889D01*
X20990128Y17010229D01*
X20777996Y17222361D01*
X21838656Y18283021D01*
X21838656Y18283021D01*
G37*
G36*
X21485103Y18636575D02*
X21697235Y18424443D01*
X20636575Y17363783D01*
X20424443Y17575915D01*
X21485103Y18636575D01*
X21485103Y18636575D01*
G37*
G36*
X21131549Y18990128D02*
X21343681Y18777996D01*
X20283021Y17717336D01*
X20070889Y17929468D01*
X21131549Y18990128D01*
X21131549Y18990128D01*
G37*
G36*
X20777996Y19343681D02*
X20990128Y19131549D01*
X19929468Y18070889D01*
X19717336Y18283021D01*
X20777996Y19343681D01*
X20777996Y19343681D01*
G37*
G36*
X20424443Y19697235D02*
X20636575Y19485103D01*
X19575915Y18424443D01*
X19363783Y18636575D01*
X20424443Y19697235D01*
X20424443Y19697235D01*
G37*
G36*
X20070889Y20050788D02*
X20283021Y19838656D01*
X19222361Y18777996D01*
X19010229Y18990128D01*
X20070889Y20050788D01*
X20070889Y20050788D01*
G37*
G36*
X19717336Y20404342D02*
X19929468Y20192210D01*
X18868808Y19131550D01*
X18656676Y19343682D01*
X19717336Y20404342D01*
X19717336Y20404342D01*
G37*
G36*
X19363782Y20757895D02*
X19575914Y20545763D01*
X18515254Y19485103D01*
X18303122Y19697235D01*
X19363782Y20757895D01*
X19363782Y20757895D01*
G37*
G36*
X19010229Y21111448D02*
X19222361Y20899316D01*
X18161701Y19838656D01*
X17949569Y20050788D01*
X19010229Y21111448D01*
X19010229Y21111448D01*
G37*
G36*
X18656676Y21465002D02*
X18868808Y21252870D01*
X17808148Y20192210D01*
X17596016Y20404342D01*
X18656676Y21465002D01*
X18656676Y21465002D01*
G37*
G36*
X18303122Y21818555D02*
X18515254Y21606423D01*
X17454594Y20545763D01*
X17242462Y20757895D01*
X18303122Y21818555D01*
X18303122Y21818555D01*
G37*
G36*
X15757538Y20757895D02*
X15545406Y20545763D01*
X14484746Y21606423D01*
X14696878Y21818555D01*
X15757538Y20757895D01*
X15757538Y20757895D01*
G37*
G36*
X15403984Y20404342D02*
X15191852Y20192210D01*
X14131192Y21252870D01*
X14343324Y21465002D01*
X15403984Y20404342D01*
X15403984Y20404342D01*
G37*
G36*
X15050431Y20050788D02*
X14838299Y19838656D01*
X13777639Y20899316D01*
X13989771Y21111448D01*
X15050431Y20050788D01*
X15050431Y20050788D01*
G37*
G36*
X14696878Y19697235D02*
X14484746Y19485103D01*
X13424086Y20545763D01*
X13636218Y20757895D01*
X14696878Y19697235D01*
X14696878Y19697235D01*
G37*
G36*
X14343324Y19343682D02*
X14131192Y19131550D01*
X13070532Y20192210D01*
X13282664Y20404342D01*
X14343324Y19343682D01*
X14343324Y19343682D01*
G37*
G36*
X13989771Y18990128D02*
X13777639Y18777996D01*
X12716979Y19838656D01*
X12929111Y20050788D01*
X13989771Y18990128D01*
X13989771Y18990128D01*
G37*
G36*
X13636217Y18636575D02*
X13424085Y18424443D01*
X12363425Y19485103D01*
X12575557Y19697235D01*
X13636217Y18636575D01*
X13636217Y18636575D01*
G37*
G36*
X13282664Y18283021D02*
X13070532Y18070889D01*
X12009872Y19131549D01*
X12222004Y19343681D01*
X13282664Y18283021D01*
X13282664Y18283021D01*
G37*
G36*
X12929111Y17929468D02*
X12716979Y17717336D01*
X11656319Y18777996D01*
X11868451Y18990128D01*
X12929111Y17929468D01*
X12929111Y17929468D01*
G37*
G36*
X12575557Y17575915D02*
X12363425Y17363783D01*
X11302765Y18424443D01*
X11514897Y18636575D01*
X12575557Y17575915D01*
X12575557Y17575915D01*
G37*
G36*
X12222004Y17222361D02*
X12009872Y17010229D01*
X10949212Y18070889D01*
X11161344Y18283021D01*
X12222004Y17222361D01*
X12222004Y17222361D01*
G37*
G36*
X11868450Y16868808D02*
X11656318Y16656676D01*
X10595658Y17717336D01*
X10807790Y17929468D01*
X11868450Y16868808D01*
X11868450Y16868808D01*
G37*
G36*
X11514897Y16515254D02*
X11302765Y16303122D01*
X10242105Y17363782D01*
X10454237Y17575914D01*
X11514897Y16515254D01*
X11514897Y16515254D01*
G37*
G36*
X11161344Y16161701D02*
X10949212Y15949569D01*
X9888552Y17010229D01*
X10100684Y17222361D01*
X11161344Y16161701D01*
X11161344Y16161701D01*
G37*
G36*
X10807790Y15808148D02*
X10595658Y15596016D01*
X9534998Y16656676D01*
X9747130Y16868808D01*
X10807790Y15808148D01*
X10807790Y15808148D01*
G37*
G36*
X10454237Y15454594D02*
X10242105Y15242462D01*
X9181445Y16303122D01*
X9393577Y16515254D01*
X10454237Y15454594D01*
X10454237Y15454594D01*
G37*
G36*
X10242105Y13757538D02*
X10454237Y13545406D01*
X9393577Y12484746D01*
X9181445Y12696878D01*
X10242105Y13757538D01*
X10242105Y13757538D01*
G37*
G36*
X10595658Y13403984D02*
X10807790Y13191852D01*
X9747130Y12131192D01*
X9534998Y12343324D01*
X10595658Y13403984D01*
X10595658Y13403984D01*
G37*
G36*
X10949212Y13050431D02*
X11161344Y12838299D01*
X10100684Y11777639D01*
X9888552Y11989771D01*
X10949212Y13050431D01*
X10949212Y13050431D01*
G37*
G36*
X11302765Y12696878D02*
X11514897Y12484746D01*
X10454237Y11424086D01*
X10242105Y11636218D01*
X11302765Y12696878D01*
X11302765Y12696878D01*
G37*
G36*
X11656318Y12343324D02*
X11868450Y12131192D01*
X10807790Y11070532D01*
X10595658Y11282664D01*
X11656318Y12343324D01*
X11656318Y12343324D01*
G37*
G36*
X12009872Y11989771D02*
X12222004Y11777639D01*
X11161344Y10716979D01*
X10949212Y10929111D01*
X12009872Y11989771D01*
X12009872Y11989771D01*
G37*
G36*
X12363425Y11636217D02*
X12575557Y11424085D01*
X11514897Y10363425D01*
X11302765Y10575557D01*
X12363425Y11636217D01*
X12363425Y11636217D01*
G37*
G36*
X12716979Y11282664D02*
X12929111Y11070532D01*
X11868451Y10009872D01*
X11656319Y10222004D01*
X12716979Y11282664D01*
X12716979Y11282664D01*
G37*
G36*
X13070532Y10929111D02*
X13282664Y10716979D01*
X12222004Y9656319D01*
X12009872Y9868451D01*
X13070532Y10929111D01*
X13070532Y10929111D01*
G37*
G36*
X13424085Y10575557D02*
X13636217Y10363425D01*
X12575557Y9302765D01*
X12363425Y9514897D01*
X13424085Y10575557D01*
X13424085Y10575557D01*
G37*
G36*
X13777639Y10222004D02*
X13989771Y10009872D01*
X12929111Y8949212D01*
X12716979Y9161344D01*
X13777639Y10222004D01*
X13777639Y10222004D01*
G37*
G36*
X14131192Y9868450D02*
X14343324Y9656318D01*
X13282664Y8595658D01*
X13070532Y8807790D01*
X14131192Y9868450D01*
X14131192Y9868450D01*
G37*
G36*
X14484746Y9514897D02*
X14696878Y9302765D01*
X13636218Y8242105D01*
X13424086Y8454237D01*
X14484746Y9514897D01*
X14484746Y9514897D01*
G37*
G36*
X14838299Y9161344D02*
X15050431Y8949212D01*
X13989771Y7888552D01*
X13777639Y8100684D01*
X14838299Y9161344D01*
X14838299Y9161344D01*
G37*
G36*
X15191852Y8807790D02*
X15403984Y8595658D01*
X14343324Y7534998D01*
X14131192Y7747130D01*
X15191852Y8807790D01*
X15191852Y8807790D01*
G37*
G36*
X15545406Y8454237D02*
X15757538Y8242105D01*
X14696878Y7181445D01*
X14484746Y7393577D01*
X15545406Y8454237D01*
X15545406Y8454237D01*
G37*
D11*
X32500000Y9750000D03*
D12*
X30800000Y9750000D03*
X30800000Y7750000D03*
X32700000Y7750000D03*
D13*
X7700000Y8275000D03*
X7700000Y8925000D03*
X7700000Y9575000D03*
X7700000Y10225000D03*
X1800000Y10225000D03*
X1800000Y9575000D03*
X1800000Y8925000D03*
X1800000Y8275000D03*
D14*
X3500000Y3500000D03*
D15*
X26500000Y5950000D03*
X26500000Y4050000D03*
X22000000Y5950000D03*
X22000000Y4050000D03*
D16*
X41500000Y13125000D03*
X41500000Y7375000D03*
X45500000Y7375000D03*
X45500000Y13125000D03*
D17*
X58500000Y8000000D03*
X57000000Y8000000D03*
D18*
X24800000Y22000000D03*
X23400000Y22000000D03*
X24800000Y20700000D03*
X23400000Y20700000D03*
D19*
X45500000Y21500000D03*
X45500000Y20000000D03*
D20*
X58000000Y21500000D03*
X58000000Y20000000D03*
X60000000Y21500000D03*
X60000000Y20000000D03*
X56000000Y21500000D03*
X56000000Y20000000D03*
D21*
X62980000Y21420000D03*
D22*
X62980000Y18880000D03*
D23*
X29600000Y15300000D03*
X29600000Y16250000D03*
X29600000Y17200000D03*
X27400000Y17200000D03*
X27400000Y15300000D03*
D19*
X27500000Y13500000D03*
X27500000Y12000000D03*
X29500000Y13500000D03*
X29500000Y12000000D03*
D17*
X4250000Y19250000D03*
X5750000Y19250000D03*
D24*
X1250700Y19250000D03*
X2749300Y19250000D03*
D20*
X36000000Y13500000D03*
X36000000Y12000000D03*
X36000000Y15500000D03*
X36000000Y17000000D03*
D23*
X31900000Y17200000D03*
X31900000Y16250000D03*
X31900000Y15300000D03*
X34100000Y15300000D03*
X34100000Y17200000D03*
X34100000Y16250000D03*
D25*
X33950000Y13750760D03*
X32050000Y13750760D03*
X33000000Y11751780D03*
D26*
X15350000Y1575000D03*
X17650000Y1575000D03*
X17650000Y3425000D03*
X15350000Y3425000D03*
D27*
X55199960Y11349760D03*
X55199960Y12000000D03*
X55199960Y12650240D03*
X53300040Y12650240D03*
X53300040Y12000000D03*
X53300040Y11349760D03*
D17*
X27750000Y7750000D03*
X29250000Y7750000D03*
X4250000Y14500000D03*
X5750000Y14500000D03*
X4250000Y16500000D03*
X5750000Y16500000D03*
D20*
X60250000Y12750000D03*
X60250000Y11250000D03*
D28*
X57750000Y12700000D03*
X57750000Y9800000D03*
D20*
X60250000Y9250000D03*
X60250000Y7750000D03*
X39000000Y21250000D03*
X39000000Y19750000D03*
X55250000Y9250000D03*
X55250000Y7750000D03*
X53250000Y7750000D03*
X53250000Y9250000D03*
D17*
X4250000Y12250000D03*
X5750000Y12250000D03*
X1250000Y12250000D03*
X2750000Y12250000D03*
D14*
X3500000Y26500000D03*
X61500000Y26500000D03*
X61500000Y3500000D03*
D24*
X1250700Y14500000D03*
X2749300Y14500000D03*
X1250700Y16500000D03*
X2749300Y16500000D03*
D19*
X19500000Y3250000D03*
X19500000Y1750000D03*
X22000000Y2750000D03*
X22000000Y1250000D03*
X13500000Y1750000D03*
X13500000Y3250000D03*
X8000000Y15750000D03*
X8000000Y17250000D03*
X26500000Y2750000D03*
X26500000Y1250000D03*
X8000000Y12250000D03*
X8000000Y13750000D03*
X10250000Y9750000D03*
X10250000Y8250000D03*
D29*
X8000000Y19250000D03*
X9500000Y19250000D03*
D19*
X13500000Y6250000D03*
X13500000Y4750000D03*
D29*
X20150000Y22000000D03*
X21650000Y22000000D03*
X12650000Y21700000D03*
X11150000Y21700000D03*
X23350000Y19200000D03*
X24850000Y19200000D03*
D19*
X25500000Y12000000D03*
X25500000Y13500000D03*
D17*
X27750000Y9750000D03*
X29250000Y9750000D03*
D13*
X47800000Y21725000D03*
X47800000Y21075000D03*
X47800000Y20425000D03*
X47800000Y19775000D03*
X53700000Y19775000D03*
X53700000Y20425000D03*
X53700000Y21075000D03*
X53700000Y21725000D03*
D30*
X33699100Y4285389D03*
X34349100Y4285389D03*
X34999100Y4285389D03*
X35649100Y4285389D03*
X36299100Y4285389D03*
D31*
X30950000Y1572849D03*
X33800000Y1572849D03*
X36200000Y1572849D03*
X39050000Y1572849D03*
D32*
X39050000Y4122849D03*
X30950000Y4122849D03*
D33*
X51000000Y11500000D03*
X51000000Y8500000D03*
X48250000Y11500000D03*
X48250000Y8500000D03*
X28500000Y5000000D03*
X28500000Y2000000D03*
X11250000Y5000000D03*
X11250000Y2000000D03*
X24000000Y5000000D03*
X24000000Y2000000D03*
D21*
X62980000Y8720000D03*
D22*
X62980000Y11260000D03*
D34*
X8370000Y23920000D03*
X8370000Y29080000D03*
X10910000Y23920000D03*
X10910000Y29080000D03*
X13450000Y23920000D03*
X13450000Y29080000D03*
X15990000Y23920000D03*
X15990000Y29080000D03*
X18530000Y23920000D03*
X18530000Y29080000D03*
X21070000Y23920000D03*
X21070000Y29080000D03*
X23610000Y23920000D03*
X23610000Y29080000D03*
X26150000Y23920000D03*
X26150000Y29080000D03*
X28690000Y23920000D03*
X28690000Y29080000D03*
X31230000Y23920000D03*
X31230000Y29080000D03*
X33770000Y23920000D03*
X33770000Y29080000D03*
X36310000Y23920000D03*
X36310000Y29080000D03*
X38850000Y23920000D03*
X38850000Y29080000D03*
D35*
X8370000Y25230000D03*
X8370000Y27770000D03*
X10910000Y25230000D03*
X13450000Y25230000D03*
X15990000Y25230000D03*
X18530000Y25230000D03*
X21070000Y25230000D03*
X23610000Y25230000D03*
X26150000Y25230000D03*
X28690000Y25230000D03*
X31230000Y25230000D03*
X33770000Y25230000D03*
X36310000Y25230000D03*
X38850000Y25230000D03*
X10910000Y27770000D03*
X13450000Y27770000D03*
X15990000Y27770000D03*
X18530000Y27770000D03*
X21070000Y27770000D03*
X23610000Y27770000D03*
X26150000Y27770000D03*
X28690000Y27770000D03*
X31230000Y27770000D03*
X33770000Y27770000D03*
X36310000Y27770000D03*
X38850000Y27770000D03*
X41390000Y25230000D03*
X43930000Y25230000D03*
X46470000Y25230000D03*
X49010000Y25230000D03*
X51550000Y25230000D03*
X54090000Y25230000D03*
X56630000Y25230000D03*
X56630000Y27770000D03*
X54090000Y27770000D03*
X51550000Y27770000D03*
X49010000Y27770000D03*
X46470000Y27770000D03*
X43930000Y27770000D03*
X41390000Y27770000D03*
D34*
X41390000Y23920000D03*
X43930000Y23920000D03*
X46470000Y23920000D03*
X49010000Y23920000D03*
X51550000Y23920000D03*
X54090000Y23920000D03*
X56630000Y23920000D03*
X56630000Y29080000D03*
X54090000Y29080000D03*
X51550000Y29080000D03*
X49010000Y29080000D03*
X46470000Y29080000D03*
X43930000Y29080000D03*
X41390000Y29080000D03*
D36*
X14500000Y18200000D03*
X14500000Y14700000D03*
X30900000Y5300000D03*
X39100000Y5300000D03*
X32300000Y900000D03*
X32300000Y1600000D03*
X32300000Y2300000D03*
X37700000Y900000D03*
X37700000Y1600000D03*
X37700000Y2300000D03*
X40300000Y900000D03*
X40300000Y1600000D03*
X40300000Y2300000D03*
X39800000Y2900000D03*
X39100000Y2900000D03*
X38400000Y2900000D03*
X29700000Y900000D03*
X29700000Y1600000D03*
X29700000Y2300000D03*
X30900000Y2900000D03*
X31600000Y2900000D03*
X30200000Y2900000D03*
X56000000Y12200000D03*
X52720000Y10399000D03*
X11500000Y8600000D03*
X57000000Y6950000D03*
X55250000Y6950000D03*
X42750000Y6850000D03*
X51000000Y6900000D03*
X48250000Y6900000D03*
X21650000Y22000000D03*
X24200000Y18200000D03*
X17250000Y9250000D03*
X26000000Y10000000D03*
X24750000Y10000000D03*
X23500000Y10000000D03*
X21000000Y7500000D03*
X22250000Y7500000D03*
X23500000Y7500000D03*
X24750000Y7500000D03*
X26000000Y7500000D03*
X33500000Y7000000D03*
X37250000Y17000000D03*
X37250000Y12000000D03*
X36000000Y5750000D03*
X36000000Y7000000D03*
X36000000Y8250000D03*
X35000000Y9250000D03*
X34000000Y10250000D03*
X30500000Y12000000D03*
X26500000Y12000000D03*
X26500000Y13500000D03*
X19750000Y17250000D03*
X20250000Y12250000D03*
X9250000Y4000000D03*
X19500000Y4250000D03*
X49500000Y21750000D03*
X44250000Y20750000D03*
X6800000Y19600000D03*
X1200000Y11100000D03*
X8000000Y14700000D03*
X14000000Y22200000D03*
X12000000Y20700000D03*
X12500000Y12500000D03*
X21750000Y13500000D03*
X25500000Y1250000D03*
X15500000Y4500000D03*
X12500000Y4000000D03*
X9500000Y17500000D03*
X29600000Y16250000D03*
X20250000Y15250000D03*
X22000000Y5000000D03*
X26500000Y5000000D03*
X26000000Y15250000D03*
X15000000Y10250000D03*
X13500000Y13500000D03*
X13500000Y16500000D03*
X37750000Y21250000D03*
X37000000Y21250000D03*
X28500000Y22250000D03*
X32000000Y22500000D03*
X51000000Y19750000D03*
X51000000Y21000000D03*
X25400000Y21350000D03*
X32000000Y21350000D03*
X20800000Y20700000D03*
X17750000Y19250000D03*
D37*
X14500000Y14700000D02*
X11396699Y14700000D01*
X11396699Y14700000D02*
X10946699Y14250000D01*
X14500000Y14700000D02*
X18774874Y14700000D01*
X18774874Y14700000D02*
X20474874Y13000000D01*
X14493000Y11669000D02*
X14500000Y11676000D01*
X14500000Y11676000D02*
X14500000Y14700000D01*
X15722182Y10439818D02*
X14493000Y11669000D01*
X15722182Y8418881D02*
X15722182Y10439818D01*
X21767946Y11706928D02*
X20474874Y13000000D01*
X21767946Y11706928D02*
X22368986Y11105888D01*
X22368986Y11105888D02*
X22855888Y11105888D01*
X22855888Y11105888D02*
X23000000Y11250000D01*
X23000000Y11250000D02*
X24775000Y11250000D01*
X24775000Y11250000D02*
X25500000Y11975000D01*
X25500000Y11975000D02*
X25500000Y12000000D01*
X13500000Y6250000D02*
X13500000Y6225000D01*
X13500000Y6225000D02*
X12276140Y5001140D01*
X12276140Y5001140D02*
X12200570Y5001140D01*
X12200570Y5001140D02*
X11250000Y5001140D01*
X14500000Y18200000D02*
X14500000Y18974874D01*
X14500000Y18974874D02*
X13706928Y19767946D01*
X12650000Y21700000D02*
X12650000Y20824874D01*
X12650000Y20824874D02*
X13706928Y19767946D01*
X10946699Y14250000D02*
X9475000Y14250000D01*
X9475000Y14250000D02*
X8000000Y15725000D01*
X8000000Y15725000D02*
X8000000Y15750000D01*
X15722182Y8418881D02*
X15121142Y7817841D01*
X9817841Y13121142D02*
X10946699Y14250000D01*
X8000000Y15750000D02*
X8000000Y15775000D01*
X13500000Y6250000D02*
X13500000Y6275000D01*
X15042841Y7817841D02*
X15121142Y7817841D01*
X13500000Y6275000D02*
X15042841Y7817841D01*
D38*
X39100000Y5300000D02*
X39100000Y4172849D01*
X39100000Y4172849D02*
X39050000Y4122849D01*
X30900000Y5300000D02*
X30900000Y4172849D01*
X30900000Y4172849D02*
X30950000Y4122849D01*
X40300000Y1600000D02*
X40300000Y900000D01*
X40300000Y2300000D02*
X40300000Y1600000D01*
X39800000Y2900000D02*
X39800000Y2800000D01*
X39800000Y2800000D02*
X40300000Y2300000D01*
X30200000Y2900000D02*
X30200000Y2800000D01*
X30200000Y2800000D02*
X29700000Y2300000D01*
X39050000Y4122849D02*
X39050000Y2950000D01*
X39050000Y2950000D02*
X39100000Y2900000D01*
X39800000Y2900000D02*
X39100000Y2900000D01*
X39100000Y2900000D02*
X38400000Y2900000D01*
X38400000Y2900000D02*
X38300000Y2900000D01*
X38300000Y2900000D02*
X37700000Y2300000D01*
X37700000Y1600000D02*
X37700000Y2300000D01*
X37700000Y900000D02*
X37700000Y1600000D01*
X29700000Y1600000D02*
X29700000Y2000000D01*
X29700000Y2000000D02*
X29700000Y2300000D01*
X28500000Y1998860D02*
X29650570Y1998860D01*
X29650570Y1998860D02*
X29651710Y2000000D01*
X29651710Y2000000D02*
X29700000Y2000000D01*
X29700000Y900000D02*
X29700000Y1600000D01*
X32300000Y1600000D02*
X32300000Y900000D01*
X32300000Y2300000D02*
X32300000Y1600000D01*
X31600000Y2900000D02*
X31700000Y2900000D01*
X31700000Y2900000D02*
X32300000Y2300000D01*
X30900000Y2900000D02*
X31600000Y2900000D01*
X30900000Y2900000D02*
X30200000Y2900000D01*
X30950000Y4122849D02*
X30950000Y2950000D01*
X30950000Y2950000D02*
X30900000Y2900000D01*
D37*
X55199960Y12000000D02*
X55800000Y12000000D01*
X55800000Y12000000D02*
X56000000Y12200000D01*
X52593000Y11867610D02*
X52593000Y10526000D01*
X52593000Y10526000D02*
X52720000Y10399000D01*
X53300040Y12000000D02*
X52725390Y12000000D01*
X52725390Y12000000D02*
X52593000Y11867610D01*
D38*
X10250000Y8250000D02*
X11150000Y8250000D01*
X11150000Y8250000D02*
X11500000Y8600000D01*
X57000000Y8000000D02*
X57000000Y6950000D01*
X55250000Y7750000D02*
X55250000Y6950000D01*
X41500000Y7375000D02*
X42225000Y7375000D01*
X42225000Y7375000D02*
X42750000Y6850000D01*
X51000000Y8498860D02*
X51000000Y6900000D01*
X48250000Y8498860D02*
X48250000Y6900000D01*
X24850000Y19200000D02*
X24850000Y18850000D01*
X24850000Y18850000D02*
X24200000Y18200000D01*
D37*
X17878858Y7817841D02*
X17250000Y8446699D01*
X17250000Y8446699D02*
X17250000Y9250000D01*
D38*
X36000000Y17000000D02*
X37250000Y17000000D01*
X36000000Y12000000D02*
X37250000Y12000000D01*
X29500000Y12000000D02*
X30500000Y12000000D01*
X26500000Y12000000D02*
X27500000Y12000000D01*
X25500000Y13500000D02*
X26500000Y13500000D01*
D37*
X19743879Y18097432D02*
X19743879Y17256121D01*
X19743879Y17256121D02*
X19750000Y17250000D01*
X20250000Y11810660D02*
X20250000Y12250000D01*
X21060839Y10999821D02*
X20250000Y11810660D01*
X20517767Y12250000D02*
X20250000Y12250000D01*
X21414392Y11353375D02*
X20517767Y12250000D01*
D38*
X41500000Y7375000D02*
X41500000Y13125000D01*
X9250000Y2848290D02*
X9250000Y4000000D01*
X11250000Y1998860D02*
X10099430Y1998860D01*
X10099430Y1998860D02*
X9250000Y2848290D01*
X20250000Y1750000D02*
X20250000Y3909322D01*
X20250000Y3909322D02*
X19909322Y4250000D01*
X19909322Y4250000D02*
X19500000Y4250000D01*
X20750000Y1250000D02*
X20250000Y1750000D01*
X47800000Y21725000D02*
X49475000Y21725000D01*
X49475000Y21725000D02*
X49500000Y21750000D01*
X45500000Y20000000D02*
X45000000Y20000000D01*
X45000000Y20000000D02*
X44250000Y20750000D01*
X47800000Y19775000D02*
X45725000Y19775000D01*
X45725000Y19775000D02*
X45500000Y20000000D01*
X47800000Y20425000D02*
X47800000Y19775000D01*
X47800000Y21075000D02*
X47800000Y20425000D01*
X47800000Y21725000D02*
X47800000Y21075000D01*
X5750000Y19250000D02*
X6450000Y19250000D01*
X6450000Y19250000D02*
X6800000Y19600000D01*
D37*
X1800000Y10225000D02*
X1800000Y10500000D01*
X1800000Y10500000D02*
X1200000Y11100000D01*
D38*
X8000000Y13750000D02*
X8000000Y14700000D01*
D37*
X14414035Y20475052D02*
X13812995Y21076092D01*
X13812995Y21076092D02*
X13812995Y22012995D01*
X13812995Y22012995D02*
X14000000Y22200000D01*
D38*
X11150000Y21700000D02*
X11150000Y21550000D01*
X11150000Y21550000D02*
X12000000Y20700000D01*
X9500000Y17500000D02*
X9500000Y19250000D01*
D37*
X10524948Y12414035D02*
X11125988Y13015075D01*
X11125988Y13015075D02*
X11984925Y13015075D01*
X11984925Y13015075D02*
X12500000Y12500000D01*
X20353732Y18707285D02*
X19743879Y18097432D01*
X22828606Y12767588D02*
X22096194Y13500000D01*
X22096194Y13500000D02*
X21750000Y13500000D01*
D38*
X8000000Y17250000D02*
X9250000Y17250000D01*
X9250000Y17250000D02*
X9500000Y17500000D01*
X26500000Y1250000D02*
X27751140Y1250000D01*
X27751140Y1250000D02*
X28500000Y1998860D01*
X24000000Y1998860D02*
X24751140Y1998860D01*
X24751140Y1998860D02*
X25500000Y1250000D01*
X26500000Y1250000D02*
X25500000Y1250000D01*
X22000000Y1250000D02*
X23251140Y1250000D01*
X23251140Y1250000D02*
X24000000Y1998860D01*
X22000000Y1250000D02*
X20750000Y1250000D01*
X19500000Y1750000D02*
X20250000Y1750000D01*
X17650000Y1575000D02*
X19325000Y1575000D01*
X19325000Y1575000D02*
X19500000Y1750000D01*
X56630000Y25230000D02*
X56630000Y23920000D01*
X49010000Y27770000D02*
X49010000Y29080000D01*
X43930000Y27770000D02*
X43930000Y29080000D01*
X38850000Y25230000D02*
X38850000Y23920000D01*
X31230000Y27770000D02*
X31230000Y29080000D01*
X23610000Y27770000D02*
X23610000Y29080000D01*
X18530000Y25230000D02*
X18530000Y23920000D01*
X13450000Y29080000D02*
X13450000Y27770000D01*
D37*
X15350000Y3425000D02*
X15350000Y4350000D01*
X15350000Y4350000D02*
X15500000Y4500000D01*
X13500000Y3250000D02*
X15175000Y3250000D01*
X15175000Y3250000D02*
X15350000Y3425000D01*
X13500000Y4750000D02*
X13250000Y4750000D01*
X13250000Y4750000D02*
X12500000Y4000000D01*
X13500000Y3250000D02*
X13250000Y3250000D01*
X13250000Y3250000D02*
X12500000Y4000000D01*
X10171394Y16232412D02*
X9500000Y16903806D01*
X9500000Y16903806D02*
X9500000Y17500000D01*
X22121499Y16939518D02*
X20431981Y15250000D01*
X20431981Y15250000D02*
X20250000Y15250000D01*
D38*
X19000000Y21600000D02*
X19000000Y21650000D01*
X19000000Y21650000D02*
X19350000Y22000000D01*
X19350000Y22000000D02*
X20150000Y22000000D01*
D37*
X18767664Y21367664D02*
X19000000Y21600000D01*
X18232412Y20828606D02*
X18767664Y21363858D01*
X18767664Y21363858D02*
X18767664Y21367664D01*
X22722539Y17540558D02*
X22900000Y17718019D01*
D38*
X23350000Y18168019D02*
X22900000Y17718019D01*
D37*
X22121499Y16939518D02*
X22722539Y17540558D01*
D38*
X23350000Y18168019D02*
X23350000Y19200000D01*
X27500000Y13500000D02*
X27500000Y15200000D01*
X27500000Y15200000D02*
X27400000Y15300000D01*
X22000000Y5950000D02*
X22000000Y5000000D01*
X26500000Y5950000D02*
X26500000Y5000000D01*
D37*
X24062995Y11812995D02*
X24872599Y12622599D01*
X24872599Y12622599D02*
X24872599Y14122599D01*
X24872599Y14122599D02*
X25700001Y14950001D01*
X25700001Y14950001D02*
X26000000Y15250000D01*
X22475052Y12414035D02*
X23076092Y11812995D01*
X23076092Y11812995D02*
X24062995Y11812995D01*
D38*
X26000000Y15250000D02*
X27350000Y15250000D01*
X27350000Y15250000D02*
X27400000Y15300000D01*
D37*
X10171394Y12767588D02*
X9570354Y12166548D01*
X9570354Y12166548D02*
X8658452Y12166548D01*
X8658452Y12166548D02*
X8575000Y12250000D01*
X8575000Y12250000D02*
X8000000Y12250000D01*
X12292715Y10646268D02*
X11396447Y9750000D01*
X11396447Y9750000D02*
X10250000Y9750000D01*
D38*
X10900000Y19300000D02*
X10900000Y19039340D01*
D37*
X10900000Y19039340D02*
X11939161Y18000179D01*
D38*
X10000000Y20200000D02*
X10900000Y19300000D01*
X8975000Y20200000D02*
X10000000Y20200000D01*
X8000000Y19250000D02*
X8025000Y19250000D01*
X8025000Y19250000D02*
X8975000Y20200000D01*
X1250700Y18000000D02*
X6725000Y18000000D01*
X6725000Y18000000D02*
X7975000Y19250000D01*
X7975000Y19250000D02*
X8000000Y19250000D01*
D37*
X3000000Y10429322D02*
X3000000Y8550000D01*
X3000000Y8550000D02*
X2725000Y8275000D01*
X2725000Y8275000D02*
X1800000Y8275000D01*
X1250000Y12250000D02*
X1250000Y12179322D01*
X1250000Y12179322D02*
X3000000Y10429322D01*
X1250700Y14500000D02*
X1250700Y12250700D01*
X1250700Y12250700D02*
X1250000Y12250000D01*
X1250700Y16500000D02*
X1250700Y14746718D01*
X1250700Y14746718D02*
X1250700Y14500000D01*
D38*
X1250700Y18000000D02*
X1250700Y19250000D01*
X17000000Y19596194D02*
X13903806Y16500000D01*
D37*
X18232412Y20828606D02*
X17000000Y19596194D01*
D38*
X13500000Y11853553D02*
X13500000Y11750000D01*
X13500000Y11750000D02*
X15000000Y10250000D01*
X13500000Y13500000D02*
X13500000Y11853553D01*
D37*
X13500000Y11853553D02*
X12292715Y10646268D01*
D38*
X13903806Y16500000D02*
X13500000Y16500000D01*
X1250700Y16500000D02*
X1250700Y18000000D01*
D37*
X10171394Y12767588D02*
X10903806Y13500000D01*
D38*
X10903806Y13500000D02*
X13500000Y13500000D01*
X13500000Y16500000D02*
X13439340Y16500000D01*
D37*
X13439340Y16500000D02*
X11939161Y18000179D01*
D38*
X1250000Y14499300D02*
X1250700Y14500000D01*
D37*
X52085000Y8715000D02*
X52085000Y10092290D01*
X51000000Y11177290D02*
X51000000Y11501140D01*
X52085000Y10092290D02*
X51000000Y11177290D01*
X53250000Y7750000D02*
X53050000Y7750000D01*
X53050000Y7750000D02*
X52085000Y8715000D01*
X29600000Y15300000D02*
X28926398Y15300000D01*
X28926398Y15300000D02*
X28642999Y15583399D01*
X28642999Y15583399D02*
X28642999Y16916601D01*
X28642999Y16916601D02*
X28926398Y17200000D01*
X28926398Y17200000D02*
X29600000Y17200000D01*
X22750000Y10250000D02*
X22545228Y10045228D01*
X22545228Y10045228D02*
X21308325Y10045228D01*
X21308325Y10045228D02*
X20707285Y10646268D01*
D38*
X23250000Y10750000D02*
X22750000Y10250000D01*
X28250000Y10750000D02*
X23250000Y10750000D01*
X28500000Y10500000D02*
X28250000Y10750000D01*
X28500000Y10334322D02*
X28500000Y10500000D01*
X28500000Y5001140D02*
X28500000Y10334322D01*
X26500000Y4050000D02*
X27548860Y4050000D01*
X27548860Y4050000D02*
X28500000Y5001140D01*
X26500000Y2750000D02*
X26500000Y4050000D01*
D37*
X19750000Y7500000D02*
X19750000Y8068019D01*
X19750000Y8068019D02*
X18939518Y8878501D01*
D38*
X19750000Y5650000D02*
X19750000Y7500000D01*
X22000000Y4250000D02*
X21150000Y4250000D01*
X21150000Y4250000D02*
X19750000Y5650000D01*
X22000000Y4250000D02*
X22000000Y2750000D01*
X22000000Y4250000D02*
X23248860Y4250000D01*
X23248860Y4250000D02*
X24000000Y5001140D01*
X21800000Y4250000D02*
X22000000Y4250000D01*
D37*
X16747599Y4283520D02*
X18833452Y6369373D01*
X18833452Y6369373D02*
X18833452Y7570354D01*
X18833452Y7570354D02*
X18232412Y8171394D01*
X15475000Y1575000D02*
X16747599Y2847599D01*
X16747599Y2847599D02*
X16747599Y4283520D01*
X15350000Y1575000D02*
X13675000Y1575000D01*
X13675000Y1575000D02*
X13500000Y1750000D01*
X15350000Y1575000D02*
X15475000Y1575000D01*
X17650000Y3425000D02*
X19325000Y3425000D01*
X19325000Y3425000D02*
X19500000Y3250000D01*
X17500000Y4300000D02*
X17500000Y4537539D01*
X19187005Y7923908D02*
X18585965Y8524948D01*
X17500000Y4537539D02*
X19187005Y6224544D01*
X19187005Y6224544D02*
X19187005Y7923908D01*
X17650000Y3425000D02*
X17650000Y4150000D01*
X17650000Y4150000D02*
X17500000Y4300000D01*
X5750000Y15850000D02*
X5750000Y16500000D01*
X7000000Y14600000D02*
X5750000Y15850000D01*
X7000000Y12020678D02*
X7000000Y14600000D01*
X7965866Y11054812D02*
X7000000Y12020678D01*
X9072894Y10754812D02*
X8772894Y11054812D01*
X10987045Y10754812D02*
X9072894Y10754812D01*
X8772894Y11054812D02*
X7965866Y11054812D01*
X11585608Y11353375D02*
X10987045Y10754812D01*
X8626921Y10702401D02*
X8926921Y10402401D01*
X8926921Y10402401D02*
X11341741Y10402401D01*
X11341741Y10402401D02*
X11939161Y10999821D01*
X6600000Y14100000D02*
X6600000Y11922294D01*
X6600000Y11922294D02*
X7819893Y10702401D01*
X7819893Y10702401D02*
X8626921Y10702401D01*
X5750000Y14500000D02*
X6200000Y14500000D01*
X6200000Y14500000D02*
X6600000Y14100000D01*
D38*
X62980000Y8720000D02*
X61220000Y8720000D01*
X61220000Y8720000D02*
X60250000Y7750000D01*
D37*
X8370000Y25230000D02*
X8370000Y23920000D01*
D39*
X10910000Y29080000D02*
X10910000Y27770000D01*
X8370000Y29080000D02*
X8370000Y27770000D01*
D37*
X10910000Y25230000D02*
X10910000Y23920000D01*
X13450000Y25230000D02*
X13450000Y23920000D01*
X28500000Y22250000D02*
X28500000Y20250000D01*
X28500000Y20250000D02*
X24128858Y15878858D01*
X24128858Y15878858D02*
X23182159Y15878858D01*
X15990000Y25230000D02*
X15990000Y23920000D01*
X12999821Y19060839D02*
X12398781Y19661879D01*
X12398781Y19661879D02*
X11460415Y19661879D01*
X11460415Y19661879D02*
X10100000Y21022294D01*
X10100000Y21022294D02*
X10100000Y22377706D01*
X10100000Y22377706D02*
X10522294Y22800000D01*
X10522294Y22800000D02*
X11528822Y22800000D01*
X11528822Y22800000D02*
X12000000Y23271178D01*
X12000000Y23271178D02*
X12000000Y25761938D01*
X12000000Y25761938D02*
X12938062Y26700000D01*
X12938062Y26700000D02*
X14920000Y26700000D01*
X14920000Y26700000D02*
X15990000Y27770000D01*
X15990000Y29080000D02*
X15990000Y27770000D01*
X13353375Y19414392D02*
X12752335Y20015432D01*
X10497599Y22276921D02*
X10668267Y22447589D01*
X12752335Y20015432D02*
X11605246Y20015432D01*
X11605246Y20015432D02*
X10497599Y21123079D01*
X12447599Y23220393D02*
X12447599Y25711153D01*
X10497599Y21123079D02*
X10497599Y22276921D01*
X13084035Y26347589D02*
X17107589Y26347589D01*
X10668267Y22447589D02*
X11674795Y22447589D01*
X11674795Y22447589D02*
X12447599Y23220393D01*
X12447599Y25711153D02*
X13084035Y26347589D01*
X17107589Y26347589D02*
X18530000Y27770000D01*
X18530000Y29080000D02*
X18530000Y27770000D01*
X21070000Y25230000D02*
X21070000Y23920000D01*
X21070000Y27770000D02*
X21070000Y29080000D01*
X23076092Y17187005D02*
X24066327Y17187005D01*
X24066327Y17187005D02*
X26052401Y19173079D01*
X26052401Y19173079D02*
X26052401Y22122099D01*
X22475052Y16585965D02*
X23076092Y17187005D01*
X26052401Y22122099D02*
X24254500Y23920000D01*
X24254500Y23920000D02*
X23610000Y23920000D01*
X23610000Y25230000D02*
X23610000Y23920000D01*
X23610000Y24169340D02*
X23610000Y25230000D01*
X20300000Y26500000D02*
X24880000Y26500000D01*
X24880000Y26500000D02*
X26150000Y25230000D01*
X19800000Y26000000D02*
X20300000Y26500000D01*
X19800000Y23103301D02*
X19800000Y26000000D01*
X17878858Y21182159D02*
X19800000Y23103301D01*
X26150000Y25230000D02*
X26150000Y23920000D01*
X26150000Y27770000D02*
X26150000Y29080000D01*
X58000000Y21500000D02*
X60000000Y21500000D01*
X56000000Y21500000D02*
X58000000Y21500000D01*
X54850000Y21500000D02*
X56000000Y21500000D01*
X53700000Y21725000D02*
X54625000Y21725000D01*
X54625000Y21725000D02*
X54850000Y21500000D01*
X45500000Y21525000D02*
X46475000Y22500000D01*
X46475000Y22500000D02*
X52000000Y22500000D01*
X52000000Y22500000D02*
X52775000Y21725000D01*
X52775000Y21725000D02*
X53700000Y21725000D01*
X45500000Y21500000D02*
X45500000Y21525000D01*
X32000000Y22500000D02*
X44525000Y22500000D01*
X44525000Y22500000D02*
X45500000Y21525000D01*
X28690000Y25230000D02*
X28690000Y23920000D01*
X22828606Y16232412D02*
X23430789Y16834595D01*
X23430789Y16834595D02*
X24334595Y16834595D01*
X24334595Y16834595D02*
X27500000Y20000000D01*
X27500000Y20000000D02*
X27500000Y26580000D01*
X27500000Y26580000D02*
X28690000Y27770000D01*
X28690000Y27770000D02*
X28690000Y29080000D01*
X31230000Y25230000D02*
X31230000Y23920000D01*
X33770000Y25230000D02*
X33770000Y23920000D01*
X23182159Y13121142D02*
X23182159Y14291481D01*
X30000000Y21109322D02*
X30000000Y25445962D01*
X23182159Y14291481D02*
X30000000Y21109322D01*
X30000000Y25445962D02*
X31054038Y26500000D01*
X31054038Y26500000D02*
X32500000Y26500000D01*
X32500000Y26500000D02*
X33770000Y27770000D01*
X33770000Y27770000D02*
X33770000Y29080000D01*
X36310000Y25230000D02*
X36310000Y23920000D01*
X36310000Y27770000D02*
X36310000Y29080000D01*
X38850000Y27770000D02*
X38850000Y29080000D01*
X52225000Y19775000D02*
X51025000Y19775000D01*
X51025000Y19775000D02*
X51000000Y19750000D01*
X53700000Y19775000D02*
X52225000Y19775000D01*
X54975000Y19000000D02*
X58350000Y19000000D01*
X58350000Y19000000D02*
X59350000Y20000000D01*
X59350000Y20000000D02*
X60000000Y20000000D01*
X53700000Y19775000D02*
X54200000Y19775000D01*
X54200000Y19775000D02*
X54975000Y19000000D01*
X41390000Y25230000D02*
X41390000Y23920000D01*
X52479991Y20425000D02*
X51575000Y20425000D01*
X51575000Y20425000D02*
X51000000Y21000000D01*
X53700000Y20425000D02*
X52479991Y20425000D01*
X53700000Y20425000D02*
X54454322Y20425000D01*
X55381723Y19497599D02*
X56847599Y19497599D01*
X56847599Y19497599D02*
X57350000Y20000000D01*
X54454322Y20425000D02*
X55381723Y19497599D01*
X57350000Y20000000D02*
X58000000Y20000000D01*
X41390000Y27770000D02*
X41390000Y29080000D01*
X43930000Y25230000D02*
X43930000Y23920000D01*
X46470000Y25230000D02*
X46470000Y23920000D01*
X46470000Y27770000D02*
X46470000Y29080000D01*
X49010000Y25230000D02*
X49010000Y23920000D01*
X51550000Y25230000D02*
X51550000Y23920000D01*
X51550000Y27770000D02*
X51550000Y29080000D01*
X54090000Y25230000D02*
X54090000Y23920000D01*
X54090000Y27770000D02*
X54090000Y29080000D01*
X56630000Y27770000D02*
X56630000Y29080000D01*
X4250000Y12250000D02*
X4250000Y11600000D01*
X4250000Y11600000D02*
X6275000Y9575000D01*
X6275000Y9575000D02*
X6775000Y9575000D01*
X6775000Y9575000D02*
X7700000Y9575000D01*
X2750000Y12250000D02*
X4250000Y12250000D01*
X9252411Y8997589D02*
X8675000Y9575000D01*
X8675000Y9575000D02*
X7700000Y9575000D01*
X9252411Y8997589D02*
X9250000Y9000000D01*
X9252411Y8018267D02*
X9252411Y8997589D01*
X9673079Y7597599D02*
X9252411Y8018267D01*
X11499215Y7597599D02*
X9673079Y7597599D01*
X11851625Y7950009D02*
X11499215Y7597599D01*
X13131991Y7950010D02*
X11851625Y7950009D01*
X14060482Y8878501D02*
X13131991Y7950010D01*
X5750000Y12250000D02*
X5750000Y11675000D01*
X5750000Y11675000D02*
X7200000Y10225000D01*
X7200000Y10225000D02*
X7700000Y10225000D01*
X53300040Y11349760D02*
X53874690Y11349760D01*
X54250000Y11725070D02*
X54250000Y13187000D01*
X53874690Y11349760D02*
X54250000Y11725070D01*
X54250000Y13187000D02*
X53736000Y13701000D01*
X53736000Y13701000D02*
X52749000Y13701000D01*
X49952401Y16497599D02*
X44002401Y16497599D01*
X44002401Y16497599D02*
X40000000Y20500000D01*
X52749000Y13701000D02*
X49952401Y16497599D01*
X40000000Y20500000D02*
X35950000Y20500000D01*
X35950000Y20500000D02*
X35100000Y21350000D01*
X35100000Y21350000D02*
X32000000Y21350000D01*
X25400000Y21350000D02*
X25400000Y21300000D01*
X25400000Y21300000D02*
X24800000Y20700000D01*
X25400000Y21350000D02*
X25400000Y21400000D01*
X25400000Y21400000D02*
X24800000Y22000000D01*
X53250000Y9250000D02*
X53900000Y9250000D01*
X54250000Y8900000D02*
X54250000Y7400000D01*
X53900000Y9250000D02*
X54250000Y8900000D01*
X54250000Y7400000D02*
X52950000Y6100000D01*
X52950000Y6100000D02*
X47475000Y6100000D01*
X47475000Y6100000D02*
X46200000Y7375000D01*
X46200000Y7375000D02*
X45500000Y7375000D01*
X55250000Y9250000D02*
X53250000Y9250000D01*
X53300040Y11349760D02*
X53300040Y9300040D01*
X53300040Y9300040D02*
X53250000Y9250000D01*
X45500000Y13125000D02*
X45500000Y11550000D01*
X45500000Y11550000D02*
X45500000Y7375000D01*
D38*
X58500000Y8000000D02*
X58500000Y9050000D01*
X58500000Y9050000D02*
X58300000Y9250000D01*
D37*
X55936531Y11348209D02*
X55934980Y11349760D01*
D38*
X55934980Y11349760D02*
X55199960Y11349760D01*
D39*
X56198209Y11348209D02*
X55936531Y11348209D01*
X56200000Y11350000D02*
X56198209Y11348209D01*
X56850000Y10700000D02*
X56200000Y11350000D01*
X57750000Y9800000D02*
X56850000Y10700000D01*
D38*
X60250000Y9250000D02*
X58300000Y9250000D01*
X58300000Y9250000D02*
X57750000Y9800000D01*
D37*
X13796194Y7200000D02*
X12098382Y7200000D01*
X12098382Y7200000D02*
X11791160Y6892778D01*
X14767588Y8171394D02*
X13796194Y7200000D01*
X11791160Y6892778D02*
X8657222Y6892778D01*
X8657222Y6892778D02*
X7700000Y7850000D01*
X7700000Y7850000D02*
X7700000Y8275000D01*
X8900000Y7800000D02*
X8900000Y8650000D01*
X8900000Y8650000D02*
X8625000Y8925000D01*
X8625000Y8925000D02*
X7700000Y8925000D01*
X9454812Y7245188D02*
X8900000Y7800000D01*
X11997599Y7597599D02*
X11645187Y7245188D01*
X11645187Y7245188D02*
X9454812Y7245188D01*
X13486686Y7597599D02*
X11997599Y7597599D01*
X14414035Y8524948D02*
X13486686Y7597599D01*
X2749300Y16500000D02*
X4250000Y16500000D01*
X2749300Y14500000D02*
X4250000Y14500000D01*
D39*
X33000000Y11751780D02*
X34548220Y11751780D01*
X34548220Y11751780D02*
X35200000Y11100000D01*
X35200000Y11100000D02*
X38700000Y11100000D01*
X38700000Y11100000D02*
X39400000Y10400000D01*
X39400000Y10400000D02*
X39400000Y7300000D01*
X37777401Y5677401D02*
X39400000Y7300000D01*
D38*
X34009489Y2900000D02*
X36991705Y2900000D01*
X36991705Y2900000D02*
X37777401Y3685696D01*
X37777401Y3685696D02*
X37777401Y5677401D01*
X33699100Y4285389D02*
X33699100Y3210389D01*
X33699100Y3210389D02*
X34009489Y2900000D01*
D37*
X33000000Y11751780D02*
X33000000Y16830000D01*
X33000000Y16830000D02*
X32630000Y17200000D01*
X32630000Y17200000D02*
X31900000Y17200000D01*
D38*
X33699100Y5500900D02*
X32700000Y6500000D01*
X32700000Y6500000D02*
X32700000Y6850000D01*
X33699100Y5324711D02*
X33699100Y5500900D01*
X33699100Y5324711D02*
X33699100Y4285389D01*
X32700000Y7750000D02*
X32700000Y6850000D01*
D37*
X33950000Y13750760D02*
X33950000Y15150000D01*
X33950000Y15150000D02*
X34100000Y15300000D01*
X36000000Y13500000D02*
X34200760Y13500000D01*
X34200760Y13500000D02*
X33950000Y13750760D01*
X34100000Y17200000D02*
X34100000Y16250000D01*
X36000000Y15500000D02*
X35800000Y15500000D01*
X35800000Y15500000D02*
X35050000Y16250000D01*
X35050000Y16250000D02*
X34830000Y16250000D01*
X34830000Y16250000D02*
X34100000Y16250000D01*
D40*
X29250000Y7750000D02*
X30800000Y7750000D01*
X33405312Y8521400D02*
X34445500Y7481212D01*
X31250000Y7750000D02*
X32021400Y8521400D01*
X30800000Y7750000D02*
X31250000Y7750000D01*
X32021400Y8521400D02*
X33405312Y8521400D01*
X34349100Y4285389D02*
X34349100Y5297889D01*
X34349100Y5297889D02*
X34445500Y5394289D01*
X34445500Y5394289D02*
X34445500Y7481212D01*
X29250000Y9750000D02*
X30800000Y9750000D01*
X30800000Y9750000D02*
X31250000Y9750000D01*
X31250000Y9750000D02*
X32021400Y8978600D01*
X32021400Y8978600D02*
X33594688Y8978600D01*
X33594688Y8978600D02*
X34902700Y7670588D01*
X34999100Y4285389D02*
X34999100Y5297889D01*
X34999100Y5297889D02*
X34902700Y5394289D01*
X34902700Y5394289D02*
X34902700Y7670588D01*
X27750000Y7750000D02*
X27075000Y7750000D01*
X27075000Y7750000D02*
X26303600Y8521400D01*
X26303600Y8521400D02*
X21448204Y8521400D01*
X21448204Y8521400D02*
X20030443Y9939161D01*
X20030443Y9939161D02*
X20000179Y9939161D01*
X27750000Y9750000D02*
X27075000Y9750000D01*
X27075000Y9750000D02*
X26303600Y8978600D01*
X26303600Y8978600D02*
X21637582Y8978600D01*
X21637582Y8978600D02*
X20353732Y10262450D01*
X20353732Y10262450D02*
X20353732Y10292715D01*
D37*
X2749300Y19250000D02*
X4250000Y19250000D01*
X22200000Y20100000D02*
X22800000Y20700000D01*
X22800000Y20700000D02*
X23400000Y20700000D01*
X20600000Y20100000D02*
X22200000Y20100000D01*
X20396802Y20303198D02*
X20600000Y20100000D01*
X19293072Y19767946D02*
X19828324Y20303198D01*
X19828324Y20303198D02*
X20396802Y20303198D01*
X17750000Y19250000D02*
X14360000Y15860000D01*
X12186648Y17045585D02*
X11585608Y17646625D01*
X14360000Y15860000D02*
X13322446Y15860000D01*
X13322446Y15860000D02*
X12186648Y16995798D01*
X12186648Y16995798D02*
X12186648Y17045585D01*
X20800000Y20700000D02*
X22150000Y20700000D01*
X22150000Y20700000D02*
X22600000Y21150000D01*
X22600000Y21700000D02*
X22900000Y22000000D01*
X22900000Y22000000D02*
X23400000Y22000000D01*
X22600000Y21150000D02*
X22600000Y21700000D01*
X57400000Y20750000D02*
X61094000Y20750000D01*
X61094000Y20750000D02*
X61764000Y21420000D01*
X61764000Y21420000D02*
X62980000Y21420000D01*
X56000000Y20000000D02*
X56650000Y20000000D01*
X56650000Y20000000D02*
X57400000Y20750000D01*
X56000000Y20000000D02*
X55800000Y20000000D01*
X55800000Y20000000D02*
X54725000Y21075000D01*
X54725000Y21075000D02*
X54625000Y21075000D01*
X54625000Y21075000D02*
X53700000Y21075000D01*
D38*
X62980000Y11260000D02*
X60260000Y11260000D01*
X60260000Y11260000D02*
X60250000Y11250000D01*
D41*
G36*
X61679127Y20404000D02*
X61698609Y20300461D01*
X61759801Y20205366D01*
X61853168Y20141571D01*
X61964000Y20119127D01*
X62380287Y20119127D01*
X62249643Y20070877D01*
X61849509Y19700731D01*
X61621482Y19205636D01*
X61600278Y19099033D01*
X61678250Y18880500D01*
X62979500Y18880500D01*
X62979500Y18900500D01*
X62980500Y18900500D01*
X62980500Y18880500D01*
X63000500Y18880500D01*
X63000500Y18879500D01*
X62980500Y18879500D01*
X62980500Y17578250D01*
X63199033Y17500278D01*
X63710357Y17689123D01*
X64110491Y18059269D01*
X64338518Y18554364D01*
X64359722Y18660967D01*
X64281751Y18879498D01*
X64373000Y18879498D01*
X64373000Y5134389D01*
X64281761Y5355204D01*
X63360056Y6278519D01*
X62155175Y6778829D01*
X60850549Y6779968D01*
X59644796Y6281761D01*
X58721481Y5360056D01*
X58221171Y4155175D01*
X58220032Y2850549D01*
X58718239Y1644796D01*
X59639944Y721481D01*
X59867480Y627000D01*
X30552606Y627000D01*
X29877000Y1302606D01*
X29877000Y5750000D01*
X29866994Y5799410D01*
X29839803Y5839803D01*
X29089803Y6589803D01*
X29047789Y6617666D01*
X29000000Y6627000D01*
X28979400Y6627000D01*
X28979400Y7019299D01*
X29000000Y7015127D01*
X29500000Y7015127D01*
X29603539Y7034609D01*
X29698634Y7095801D01*
X29762429Y7189168D01*
X29784873Y7300000D01*
X29784873Y7318200D01*
X30302794Y7318200D01*
X30345801Y7251366D01*
X30439168Y7187571D01*
X30550000Y7165127D01*
X31050000Y7165127D01*
X31153539Y7184609D01*
X31248634Y7245801D01*
X31305668Y7329273D01*
X31415243Y7351069D01*
X31555329Y7444671D01*
X31555330Y7444672D01*
X32166262Y8055605D01*
X32165127Y8050000D01*
X32165127Y7450000D01*
X32184609Y7346461D01*
X32220600Y7290529D01*
X32220600Y6500000D01*
X32257092Y6316541D01*
X32361013Y6161013D01*
X33219700Y5302326D01*
X33219700Y4987416D01*
X33214227Y4960389D01*
X33214227Y4584256D01*
X33050745Y4652140D01*
X32800354Y4652358D01*
X32568939Y4556740D01*
X32391732Y4379841D01*
X32295709Y4148594D01*
X32295491Y3898203D01*
X32391109Y3666788D01*
X32568008Y3489581D01*
X32799255Y3393558D01*
X33049646Y3393340D01*
X33219700Y3463604D01*
X33219700Y3210389D01*
X33256192Y3026930D01*
X33360113Y2871402D01*
X33670502Y2561013D01*
X33826031Y2457092D01*
X34009489Y2420600D01*
X36991705Y2420600D01*
X37175164Y2457092D01*
X37330692Y2561013D01*
X38116388Y3346709D01*
X38220309Y3502237D01*
X38256801Y3685696D01*
X38256801Y5337405D01*
X39623000Y6703605D01*
X39623000Y3750000D01*
X39633006Y3700590D01*
X39660197Y3660197D01*
X40410197Y2910197D01*
X40452211Y2882334D01*
X40501754Y2873012D01*
X40551022Y2883700D01*
X40592249Y2912713D01*
X40618941Y2955480D01*
X40627000Y3000000D01*
X40627000Y5904900D01*
X40677004Y5784180D01*
X40784181Y5677004D01*
X40924215Y5619000D01*
X41404250Y5619000D01*
X41499500Y5714250D01*
X41499500Y7374500D01*
X41500500Y7374500D01*
X41500500Y5714250D01*
X41595750Y5619000D01*
X42075785Y5619000D01*
X42215819Y5677004D01*
X42322996Y5784180D01*
X42381000Y5924214D01*
X42381000Y7279250D01*
X42285750Y7374500D01*
X41500500Y7374500D01*
X41499500Y7374500D01*
X41479500Y7374500D01*
X41479500Y7375500D01*
X41499500Y7375500D01*
X41499500Y9035750D01*
X41500500Y9035750D01*
X41500500Y7375500D01*
X42285750Y7375500D01*
X42381000Y7470750D01*
X42381000Y8825786D01*
X42322996Y8965820D01*
X42215819Y9072996D01*
X42075785Y9131000D01*
X41595750Y9131000D01*
X41500500Y9035750D01*
X41499500Y9035750D01*
X41404250Y9131000D01*
X40924215Y9131000D01*
X40784181Y9072996D01*
X40677004Y8965820D01*
X40627000Y8845100D01*
X40627000Y9619000D01*
X45120600Y9619000D01*
X45120600Y9034873D01*
X45000000Y9034873D01*
X44896461Y9015391D01*
X44801366Y8954199D01*
X44737571Y8860832D01*
X44715127Y8750000D01*
X44715127Y6000000D01*
X44734609Y5896461D01*
X44795801Y5801366D01*
X44889168Y5737571D01*
X45000000Y5715127D01*
X46000000Y5715127D01*
X46103539Y5734609D01*
X46198634Y5795801D01*
X46262429Y5889168D01*
X46284873Y6000000D01*
X46284873Y6753575D01*
X47206723Y5831724D01*
X47329810Y5749480D01*
X47475000Y5720600D01*
X52950000Y5720600D01*
X53095190Y5749480D01*
X53218276Y5831724D01*
X54518277Y7131724D01*
X54562811Y7198374D01*
X54584181Y7177004D01*
X54724215Y7119000D01*
X55154250Y7119000D01*
X55249500Y7214250D01*
X55249500Y7749500D01*
X55250500Y7749500D01*
X55250500Y7214250D01*
X55345750Y7119000D01*
X55775785Y7119000D01*
X55915819Y7177004D01*
X56022996Y7284180D01*
X56081000Y7424214D01*
X56081000Y7654250D01*
X55985750Y7749500D01*
X55250500Y7749500D01*
X55249500Y7749500D01*
X55229500Y7749500D01*
X55229500Y7750500D01*
X55249500Y7750500D01*
X55249500Y8285750D01*
X55250500Y8285750D01*
X55250500Y7750500D01*
X55985750Y7750500D01*
X56081000Y7845750D01*
X56081000Y7904250D01*
X56369000Y7904250D01*
X56369000Y7474215D01*
X56427004Y7334181D01*
X56534180Y7227004D01*
X56674214Y7169000D01*
X56904250Y7169000D01*
X56999500Y7264250D01*
X56999500Y7999500D01*
X57000500Y7999500D01*
X57000500Y7264250D01*
X57095750Y7169000D01*
X57325786Y7169000D01*
X57465820Y7227004D01*
X57572996Y7334181D01*
X57631000Y7474215D01*
X57631000Y7904250D01*
X57535750Y7999500D01*
X57000500Y7999500D01*
X56999500Y7999500D01*
X56464250Y7999500D01*
X56369000Y7904250D01*
X56081000Y7904250D01*
X56081000Y8075786D01*
X56022996Y8215820D01*
X55915819Y8322996D01*
X55775785Y8381000D01*
X55345750Y8381000D01*
X55250500Y8285750D01*
X55249500Y8285750D01*
X55154250Y8381000D01*
X54724215Y8381000D01*
X54629400Y8341726D01*
X54629400Y8525785D01*
X56369000Y8525785D01*
X56369000Y8095750D01*
X56464250Y8000500D01*
X56999500Y8000500D01*
X56999500Y8735750D01*
X57000500Y8735750D01*
X57000500Y8000500D01*
X57535750Y8000500D01*
X57631000Y8095750D01*
X57631000Y8525785D01*
X57572996Y8665819D01*
X57465820Y8772996D01*
X57325786Y8831000D01*
X57095750Y8831000D01*
X57000500Y8735750D01*
X56999500Y8735750D01*
X56904250Y8831000D01*
X56674214Y8831000D01*
X56534180Y8772996D01*
X56427004Y8665819D01*
X56369000Y8525785D01*
X54629400Y8525785D01*
X54629400Y8778409D01*
X54689168Y8737571D01*
X54800000Y8715127D01*
X55700000Y8715127D01*
X55803539Y8734609D01*
X55898634Y8795801D01*
X55962429Y8889168D01*
X55984873Y9000000D01*
X55984873Y9500000D01*
X55965391Y9603539D01*
X55904199Y9698634D01*
X55810832Y9762429D01*
X55700000Y9784873D01*
X54800000Y9784873D01*
X54696461Y9765391D01*
X54601366Y9704199D01*
X54550258Y9629400D01*
X53948750Y9629400D01*
X53904199Y9698634D01*
X53810832Y9762429D01*
X53772922Y9770106D01*
X54513408Y10510592D01*
X54594249Y10630045D01*
X54624995Y10778126D01*
X54625833Y10948510D01*
X54714478Y10887941D01*
X54825310Y10865497D01*
X55574610Y10865497D01*
X55600455Y10870360D01*
X55628828Y10870360D01*
X55714804Y10812913D01*
X55936531Y10768809D01*
X55961795Y10768809D01*
X56615127Y10115477D01*
X56615127Y9350000D01*
X56634609Y9246461D01*
X56695801Y9151366D01*
X56789168Y9087571D01*
X56900000Y9065127D01*
X57806899Y9065127D01*
X58020600Y8851426D01*
X58020600Y8609172D01*
X57987571Y8560832D01*
X57965127Y8450000D01*
X57965127Y7550000D01*
X57984609Y7446461D01*
X58045801Y7351366D01*
X58139168Y7287571D01*
X58250000Y7265127D01*
X58750000Y7265127D01*
X58853539Y7284609D01*
X58948634Y7345801D01*
X59012429Y7439168D01*
X59034873Y7550000D01*
X59034873Y8450000D01*
X59015391Y8553539D01*
X58979400Y8609471D01*
X58979400Y8770600D01*
X59640828Y8770600D01*
X59689168Y8737571D01*
X59800000Y8715127D01*
X60537153Y8715127D01*
X60106899Y8284873D01*
X59800000Y8284873D01*
X59696461Y8265391D01*
X59601366Y8204199D01*
X59537571Y8110832D01*
X59515127Y8000000D01*
X59515127Y7500000D01*
X59534609Y7396461D01*
X59595801Y7301366D01*
X59689168Y7237571D01*
X59800000Y7215127D01*
X60700000Y7215127D01*
X60803539Y7234609D01*
X60898634Y7295801D01*
X60962429Y7389168D01*
X60984873Y7500000D01*
X60984873Y7806899D01*
X61418574Y8240600D01*
X61679127Y8240600D01*
X61679127Y7704000D01*
X61698609Y7600461D01*
X61759801Y7505366D01*
X61853168Y7441571D01*
X61964000Y7419127D01*
X63996000Y7419127D01*
X64099539Y7438609D01*
X64194634Y7499801D01*
X64258429Y7593168D01*
X64280873Y7704000D01*
X64280873Y9736000D01*
X64261391Y9839539D01*
X64200199Y9934634D01*
X64106832Y9998429D01*
X63996000Y10020873D01*
X63288283Y10020873D01*
X63501106Y10063206D01*
X63921364Y10344014D01*
X64202172Y10764272D01*
X64300778Y11260000D01*
X64202172Y11755728D01*
X63921364Y12175986D01*
X63501106Y12456794D01*
X63005378Y12555400D01*
X62954622Y12555400D01*
X62458894Y12456794D01*
X62038636Y12175986D01*
X61757828Y11755728D01*
X61754580Y11739400D01*
X60844536Y11739400D01*
X60810832Y11762429D01*
X60700000Y11784873D01*
X60573689Y11784873D01*
X61269408Y12480592D01*
X61350983Y12601770D01*
X61381000Y12750000D01*
X61381000Y18500000D01*
X61352997Y18643367D01*
X61341325Y18660967D01*
X61600278Y18660967D01*
X61621482Y18554364D01*
X61849509Y18059269D01*
X62249643Y17689123D01*
X62760967Y17500278D01*
X62979500Y17578250D01*
X62979500Y18879500D01*
X61678250Y18879500D01*
X61600278Y18660967D01*
X61341325Y18660967D01*
X61269408Y18769408D01*
X60553945Y19484871D01*
X60648634Y19545801D01*
X60712429Y19639168D01*
X60734873Y19750000D01*
X60734873Y20250000D01*
X60715391Y20353539D01*
X60704413Y20370600D01*
X61094000Y20370600D01*
X61239190Y20399480D01*
X61362276Y20481724D01*
X61679127Y20798575D01*
X61679127Y20404000D01*
X61679127Y20404000D01*
G37*
X61679127Y20404000D02*
X61698609Y20300461D01*
X61759801Y20205366D01*
X61853168Y20141571D01*
X61964000Y20119127D01*
X62380287Y20119127D01*
X62249643Y20070877D01*
X61849509Y19700731D01*
X61621482Y19205636D01*
X61600278Y19099033D01*
X61678250Y18880500D01*
X62979500Y18880500D01*
X62979500Y18900500D01*
X62980500Y18900500D01*
X62980500Y18880500D01*
X63000500Y18880500D01*
X63000500Y18879500D01*
X62980500Y18879500D01*
X62980500Y17578250D01*
X63199033Y17500278D01*
X63710357Y17689123D01*
X64110491Y18059269D01*
X64338518Y18554364D01*
X64359722Y18660967D01*
X64281751Y18879498D01*
X64373000Y18879498D01*
X64373000Y5134389D01*
X64281761Y5355204D01*
X63360056Y6278519D01*
X62155175Y6778829D01*
X60850549Y6779968D01*
X59644796Y6281761D01*
X58721481Y5360056D01*
X58221171Y4155175D01*
X58220032Y2850549D01*
X58718239Y1644796D01*
X59639944Y721481D01*
X59867480Y627000D01*
X30552606Y627000D01*
X29877000Y1302606D01*
X29877000Y5750000D01*
X29866994Y5799410D01*
X29839803Y5839803D01*
X29089803Y6589803D01*
X29047789Y6617666D01*
X29000000Y6627000D01*
X28979400Y6627000D01*
X28979400Y7019299D01*
X29000000Y7015127D01*
X29500000Y7015127D01*
X29603539Y7034609D01*
X29698634Y7095801D01*
X29762429Y7189168D01*
X29784873Y7300000D01*
X29784873Y7318200D01*
X30302794Y7318200D01*
X30345801Y7251366D01*
X30439168Y7187571D01*
X30550000Y7165127D01*
X31050000Y7165127D01*
X31153539Y7184609D01*
X31248634Y7245801D01*
X31305668Y7329273D01*
X31415243Y7351069D01*
X31555329Y7444671D01*
X31555330Y7444672D01*
X32166262Y8055605D01*
X32165127Y8050000D01*
X32165127Y7450000D01*
X32184609Y7346461D01*
X32220600Y7290529D01*
X32220600Y6500000D01*
X32257092Y6316541D01*
X32361013Y6161013D01*
X33219700Y5302326D01*
X33219700Y4987416D01*
X33214227Y4960389D01*
X33214227Y4584256D01*
X33050745Y4652140D01*
X32800354Y4652358D01*
X32568939Y4556740D01*
X32391732Y4379841D01*
X32295709Y4148594D01*
X32295491Y3898203D01*
X32391109Y3666788D01*
X32568008Y3489581D01*
X32799255Y3393558D01*
X33049646Y3393340D01*
X33219700Y3463604D01*
X33219700Y3210389D01*
X33256192Y3026930D01*
X33360113Y2871402D01*
X33670502Y2561013D01*
X33826031Y2457092D01*
X34009489Y2420600D01*
X36991705Y2420600D01*
X37175164Y2457092D01*
X37330692Y2561013D01*
X38116388Y3346709D01*
X38220309Y3502237D01*
X38256801Y3685696D01*
X38256801Y5337405D01*
X39623000Y6703605D01*
X39623000Y3750000D01*
X39633006Y3700590D01*
X39660197Y3660197D01*
X40410197Y2910197D01*
X40452211Y2882334D01*
X40501754Y2873012D01*
X40551022Y2883700D01*
X40592249Y2912713D01*
X40618941Y2955480D01*
X40627000Y3000000D01*
X40627000Y5904900D01*
X40677004Y5784180D01*
X40784181Y5677004D01*
X40924215Y5619000D01*
X41404250Y5619000D01*
X41499500Y5714250D01*
X41499500Y7374500D01*
X41500500Y7374500D01*
X41500500Y5714250D01*
X41595750Y5619000D01*
X42075785Y5619000D01*
X42215819Y5677004D01*
X42322996Y5784180D01*
X42381000Y5924214D01*
X42381000Y7279250D01*
X42285750Y7374500D01*
X41500500Y7374500D01*
X41499500Y7374500D01*
X41479500Y7374500D01*
X41479500Y7375500D01*
X41499500Y7375500D01*
X41499500Y9035750D01*
X41500500Y9035750D01*
X41500500Y7375500D01*
X42285750Y7375500D01*
X42381000Y7470750D01*
X42381000Y8825786D01*
X42322996Y8965820D01*
X42215819Y9072996D01*
X42075785Y9131000D01*
X41595750Y9131000D01*
X41500500Y9035750D01*
X41499500Y9035750D01*
X41404250Y9131000D01*
X40924215Y9131000D01*
X40784181Y9072996D01*
X40677004Y8965820D01*
X40627000Y8845100D01*
X40627000Y9619000D01*
X45120600Y9619000D01*
X45120600Y9034873D01*
X45000000Y9034873D01*
X44896461Y9015391D01*
X44801366Y8954199D01*
X44737571Y8860832D01*
X44715127Y8750000D01*
X44715127Y6000000D01*
X44734609Y5896461D01*
X44795801Y5801366D01*
X44889168Y5737571D01*
X45000000Y5715127D01*
X46000000Y5715127D01*
X46103539Y5734609D01*
X46198634Y5795801D01*
X46262429Y5889168D01*
X46284873Y6000000D01*
X46284873Y6753575D01*
X47206723Y5831724D01*
X47329810Y5749480D01*
X47475000Y5720600D01*
X52950000Y5720600D01*
X53095190Y5749480D01*
X53218276Y5831724D01*
X54518277Y7131724D01*
X54562811Y7198374D01*
X54584181Y7177004D01*
X54724215Y7119000D01*
X55154250Y7119000D01*
X55249500Y7214250D01*
X55249500Y7749500D01*
X55250500Y7749500D01*
X55250500Y7214250D01*
X55345750Y7119000D01*
X55775785Y7119000D01*
X55915819Y7177004D01*
X56022996Y7284180D01*
X56081000Y7424214D01*
X56081000Y7654250D01*
X55985750Y7749500D01*
X55250500Y7749500D01*
X55249500Y7749500D01*
X55229500Y7749500D01*
X55229500Y7750500D01*
X55249500Y7750500D01*
X55249500Y8285750D01*
X55250500Y8285750D01*
X55250500Y7750500D01*
X55985750Y7750500D01*
X56081000Y7845750D01*
X56081000Y7904250D01*
X56369000Y7904250D01*
X56369000Y7474215D01*
X56427004Y7334181D01*
X56534180Y7227004D01*
X56674214Y7169000D01*
X56904250Y7169000D01*
X56999500Y7264250D01*
X56999500Y7999500D01*
X57000500Y7999500D01*
X57000500Y7264250D01*
X57095750Y7169000D01*
X57325786Y7169000D01*
X57465820Y7227004D01*
X57572996Y7334181D01*
X57631000Y7474215D01*
X57631000Y7904250D01*
X57535750Y7999500D01*
X57000500Y7999500D01*
X56999500Y7999500D01*
X56464250Y7999500D01*
X56369000Y7904250D01*
X56081000Y7904250D01*
X56081000Y8075786D01*
X56022996Y8215820D01*
X55915819Y8322996D01*
X55775785Y8381000D01*
X55345750Y8381000D01*
X55250500Y8285750D01*
X55249500Y8285750D01*
X55154250Y8381000D01*
X54724215Y8381000D01*
X54629400Y8341726D01*
X54629400Y8525785D01*
X56369000Y8525785D01*
X56369000Y8095750D01*
X56464250Y8000500D01*
X56999500Y8000500D01*
X56999500Y8735750D01*
X57000500Y8735750D01*
X57000500Y8000500D01*
X57535750Y8000500D01*
X57631000Y8095750D01*
X57631000Y8525785D01*
X57572996Y8665819D01*
X57465820Y8772996D01*
X57325786Y8831000D01*
X57095750Y8831000D01*
X57000500Y8735750D01*
X56999500Y8735750D01*
X56904250Y8831000D01*
X56674214Y8831000D01*
X56534180Y8772996D01*
X56427004Y8665819D01*
X56369000Y8525785D01*
X54629400Y8525785D01*
X54629400Y8778409D01*
X54689168Y8737571D01*
X54800000Y8715127D01*
X55700000Y8715127D01*
X55803539Y8734609D01*
X55898634Y8795801D01*
X55962429Y8889168D01*
X55984873Y9000000D01*
X55984873Y9500000D01*
X55965391Y9603539D01*
X55904199Y9698634D01*
X55810832Y9762429D01*
X55700000Y9784873D01*
X54800000Y9784873D01*
X54696461Y9765391D01*
X54601366Y9704199D01*
X54550258Y9629400D01*
X53948750Y9629400D01*
X53904199Y9698634D01*
X53810832Y9762429D01*
X53772922Y9770106D01*
X54513408Y10510592D01*
X54594249Y10630045D01*
X54624995Y10778126D01*
X54625833Y10948510D01*
X54714478Y10887941D01*
X54825310Y10865497D01*
X55574610Y10865497D01*
X55600455Y10870360D01*
X55628828Y10870360D01*
X55714804Y10812913D01*
X55936531Y10768809D01*
X55961795Y10768809D01*
X56615127Y10115477D01*
X56615127Y9350000D01*
X56634609Y9246461D01*
X56695801Y9151366D01*
X56789168Y9087571D01*
X56900000Y9065127D01*
X57806899Y9065127D01*
X58020600Y8851426D01*
X58020600Y8609172D01*
X57987571Y8560832D01*
X57965127Y8450000D01*
X57965127Y7550000D01*
X57984609Y7446461D01*
X58045801Y7351366D01*
X58139168Y7287571D01*
X58250000Y7265127D01*
X58750000Y7265127D01*
X58853539Y7284609D01*
X58948634Y7345801D01*
X59012429Y7439168D01*
X59034873Y7550000D01*
X59034873Y8450000D01*
X59015391Y8553539D01*
X58979400Y8609471D01*
X58979400Y8770600D01*
X59640828Y8770600D01*
X59689168Y8737571D01*
X59800000Y8715127D01*
X60537153Y8715127D01*
X60106899Y8284873D01*
X59800000Y8284873D01*
X59696461Y8265391D01*
X59601366Y8204199D01*
X59537571Y8110832D01*
X59515127Y8000000D01*
X59515127Y7500000D01*
X59534609Y7396461D01*
X59595801Y7301366D01*
X59689168Y7237571D01*
X59800000Y7215127D01*
X60700000Y7215127D01*
X60803539Y7234609D01*
X60898634Y7295801D01*
X60962429Y7389168D01*
X60984873Y7500000D01*
X60984873Y7806899D01*
X61418574Y8240600D01*
X61679127Y8240600D01*
X61679127Y7704000D01*
X61698609Y7600461D01*
X61759801Y7505366D01*
X61853168Y7441571D01*
X61964000Y7419127D01*
X63996000Y7419127D01*
X64099539Y7438609D01*
X64194634Y7499801D01*
X64258429Y7593168D01*
X64280873Y7704000D01*
X64280873Y9736000D01*
X64261391Y9839539D01*
X64200199Y9934634D01*
X64106832Y9998429D01*
X63996000Y10020873D01*
X63288283Y10020873D01*
X63501106Y10063206D01*
X63921364Y10344014D01*
X64202172Y10764272D01*
X64300778Y11260000D01*
X64202172Y11755728D01*
X63921364Y12175986D01*
X63501106Y12456794D01*
X63005378Y12555400D01*
X62954622Y12555400D01*
X62458894Y12456794D01*
X62038636Y12175986D01*
X61757828Y11755728D01*
X61754580Y11739400D01*
X60844536Y11739400D01*
X60810832Y11762429D01*
X60700000Y11784873D01*
X60573689Y11784873D01*
X61269408Y12480592D01*
X61350983Y12601770D01*
X61381000Y12750000D01*
X61381000Y18500000D01*
X61352997Y18643367D01*
X61341325Y18660967D01*
X61600278Y18660967D01*
X61621482Y18554364D01*
X61849509Y18059269D01*
X62249643Y17689123D01*
X62760967Y17500278D01*
X62979500Y17578250D01*
X62979500Y18879500D01*
X61678250Y18879500D01*
X61600278Y18660967D01*
X61341325Y18660967D01*
X61269408Y18769408D01*
X60553945Y19484871D01*
X60648634Y19545801D01*
X60712429Y19639168D01*
X60734873Y19750000D01*
X60734873Y20250000D01*
X60715391Y20353539D01*
X60704413Y20370600D01*
X61094000Y20370600D01*
X61239190Y20399480D01*
X61362276Y20481724D01*
X61679127Y20798575D01*
X61679127Y20404000D01*
G36*
X28230592Y11980592D02*
X28730592Y11480592D01*
X28774240Y11451209D01*
X28802004Y11384180D01*
X28909181Y11277004D01*
X29049215Y11219000D01*
X29404250Y11219000D01*
X29499500Y11314250D01*
X29499500Y11369000D01*
X29500500Y11369000D01*
X29500500Y11314250D01*
X29595750Y11219000D01*
X29950785Y11219000D01*
X30090819Y11277004D01*
X30182816Y11369000D01*
X32315077Y11369000D01*
X32315077Y11351730D01*
X32334559Y11248191D01*
X32395751Y11153096D01*
X32489118Y11089301D01*
X32599950Y11066857D01*
X33400050Y11066857D01*
X33503589Y11086339D01*
X33598684Y11147531D01*
X33615663Y11172380D01*
X34308224Y11172380D01*
X34790302Y10690302D01*
X34978273Y10564704D01*
X35200000Y10520600D01*
X38460004Y10520600D01*
X38820600Y10160005D01*
X38820600Y7539995D01*
X37367703Y6087099D01*
X37242105Y5899128D01*
X37198001Y5677401D01*
X37242105Y5455674D01*
X37298001Y5372020D01*
X37298001Y4611755D01*
X37200745Y4652140D01*
X36950354Y4652358D01*
X36880100Y4623330D01*
X36880100Y5036175D01*
X36822096Y5176209D01*
X36714919Y5283385D01*
X36574885Y5341389D01*
X36394850Y5341389D01*
X36299600Y5246139D01*
X36299600Y4285889D01*
X36319600Y4285889D01*
X36319600Y4284889D01*
X36299600Y4284889D01*
X36299600Y4264889D01*
X36298600Y4264889D01*
X36298600Y4284889D01*
X36278600Y4284889D01*
X36278600Y4285889D01*
X36298600Y4285889D01*
X36298600Y5246139D01*
X36203350Y5341389D01*
X36023315Y5341389D01*
X35883281Y5283385D01*
X35845158Y5245262D01*
X35449100Y5245262D01*
X35430900Y5241837D01*
X35430900Y5297889D01*
X35398031Y5463132D01*
X35334500Y5558213D01*
X35334500Y7670588D01*
X35301631Y7835831D01*
X35208029Y7975917D01*
X35208026Y7975919D01*
X33900017Y9283929D01*
X33875905Y9300040D01*
X33759931Y9377531D01*
X33594688Y9410400D01*
X33331000Y9410400D01*
X33331000Y9654250D01*
X33235750Y9749500D01*
X32500500Y9749500D01*
X32500500Y9729500D01*
X32499500Y9729500D01*
X32499500Y9749500D01*
X32479500Y9749500D01*
X32479500Y9750500D01*
X32499500Y9750500D01*
X32499500Y10335750D01*
X32500500Y10335750D01*
X32500500Y9750500D01*
X33235750Y9750500D01*
X33331000Y9845750D01*
X33331000Y10125785D01*
X33272996Y10265819D01*
X33165820Y10372996D01*
X33025786Y10431000D01*
X32595750Y10431000D01*
X32500500Y10335750D01*
X32499500Y10335750D01*
X32404250Y10431000D01*
X31974214Y10431000D01*
X31834180Y10372996D01*
X31727004Y10265819D01*
X31669000Y10125785D01*
X31669000Y9941658D01*
X31555329Y10055329D01*
X31512017Y10084269D01*
X31415243Y10148931D01*
X31304135Y10171032D01*
X31254199Y10248634D01*
X31160832Y10312429D01*
X31050000Y10334873D01*
X30550000Y10334873D01*
X30446461Y10315391D01*
X30351366Y10254199D01*
X30301898Y10181800D01*
X29784873Y10181800D01*
X29784873Y10200000D01*
X29765391Y10303539D01*
X29704199Y10398634D01*
X29610832Y10462429D01*
X29500000Y10484873D01*
X29000000Y10484873D01*
X28979400Y10480997D01*
X28979400Y10500000D01*
X28942908Y10683458D01*
X28838987Y10838987D01*
X28588987Y11088987D01*
X28433459Y11192908D01*
X28250000Y11229400D01*
X27975893Y11229400D01*
X28090819Y11277004D01*
X28197996Y11384180D01*
X28256000Y11524214D01*
X28256000Y11904250D01*
X28160752Y11999498D01*
X28218054Y11999498D01*
X28230592Y11980592D01*
X28230592Y11980592D01*
G37*
X28230592Y11980592D02*
X28730592Y11480592D01*
X28774240Y11451209D01*
X28802004Y11384180D01*
X28909181Y11277004D01*
X29049215Y11219000D01*
X29404250Y11219000D01*
X29499500Y11314250D01*
X29499500Y11369000D01*
X29500500Y11369000D01*
X29500500Y11314250D01*
X29595750Y11219000D01*
X29950785Y11219000D01*
X30090819Y11277004D01*
X30182816Y11369000D01*
X32315077Y11369000D01*
X32315077Y11351730D01*
X32334559Y11248191D01*
X32395751Y11153096D01*
X32489118Y11089301D01*
X32599950Y11066857D01*
X33400050Y11066857D01*
X33503589Y11086339D01*
X33598684Y11147531D01*
X33615663Y11172380D01*
X34308224Y11172380D01*
X34790302Y10690302D01*
X34978273Y10564704D01*
X35200000Y10520600D01*
X38460004Y10520600D01*
X38820600Y10160005D01*
X38820600Y7539995D01*
X37367703Y6087099D01*
X37242105Y5899128D01*
X37198001Y5677401D01*
X37242105Y5455674D01*
X37298001Y5372020D01*
X37298001Y4611755D01*
X37200745Y4652140D01*
X36950354Y4652358D01*
X36880100Y4623330D01*
X36880100Y5036175D01*
X36822096Y5176209D01*
X36714919Y5283385D01*
X36574885Y5341389D01*
X36394850Y5341389D01*
X36299600Y5246139D01*
X36299600Y4285889D01*
X36319600Y4285889D01*
X36319600Y4284889D01*
X36299600Y4284889D01*
X36299600Y4264889D01*
X36298600Y4264889D01*
X36298600Y4284889D01*
X36278600Y4284889D01*
X36278600Y4285889D01*
X36298600Y4285889D01*
X36298600Y5246139D01*
X36203350Y5341389D01*
X36023315Y5341389D01*
X35883281Y5283385D01*
X35845158Y5245262D01*
X35449100Y5245262D01*
X35430900Y5241837D01*
X35430900Y5297889D01*
X35398031Y5463132D01*
X35334500Y5558213D01*
X35334500Y7670588D01*
X35301631Y7835831D01*
X35208029Y7975917D01*
X35208026Y7975919D01*
X33900017Y9283929D01*
X33875905Y9300040D01*
X33759931Y9377531D01*
X33594688Y9410400D01*
X33331000Y9410400D01*
X33331000Y9654250D01*
X33235750Y9749500D01*
X32500500Y9749500D01*
X32500500Y9729500D01*
X32499500Y9729500D01*
X32499500Y9749500D01*
X32479500Y9749500D01*
X32479500Y9750500D01*
X32499500Y9750500D01*
X32499500Y10335750D01*
X32500500Y10335750D01*
X32500500Y9750500D01*
X33235750Y9750500D01*
X33331000Y9845750D01*
X33331000Y10125785D01*
X33272996Y10265819D01*
X33165820Y10372996D01*
X33025786Y10431000D01*
X32595750Y10431000D01*
X32500500Y10335750D01*
X32499500Y10335750D01*
X32404250Y10431000D01*
X31974214Y10431000D01*
X31834180Y10372996D01*
X31727004Y10265819D01*
X31669000Y10125785D01*
X31669000Y9941658D01*
X31555329Y10055329D01*
X31512017Y10084269D01*
X31415243Y10148931D01*
X31304135Y10171032D01*
X31254199Y10248634D01*
X31160832Y10312429D01*
X31050000Y10334873D01*
X30550000Y10334873D01*
X30446461Y10315391D01*
X30351366Y10254199D01*
X30301898Y10181800D01*
X29784873Y10181800D01*
X29784873Y10200000D01*
X29765391Y10303539D01*
X29704199Y10398634D01*
X29610832Y10462429D01*
X29500000Y10484873D01*
X29000000Y10484873D01*
X28979400Y10480997D01*
X28979400Y10500000D01*
X28942908Y10683458D01*
X28838987Y10838987D01*
X28588987Y11088987D01*
X28433459Y11192908D01*
X28250000Y11229400D01*
X27975893Y11229400D01*
X28090819Y11277004D01*
X28197996Y11384180D01*
X28256000Y11524214D01*
X28256000Y11904250D01*
X28160752Y11999498D01*
X28218054Y11999498D01*
X28230592Y11980592D01*
G36*
X34013700Y7302354D02*
X34013700Y5864274D01*
X33179400Y6698574D01*
X33179400Y7290828D01*
X33212429Y7339168D01*
X33234873Y7450000D01*
X33234873Y8050000D01*
X33227646Y8088408D01*
X34013700Y7302354D01*
X34013700Y7302354D01*
G37*
X34013700Y7302354D02*
X34013700Y5864274D01*
X33179400Y6698574D01*
X33179400Y7290828D01*
X33212429Y7339168D01*
X33234873Y7450000D01*
X33234873Y8050000D01*
X33227646Y8088408D01*
X34013700Y7302354D01*
G36*
X51705600Y9381000D02*
X51095750Y9381000D01*
X51000500Y9285750D01*
X51000500Y8500500D01*
X51020500Y8500500D01*
X51020500Y8499500D01*
X51000500Y8499500D01*
X51000500Y7714250D01*
X51095750Y7619000D01*
X51875785Y7619000D01*
X52015819Y7677004D01*
X52122996Y7784180D01*
X52181000Y7924214D01*
X52181000Y8082448D01*
X52515127Y7748321D01*
X52515127Y7500000D01*
X52534609Y7396461D01*
X52595801Y7301366D01*
X52689168Y7237571D01*
X52800000Y7215127D01*
X53528574Y7215127D01*
X52792848Y6479400D01*
X47632153Y6479400D01*
X46468276Y7643276D01*
X46345190Y7725520D01*
X46284873Y7737518D01*
X46284873Y8404250D01*
X47069000Y8404250D01*
X47069000Y7924214D01*
X47127004Y7784180D01*
X47234181Y7677004D01*
X47374215Y7619000D01*
X48154250Y7619000D01*
X48249500Y7714250D01*
X48249500Y8499500D01*
X48250500Y8499500D01*
X48250500Y7714250D01*
X48345750Y7619000D01*
X49125785Y7619000D01*
X49265819Y7677004D01*
X49372996Y7784180D01*
X49431000Y7924214D01*
X49431000Y8404250D01*
X49819000Y8404250D01*
X49819000Y7924214D01*
X49877004Y7784180D01*
X49984181Y7677004D01*
X50124215Y7619000D01*
X50904250Y7619000D01*
X50999500Y7714250D01*
X50999500Y8499500D01*
X49914250Y8499500D01*
X49819000Y8404250D01*
X49431000Y8404250D01*
X49335750Y8499500D01*
X48250500Y8499500D01*
X48249500Y8499500D01*
X47164250Y8499500D01*
X47069000Y8404250D01*
X46284873Y8404250D01*
X46284873Y8750000D01*
X46265391Y8853539D01*
X46204199Y8948634D01*
X46110832Y9012429D01*
X46000000Y9034873D01*
X45879400Y9034873D01*
X45879400Y9075786D01*
X47069000Y9075786D01*
X47069000Y8595750D01*
X47164250Y8500500D01*
X48249500Y8500500D01*
X48249500Y9285750D01*
X48250500Y9285750D01*
X48250500Y8500500D01*
X49335750Y8500500D01*
X49431000Y8595750D01*
X49431000Y9075786D01*
X49819000Y9075786D01*
X49819000Y8595750D01*
X49914250Y8500500D01*
X50999500Y8500500D01*
X50999500Y9285750D01*
X50904250Y9381000D01*
X50124215Y9381000D01*
X49984181Y9322996D01*
X49877004Y9215820D01*
X49819000Y9075786D01*
X49431000Y9075786D01*
X49372996Y9215820D01*
X49265819Y9322996D01*
X49125785Y9381000D01*
X48345750Y9381000D01*
X48250500Y9285750D01*
X48249500Y9285750D01*
X48154250Y9381000D01*
X47374215Y9381000D01*
X47234181Y9322996D01*
X47127004Y9215820D01*
X47069000Y9075786D01*
X45879400Y9075786D01*
X45879400Y9619000D01*
X51000000Y9619000D01*
X51002763Y9619010D01*
X51705600Y9624107D01*
X51705600Y9381000D01*
X51705600Y9381000D01*
G37*
X51705600Y9381000D02*
X51095750Y9381000D01*
X51000500Y9285750D01*
X51000500Y8500500D01*
X51020500Y8500500D01*
X51020500Y8499500D01*
X51000500Y8499500D01*
X51000500Y7714250D01*
X51095750Y7619000D01*
X51875785Y7619000D01*
X52015819Y7677004D01*
X52122996Y7784180D01*
X52181000Y7924214D01*
X52181000Y8082448D01*
X52515127Y7748321D01*
X52515127Y7500000D01*
X52534609Y7396461D01*
X52595801Y7301366D01*
X52689168Y7237571D01*
X52800000Y7215127D01*
X53528574Y7215127D01*
X52792848Y6479400D01*
X47632153Y6479400D01*
X46468276Y7643276D01*
X46345190Y7725520D01*
X46284873Y7737518D01*
X46284873Y8404250D01*
X47069000Y8404250D01*
X47069000Y7924214D01*
X47127004Y7784180D01*
X47234181Y7677004D01*
X47374215Y7619000D01*
X48154250Y7619000D01*
X48249500Y7714250D01*
X48249500Y8499500D01*
X48250500Y8499500D01*
X48250500Y7714250D01*
X48345750Y7619000D01*
X49125785Y7619000D01*
X49265819Y7677004D01*
X49372996Y7784180D01*
X49431000Y7924214D01*
X49431000Y8404250D01*
X49819000Y8404250D01*
X49819000Y7924214D01*
X49877004Y7784180D01*
X49984181Y7677004D01*
X50124215Y7619000D01*
X50904250Y7619000D01*
X50999500Y7714250D01*
X50999500Y8499500D01*
X49914250Y8499500D01*
X49819000Y8404250D01*
X49431000Y8404250D01*
X49335750Y8499500D01*
X48250500Y8499500D01*
X48249500Y8499500D01*
X47164250Y8499500D01*
X47069000Y8404250D01*
X46284873Y8404250D01*
X46284873Y8750000D01*
X46265391Y8853539D01*
X46204199Y8948634D01*
X46110832Y9012429D01*
X46000000Y9034873D01*
X45879400Y9034873D01*
X45879400Y9075786D01*
X47069000Y9075786D01*
X47069000Y8595750D01*
X47164250Y8500500D01*
X48249500Y8500500D01*
X48249500Y9285750D01*
X48250500Y9285750D01*
X48250500Y8500500D01*
X49335750Y8500500D01*
X49431000Y8595750D01*
X49431000Y9075786D01*
X49819000Y9075786D01*
X49819000Y8595750D01*
X49914250Y8500500D01*
X50999500Y8500500D01*
X50999500Y9285750D01*
X50904250Y9381000D01*
X50124215Y9381000D01*
X49984181Y9322996D01*
X49877004Y9215820D01*
X49819000Y9075786D01*
X49431000Y9075786D01*
X49372996Y9215820D01*
X49265819Y9322996D01*
X49125785Y9381000D01*
X48345750Y9381000D01*
X48250500Y9285750D01*
X48249500Y9285750D01*
X48154250Y9381000D01*
X47374215Y9381000D01*
X47234181Y9322996D01*
X47127004Y9215820D01*
X47069000Y9075786D01*
X45879400Y9075786D01*
X45879400Y9619000D01*
X51000000Y9619000D01*
X51002763Y9619010D01*
X51705600Y9624107D01*
X51705600Y9381000D01*
G36*
X20699932Y12238390D02*
X20667131Y12205590D01*
X20682360Y12220818D01*
X20682360Y12086114D01*
X20778760Y11989714D01*
X20776346Y11990714D01*
X20681653Y12085407D01*
X20546949Y12085407D01*
X20557291Y12095750D01*
X20455000Y11993459D01*
X20444969Y11969243D01*
X20420755Y11959213D01*
X20313578Y11852036D01*
X20328807Y11867264D01*
X20328807Y11732560D01*
X20423499Y11637868D01*
X20424499Y11635454D01*
X20328100Y11731853D01*
X20193396Y11731853D01*
X20208624Y11747082D01*
X20101447Y11639905D01*
X20043443Y11499871D01*
X20043443Y11445958D01*
X19869453Y11271968D01*
X19810016Y11184978D01*
X19810001Y11184908D01*
X19728032Y11130547D01*
X19515900Y10918415D01*
X19456463Y10831425D01*
X19456448Y10831354D01*
X19374479Y10776993D01*
X19162347Y10564861D01*
X19102910Y10477871D01*
X19102895Y10477802D01*
X19020925Y10423440D01*
X18846935Y10249450D01*
X18793022Y10249450D01*
X18652988Y10191446D01*
X18545811Y10084269D01*
X18561040Y10099497D01*
X18561040Y9964793D01*
X19293072Y9232761D01*
X19307215Y9246903D01*
X19307922Y9246196D01*
X19293779Y9232054D01*
X20025811Y8500022D01*
X20160515Y8500022D01*
X20145367Y8484873D01*
X20252464Y8591970D01*
X20310468Y8732004D01*
X20310468Y8785919D01*
X20441748Y8917198D01*
X21142875Y8216071D01*
X21282961Y8122469D01*
X21310377Y8117015D01*
X21448204Y8089599D01*
X21448209Y8089600D01*
X26124742Y8089600D01*
X26769669Y7444674D01*
X26769671Y7444671D01*
X26874690Y7374500D01*
X26909757Y7351069D01*
X27075000Y7318200D01*
X27215127Y7318200D01*
X27215127Y7300000D01*
X27234609Y7196461D01*
X27295801Y7101366D01*
X27389168Y7037571D01*
X27500000Y7015127D01*
X28000000Y7015127D01*
X28020600Y7019003D01*
X28020600Y6627000D01*
X20229400Y6627000D01*
X20229400Y7500000D01*
X20192908Y7683458D01*
X20129400Y7778505D01*
X20129400Y8068019D01*
X20100520Y8213209D01*
X20098608Y8216071D01*
X20018277Y8336295D01*
X20007533Y8347039D01*
X20040333Y8379839D01*
X20025104Y8364611D01*
X20025104Y8499315D01*
X19293072Y9231347D01*
X19278930Y9217204D01*
X19278223Y9217911D01*
X19292365Y9232054D01*
X18560333Y9964086D01*
X18425629Y9964086D01*
X18440857Y9979315D01*
X18333680Y9872138D01*
X18275676Y9732104D01*
X18275676Y9678191D01*
X18101686Y9504201D01*
X18042249Y9417211D01*
X18042234Y9417141D01*
X17960265Y9362780D01*
X17748133Y9150648D01*
X17688696Y9063658D01*
X17688681Y9063587D01*
X17606712Y9009226D01*
X17432723Y8835237D01*
X17378808Y8835237D01*
X17238774Y8777233D01*
X17131597Y8670056D01*
X17146826Y8685284D01*
X17146826Y8550580D01*
X17878858Y7818548D01*
X17893001Y7832690D01*
X17893708Y7831983D01*
X17879565Y7817841D01*
X17893708Y7803698D01*
X17893001Y7802991D01*
X17878858Y7817134D01*
X17571090Y7509366D01*
X17571090Y7374662D01*
X18087303Y6858448D01*
X18227337Y6800444D01*
X18378908Y6800445D01*
X18454052Y6831571D01*
X18454052Y6627000D01*
X18052606Y6627000D01*
X16513286Y8166320D01*
X16861461Y8166320D01*
X16919465Y8026286D01*
X17435679Y7510073D01*
X17570383Y7510073D01*
X17878151Y7817841D01*
X17146119Y8549873D01*
X17011415Y8549873D01*
X17022373Y8560832D01*
X16919466Y8457925D01*
X16861462Y8317891D01*
X16861461Y8166320D01*
X16513286Y8166320D01*
X16101582Y8578024D01*
X16101582Y10439818D01*
X16072702Y10585008D01*
X15990458Y10708094D01*
X14879400Y11819152D01*
X14879400Y13123000D01*
X19815322Y13123000D01*
X20699932Y12238390D01*
X20699932Y12238390D01*
G37*
X20699932Y12238390D02*
X20667131Y12205590D01*
X20682360Y12220818D01*
X20682360Y12086114D01*
X20778760Y11989714D01*
X20776346Y11990714D01*
X20681653Y12085407D01*
X20546949Y12085407D01*
X20557291Y12095750D01*
X20455000Y11993459D01*
X20444969Y11969243D01*
X20420755Y11959213D01*
X20313578Y11852036D01*
X20328807Y11867264D01*
X20328807Y11732560D01*
X20423499Y11637868D01*
X20424499Y11635454D01*
X20328100Y11731853D01*
X20193396Y11731853D01*
X20208624Y11747082D01*
X20101447Y11639905D01*
X20043443Y11499871D01*
X20043443Y11445958D01*
X19869453Y11271968D01*
X19810016Y11184978D01*
X19810001Y11184908D01*
X19728032Y11130547D01*
X19515900Y10918415D01*
X19456463Y10831425D01*
X19456448Y10831354D01*
X19374479Y10776993D01*
X19162347Y10564861D01*
X19102910Y10477871D01*
X19102895Y10477802D01*
X19020925Y10423440D01*
X18846935Y10249450D01*
X18793022Y10249450D01*
X18652988Y10191446D01*
X18545811Y10084269D01*
X18561040Y10099497D01*
X18561040Y9964793D01*
X19293072Y9232761D01*
X19307215Y9246903D01*
X19307922Y9246196D01*
X19293779Y9232054D01*
X20025811Y8500022D01*
X20160515Y8500022D01*
X20145367Y8484873D01*
X20252464Y8591970D01*
X20310468Y8732004D01*
X20310468Y8785919D01*
X20441748Y8917198D01*
X21142875Y8216071D01*
X21282961Y8122469D01*
X21310377Y8117015D01*
X21448204Y8089599D01*
X21448209Y8089600D01*
X26124742Y8089600D01*
X26769669Y7444674D01*
X26769671Y7444671D01*
X26874690Y7374500D01*
X26909757Y7351069D01*
X27075000Y7318200D01*
X27215127Y7318200D01*
X27215127Y7300000D01*
X27234609Y7196461D01*
X27295801Y7101366D01*
X27389168Y7037571D01*
X27500000Y7015127D01*
X28000000Y7015127D01*
X28020600Y7019003D01*
X28020600Y6627000D01*
X20229400Y6627000D01*
X20229400Y7500000D01*
X20192908Y7683458D01*
X20129400Y7778505D01*
X20129400Y8068019D01*
X20100520Y8213209D01*
X20098608Y8216071D01*
X20018277Y8336295D01*
X20007533Y8347039D01*
X20040333Y8379839D01*
X20025104Y8364611D01*
X20025104Y8499315D01*
X19293072Y9231347D01*
X19278930Y9217204D01*
X19278223Y9217911D01*
X19292365Y9232054D01*
X18560333Y9964086D01*
X18425629Y9964086D01*
X18440857Y9979315D01*
X18333680Y9872138D01*
X18275676Y9732104D01*
X18275676Y9678191D01*
X18101686Y9504201D01*
X18042249Y9417211D01*
X18042234Y9417141D01*
X17960265Y9362780D01*
X17748133Y9150648D01*
X17688696Y9063658D01*
X17688681Y9063587D01*
X17606712Y9009226D01*
X17432723Y8835237D01*
X17378808Y8835237D01*
X17238774Y8777233D01*
X17131597Y8670056D01*
X17146826Y8685284D01*
X17146826Y8550580D01*
X17878858Y7818548D01*
X17893001Y7832690D01*
X17893708Y7831983D01*
X17879565Y7817841D01*
X17893708Y7803698D01*
X17893001Y7802991D01*
X17878858Y7817134D01*
X17571090Y7509366D01*
X17571090Y7374662D01*
X18087303Y6858448D01*
X18227337Y6800444D01*
X18378908Y6800445D01*
X18454052Y6831571D01*
X18454052Y6627000D01*
X18052606Y6627000D01*
X16513286Y8166320D01*
X16861461Y8166320D01*
X16919465Y8026286D01*
X17435679Y7510073D01*
X17570383Y7510073D01*
X17878151Y7817841D01*
X17146119Y8549873D01*
X17011415Y8549873D01*
X17022373Y8560832D01*
X16919466Y8457925D01*
X16861462Y8317891D01*
X16861461Y8166320D01*
X16513286Y8166320D01*
X16101582Y8578024D01*
X16101582Y10439818D01*
X16072702Y10585008D01*
X15990458Y10708094D01*
X14879400Y11819152D01*
X14879400Y13123000D01*
X19815322Y13123000D01*
X20699932Y12238390D01*
G36*
X27215127Y10200000D02*
X27215127Y10181800D01*
X27075000Y10181800D01*
X26909757Y10148931D01*
X26769671Y10055329D01*
X26769669Y10055326D01*
X26124742Y9410400D01*
X21816440Y9410400D01*
X21561012Y9665828D01*
X22545228Y9665828D01*
X22690418Y9694708D01*
X22813504Y9776952D01*
X22821343Y9784791D01*
X22933459Y9807092D01*
X23088987Y9911013D01*
X23448574Y10270600D01*
X27229424Y10270600D01*
X27215127Y10200000D01*
X27215127Y10200000D01*
G37*
X27215127Y10200000D02*
X27215127Y10181800D01*
X27075000Y10181800D01*
X26909757Y10148931D01*
X26769671Y10055329D01*
X26769669Y10055326D01*
X26124742Y9410400D01*
X21816440Y9410400D01*
X21561012Y9665828D01*
X22545228Y9665828D01*
X22690418Y9694708D01*
X22813504Y9776952D01*
X22821343Y9784791D01*
X22933459Y9807092D01*
X23088987Y9911013D01*
X23448574Y10270600D01*
X27229424Y10270600D01*
X27215127Y10200000D01*
G36*
X21414392Y11354082D02*
X21428535Y11368224D01*
X21429242Y11367517D01*
X21415099Y11353375D01*
X21429242Y11339232D01*
X21428535Y11338525D01*
X21414392Y11352668D01*
X21106624Y11044900D01*
X21106624Y11044899D01*
X21061546Y10999821D01*
X21075689Y10985678D01*
X21074982Y10984971D01*
X21060839Y10999114D01*
X21046697Y10984971D01*
X21045990Y10985678D01*
X21060132Y10999821D01*
X21014346Y11045607D01*
X21015760Y11045607D01*
X21060839Y11000528D01*
X21368607Y11308296D01*
X21368607Y11308297D01*
X21413685Y11353375D01*
X21368607Y11398453D01*
X21368607Y11399867D01*
X21414392Y11354082D01*
X21414392Y11354082D01*
G37*
X21414392Y11354082D02*
X21428535Y11368224D01*
X21429242Y11367517D01*
X21415099Y11353375D01*
X21429242Y11339232D01*
X21428535Y11338525D01*
X21414392Y11352668D01*
X21106624Y11044900D01*
X21106624Y11044899D01*
X21061546Y10999821D01*
X21075689Y10985678D01*
X21074982Y10984971D01*
X21060839Y10999114D01*
X21046697Y10984971D01*
X21045990Y10985678D01*
X21060132Y10999821D01*
X21014346Y11045607D01*
X21015760Y11045607D01*
X21060839Y11000528D01*
X21368607Y11308296D01*
X21368607Y11308297D01*
X21413685Y11353375D01*
X21368607Y11398453D01*
X21368607Y11399867D01*
X21414392Y11354082D01*
G36*
X26744000Y12095750D02*
X26839250Y12000500D01*
X27499500Y12000500D01*
X27499500Y12020500D01*
X27500500Y12020500D01*
X27500500Y12000500D01*
X27520500Y12000500D01*
X27520500Y11999500D01*
X27500500Y11999500D01*
X27500500Y11979500D01*
X27499500Y11979500D01*
X27499500Y11999500D01*
X26839250Y11999500D01*
X26744000Y11904250D01*
X26744000Y11524214D01*
X26802004Y11384180D01*
X26909181Y11277004D01*
X27024107Y11229400D01*
X25290952Y11229400D01*
X25376679Y11315127D01*
X25875000Y11315127D01*
X25978539Y11334609D01*
X26073634Y11395801D01*
X26137429Y11489168D01*
X26159873Y11600000D01*
X26159873Y12123000D01*
X26744000Y12123000D01*
X26744000Y12095750D01*
X26744000Y12095750D01*
G37*
X26744000Y12095750D02*
X26839250Y12000500D01*
X27499500Y12000500D01*
X27499500Y12020500D01*
X27500500Y12020500D01*
X27500500Y12000500D01*
X27520500Y12000500D01*
X27520500Y11999500D01*
X27500500Y11999500D01*
X27500500Y11979500D01*
X27499500Y11979500D01*
X27499500Y11999500D01*
X26839250Y11999500D01*
X26744000Y11904250D01*
X26744000Y11524214D01*
X26802004Y11384180D01*
X26909181Y11277004D01*
X27024107Y11229400D01*
X25290952Y11229400D01*
X25376679Y11315127D01*
X25875000Y11315127D01*
X25978539Y11334609D01*
X26073634Y11395801D01*
X26137429Y11489168D01*
X26159873Y11600000D01*
X26159873Y12123000D01*
X26744000Y12123000D01*
X26744000Y12095750D01*
G36*
X55200460Y12000500D02*
X55220460Y12000500D01*
X55220460Y11999500D01*
X55200460Y11999500D01*
X55200460Y11979500D01*
X55199460Y11979500D01*
X55199460Y11999500D01*
X55179460Y11999500D01*
X55179460Y12000500D01*
X55199460Y12000500D01*
X55199460Y12020500D01*
X55200460Y12020500D01*
X55200460Y12000500D01*
X55200460Y12000500D01*
G37*
X55200460Y12000500D02*
X55220460Y12000500D01*
X55220460Y11999500D01*
X55200460Y11999500D01*
X55200460Y11979500D01*
X55199460Y11979500D01*
X55199460Y11999500D01*
X55179460Y11999500D01*
X55179460Y12000500D01*
X55199460Y12000500D01*
X55199460Y12020500D01*
X55200460Y12020500D01*
X55200460Y12000500D01*
G36*
X22843456Y12781730D02*
X22829313Y12767588D01*
X22843456Y12753445D01*
X22842749Y12752738D01*
X22828606Y12766881D01*
X22814464Y12752738D01*
X22813757Y12753445D01*
X22827899Y12767588D01*
X22813757Y12781730D01*
X22814464Y12782437D01*
X22828606Y12768295D01*
X22842749Y12782437D01*
X22843456Y12781730D01*
X22843456Y12781730D01*
G37*
X22843456Y12781730D02*
X22829313Y12767588D01*
X22843456Y12753445D01*
X22842749Y12752738D01*
X22828606Y12766881D01*
X22814464Y12752738D01*
X22813757Y12753445D01*
X22827899Y12767588D01*
X22813757Y12781730D01*
X22814464Y12782437D01*
X22828606Y12768295D01*
X22842749Y12782437D01*
X22843456Y12781730D01*
G36*
X43104500Y29175750D02*
X43199750Y29080500D01*
X43929500Y29080500D01*
X43929500Y29100500D01*
X43930500Y29100500D01*
X43930500Y29080500D01*
X44660250Y29080500D01*
X44755500Y29175750D01*
X44755500Y29373000D01*
X45740627Y29373000D01*
X45740627Y28496422D01*
X45597826Y28353870D01*
X45440779Y27975659D01*
X45440422Y27566138D01*
X45596808Y27187654D01*
X45886130Y26897826D01*
X46264341Y26740779D01*
X46673862Y26740422D01*
X47052346Y26896808D01*
X47177349Y27021593D01*
X48262300Y27021593D01*
X48332595Y26836782D01*
X48741287Y26648588D01*
X49190887Y26631119D01*
X49612949Y26787034D01*
X49687405Y26836782D01*
X49757700Y27021593D01*
X49010000Y27769293D01*
X48262300Y27021593D01*
X47177349Y27021593D01*
X47342174Y27186130D01*
X47499221Y27564341D01*
X47499242Y27589113D01*
X47871119Y27589113D01*
X48027034Y27167051D01*
X48076782Y27092595D01*
X48261593Y27022300D01*
X49009293Y27770000D01*
X48995151Y27784142D01*
X48995858Y27784849D01*
X49010000Y27770707D01*
X49024143Y27784849D01*
X49024850Y27784142D01*
X49010707Y27770000D01*
X49758407Y27022300D01*
X49943218Y27092595D01*
X50131412Y27501287D01*
X50148881Y27950887D01*
X49992966Y28372949D01*
X49943218Y28447405D01*
X49835500Y28488377D01*
X49835500Y28984250D01*
X49740250Y29079500D01*
X49010500Y29079500D01*
X49010500Y29059500D01*
X49009500Y29059500D01*
X49009500Y29079500D01*
X48279750Y29079500D01*
X48184500Y28984250D01*
X48184500Y28488377D01*
X48076782Y28447405D01*
X47888588Y28038713D01*
X47871119Y27589113D01*
X47499242Y27589113D01*
X47499578Y27973862D01*
X47343192Y28352346D01*
X47199373Y28496417D01*
X47199373Y29373000D01*
X48184500Y29373000D01*
X48184500Y29175750D01*
X48279750Y29080500D01*
X49009500Y29080500D01*
X49009500Y29100500D01*
X49010500Y29100500D01*
X49010500Y29080500D01*
X49740250Y29080500D01*
X49835500Y29175750D01*
X49835500Y29373000D01*
X50820627Y29373000D01*
X50820627Y28496422D01*
X50677826Y28353870D01*
X50520779Y27975659D01*
X50520422Y27566138D01*
X50676808Y27187654D01*
X50966130Y26897826D01*
X51344341Y26740779D01*
X51753862Y26740422D01*
X52132346Y26896808D01*
X52422174Y27186130D01*
X52579221Y27564341D01*
X52579578Y27973862D01*
X52423192Y28352346D01*
X52279373Y28496417D01*
X52279373Y29373000D01*
X53360627Y29373000D01*
X53360627Y28496422D01*
X53217826Y28353870D01*
X53060779Y27975659D01*
X53060422Y27566138D01*
X53216808Y27187654D01*
X53506130Y26897826D01*
X53884341Y26740779D01*
X54193660Y26740509D01*
X54190803Y26733629D01*
X54190397Y26268412D01*
X54194158Y26259309D01*
X53886138Y26259578D01*
X53507654Y26103192D01*
X53217826Y25813870D01*
X53060779Y25435659D01*
X53060422Y25026138D01*
X53216808Y24647654D01*
X53360627Y24503583D01*
X53360627Y23080000D01*
X53380109Y22976461D01*
X53441301Y22881366D01*
X53534668Y22817571D01*
X53645500Y22795127D01*
X54534500Y22795127D01*
X54638039Y22814609D01*
X54733134Y22875801D01*
X54796929Y22969168D01*
X54819373Y23080000D01*
X54819373Y23824250D01*
X55804500Y23824250D01*
X55804500Y23004214D01*
X55862504Y22864180D01*
X55969681Y22757004D01*
X56109715Y22699000D01*
X56534250Y22699000D01*
X56629500Y22794250D01*
X56629500Y23919500D01*
X56630500Y23919500D01*
X56630500Y22794250D01*
X56725750Y22699000D01*
X57150285Y22699000D01*
X57290319Y22757004D01*
X57397496Y22864180D01*
X57455500Y23004214D01*
X57455500Y23824250D01*
X57360250Y23919500D01*
X56630500Y23919500D01*
X56629500Y23919500D01*
X55899750Y23919500D01*
X55804500Y23824250D01*
X54819373Y23824250D01*
X54819373Y24503578D01*
X54962174Y24646130D01*
X55119221Y25024341D01*
X55119491Y25333660D01*
X55126371Y25330803D01*
X55502051Y25330475D01*
X55491119Y25049113D01*
X55647034Y24627051D01*
X55696782Y24552595D01*
X55804500Y24511623D01*
X55804500Y24015750D01*
X55899750Y23920500D01*
X56629500Y23920500D01*
X56629500Y23940500D01*
X56630500Y23940500D01*
X56630500Y23920500D01*
X57360250Y23920500D01*
X57455500Y24015750D01*
X57455500Y24511623D01*
X57563218Y24552595D01*
X57751412Y24961287D01*
X57768881Y25410887D01*
X57612966Y25832949D01*
X57563218Y25907405D01*
X57378407Y25977700D01*
X56630707Y25230000D01*
X56644850Y25215857D01*
X56644143Y25215150D01*
X56630000Y25229293D01*
X56615858Y25215150D01*
X56615151Y25215857D01*
X56629293Y25230000D01*
X56615151Y25244142D01*
X56615858Y25244849D01*
X56630000Y25230707D01*
X57377700Y25978407D01*
X57307405Y26163218D01*
X56898713Y26351412D01*
X56529284Y26365766D01*
X56529603Y26731588D01*
X56525842Y26740691D01*
X56833862Y26740422D01*
X57212346Y26896808D01*
X57502174Y27186130D01*
X57659221Y27564341D01*
X57659578Y27973862D01*
X57503192Y28352346D01*
X57359373Y28496417D01*
X57359373Y29373000D01*
X59865611Y29373000D01*
X59644796Y29281761D01*
X58721481Y28360056D01*
X58221171Y27155175D01*
X58220032Y25850549D01*
X58718239Y24644796D01*
X59639944Y23721481D01*
X60844825Y23221171D01*
X62149451Y23220032D01*
X63355204Y23718239D01*
X64278519Y24639944D01*
X64373000Y24867480D01*
X64373000Y18880502D01*
X64281751Y18880502D01*
X64359722Y19099033D01*
X64338518Y19205636D01*
X64110491Y19700731D01*
X63710357Y20070877D01*
X63579713Y20119127D01*
X63996000Y20119127D01*
X64099539Y20138609D01*
X64194634Y20199801D01*
X64258429Y20293168D01*
X64280873Y20404000D01*
X64280873Y22436000D01*
X64261391Y22539539D01*
X64200199Y22634634D01*
X64106832Y22698429D01*
X63996000Y22720873D01*
X61964000Y22720873D01*
X61860461Y22701391D01*
X61765366Y22640199D01*
X61701571Y22546832D01*
X61679127Y22436000D01*
X61679127Y21782518D01*
X61624134Y21771579D01*
X61618810Y21770520D01*
X61495724Y21688276D01*
X60936848Y21129400D01*
X60705755Y21129400D01*
X60712429Y21139168D01*
X60734873Y21250000D01*
X60734873Y21750000D01*
X60715391Y21853539D01*
X60654199Y21948634D01*
X60560832Y22012429D01*
X60450000Y22034873D01*
X59550000Y22034873D01*
X59446461Y22015391D01*
X59351366Y21954199D01*
X59300258Y21879400D01*
X58698750Y21879400D01*
X58654199Y21948634D01*
X58560832Y22012429D01*
X58450000Y22034873D01*
X57550000Y22034873D01*
X57446461Y22015391D01*
X57351366Y21954199D01*
X57300258Y21879400D01*
X56698750Y21879400D01*
X56654199Y21948634D01*
X56560832Y22012429D01*
X56450000Y22034873D01*
X55550000Y22034873D01*
X55446461Y22015391D01*
X55351366Y21954199D01*
X55300258Y21879400D01*
X55007152Y21879400D01*
X54893276Y21993276D01*
X54770190Y22075520D01*
X54662457Y22096949D01*
X54629199Y22148634D01*
X54535832Y22212429D01*
X54425000Y22234873D01*
X52975000Y22234873D01*
X52871461Y22215391D01*
X52840856Y22195697D01*
X52268276Y22768276D01*
X52149437Y22847682D01*
X52193134Y22875801D01*
X52256929Y22969168D01*
X52279373Y23080000D01*
X52279373Y24503578D01*
X52422174Y24646130D01*
X52579221Y25024341D01*
X52579578Y25433862D01*
X52423192Y25812346D01*
X52133870Y26102174D01*
X51755659Y26259221D01*
X51346138Y26259578D01*
X50967654Y26103192D01*
X50677826Y25813870D01*
X50520779Y25435659D01*
X50520422Y25026138D01*
X50676808Y24647654D01*
X50820627Y24503583D01*
X50820627Y23080000D01*
X50840109Y22976461D01*
X50901301Y22881366D01*
X50904178Y22879400D01*
X49655593Y22879400D01*
X49716929Y22969168D01*
X49739373Y23080000D01*
X49739373Y24503578D01*
X49882174Y24646130D01*
X50039221Y25024341D01*
X50039578Y25433862D01*
X49883192Y25812346D01*
X49593870Y26102174D01*
X49215659Y26259221D01*
X48806138Y26259578D01*
X48427654Y26103192D01*
X48137826Y25813870D01*
X47980779Y25435659D01*
X47980422Y25026138D01*
X48136808Y24647654D01*
X48280627Y24503583D01*
X48280627Y23080000D01*
X48300109Y22976461D01*
X48361301Y22881366D01*
X48364178Y22879400D01*
X47115593Y22879400D01*
X47176929Y22969168D01*
X47199373Y23080000D01*
X47199373Y24503578D01*
X47342174Y24646130D01*
X47499221Y25024341D01*
X47499578Y25433862D01*
X47343192Y25812346D01*
X47053870Y26102174D01*
X46675659Y26259221D01*
X46266138Y26259578D01*
X45887654Y26103192D01*
X45597826Y25813870D01*
X45440779Y25435659D01*
X45440422Y25026138D01*
X45596808Y24647654D01*
X45740627Y24503583D01*
X45740627Y23080000D01*
X45760109Y22976461D01*
X45821301Y22881366D01*
X45914668Y22817571D01*
X46025500Y22795127D01*
X46246909Y22795127D01*
X46206724Y22768276D01*
X45623321Y22184873D01*
X45376679Y22184873D01*
X44793276Y22768276D01*
X44670190Y22850520D01*
X44566041Y22871237D01*
X44573134Y22875801D01*
X44636929Y22969168D01*
X44659373Y23080000D01*
X44659373Y24503578D01*
X44802174Y24646130D01*
X44959221Y25024341D01*
X44959578Y25433862D01*
X44803192Y25812346D01*
X44513870Y26102174D01*
X44135659Y26259221D01*
X43726138Y26259578D01*
X43347654Y26103192D01*
X43057826Y25813870D01*
X42900779Y25435659D01*
X42900422Y25026138D01*
X43056808Y24647654D01*
X43200627Y24503583D01*
X43200627Y23080000D01*
X43220109Y22976461D01*
X43281301Y22881366D01*
X43284178Y22879400D01*
X42159416Y22879400D01*
X42085855Y22952961D01*
X42096929Y22969168D01*
X42119373Y23080000D01*
X42119373Y24503578D01*
X42262174Y24646130D01*
X42419221Y25024341D01*
X42419578Y25433862D01*
X42263192Y25812346D01*
X41973870Y26102174D01*
X41595659Y26259221D01*
X41186138Y26259578D01*
X40807654Y26103192D01*
X40627000Y25922853D01*
X40627000Y27077269D01*
X40806130Y26897826D01*
X41184341Y26740779D01*
X41593862Y26740422D01*
X41972346Y26896808D01*
X42097349Y27021593D01*
X43182300Y27021593D01*
X43252595Y26836782D01*
X43661287Y26648588D01*
X44110887Y26631119D01*
X44532949Y26787034D01*
X44607405Y26836782D01*
X44677700Y27021593D01*
X43930000Y27769293D01*
X43182300Y27021593D01*
X42097349Y27021593D01*
X42262174Y27186130D01*
X42419221Y27564341D01*
X42419242Y27589113D01*
X42791119Y27589113D01*
X42947034Y27167051D01*
X42996782Y27092595D01*
X43181593Y27022300D01*
X43929293Y27770000D01*
X43915151Y27784142D01*
X43915858Y27784849D01*
X43930000Y27770707D01*
X43944143Y27784849D01*
X43944850Y27784142D01*
X43930707Y27770000D01*
X44678407Y27022300D01*
X44863218Y27092595D01*
X45051412Y27501287D01*
X45068881Y27950887D01*
X44912966Y28372949D01*
X44863218Y28447405D01*
X44755500Y28488377D01*
X44755500Y28984250D01*
X44660250Y29079500D01*
X43930500Y29079500D01*
X43930500Y29059500D01*
X43929500Y29059500D01*
X43929500Y29079500D01*
X43199750Y29079500D01*
X43104500Y28984250D01*
X43104500Y28488377D01*
X42996782Y28447405D01*
X42808588Y28038713D01*
X42791119Y27589113D01*
X42419242Y27589113D01*
X42419578Y27973862D01*
X42263192Y28352346D01*
X42119373Y28496417D01*
X42119373Y29373000D01*
X43104500Y29373000D01*
X43104500Y29175750D01*
X43104500Y29175750D01*
G37*
X43104500Y29175750D02*
X43199750Y29080500D01*
X43929500Y29080500D01*
X43929500Y29100500D01*
X43930500Y29100500D01*
X43930500Y29080500D01*
X44660250Y29080500D01*
X44755500Y29175750D01*
X44755500Y29373000D01*
X45740627Y29373000D01*
X45740627Y28496422D01*
X45597826Y28353870D01*
X45440779Y27975659D01*
X45440422Y27566138D01*
X45596808Y27187654D01*
X45886130Y26897826D01*
X46264341Y26740779D01*
X46673862Y26740422D01*
X47052346Y26896808D01*
X47177349Y27021593D01*
X48262300Y27021593D01*
X48332595Y26836782D01*
X48741287Y26648588D01*
X49190887Y26631119D01*
X49612949Y26787034D01*
X49687405Y26836782D01*
X49757700Y27021593D01*
X49010000Y27769293D01*
X48262300Y27021593D01*
X47177349Y27021593D01*
X47342174Y27186130D01*
X47499221Y27564341D01*
X47499242Y27589113D01*
X47871119Y27589113D01*
X48027034Y27167051D01*
X48076782Y27092595D01*
X48261593Y27022300D01*
X49009293Y27770000D01*
X48995151Y27784142D01*
X48995858Y27784849D01*
X49010000Y27770707D01*
X49024143Y27784849D01*
X49024850Y27784142D01*
X49010707Y27770000D01*
X49758407Y27022300D01*
X49943218Y27092595D01*
X50131412Y27501287D01*
X50148881Y27950887D01*
X49992966Y28372949D01*
X49943218Y28447405D01*
X49835500Y28488377D01*
X49835500Y28984250D01*
X49740250Y29079500D01*
X49010500Y29079500D01*
X49010500Y29059500D01*
X49009500Y29059500D01*
X49009500Y29079500D01*
X48279750Y29079500D01*
X48184500Y28984250D01*
X48184500Y28488377D01*
X48076782Y28447405D01*
X47888588Y28038713D01*
X47871119Y27589113D01*
X47499242Y27589113D01*
X47499578Y27973862D01*
X47343192Y28352346D01*
X47199373Y28496417D01*
X47199373Y29373000D01*
X48184500Y29373000D01*
X48184500Y29175750D01*
X48279750Y29080500D01*
X49009500Y29080500D01*
X49009500Y29100500D01*
X49010500Y29100500D01*
X49010500Y29080500D01*
X49740250Y29080500D01*
X49835500Y29175750D01*
X49835500Y29373000D01*
X50820627Y29373000D01*
X50820627Y28496422D01*
X50677826Y28353870D01*
X50520779Y27975659D01*
X50520422Y27566138D01*
X50676808Y27187654D01*
X50966130Y26897826D01*
X51344341Y26740779D01*
X51753862Y26740422D01*
X52132346Y26896808D01*
X52422174Y27186130D01*
X52579221Y27564341D01*
X52579578Y27973862D01*
X52423192Y28352346D01*
X52279373Y28496417D01*
X52279373Y29373000D01*
X53360627Y29373000D01*
X53360627Y28496422D01*
X53217826Y28353870D01*
X53060779Y27975659D01*
X53060422Y27566138D01*
X53216808Y27187654D01*
X53506130Y26897826D01*
X53884341Y26740779D01*
X54193660Y26740509D01*
X54190803Y26733629D01*
X54190397Y26268412D01*
X54194158Y26259309D01*
X53886138Y26259578D01*
X53507654Y26103192D01*
X53217826Y25813870D01*
X53060779Y25435659D01*
X53060422Y25026138D01*
X53216808Y24647654D01*
X53360627Y24503583D01*
X53360627Y23080000D01*
X53380109Y22976461D01*
X53441301Y22881366D01*
X53534668Y22817571D01*
X53645500Y22795127D01*
X54534500Y22795127D01*
X54638039Y22814609D01*
X54733134Y22875801D01*
X54796929Y22969168D01*
X54819373Y23080000D01*
X54819373Y23824250D01*
X55804500Y23824250D01*
X55804500Y23004214D01*
X55862504Y22864180D01*
X55969681Y22757004D01*
X56109715Y22699000D01*
X56534250Y22699000D01*
X56629500Y22794250D01*
X56629500Y23919500D01*
X56630500Y23919500D01*
X56630500Y22794250D01*
X56725750Y22699000D01*
X57150285Y22699000D01*
X57290319Y22757004D01*
X57397496Y22864180D01*
X57455500Y23004214D01*
X57455500Y23824250D01*
X57360250Y23919500D01*
X56630500Y23919500D01*
X56629500Y23919500D01*
X55899750Y23919500D01*
X55804500Y23824250D01*
X54819373Y23824250D01*
X54819373Y24503578D01*
X54962174Y24646130D01*
X55119221Y25024341D01*
X55119491Y25333660D01*
X55126371Y25330803D01*
X55502051Y25330475D01*
X55491119Y25049113D01*
X55647034Y24627051D01*
X55696782Y24552595D01*
X55804500Y24511623D01*
X55804500Y24015750D01*
X55899750Y23920500D01*
X56629500Y23920500D01*
X56629500Y23940500D01*
X56630500Y23940500D01*
X56630500Y23920500D01*
X57360250Y23920500D01*
X57455500Y24015750D01*
X57455500Y24511623D01*
X57563218Y24552595D01*
X57751412Y24961287D01*
X57768881Y25410887D01*
X57612966Y25832949D01*
X57563218Y25907405D01*
X57378407Y25977700D01*
X56630707Y25230000D01*
X56644850Y25215857D01*
X56644143Y25215150D01*
X56630000Y25229293D01*
X56615858Y25215150D01*
X56615151Y25215857D01*
X56629293Y25230000D01*
X56615151Y25244142D01*
X56615858Y25244849D01*
X56630000Y25230707D01*
X57377700Y25978407D01*
X57307405Y26163218D01*
X56898713Y26351412D01*
X56529284Y26365766D01*
X56529603Y26731588D01*
X56525842Y26740691D01*
X56833862Y26740422D01*
X57212346Y26896808D01*
X57502174Y27186130D01*
X57659221Y27564341D01*
X57659578Y27973862D01*
X57503192Y28352346D01*
X57359373Y28496417D01*
X57359373Y29373000D01*
X59865611Y29373000D01*
X59644796Y29281761D01*
X58721481Y28360056D01*
X58221171Y27155175D01*
X58220032Y25850549D01*
X58718239Y24644796D01*
X59639944Y23721481D01*
X60844825Y23221171D01*
X62149451Y23220032D01*
X63355204Y23718239D01*
X64278519Y24639944D01*
X64373000Y24867480D01*
X64373000Y18880502D01*
X64281751Y18880502D01*
X64359722Y19099033D01*
X64338518Y19205636D01*
X64110491Y19700731D01*
X63710357Y20070877D01*
X63579713Y20119127D01*
X63996000Y20119127D01*
X64099539Y20138609D01*
X64194634Y20199801D01*
X64258429Y20293168D01*
X64280873Y20404000D01*
X64280873Y22436000D01*
X64261391Y22539539D01*
X64200199Y22634634D01*
X64106832Y22698429D01*
X63996000Y22720873D01*
X61964000Y22720873D01*
X61860461Y22701391D01*
X61765366Y22640199D01*
X61701571Y22546832D01*
X61679127Y22436000D01*
X61679127Y21782518D01*
X61624134Y21771579D01*
X61618810Y21770520D01*
X61495724Y21688276D01*
X60936848Y21129400D01*
X60705755Y21129400D01*
X60712429Y21139168D01*
X60734873Y21250000D01*
X60734873Y21750000D01*
X60715391Y21853539D01*
X60654199Y21948634D01*
X60560832Y22012429D01*
X60450000Y22034873D01*
X59550000Y22034873D01*
X59446461Y22015391D01*
X59351366Y21954199D01*
X59300258Y21879400D01*
X58698750Y21879400D01*
X58654199Y21948634D01*
X58560832Y22012429D01*
X58450000Y22034873D01*
X57550000Y22034873D01*
X57446461Y22015391D01*
X57351366Y21954199D01*
X57300258Y21879400D01*
X56698750Y21879400D01*
X56654199Y21948634D01*
X56560832Y22012429D01*
X56450000Y22034873D01*
X55550000Y22034873D01*
X55446461Y22015391D01*
X55351366Y21954199D01*
X55300258Y21879400D01*
X55007152Y21879400D01*
X54893276Y21993276D01*
X54770190Y22075520D01*
X54662457Y22096949D01*
X54629199Y22148634D01*
X54535832Y22212429D01*
X54425000Y22234873D01*
X52975000Y22234873D01*
X52871461Y22215391D01*
X52840856Y22195697D01*
X52268276Y22768276D01*
X52149437Y22847682D01*
X52193134Y22875801D01*
X52256929Y22969168D01*
X52279373Y23080000D01*
X52279373Y24503578D01*
X52422174Y24646130D01*
X52579221Y25024341D01*
X52579578Y25433862D01*
X52423192Y25812346D01*
X52133870Y26102174D01*
X51755659Y26259221D01*
X51346138Y26259578D01*
X50967654Y26103192D01*
X50677826Y25813870D01*
X50520779Y25435659D01*
X50520422Y25026138D01*
X50676808Y24647654D01*
X50820627Y24503583D01*
X50820627Y23080000D01*
X50840109Y22976461D01*
X50901301Y22881366D01*
X50904178Y22879400D01*
X49655593Y22879400D01*
X49716929Y22969168D01*
X49739373Y23080000D01*
X49739373Y24503578D01*
X49882174Y24646130D01*
X50039221Y25024341D01*
X50039578Y25433862D01*
X49883192Y25812346D01*
X49593870Y26102174D01*
X49215659Y26259221D01*
X48806138Y26259578D01*
X48427654Y26103192D01*
X48137826Y25813870D01*
X47980779Y25435659D01*
X47980422Y25026138D01*
X48136808Y24647654D01*
X48280627Y24503583D01*
X48280627Y23080000D01*
X48300109Y22976461D01*
X48361301Y22881366D01*
X48364178Y22879400D01*
X47115593Y22879400D01*
X47176929Y22969168D01*
X47199373Y23080000D01*
X47199373Y24503578D01*
X47342174Y24646130D01*
X47499221Y25024341D01*
X47499578Y25433862D01*
X47343192Y25812346D01*
X47053870Y26102174D01*
X46675659Y26259221D01*
X46266138Y26259578D01*
X45887654Y26103192D01*
X45597826Y25813870D01*
X45440779Y25435659D01*
X45440422Y25026138D01*
X45596808Y24647654D01*
X45740627Y24503583D01*
X45740627Y23080000D01*
X45760109Y22976461D01*
X45821301Y22881366D01*
X45914668Y22817571D01*
X46025500Y22795127D01*
X46246909Y22795127D01*
X46206724Y22768276D01*
X45623321Y22184873D01*
X45376679Y22184873D01*
X44793276Y22768276D01*
X44670190Y22850520D01*
X44566041Y22871237D01*
X44573134Y22875801D01*
X44636929Y22969168D01*
X44659373Y23080000D01*
X44659373Y24503578D01*
X44802174Y24646130D01*
X44959221Y25024341D01*
X44959578Y25433862D01*
X44803192Y25812346D01*
X44513870Y26102174D01*
X44135659Y26259221D01*
X43726138Y26259578D01*
X43347654Y26103192D01*
X43057826Y25813870D01*
X42900779Y25435659D01*
X42900422Y25026138D01*
X43056808Y24647654D01*
X43200627Y24503583D01*
X43200627Y23080000D01*
X43220109Y22976461D01*
X43281301Y22881366D01*
X43284178Y22879400D01*
X42159416Y22879400D01*
X42085855Y22952961D01*
X42096929Y22969168D01*
X42119373Y23080000D01*
X42119373Y24503578D01*
X42262174Y24646130D01*
X42419221Y25024341D01*
X42419578Y25433862D01*
X42263192Y25812346D01*
X41973870Y26102174D01*
X41595659Y26259221D01*
X41186138Y26259578D01*
X40807654Y26103192D01*
X40627000Y25922853D01*
X40627000Y27077269D01*
X40806130Y26897826D01*
X41184341Y26740779D01*
X41593862Y26740422D01*
X41972346Y26896808D01*
X42097349Y27021593D01*
X43182300Y27021593D01*
X43252595Y26836782D01*
X43661287Y26648588D01*
X44110887Y26631119D01*
X44532949Y26787034D01*
X44607405Y26836782D01*
X44677700Y27021593D01*
X43930000Y27769293D01*
X43182300Y27021593D01*
X42097349Y27021593D01*
X42262174Y27186130D01*
X42419221Y27564341D01*
X42419242Y27589113D01*
X42791119Y27589113D01*
X42947034Y27167051D01*
X42996782Y27092595D01*
X43181593Y27022300D01*
X43929293Y27770000D01*
X43915151Y27784142D01*
X43915858Y27784849D01*
X43930000Y27770707D01*
X43944143Y27784849D01*
X43944850Y27784142D01*
X43930707Y27770000D01*
X44678407Y27022300D01*
X44863218Y27092595D01*
X45051412Y27501287D01*
X45068881Y27950887D01*
X44912966Y28372949D01*
X44863218Y28447405D01*
X44755500Y28488377D01*
X44755500Y28984250D01*
X44660250Y29079500D01*
X43930500Y29079500D01*
X43930500Y29059500D01*
X43929500Y29059500D01*
X43929500Y29079500D01*
X43199750Y29079500D01*
X43104500Y28984250D01*
X43104500Y28488377D01*
X42996782Y28447405D01*
X42808588Y28038713D01*
X42791119Y27589113D01*
X42419242Y27589113D01*
X42419578Y27973862D01*
X42263192Y28352346D01*
X42119373Y28496417D01*
X42119373Y29373000D01*
X43104500Y29373000D01*
X43104500Y29175750D01*
G36*
X44840127Y21648321D02*
X44840127Y21100000D01*
X44859609Y20996461D01*
X44920801Y20901366D01*
X45014168Y20837571D01*
X45125000Y20815127D01*
X45875000Y20815127D01*
X45978539Y20834609D01*
X46073634Y20895801D01*
X46130652Y20979250D01*
X46694000Y20979250D01*
X46694000Y20774215D01*
X46704030Y20750000D01*
X46694000Y20725785D01*
X46694000Y20520750D01*
X46789250Y20425500D01*
X47799500Y20425500D01*
X47799500Y21074500D01*
X47800500Y21074500D01*
X47800500Y20425500D01*
X48810750Y20425500D01*
X48906000Y20520750D01*
X48906000Y20725785D01*
X48895970Y20750000D01*
X48906000Y20774215D01*
X48906000Y20979250D01*
X48810750Y21074500D01*
X47800500Y21074500D01*
X47799500Y21074500D01*
X46789250Y21074500D01*
X46694000Y20979250D01*
X46130652Y20979250D01*
X46137429Y20989168D01*
X46159873Y21100000D01*
X46159873Y21629250D01*
X46694000Y21629250D01*
X46694000Y21424215D01*
X46704030Y21400000D01*
X46694000Y21375785D01*
X46694000Y21170750D01*
X46789250Y21075500D01*
X47799500Y21075500D01*
X47799500Y21724500D01*
X47800500Y21724500D01*
X47800500Y21075500D01*
X48810750Y21075500D01*
X48906000Y21170750D01*
X48906000Y21375785D01*
X48895970Y21400000D01*
X48906000Y21424215D01*
X48906000Y21629250D01*
X48810750Y21724500D01*
X47800500Y21724500D01*
X47799500Y21724500D01*
X46789250Y21724500D01*
X46694000Y21629250D01*
X46159873Y21629250D01*
X46159873Y21648321D01*
X46632152Y22120600D01*
X46733274Y22120600D01*
X46694000Y22025785D01*
X46694000Y21820750D01*
X46789250Y21725500D01*
X47799500Y21725500D01*
X47799500Y21745500D01*
X47800500Y21745500D01*
X47800500Y21725500D01*
X48810750Y21725500D01*
X48906000Y21820750D01*
X48906000Y22025785D01*
X48866726Y22120600D01*
X51842848Y22120600D01*
X52506724Y21456723D01*
X52596913Y21396461D01*
X52629810Y21374480D01*
X52702290Y21360063D01*
X52690127Y21300000D01*
X52690127Y20850000D01*
X52698707Y20804400D01*
X51732152Y20804400D01*
X51584158Y20952394D01*
X51584301Y21115695D01*
X51495549Y21330490D01*
X51331355Y21494972D01*
X51116714Y21584098D01*
X50884305Y21584301D01*
X50669510Y21495549D01*
X50505028Y21331355D01*
X50415902Y21116714D01*
X50415699Y20884305D01*
X50504451Y20669510D01*
X50668645Y20505028D01*
X50883286Y20415902D01*
X51047690Y20415758D01*
X51138323Y20325125D01*
X51116714Y20334098D01*
X50884305Y20334301D01*
X50669510Y20245549D01*
X50505028Y20081355D01*
X50415902Y19866714D01*
X50415699Y19634305D01*
X50417065Y19631000D01*
X48906000Y19631000D01*
X48906000Y19679250D01*
X48810750Y19774500D01*
X47800500Y19774500D01*
X47800500Y19754500D01*
X47799500Y19754500D01*
X47799500Y19774500D01*
X46789250Y19774500D01*
X46694000Y19679250D01*
X46694000Y19631000D01*
X46256000Y19631000D01*
X46256000Y19904250D01*
X46160750Y19999500D01*
X45500500Y19999500D01*
X45500500Y19979500D01*
X45499500Y19979500D01*
X45499500Y19999500D01*
X45479500Y19999500D01*
X45479500Y20000500D01*
X45499500Y20000500D01*
X45499500Y20685750D01*
X45500500Y20685750D01*
X45500500Y20000500D01*
X46160750Y20000500D01*
X46256000Y20095750D01*
X46256000Y20329250D01*
X46694000Y20329250D01*
X46694000Y20124215D01*
X46704030Y20100000D01*
X46694000Y20075785D01*
X46694000Y19870750D01*
X46789250Y19775500D01*
X47799500Y19775500D01*
X47799500Y20424500D01*
X47800500Y20424500D01*
X47800500Y19775500D01*
X48810750Y19775500D01*
X48906000Y19870750D01*
X48906000Y20075785D01*
X48895970Y20100000D01*
X48906000Y20124215D01*
X48906000Y20329250D01*
X48810750Y20424500D01*
X47800500Y20424500D01*
X47799500Y20424500D01*
X46789250Y20424500D01*
X46694000Y20329250D01*
X46256000Y20329250D01*
X46256000Y20475786D01*
X46197996Y20615820D01*
X46090819Y20722996D01*
X45950785Y20781000D01*
X45595750Y20781000D01*
X45500500Y20685750D01*
X45499500Y20685750D01*
X45404250Y20781000D01*
X45049215Y20781000D01*
X44909181Y20722996D01*
X44802004Y20615820D01*
X44744000Y20475786D01*
X44744000Y20294816D01*
X42918216Y22120600D01*
X44367848Y22120600D01*
X44840127Y21648321D01*
X44840127Y21648321D01*
G37*
X44840127Y21648321D02*
X44840127Y21100000D01*
X44859609Y20996461D01*
X44920801Y20901366D01*
X45014168Y20837571D01*
X45125000Y20815127D01*
X45875000Y20815127D01*
X45978539Y20834609D01*
X46073634Y20895801D01*
X46130652Y20979250D01*
X46694000Y20979250D01*
X46694000Y20774215D01*
X46704030Y20750000D01*
X46694000Y20725785D01*
X46694000Y20520750D01*
X46789250Y20425500D01*
X47799500Y20425500D01*
X47799500Y21074500D01*
X47800500Y21074500D01*
X47800500Y20425500D01*
X48810750Y20425500D01*
X48906000Y20520750D01*
X48906000Y20725785D01*
X48895970Y20750000D01*
X48906000Y20774215D01*
X48906000Y20979250D01*
X48810750Y21074500D01*
X47800500Y21074500D01*
X47799500Y21074500D01*
X46789250Y21074500D01*
X46694000Y20979250D01*
X46130652Y20979250D01*
X46137429Y20989168D01*
X46159873Y21100000D01*
X46159873Y21629250D01*
X46694000Y21629250D01*
X46694000Y21424215D01*
X46704030Y21400000D01*
X46694000Y21375785D01*
X46694000Y21170750D01*
X46789250Y21075500D01*
X47799500Y21075500D01*
X47799500Y21724500D01*
X47800500Y21724500D01*
X47800500Y21075500D01*
X48810750Y21075500D01*
X48906000Y21170750D01*
X48906000Y21375785D01*
X48895970Y21400000D01*
X48906000Y21424215D01*
X48906000Y21629250D01*
X48810750Y21724500D01*
X47800500Y21724500D01*
X47799500Y21724500D01*
X46789250Y21724500D01*
X46694000Y21629250D01*
X46159873Y21629250D01*
X46159873Y21648321D01*
X46632152Y22120600D01*
X46733274Y22120600D01*
X46694000Y22025785D01*
X46694000Y21820750D01*
X46789250Y21725500D01*
X47799500Y21725500D01*
X47799500Y21745500D01*
X47800500Y21745500D01*
X47800500Y21725500D01*
X48810750Y21725500D01*
X48906000Y21820750D01*
X48906000Y22025785D01*
X48866726Y22120600D01*
X51842848Y22120600D01*
X52506724Y21456723D01*
X52596913Y21396461D01*
X52629810Y21374480D01*
X52702290Y21360063D01*
X52690127Y21300000D01*
X52690127Y20850000D01*
X52698707Y20804400D01*
X51732152Y20804400D01*
X51584158Y20952394D01*
X51584301Y21115695D01*
X51495549Y21330490D01*
X51331355Y21494972D01*
X51116714Y21584098D01*
X50884305Y21584301D01*
X50669510Y21495549D01*
X50505028Y21331355D01*
X50415902Y21116714D01*
X50415699Y20884305D01*
X50504451Y20669510D01*
X50668645Y20505028D01*
X50883286Y20415902D01*
X51047690Y20415758D01*
X51138323Y20325125D01*
X51116714Y20334098D01*
X50884305Y20334301D01*
X50669510Y20245549D01*
X50505028Y20081355D01*
X50415902Y19866714D01*
X50415699Y19634305D01*
X50417065Y19631000D01*
X48906000Y19631000D01*
X48906000Y19679250D01*
X48810750Y19774500D01*
X47800500Y19774500D01*
X47800500Y19754500D01*
X47799500Y19754500D01*
X47799500Y19774500D01*
X46789250Y19774500D01*
X46694000Y19679250D01*
X46694000Y19631000D01*
X46256000Y19631000D01*
X46256000Y19904250D01*
X46160750Y19999500D01*
X45500500Y19999500D01*
X45500500Y19979500D01*
X45499500Y19979500D01*
X45499500Y19999500D01*
X45479500Y19999500D01*
X45479500Y20000500D01*
X45499500Y20000500D01*
X45499500Y20685750D01*
X45500500Y20685750D01*
X45500500Y20000500D01*
X46160750Y20000500D01*
X46256000Y20095750D01*
X46256000Y20329250D01*
X46694000Y20329250D01*
X46694000Y20124215D01*
X46704030Y20100000D01*
X46694000Y20075785D01*
X46694000Y19870750D01*
X46789250Y19775500D01*
X47799500Y19775500D01*
X47799500Y20424500D01*
X47800500Y20424500D01*
X47800500Y19775500D01*
X48810750Y19775500D01*
X48906000Y19870750D01*
X48906000Y20075785D01*
X48895970Y20100000D01*
X48906000Y20124215D01*
X48906000Y20329250D01*
X48810750Y20424500D01*
X47800500Y20424500D01*
X47799500Y20424500D01*
X46789250Y20424500D01*
X46694000Y20329250D01*
X46256000Y20329250D01*
X46256000Y20475786D01*
X46197996Y20615820D01*
X46090819Y20722996D01*
X45950785Y20781000D01*
X45595750Y20781000D01*
X45500500Y20685750D01*
X45499500Y20685750D01*
X45404250Y20781000D01*
X45049215Y20781000D01*
X44909181Y20722996D01*
X44802004Y20615820D01*
X44744000Y20475786D01*
X44744000Y20294816D01*
X42918216Y22120600D01*
X44367848Y22120600D01*
X44840127Y21648321D01*
G36*
X43564205Y20756189D02*
X43564081Y20614184D01*
X43668268Y20362033D01*
X43861018Y20168946D01*
X44112987Y20064319D01*
X44114024Y20064318D01*
X44589171Y19589171D01*
X44760059Y19474987D01*
X44763103Y19458810D01*
X44846546Y19329135D01*
X44973866Y19242141D01*
X45104759Y19215635D01*
X45160197Y19160197D01*
X45202211Y19132334D01*
X45250000Y19123000D01*
X50721668Y19123000D01*
X50862987Y19064319D01*
X51135816Y19064081D01*
X51278410Y19123000D01*
X54171764Y19123000D01*
X54634882Y18659881D01*
X54790930Y18555613D01*
X54975000Y18519000D01*
X58350000Y18519000D01*
X58534071Y18555614D01*
X58690118Y18659882D01*
X59153236Y19123000D01*
X60197394Y19123000D01*
X60873000Y18447394D01*
X60873000Y13340732D01*
X60775785Y13381000D01*
X60345750Y13381000D01*
X60250500Y13285750D01*
X60250500Y12750500D01*
X60270500Y12750500D01*
X60270500Y12749500D01*
X60250500Y12749500D01*
X60250500Y12729500D01*
X60249500Y12729500D01*
X60249500Y12749500D01*
X59514250Y12749500D01*
X59419000Y12654250D01*
X59419000Y12424214D01*
X59477004Y12284180D01*
X59584181Y12177004D01*
X59704901Y12127000D01*
X58961443Y12127000D01*
X58981000Y12174214D01*
X58981000Y12604250D01*
X58885750Y12699500D01*
X57750500Y12699500D01*
X57750500Y12679500D01*
X57749500Y12679500D01*
X57749500Y12699500D01*
X56614250Y12699500D01*
X56542259Y12627509D01*
X56388982Y12781054D01*
X56137013Y12885681D01*
X55956261Y12885839D01*
X55936507Y12990820D01*
X55853064Y13120495D01*
X55725744Y13207489D01*
X55635390Y13225786D01*
X56519000Y13225786D01*
X56519000Y12795750D01*
X56614250Y12700500D01*
X57749500Y12700500D01*
X57749500Y13435750D01*
X57750500Y13435750D01*
X57750500Y12700500D01*
X58885750Y12700500D01*
X58981000Y12795750D01*
X58981000Y13075786D01*
X59419000Y13075786D01*
X59419000Y12845750D01*
X59514250Y12750500D01*
X60249500Y12750500D01*
X60249500Y13285750D01*
X60154250Y13381000D01*
X59724215Y13381000D01*
X59584181Y13322996D01*
X59477004Y13215820D01*
X59419000Y13075786D01*
X58981000Y13075786D01*
X58981000Y13225786D01*
X58922996Y13365820D01*
X58815819Y13472996D01*
X58675785Y13531000D01*
X57845750Y13531000D01*
X57750500Y13435750D01*
X57749500Y13435750D01*
X57654250Y13531000D01*
X56824215Y13531000D01*
X56684181Y13472996D01*
X56577004Y13365820D01*
X56519000Y13225786D01*
X55635390Y13225786D01*
X55574610Y13238094D01*
X54825310Y13238094D01*
X54724606Y13219145D01*
X54694386Y13371071D01*
X54651169Y13435750D01*
X54590119Y13527118D01*
X54076118Y14041118D01*
X53920071Y14145386D01*
X53736000Y14182000D01*
X52997606Y14182000D01*
X50589803Y16589803D01*
X50547789Y16617666D01*
X50504022Y16626215D01*
X50292519Y16837717D01*
X50136472Y16941985D01*
X49952401Y16978599D01*
X44201638Y16978599D01*
X40340118Y20840118D01*
X40184071Y20944386D01*
X40000000Y20981000D01*
X39831000Y20981000D01*
X39831000Y21154250D01*
X39735750Y21249500D01*
X39000500Y21249500D01*
X39000500Y21229500D01*
X38999500Y21229500D01*
X38999500Y21249500D01*
X38264250Y21249500D01*
X38169000Y21154250D01*
X38169000Y20981000D01*
X36198606Y20981000D01*
X35603820Y21575786D01*
X38169000Y21575786D01*
X38169000Y21345750D01*
X38264250Y21250500D01*
X38999500Y21250500D01*
X38999500Y21785750D01*
X39000500Y21785750D01*
X39000500Y21250500D01*
X39735750Y21250500D01*
X39831000Y21345750D01*
X39831000Y21575786D01*
X39772996Y21715820D01*
X39665819Y21822996D01*
X39525785Y21881000D01*
X39095750Y21881000D01*
X39000500Y21785750D01*
X38999500Y21785750D01*
X38904250Y21881000D01*
X38474215Y21881000D01*
X38334181Y21822996D01*
X38227004Y21715820D01*
X38169000Y21575786D01*
X35603820Y21575786D01*
X35377000Y21802606D01*
X35377000Y22019000D01*
X42301394Y22019000D01*
X43564205Y20756189D01*
X43564205Y20756189D01*
G37*
X43564205Y20756189D02*
X43564081Y20614184D01*
X43668268Y20362033D01*
X43861018Y20168946D01*
X44112987Y20064319D01*
X44114024Y20064318D01*
X44589171Y19589171D01*
X44760059Y19474987D01*
X44763103Y19458810D01*
X44846546Y19329135D01*
X44973866Y19242141D01*
X45104759Y19215635D01*
X45160197Y19160197D01*
X45202211Y19132334D01*
X45250000Y19123000D01*
X50721668Y19123000D01*
X50862987Y19064319D01*
X51135816Y19064081D01*
X51278410Y19123000D01*
X54171764Y19123000D01*
X54634882Y18659881D01*
X54790930Y18555613D01*
X54975000Y18519000D01*
X58350000Y18519000D01*
X58534071Y18555614D01*
X58690118Y18659882D01*
X59153236Y19123000D01*
X60197394Y19123000D01*
X60873000Y18447394D01*
X60873000Y13340732D01*
X60775785Y13381000D01*
X60345750Y13381000D01*
X60250500Y13285750D01*
X60250500Y12750500D01*
X60270500Y12750500D01*
X60270500Y12749500D01*
X60250500Y12749500D01*
X60250500Y12729500D01*
X60249500Y12729500D01*
X60249500Y12749500D01*
X59514250Y12749500D01*
X59419000Y12654250D01*
X59419000Y12424214D01*
X59477004Y12284180D01*
X59584181Y12177004D01*
X59704901Y12127000D01*
X58961443Y12127000D01*
X58981000Y12174214D01*
X58981000Y12604250D01*
X58885750Y12699500D01*
X57750500Y12699500D01*
X57750500Y12679500D01*
X57749500Y12679500D01*
X57749500Y12699500D01*
X56614250Y12699500D01*
X56542259Y12627509D01*
X56388982Y12781054D01*
X56137013Y12885681D01*
X55956261Y12885839D01*
X55936507Y12990820D01*
X55853064Y13120495D01*
X55725744Y13207489D01*
X55635390Y13225786D01*
X56519000Y13225786D01*
X56519000Y12795750D01*
X56614250Y12700500D01*
X57749500Y12700500D01*
X57749500Y13435750D01*
X57750500Y13435750D01*
X57750500Y12700500D01*
X58885750Y12700500D01*
X58981000Y12795750D01*
X58981000Y13075786D01*
X59419000Y13075786D01*
X59419000Y12845750D01*
X59514250Y12750500D01*
X60249500Y12750500D01*
X60249500Y13285750D01*
X60154250Y13381000D01*
X59724215Y13381000D01*
X59584181Y13322996D01*
X59477004Y13215820D01*
X59419000Y13075786D01*
X58981000Y13075786D01*
X58981000Y13225786D01*
X58922996Y13365820D01*
X58815819Y13472996D01*
X58675785Y13531000D01*
X57845750Y13531000D01*
X57750500Y13435750D01*
X57749500Y13435750D01*
X57654250Y13531000D01*
X56824215Y13531000D01*
X56684181Y13472996D01*
X56577004Y13365820D01*
X56519000Y13225786D01*
X55635390Y13225786D01*
X55574610Y13238094D01*
X54825310Y13238094D01*
X54724606Y13219145D01*
X54694386Y13371071D01*
X54651169Y13435750D01*
X54590119Y13527118D01*
X54076118Y14041118D01*
X53920071Y14145386D01*
X53736000Y14182000D01*
X52997606Y14182000D01*
X50589803Y16589803D01*
X50547789Y16617666D01*
X50504022Y16626215D01*
X50292519Y16837717D01*
X50136472Y16941985D01*
X49952401Y16978599D01*
X44201638Y16978599D01*
X40340118Y20840118D01*
X40184071Y20944386D01*
X40000000Y20981000D01*
X39831000Y20981000D01*
X39831000Y21154250D01*
X39735750Y21249500D01*
X39000500Y21249500D01*
X39000500Y21229500D01*
X38999500Y21229500D01*
X38999500Y21249500D01*
X38264250Y21249500D01*
X38169000Y21154250D01*
X38169000Y20981000D01*
X36198606Y20981000D01*
X35603820Y21575786D01*
X38169000Y21575786D01*
X38169000Y21345750D01*
X38264250Y21250500D01*
X38999500Y21250500D01*
X38999500Y21785750D01*
X39000500Y21785750D01*
X39000500Y21250500D01*
X39735750Y21250500D01*
X39831000Y21345750D01*
X39831000Y21575786D01*
X39772996Y21715820D01*
X39665819Y21822996D01*
X39525785Y21881000D01*
X39095750Y21881000D01*
X39000500Y21785750D01*
X38999500Y21785750D01*
X38904250Y21881000D01*
X38474215Y21881000D01*
X38334181Y21822996D01*
X38227004Y21715820D01*
X38169000Y21575786D01*
X35603820Y21575786D01*
X35377000Y21802606D01*
X35377000Y22019000D01*
X42301394Y22019000D01*
X43564205Y20756189D01*
G36*
X31611018Y20768946D02*
X31862987Y20664319D01*
X32135816Y20664081D01*
X32387967Y20768268D01*
X32488875Y20869000D01*
X34900764Y20869000D01*
X35609882Y20159881D01*
X35765930Y20055613D01*
X35950000Y20019000D01*
X38169000Y20019000D01*
X38169000Y19845750D01*
X38264250Y19750500D01*
X38999500Y19750500D01*
X38999500Y19770500D01*
X39000500Y19770500D01*
X39000500Y19750500D01*
X39020500Y19750500D01*
X39020500Y19749500D01*
X39000500Y19749500D01*
X39000500Y19214250D01*
X39095750Y19119000D01*
X39525785Y19119000D01*
X39623000Y19159268D01*
X39623000Y16500000D01*
X39633006Y16450590D01*
X39661447Y16408965D01*
X39703841Y16381685D01*
X39750000Y16373000D01*
X43446763Y16373000D01*
X43662283Y16157480D01*
X43736547Y16107859D01*
X43818330Y16053213D01*
X44002401Y16016599D01*
X49753165Y16016599D01*
X52408881Y13360882D01*
X52476158Y13315929D01*
X52564929Y13256614D01*
X52749000Y13220000D01*
X52823942Y13220000D01*
X52709571Y13172626D01*
X52602394Y13065450D01*
X52544390Y12925416D01*
X52544390Y12745990D01*
X52639640Y12650740D01*
X53299540Y12650740D01*
X53299540Y12670740D01*
X53300540Y12670740D01*
X53300540Y12650740D01*
X53320540Y12650740D01*
X53320540Y12649740D01*
X53300540Y12649740D01*
X53300540Y12629740D01*
X53299540Y12629740D01*
X53299540Y12649740D01*
X52639640Y12649740D01*
X52544390Y12554490D01*
X52544390Y12444997D01*
X52541319Y12444386D01*
X52491098Y12410829D01*
X52385272Y12340119D01*
X52252882Y12207728D01*
X52174770Y12090826D01*
X52122996Y12215820D01*
X52015819Y12322996D01*
X51875785Y12381000D01*
X51095750Y12381000D01*
X51000500Y12285750D01*
X51000500Y11500500D01*
X51020500Y11500500D01*
X51020500Y11499500D01*
X51000500Y11499500D01*
X51000500Y10714250D01*
X51095750Y10619000D01*
X51875785Y10619000D01*
X52015819Y10677004D01*
X52112000Y10773184D01*
X52112000Y10723089D01*
X52034319Y10536013D01*
X52034081Y10263184D01*
X52087092Y10134887D01*
X50999493Y10127000D01*
X45981000Y10127000D01*
X45981000Y11361536D01*
X46000000Y11361536D01*
X46141190Y11388103D01*
X46166283Y11404250D01*
X47069000Y11404250D01*
X47069000Y10924214D01*
X47127004Y10784180D01*
X47234181Y10677004D01*
X47374215Y10619000D01*
X48154250Y10619000D01*
X48249500Y10714250D01*
X48249500Y11499500D01*
X48250500Y11499500D01*
X48250500Y10714250D01*
X48345750Y10619000D01*
X49125785Y10619000D01*
X49265819Y10677004D01*
X49372996Y10784180D01*
X49431000Y10924214D01*
X49431000Y11404250D01*
X49819000Y11404250D01*
X49819000Y10924214D01*
X49877004Y10784180D01*
X49984181Y10677004D01*
X50124215Y10619000D01*
X50904250Y10619000D01*
X50999500Y10714250D01*
X50999500Y11499500D01*
X49914250Y11499500D01*
X49819000Y11404250D01*
X49431000Y11404250D01*
X49335750Y11499500D01*
X48250500Y11499500D01*
X48249500Y11499500D01*
X47164250Y11499500D01*
X47069000Y11404250D01*
X46166283Y11404250D01*
X46270865Y11471546D01*
X46357859Y11598866D01*
X46388464Y11750000D01*
X46388464Y12075786D01*
X47069000Y12075786D01*
X47069000Y11595750D01*
X47164250Y11500500D01*
X48249500Y11500500D01*
X48249500Y12285750D01*
X48250500Y12285750D01*
X48250500Y11500500D01*
X49335750Y11500500D01*
X49431000Y11595750D01*
X49431000Y12075786D01*
X49819000Y12075786D01*
X49819000Y11595750D01*
X49914250Y11500500D01*
X50999500Y11500500D01*
X50999500Y12285750D01*
X50904250Y12381000D01*
X50124215Y12381000D01*
X49984181Y12322996D01*
X49877004Y12215820D01*
X49819000Y12075786D01*
X49431000Y12075786D01*
X49372996Y12215820D01*
X49265819Y12322996D01*
X49125785Y12381000D01*
X48345750Y12381000D01*
X48250500Y12285750D01*
X48249500Y12285750D01*
X48154250Y12381000D01*
X47374215Y12381000D01*
X47234181Y12322996D01*
X47127004Y12215820D01*
X47069000Y12075786D01*
X46388464Y12075786D01*
X46388464Y14500000D01*
X46361897Y14641190D01*
X46278454Y14770865D01*
X46151134Y14857859D01*
X46000000Y14888464D01*
X45000000Y14888464D01*
X44858810Y14861897D01*
X44729135Y14778454D01*
X44642141Y14651134D01*
X44611536Y14500000D01*
X44611536Y11750000D01*
X44638103Y11608810D01*
X44721546Y11479135D01*
X44848866Y11392141D01*
X45000000Y11361536D01*
X45019000Y11361536D01*
X45019000Y10127000D01*
X42081000Y10127000D01*
X42081000Y11376777D01*
X42141190Y11388103D01*
X42270865Y11471546D01*
X42357859Y11598866D01*
X42388464Y11750000D01*
X42388464Y14500000D01*
X42361897Y14641190D01*
X42278454Y14770865D01*
X42151134Y14857859D01*
X42000000Y14888464D01*
X41000000Y14888464D01*
X40858810Y14861897D01*
X40729135Y14778454D01*
X40642141Y14651134D01*
X40619268Y14538182D01*
X40616994Y14549410D01*
X40588553Y14591035D01*
X40546159Y14618315D01*
X40500000Y14627000D01*
X39750000Y14627000D01*
X39700590Y14616994D01*
X39658965Y14588553D01*
X39631685Y14546159D01*
X39623000Y14500000D01*
X39623000Y12552606D01*
X38947394Y11877000D01*
X37935693Y11877000D01*
X37935919Y12135816D01*
X37831732Y12387967D01*
X37638982Y12581054D01*
X37387013Y12685681D01*
X37114184Y12685919D01*
X36862033Y12581732D01*
X36861300Y12581000D01*
X36640443Y12581000D01*
X36601134Y12607859D01*
X36450000Y12638464D01*
X35550000Y12638464D01*
X35408810Y12611897D01*
X35279135Y12528454D01*
X35192141Y12401134D01*
X35161536Y12250000D01*
X35161536Y12101544D01*
X35029760Y12233320D01*
X34808828Y12380942D01*
X34548220Y12432780D01*
X33663744Y12432780D01*
X33551184Y12509689D01*
X33481000Y12523901D01*
X33481000Y12976209D01*
X33549950Y12962246D01*
X34350050Y12962246D01*
X34491240Y12988813D01*
X34538152Y13019000D01*
X35245894Y13019000D01*
X35271546Y12979135D01*
X35398866Y12892141D01*
X35550000Y12861536D01*
X36450000Y12861536D01*
X36591190Y12888103D01*
X36720865Y12971546D01*
X36807859Y13098866D01*
X36838464Y13250000D01*
X36838464Y13750000D01*
X36811897Y13891190D01*
X36728454Y14020865D01*
X36601134Y14107859D01*
X36450000Y14138464D01*
X35550000Y14138464D01*
X35408810Y14111897D01*
X35279135Y14028454D01*
X35246711Y13981000D01*
X34738514Y13981000D01*
X34738514Y14150810D01*
X34711947Y14292000D01*
X34628504Y14421675D01*
X34501184Y14508669D01*
X34431000Y14522881D01*
X34431000Y14586536D01*
X34630000Y14586536D01*
X34771190Y14613103D01*
X34900865Y14696546D01*
X34987859Y14823866D01*
X35018464Y14975000D01*
X35018464Y15601300D01*
X35161536Y15458228D01*
X35161536Y15250000D01*
X35188103Y15108810D01*
X35271546Y14979135D01*
X35398866Y14892141D01*
X35550000Y14861536D01*
X36450000Y14861536D01*
X36591190Y14888103D01*
X36720865Y14971546D01*
X36807859Y15098866D01*
X36838464Y15250000D01*
X36838464Y15750000D01*
X36811897Y15891190D01*
X36728454Y16020865D01*
X36601134Y16107859D01*
X36450000Y16138464D01*
X35841772Y16138464D01*
X35618700Y16361536D01*
X36450000Y16361536D01*
X36591190Y16388103D01*
X36639206Y16419000D01*
X36860964Y16419000D01*
X36861018Y16418946D01*
X37112987Y16314319D01*
X37385816Y16314081D01*
X37637967Y16418268D01*
X37831054Y16611018D01*
X37935681Y16862987D01*
X37935919Y17135816D01*
X37831732Y17387967D01*
X37638982Y17581054D01*
X37387013Y17685681D01*
X37114184Y17685919D01*
X36862033Y17581732D01*
X36861300Y17581000D01*
X36640443Y17581000D01*
X36601134Y17607859D01*
X36450000Y17638464D01*
X35550000Y17638464D01*
X35408810Y17611897D01*
X35279135Y17528454D01*
X35192141Y17401134D01*
X35161536Y17250000D01*
X35161536Y16750000D01*
X35169587Y16707213D01*
X35050000Y16731000D01*
X34989304Y16731000D01*
X35018464Y16875000D01*
X35018464Y17525000D01*
X34991897Y17666190D01*
X34908454Y17795865D01*
X34781134Y17882859D01*
X34630000Y17913464D01*
X33570000Y17913464D01*
X33428810Y17886897D01*
X33299135Y17803454D01*
X33212141Y17676134D01*
X33181536Y17525000D01*
X33181536Y17328700D01*
X32970118Y17540118D01*
X32814071Y17644386D01*
X32795297Y17648120D01*
X32791897Y17666190D01*
X32708454Y17795865D01*
X32581134Y17882859D01*
X32430000Y17913464D01*
X31370000Y17913464D01*
X31228810Y17886897D01*
X31099135Y17803454D01*
X31012141Y17676134D01*
X30981536Y17525000D01*
X30981536Y16875000D01*
X31008103Y16733810D01*
X31012605Y16726813D01*
X31012141Y16726134D01*
X30981536Y16575000D01*
X30981536Y15925000D01*
X31008103Y15783810D01*
X31017403Y15769357D01*
X30989000Y15700785D01*
X30989000Y15395750D01*
X31084250Y15300500D01*
X31899500Y15300500D01*
X31899500Y15320500D01*
X31900500Y15320500D01*
X31900500Y15300500D01*
X31920500Y15300500D01*
X31920500Y15299500D01*
X31900500Y15299500D01*
X31900500Y14689250D01*
X31995750Y14594000D01*
X32505786Y14594000D01*
X32519000Y14599473D01*
X32519000Y14531810D01*
X32145750Y14531810D01*
X32050500Y14436560D01*
X32050500Y13751260D01*
X32070500Y13751260D01*
X32070500Y13750260D01*
X32050500Y13750260D01*
X32050500Y13064960D01*
X32145750Y12969710D01*
X32519000Y12969710D01*
X32519000Y12525062D01*
X32458760Y12513727D01*
X32329085Y12430284D01*
X32242091Y12302964D01*
X32211486Y12151830D01*
X32211486Y11877000D01*
X31185693Y11877000D01*
X31185919Y12135816D01*
X31081732Y12387967D01*
X30888982Y12581054D01*
X30637013Y12685681D01*
X30364184Y12685919D01*
X30190063Y12613973D01*
X30153454Y12670865D01*
X30033103Y12753097D01*
X30090819Y12777004D01*
X30197996Y12884180D01*
X30256000Y13024214D01*
X30256000Y13404250D01*
X30160750Y13499500D01*
X29500500Y13499500D01*
X29500500Y13479500D01*
X29499500Y13479500D01*
X29499500Y13499500D01*
X28839250Y13499500D01*
X28744000Y13404250D01*
X28744000Y13024214D01*
X28802004Y12884180D01*
X28909181Y12777004D01*
X28968867Y12752281D01*
X28854135Y12678454D01*
X28767141Y12551134D01*
X28736536Y12400000D01*
X28736536Y12193070D01*
X28627000Y12302606D01*
X28627000Y13975786D01*
X28744000Y13975786D01*
X28744000Y13595750D01*
X28839250Y13500500D01*
X29499500Y13500500D01*
X29499500Y14185750D01*
X29500500Y14185750D01*
X29500500Y13500500D01*
X30160750Y13500500D01*
X30256000Y13595750D01*
X30256000Y13655010D01*
X31268950Y13655010D01*
X31268950Y13274925D01*
X31326954Y13134891D01*
X31434130Y13027714D01*
X31574164Y12969710D01*
X31954250Y12969710D01*
X32049500Y13064960D01*
X32049500Y13750260D01*
X31364200Y13750260D01*
X31268950Y13655010D01*
X30256000Y13655010D01*
X30256000Y13975786D01*
X30197996Y14115820D01*
X30090819Y14222996D01*
X30082131Y14226595D01*
X31268950Y14226595D01*
X31268950Y13846510D01*
X31364200Y13751260D01*
X32049500Y13751260D01*
X32049500Y14436560D01*
X31954250Y14531810D01*
X31574164Y14531810D01*
X31434130Y14473806D01*
X31326954Y14366629D01*
X31268950Y14226595D01*
X30082131Y14226595D01*
X29950785Y14281000D01*
X29595750Y14281000D01*
X29500500Y14185750D01*
X29499500Y14185750D01*
X29404250Y14281000D01*
X29049215Y14281000D01*
X28909181Y14222996D01*
X28802004Y14115820D01*
X28744000Y13975786D01*
X28627000Y13975786D01*
X28627000Y15204250D01*
X28689000Y15204250D01*
X28689000Y14899215D01*
X28747004Y14759181D01*
X28854180Y14652004D01*
X28994214Y14594000D01*
X29504250Y14594000D01*
X29599500Y14689250D01*
X29599500Y15299500D01*
X29600500Y15299500D01*
X29600500Y14689250D01*
X29695750Y14594000D01*
X30205786Y14594000D01*
X30345820Y14652004D01*
X30452996Y14759181D01*
X30511000Y14899215D01*
X30511000Y15204250D01*
X30989000Y15204250D01*
X30989000Y14899215D01*
X31047004Y14759181D01*
X31154180Y14652004D01*
X31294214Y14594000D01*
X31804250Y14594000D01*
X31899500Y14689250D01*
X31899500Y15299500D01*
X31084250Y15299500D01*
X30989000Y15204250D01*
X30511000Y15204250D01*
X30415750Y15299500D01*
X29600500Y15299500D01*
X29599500Y15299500D01*
X28784250Y15299500D01*
X28689000Y15204250D01*
X28627000Y15204250D01*
X28627000Y16575000D01*
X28681536Y16575000D01*
X28681536Y15925000D01*
X28708103Y15783810D01*
X28717403Y15769357D01*
X28689000Y15700785D01*
X28689000Y15395750D01*
X28784250Y15300500D01*
X29599500Y15300500D01*
X29599500Y15320500D01*
X29600500Y15320500D01*
X29600500Y15300500D01*
X30415750Y15300500D01*
X30511000Y15395750D01*
X30511000Y15700785D01*
X30483420Y15767369D01*
X30487859Y15773866D01*
X30518464Y15925000D01*
X30518464Y16575000D01*
X30491897Y16716190D01*
X30482597Y16730643D01*
X30511000Y16799215D01*
X30511000Y17104250D01*
X30415750Y17199500D01*
X29600500Y17199500D01*
X29600500Y17179500D01*
X29599500Y17179500D01*
X29599500Y17199500D01*
X28784250Y17199500D01*
X28689000Y17104250D01*
X28689000Y16799215D01*
X28716580Y16732631D01*
X28712141Y16726134D01*
X28681536Y16575000D01*
X28627000Y16575000D01*
X28627000Y17600785D01*
X28689000Y17600785D01*
X28689000Y17295750D01*
X28784250Y17200500D01*
X29599500Y17200500D01*
X29599500Y17810750D01*
X29600500Y17810750D01*
X29600500Y17200500D01*
X30415750Y17200500D01*
X30511000Y17295750D01*
X30511000Y17600785D01*
X30452996Y17740819D01*
X30345820Y17847996D01*
X30205786Y17906000D01*
X29695750Y17906000D01*
X29600500Y17810750D01*
X29599500Y17810750D01*
X29504250Y17906000D01*
X28994214Y17906000D01*
X28854180Y17847996D01*
X28747004Y17740819D01*
X28689000Y17600785D01*
X28627000Y17600785D01*
X28627000Y19056085D01*
X29225165Y19654250D01*
X38169000Y19654250D01*
X38169000Y19424214D01*
X38227004Y19284180D01*
X38334181Y19177004D01*
X38474215Y19119000D01*
X38904250Y19119000D01*
X38999500Y19214250D01*
X38999500Y19749500D01*
X38264250Y19749500D01*
X38169000Y19654250D01*
X29225165Y19654250D01*
X30340118Y20769203D01*
X30409473Y20873000D01*
X31507146Y20873000D01*
X31611018Y20768946D01*
X31611018Y20768946D01*
G37*
X31611018Y20768946D02*
X31862987Y20664319D01*
X32135816Y20664081D01*
X32387967Y20768268D01*
X32488875Y20869000D01*
X34900764Y20869000D01*
X35609882Y20159881D01*
X35765930Y20055613D01*
X35950000Y20019000D01*
X38169000Y20019000D01*
X38169000Y19845750D01*
X38264250Y19750500D01*
X38999500Y19750500D01*
X38999500Y19770500D01*
X39000500Y19770500D01*
X39000500Y19750500D01*
X39020500Y19750500D01*
X39020500Y19749500D01*
X39000500Y19749500D01*
X39000500Y19214250D01*
X39095750Y19119000D01*
X39525785Y19119000D01*
X39623000Y19159268D01*
X39623000Y16500000D01*
X39633006Y16450590D01*
X39661447Y16408965D01*
X39703841Y16381685D01*
X39750000Y16373000D01*
X43446763Y16373000D01*
X43662283Y16157480D01*
X43736547Y16107859D01*
X43818330Y16053213D01*
X44002401Y16016599D01*
X49753165Y16016599D01*
X52408881Y13360882D01*
X52476158Y13315929D01*
X52564929Y13256614D01*
X52749000Y13220000D01*
X52823942Y13220000D01*
X52709571Y13172626D01*
X52602394Y13065450D01*
X52544390Y12925416D01*
X52544390Y12745990D01*
X52639640Y12650740D01*
X53299540Y12650740D01*
X53299540Y12670740D01*
X53300540Y12670740D01*
X53300540Y12650740D01*
X53320540Y12650740D01*
X53320540Y12649740D01*
X53300540Y12649740D01*
X53300540Y12629740D01*
X53299540Y12629740D01*
X53299540Y12649740D01*
X52639640Y12649740D01*
X52544390Y12554490D01*
X52544390Y12444997D01*
X52541319Y12444386D01*
X52491098Y12410829D01*
X52385272Y12340119D01*
X52252882Y12207728D01*
X52174770Y12090826D01*
X52122996Y12215820D01*
X52015819Y12322996D01*
X51875785Y12381000D01*
X51095750Y12381000D01*
X51000500Y12285750D01*
X51000500Y11500500D01*
X51020500Y11500500D01*
X51020500Y11499500D01*
X51000500Y11499500D01*
X51000500Y10714250D01*
X51095750Y10619000D01*
X51875785Y10619000D01*
X52015819Y10677004D01*
X52112000Y10773184D01*
X52112000Y10723089D01*
X52034319Y10536013D01*
X52034081Y10263184D01*
X52087092Y10134887D01*
X50999493Y10127000D01*
X45981000Y10127000D01*
X45981000Y11361536D01*
X46000000Y11361536D01*
X46141190Y11388103D01*
X46166283Y11404250D01*
X47069000Y11404250D01*
X47069000Y10924214D01*
X47127004Y10784180D01*
X47234181Y10677004D01*
X47374215Y10619000D01*
X48154250Y10619000D01*
X48249500Y10714250D01*
X48249500Y11499500D01*
X48250500Y11499500D01*
X48250500Y10714250D01*
X48345750Y10619000D01*
X49125785Y10619000D01*
X49265819Y10677004D01*
X49372996Y10784180D01*
X49431000Y10924214D01*
X49431000Y11404250D01*
X49819000Y11404250D01*
X49819000Y10924214D01*
X49877004Y10784180D01*
X49984181Y10677004D01*
X50124215Y10619000D01*
X50904250Y10619000D01*
X50999500Y10714250D01*
X50999500Y11499500D01*
X49914250Y11499500D01*
X49819000Y11404250D01*
X49431000Y11404250D01*
X49335750Y11499500D01*
X48250500Y11499500D01*
X48249500Y11499500D01*
X47164250Y11499500D01*
X47069000Y11404250D01*
X46166283Y11404250D01*
X46270865Y11471546D01*
X46357859Y11598866D01*
X46388464Y11750000D01*
X46388464Y12075786D01*
X47069000Y12075786D01*
X47069000Y11595750D01*
X47164250Y11500500D01*
X48249500Y11500500D01*
X48249500Y12285750D01*
X48250500Y12285750D01*
X48250500Y11500500D01*
X49335750Y11500500D01*
X49431000Y11595750D01*
X49431000Y12075786D01*
X49819000Y12075786D01*
X49819000Y11595750D01*
X49914250Y11500500D01*
X50999500Y11500500D01*
X50999500Y12285750D01*
X50904250Y12381000D01*
X50124215Y12381000D01*
X49984181Y12322996D01*
X49877004Y12215820D01*
X49819000Y12075786D01*
X49431000Y12075786D01*
X49372996Y12215820D01*
X49265819Y12322996D01*
X49125785Y12381000D01*
X48345750Y12381000D01*
X48250500Y12285750D01*
X48249500Y12285750D01*
X48154250Y12381000D01*
X47374215Y12381000D01*
X47234181Y12322996D01*
X47127004Y12215820D01*
X47069000Y12075786D01*
X46388464Y12075786D01*
X46388464Y14500000D01*
X46361897Y14641190D01*
X46278454Y14770865D01*
X46151134Y14857859D01*
X46000000Y14888464D01*
X45000000Y14888464D01*
X44858810Y14861897D01*
X44729135Y14778454D01*
X44642141Y14651134D01*
X44611536Y14500000D01*
X44611536Y11750000D01*
X44638103Y11608810D01*
X44721546Y11479135D01*
X44848866Y11392141D01*
X45000000Y11361536D01*
X45019000Y11361536D01*
X45019000Y10127000D01*
X42081000Y10127000D01*
X42081000Y11376777D01*
X42141190Y11388103D01*
X42270865Y11471546D01*
X42357859Y11598866D01*
X42388464Y11750000D01*
X42388464Y14500000D01*
X42361897Y14641190D01*
X42278454Y14770865D01*
X42151134Y14857859D01*
X42000000Y14888464D01*
X41000000Y14888464D01*
X40858810Y14861897D01*
X40729135Y14778454D01*
X40642141Y14651134D01*
X40619268Y14538182D01*
X40616994Y14549410D01*
X40588553Y14591035D01*
X40546159Y14618315D01*
X40500000Y14627000D01*
X39750000Y14627000D01*
X39700590Y14616994D01*
X39658965Y14588553D01*
X39631685Y14546159D01*
X39623000Y14500000D01*
X39623000Y12552606D01*
X38947394Y11877000D01*
X37935693Y11877000D01*
X37935919Y12135816D01*
X37831732Y12387967D01*
X37638982Y12581054D01*
X37387013Y12685681D01*
X37114184Y12685919D01*
X36862033Y12581732D01*
X36861300Y12581000D01*
X36640443Y12581000D01*
X36601134Y12607859D01*
X36450000Y12638464D01*
X35550000Y12638464D01*
X35408810Y12611897D01*
X35279135Y12528454D01*
X35192141Y12401134D01*
X35161536Y12250000D01*
X35161536Y12101544D01*
X35029760Y12233320D01*
X34808828Y12380942D01*
X34548220Y12432780D01*
X33663744Y12432780D01*
X33551184Y12509689D01*
X33481000Y12523901D01*
X33481000Y12976209D01*
X33549950Y12962246D01*
X34350050Y12962246D01*
X34491240Y12988813D01*
X34538152Y13019000D01*
X35245894Y13019000D01*
X35271546Y12979135D01*
X35398866Y12892141D01*
X35550000Y12861536D01*
X36450000Y12861536D01*
X36591190Y12888103D01*
X36720865Y12971546D01*
X36807859Y13098866D01*
X36838464Y13250000D01*
X36838464Y13750000D01*
X36811897Y13891190D01*
X36728454Y14020865D01*
X36601134Y14107859D01*
X36450000Y14138464D01*
X35550000Y14138464D01*
X35408810Y14111897D01*
X35279135Y14028454D01*
X35246711Y13981000D01*
X34738514Y13981000D01*
X34738514Y14150810D01*
X34711947Y14292000D01*
X34628504Y14421675D01*
X34501184Y14508669D01*
X34431000Y14522881D01*
X34431000Y14586536D01*
X34630000Y14586536D01*
X34771190Y14613103D01*
X34900865Y14696546D01*
X34987859Y14823866D01*
X35018464Y14975000D01*
X35018464Y15601300D01*
X35161536Y15458228D01*
X35161536Y15250000D01*
X35188103Y15108810D01*
X35271546Y14979135D01*
X35398866Y14892141D01*
X35550000Y14861536D01*
X36450000Y14861536D01*
X36591190Y14888103D01*
X36720865Y14971546D01*
X36807859Y15098866D01*
X36838464Y15250000D01*
X36838464Y15750000D01*
X36811897Y15891190D01*
X36728454Y16020865D01*
X36601134Y16107859D01*
X36450000Y16138464D01*
X35841772Y16138464D01*
X35618700Y16361536D01*
X36450000Y16361536D01*
X36591190Y16388103D01*
X36639206Y16419000D01*
X36860964Y16419000D01*
X36861018Y16418946D01*
X37112987Y16314319D01*
X37385816Y16314081D01*
X37637967Y16418268D01*
X37831054Y16611018D01*
X37935681Y16862987D01*
X37935919Y17135816D01*
X37831732Y17387967D01*
X37638982Y17581054D01*
X37387013Y17685681D01*
X37114184Y17685919D01*
X36862033Y17581732D01*
X36861300Y17581000D01*
X36640443Y17581000D01*
X36601134Y17607859D01*
X36450000Y17638464D01*
X35550000Y17638464D01*
X35408810Y17611897D01*
X35279135Y17528454D01*
X35192141Y17401134D01*
X35161536Y17250000D01*
X35161536Y16750000D01*
X35169587Y16707213D01*
X35050000Y16731000D01*
X34989304Y16731000D01*
X35018464Y16875000D01*
X35018464Y17525000D01*
X34991897Y17666190D01*
X34908454Y17795865D01*
X34781134Y17882859D01*
X34630000Y17913464D01*
X33570000Y17913464D01*
X33428810Y17886897D01*
X33299135Y17803454D01*
X33212141Y17676134D01*
X33181536Y17525000D01*
X33181536Y17328700D01*
X32970118Y17540118D01*
X32814071Y17644386D01*
X32795297Y17648120D01*
X32791897Y17666190D01*
X32708454Y17795865D01*
X32581134Y17882859D01*
X32430000Y17913464D01*
X31370000Y17913464D01*
X31228810Y17886897D01*
X31099135Y17803454D01*
X31012141Y17676134D01*
X30981536Y17525000D01*
X30981536Y16875000D01*
X31008103Y16733810D01*
X31012605Y16726813D01*
X31012141Y16726134D01*
X30981536Y16575000D01*
X30981536Y15925000D01*
X31008103Y15783810D01*
X31017403Y15769357D01*
X30989000Y15700785D01*
X30989000Y15395750D01*
X31084250Y15300500D01*
X31899500Y15300500D01*
X31899500Y15320500D01*
X31900500Y15320500D01*
X31900500Y15300500D01*
X31920500Y15300500D01*
X31920500Y15299500D01*
X31900500Y15299500D01*
X31900500Y14689250D01*
X31995750Y14594000D01*
X32505786Y14594000D01*
X32519000Y14599473D01*
X32519000Y14531810D01*
X32145750Y14531810D01*
X32050500Y14436560D01*
X32050500Y13751260D01*
X32070500Y13751260D01*
X32070500Y13750260D01*
X32050500Y13750260D01*
X32050500Y13064960D01*
X32145750Y12969710D01*
X32519000Y12969710D01*
X32519000Y12525062D01*
X32458760Y12513727D01*
X32329085Y12430284D01*
X32242091Y12302964D01*
X32211486Y12151830D01*
X32211486Y11877000D01*
X31185693Y11877000D01*
X31185919Y12135816D01*
X31081732Y12387967D01*
X30888982Y12581054D01*
X30637013Y12685681D01*
X30364184Y12685919D01*
X30190063Y12613973D01*
X30153454Y12670865D01*
X30033103Y12753097D01*
X30090819Y12777004D01*
X30197996Y12884180D01*
X30256000Y13024214D01*
X30256000Y13404250D01*
X30160750Y13499500D01*
X29500500Y13499500D01*
X29500500Y13479500D01*
X29499500Y13479500D01*
X29499500Y13499500D01*
X28839250Y13499500D01*
X28744000Y13404250D01*
X28744000Y13024214D01*
X28802004Y12884180D01*
X28909181Y12777004D01*
X28968867Y12752281D01*
X28854135Y12678454D01*
X28767141Y12551134D01*
X28736536Y12400000D01*
X28736536Y12193070D01*
X28627000Y12302606D01*
X28627000Y13975786D01*
X28744000Y13975786D01*
X28744000Y13595750D01*
X28839250Y13500500D01*
X29499500Y13500500D01*
X29499500Y14185750D01*
X29500500Y14185750D01*
X29500500Y13500500D01*
X30160750Y13500500D01*
X30256000Y13595750D01*
X30256000Y13655010D01*
X31268950Y13655010D01*
X31268950Y13274925D01*
X31326954Y13134891D01*
X31434130Y13027714D01*
X31574164Y12969710D01*
X31954250Y12969710D01*
X32049500Y13064960D01*
X32049500Y13750260D01*
X31364200Y13750260D01*
X31268950Y13655010D01*
X30256000Y13655010D01*
X30256000Y13975786D01*
X30197996Y14115820D01*
X30090819Y14222996D01*
X30082131Y14226595D01*
X31268950Y14226595D01*
X31268950Y13846510D01*
X31364200Y13751260D01*
X32049500Y13751260D01*
X32049500Y14436560D01*
X31954250Y14531810D01*
X31574164Y14531810D01*
X31434130Y14473806D01*
X31326954Y14366629D01*
X31268950Y14226595D01*
X30082131Y14226595D01*
X29950785Y14281000D01*
X29595750Y14281000D01*
X29500500Y14185750D01*
X29499500Y14185750D01*
X29404250Y14281000D01*
X29049215Y14281000D01*
X28909181Y14222996D01*
X28802004Y14115820D01*
X28744000Y13975786D01*
X28627000Y13975786D01*
X28627000Y15204250D01*
X28689000Y15204250D01*
X28689000Y14899215D01*
X28747004Y14759181D01*
X28854180Y14652004D01*
X28994214Y14594000D01*
X29504250Y14594000D01*
X29599500Y14689250D01*
X29599500Y15299500D01*
X29600500Y15299500D01*
X29600500Y14689250D01*
X29695750Y14594000D01*
X30205786Y14594000D01*
X30345820Y14652004D01*
X30452996Y14759181D01*
X30511000Y14899215D01*
X30511000Y15204250D01*
X30989000Y15204250D01*
X30989000Y14899215D01*
X31047004Y14759181D01*
X31154180Y14652004D01*
X31294214Y14594000D01*
X31804250Y14594000D01*
X31899500Y14689250D01*
X31899500Y15299500D01*
X31084250Y15299500D01*
X30989000Y15204250D01*
X30511000Y15204250D01*
X30415750Y15299500D01*
X29600500Y15299500D01*
X29599500Y15299500D01*
X28784250Y15299500D01*
X28689000Y15204250D01*
X28627000Y15204250D01*
X28627000Y16575000D01*
X28681536Y16575000D01*
X28681536Y15925000D01*
X28708103Y15783810D01*
X28717403Y15769357D01*
X28689000Y15700785D01*
X28689000Y15395750D01*
X28784250Y15300500D01*
X29599500Y15300500D01*
X29599500Y15320500D01*
X29600500Y15320500D01*
X29600500Y15300500D01*
X30415750Y15300500D01*
X30511000Y15395750D01*
X30511000Y15700785D01*
X30483420Y15767369D01*
X30487859Y15773866D01*
X30518464Y15925000D01*
X30518464Y16575000D01*
X30491897Y16716190D01*
X30482597Y16730643D01*
X30511000Y16799215D01*
X30511000Y17104250D01*
X30415750Y17199500D01*
X29600500Y17199500D01*
X29600500Y17179500D01*
X29599500Y17179500D01*
X29599500Y17199500D01*
X28784250Y17199500D01*
X28689000Y17104250D01*
X28689000Y16799215D01*
X28716580Y16732631D01*
X28712141Y16726134D01*
X28681536Y16575000D01*
X28627000Y16575000D01*
X28627000Y17600785D01*
X28689000Y17600785D01*
X28689000Y17295750D01*
X28784250Y17200500D01*
X29599500Y17200500D01*
X29599500Y17810750D01*
X29600500Y17810750D01*
X29600500Y17200500D01*
X30415750Y17200500D01*
X30511000Y17295750D01*
X30511000Y17600785D01*
X30452996Y17740819D01*
X30345820Y17847996D01*
X30205786Y17906000D01*
X29695750Y17906000D01*
X29600500Y17810750D01*
X29599500Y17810750D01*
X29504250Y17906000D01*
X28994214Y17906000D01*
X28854180Y17847996D01*
X28747004Y17740819D01*
X28689000Y17600785D01*
X28627000Y17600785D01*
X28627000Y19056085D01*
X29225165Y19654250D01*
X38169000Y19654250D01*
X38169000Y19424214D01*
X38227004Y19284180D01*
X38334181Y19177004D01*
X38474215Y19119000D01*
X38904250Y19119000D01*
X38999500Y19214250D01*
X38999500Y19749500D01*
X38264250Y19749500D01*
X38169000Y19654250D01*
X29225165Y19654250D01*
X30340118Y20769203D01*
X30409473Y20873000D01*
X31507146Y20873000D01*
X31611018Y20768946D01*
M02*
