<?xml version="1.0" standalone="no"?>
 <!DOCTYPE svg PUBLIC "-//W3C//DTD SVG 1.1//EN" 
 "http://www.w3.org/Graphics/SVG/1.1/DTD/svg11.dtd"> 
<svg xmlns="http://www.w3.org/2000/svg" version="1.1" 
    width="29.7002cm" height="21.0007cm" viewBox="0 0 116930 82680 ">
<title>SVG Picture created as debugger2-F.Paste.svg date 2016/07/20 14:42:32 </title>
  <desc>Picture generated by PCBNEW </desc>
<g style="fill:#000000; fill-opacity:1;stroke:#000000; stroke-opacity:1;
stroke-linecap:round; stroke-linejoin:round; "
 transform="translate(0 0) scale(1 1)">
</g>
<g style="fill:#000000; fill-opacity:0.0; 
stroke:#000000; stroke-width:-0.000393701; stroke-opacity:1; 
stroke-linecap:round; stroke-linejoin:round;">
</g>
<g style="fill:#000000; fill-opacity:0.0; 
stroke:#000000; stroke-width:39.3701; stroke-opacity:1; 
stroke-linecap:round; stroke-linejoin:round;">
</g>
<g style="fill:#000000; fill-opacity:0.0; 
stroke:#000000; stroke-width:59.0551; stroke-opacity:1; 
stroke-linecap:round; stroke-linejoin:round;">
<rect x="69685.9" y="65357.2" width="42519.7" height="12598.4" rx="0" />
</g>
<g style="fill:#000000; fill-opacity:0.0; 
stroke:#000000; stroke-width:39.3701; stroke-opacity:1; 
stroke-linecap:round; stroke-linejoin:round;">
</g>
<g style="fill:#000000; fill-opacity:0.0; 
stroke:#000000; stroke-width:59.0551; stroke-opacity:1; 
stroke-linecap:round; stroke-linejoin:round;">
<rect x="3937.01" y="3937.01" width="109056" height="74806" rx="0" />
</g>
<g style="fill:#000000; fill-opacity:0.0; 
stroke:#000000; stroke-width:39.3701; stroke-opacity:1; 
stroke-linecap:round; stroke-linejoin:round;">
</g>
<g style="fill:#000000; fill-opacity:0.0; 
stroke:#000000; stroke-width:59.0551; stroke-opacity:1; 
stroke-linecap:round; stroke-linejoin:round;">
<rect x="4724.41" y="4724.41" width="107481" height="73231.2" rx="0" />
</g>
<g style="fill:#000000; fill-opacity:0.0; 
stroke:#000000; stroke-width:39.3701; stroke-opacity:1; 
stroke-linecap:round; stroke-linejoin:round;">
</g>
<g style="fill:#000000; fill-opacity:0.0; 
stroke:#000000; stroke-width:59.0551; stroke-opacity:1; 
stroke-linecap:round; stroke-linejoin:round;">
<path d="M23622 4724
L23622 3937
" />
</g>
<g style="fill:#000000; fill-opacity:0.0; 
stroke:#000000; stroke-width:39.3701; stroke-opacity:1; 
stroke-linecap:round; stroke-linejoin:round;">
</g>
<g style="fill:#000000; fill-opacity:0.0; 
stroke:#000000; stroke-width:59.0551; stroke-opacity:1; 
stroke-linecap:round; stroke-linejoin:round;">
<path d="M43307 4724
L43307 3937
" />
</g>
<g style="fill:#000000; fill-opacity:0.0; 
stroke:#000000; stroke-width:39.3701; stroke-opacity:1; 
stroke-linecap:round; stroke-linejoin:round;">
</g>
<g style="fill:#000000; fill-opacity:0.0; 
stroke:#000000; stroke-width:59.0551; stroke-opacity:1; 
stroke-linecap:round; stroke-linejoin:round;">
<path d="M62992 4724
L62992 3937
" />
</g>
<g style="fill:#000000; fill-opacity:0.0; 
stroke:#000000; stroke-width:39.3701; stroke-opacity:1; 
stroke-linecap:round; stroke-linejoin:round;">
</g>
<g style="fill:#000000; fill-opacity:0.0; 
stroke:#000000; stroke-width:59.0551; stroke-opacity:1; 
stroke-linecap:round; stroke-linejoin:round;">
<path d="M82677 4724
L82677 3937
" />
</g>
<g style="fill:#000000; fill-opacity:0.0; 
stroke:#000000; stroke-width:39.3701; stroke-opacity:1; 
stroke-linecap:round; stroke-linejoin:round;">
</g>
<g style="fill:#000000; fill-opacity:0.0; 
stroke:#000000; stroke-width:59.0551; stroke-opacity:1; 
stroke-linecap:round; stroke-linejoin:round;">
<path d="M102362 4724
L102362 3937
" />
</g>
<g style="fill:#000000; fill-opacity:0.0; 
stroke:#000000; stroke-width:39.3701; stroke-opacity:1; 
stroke-linecap:round; stroke-linejoin:round;">
</g>
<g style="fill:#000000; fill-opacity:0.0; 
stroke:#000000; stroke-width:59.0551; stroke-opacity:1; 
stroke-linecap:round; stroke-linejoin:round;">
<path d="M14169 4562
L13877 4562
" />
<path d="M14023 4562
L14023 4050
L13974 4123
L13925 4172
L13877 4196
" />
</g>
<g style="fill:#000000; fill-opacity:0.0; 
stroke:#000000; stroke-width:39.3701; stroke-opacity:1; 
stroke-linecap:round; stroke-linejoin:round;">
</g>
<g style="fill:#000000; fill-opacity:0.0; 
stroke:#000000; stroke-width:59.0551; stroke-opacity:1; 
stroke-linecap:round; stroke-linejoin:round;">
<path d="M33562 4099
L33586 4074
L33635 4050
L33757 4050
L33805 4074
L33830 4099
L33854 4147
L33854 4196
L33830 4269
L33537 4562
L33854 4562
" />
</g>
<g style="fill:#000000; fill-opacity:0.0; 
stroke:#000000; stroke-width:39.3701; stroke-opacity:1; 
stroke-linecap:round; stroke-linejoin:round;">
</g>
<g style="fill:#000000; fill-opacity:0.0; 
stroke:#000000; stroke-width:59.0551; stroke-opacity:1; 
stroke-linecap:round; stroke-linejoin:round;">
<path d="M53222 4050
L53539 4050
L53368 4245
L53442 4245
L53490 4269
L53515 4294
L53539 4342
L53539 4464
L53515 4513
L53490 4537
L53442 4562
L53295 4562
L53247 4537
L53222 4513
" />
</g>
<g style="fill:#000000; fill-opacity:0.0; 
stroke:#000000; stroke-width:39.3701; stroke-opacity:1; 
stroke-linecap:round; stroke-linejoin:round;">
</g>
<g style="fill:#000000; fill-opacity:0.0; 
stroke:#000000; stroke-width:59.0551; stroke-opacity:1; 
stroke-linecap:round; stroke-linejoin:round;">
<path d="M73175 4221
L73175 4562
" />
<path d="M73053 4026
L72932 4391
L73248 4391
" />
</g>
<g style="fill:#000000; fill-opacity:0.0; 
stroke:#000000; stroke-width:39.3701; stroke-opacity:1; 
stroke-linecap:round; stroke-linejoin:round;">
</g>
<g style="fill:#000000; fill-opacity:0.0; 
stroke:#000000; stroke-width:59.0551; stroke-opacity:1; 
stroke-linecap:round; stroke-linejoin:round;">
<path d="M92885 4050
L92641 4050
L92617 4294
L92641 4269
L92690 4245
L92812 4245
L92860 4269
L92885 4294
L92909 4342
L92909 4464
L92885 4513
L92860 4537
L92812 4562
L92690 4562
L92641 4537
L92617 4513
" />
</g>
<g style="fill:#000000; fill-opacity:0.0; 
stroke:#000000; stroke-width:39.3701; stroke-opacity:1; 
stroke-linecap:round; stroke-linejoin:round;">
</g>
<g style="fill:#000000; fill-opacity:0.0; 
stroke:#000000; stroke-width:59.0551; stroke-opacity:1; 
stroke-linecap:round; stroke-linejoin:round;">
<path d="M112545 4050
L112448 4050
L112399 4074
L112375 4099
L112326 4172
L112302 4269
L112302 4464
L112326 4513
L112350 4537
L112399 4562
L112497 4562
L112545 4537
L112570 4513
L112594 4464
L112594 4342
L112570 4294
L112545 4269
L112497 4245
L112399 4245
L112350 4269
L112326 4294
L112302 4342
" />
</g>
<g style="fill:#000000; fill-opacity:0.0; 
stroke:#000000; stroke-width:39.3701; stroke-opacity:1; 
stroke-linecap:round; stroke-linejoin:round;">
</g>
<g style="fill:#000000; fill-opacity:0.0; 
stroke:#000000; stroke-width:59.0551; stroke-opacity:1; 
stroke-linecap:round; stroke-linejoin:round;">
<path d="M23622 77955
L23622 78742
" />
</g>
<g style="fill:#000000; fill-opacity:0.0; 
stroke:#000000; stroke-width:39.3701; stroke-opacity:1; 
stroke-linecap:round; stroke-linejoin:round;">
</g>
<g style="fill:#000000; fill-opacity:0.0; 
stroke:#000000; stroke-width:59.0551; stroke-opacity:1; 
stroke-linecap:round; stroke-linejoin:round;">
<path d="M43307 77955
L43307 78742
" />
</g>
<g style="fill:#000000; fill-opacity:0.0; 
stroke:#000000; stroke-width:39.3701; stroke-opacity:1; 
stroke-linecap:round; stroke-linejoin:round;">
</g>
<g style="fill:#000000; fill-opacity:0.0; 
stroke:#000000; stroke-width:59.0551; stroke-opacity:1; 
stroke-linecap:round; stroke-linejoin:round;">
<path d="M62992 77955
L62992 78742
" />
</g>
<g style="fill:#000000; fill-opacity:0.0; 
stroke:#000000; stroke-width:39.3701; stroke-opacity:1; 
stroke-linecap:round; stroke-linejoin:round;">
</g>
<g style="fill:#000000; fill-opacity:0.0; 
stroke:#000000; stroke-width:59.0551; stroke-opacity:1; 
stroke-linecap:round; stroke-linejoin:round;">
<path d="M82677 77955
L82677 78742
" />
</g>
<g style="fill:#000000; fill-opacity:0.0; 
stroke:#000000; stroke-width:39.3701; stroke-opacity:1; 
stroke-linecap:round; stroke-linejoin:round;">
</g>
<g style="fill:#000000; fill-opacity:0.0; 
stroke:#000000; stroke-width:59.0551; stroke-opacity:1; 
stroke-linecap:round; stroke-linejoin:round;">
<path d="M102362 77955
L102362 78742
" />
</g>
<g style="fill:#000000; fill-opacity:0.0; 
stroke:#000000; stroke-width:39.3701; stroke-opacity:1; 
stroke-linecap:round; stroke-linejoin:round;">
</g>
<g style="fill:#000000; fill-opacity:0.0; 
stroke:#000000; stroke-width:59.0551; stroke-opacity:1; 
stroke-linecap:round; stroke-linejoin:round;">
<path d="M14169 78580
L13877 78580
" />
<path d="M14023 78580
L14023 78069
L13974 78142
L13925 78190
L13877 78215
" />
</g>
<g style="fill:#000000; fill-opacity:0.0; 
stroke:#000000; stroke-width:39.3701; stroke-opacity:1; 
stroke-linecap:round; stroke-linejoin:round;">
</g>
<g style="fill:#000000; fill-opacity:0.0; 
stroke:#000000; stroke-width:59.0551; stroke-opacity:1; 
stroke-linecap:round; stroke-linejoin:round;">
<path d="M33562 78117
L33586 78093
L33635 78069
L33757 78069
L33805 78093
L33830 78117
L33854 78166
L33854 78215
L33830 78288
L33537 78580
L33854 78580
" />
</g>
<g style="fill:#000000; fill-opacity:0.0; 
stroke:#000000; stroke-width:39.3701; stroke-opacity:1; 
stroke-linecap:round; stroke-linejoin:round;">
</g>
<g style="fill:#000000; fill-opacity:0.0; 
stroke:#000000; stroke-width:59.0551; stroke-opacity:1; 
stroke-linecap:round; stroke-linejoin:round;">
<path d="M53222 78069
L53539 78069
L53368 78263
L53442 78263
L53490 78288
L53515 78312
L53539 78361
L53539 78483
L53515 78532
L53490 78556
L53442 78580
L53295 78580
L53247 78556
L53222 78532
" />
</g>
<g style="fill:#000000; fill-opacity:0.0; 
stroke:#000000; stroke-width:39.3701; stroke-opacity:1; 
stroke-linecap:round; stroke-linejoin:round;">
</g>
<g style="fill:#000000; fill-opacity:0.0; 
stroke:#000000; stroke-width:59.0551; stroke-opacity:1; 
stroke-linecap:round; stroke-linejoin:round;">
<path d="M73175 78239
L73175 78580
" />
<path d="M73053 78044
L72932 78410
L73248 78410
" />
</g>
<g style="fill:#000000; fill-opacity:0.0; 
stroke:#000000; stroke-width:39.3701; stroke-opacity:1; 
stroke-linecap:round; stroke-linejoin:round;">
</g>
<g style="fill:#000000; fill-opacity:0.0; 
stroke:#000000; stroke-width:59.0551; stroke-opacity:1; 
stroke-linecap:round; stroke-linejoin:round;">
<path d="M92885 78069
L92641 78069
L92617 78312
L92641 78288
L92690 78263
L92812 78263
L92860 78288
L92885 78312
L92909 78361
L92909 78483
L92885 78532
L92860 78556
L92812 78580
L92690 78580
L92641 78556
L92617 78532
" />
</g>
<g style="fill:#000000; fill-opacity:0.0; 
stroke:#000000; stroke-width:39.3701; stroke-opacity:1; 
stroke-linecap:round; stroke-linejoin:round;">
</g>
<g style="fill:#000000; fill-opacity:0.0; 
stroke:#000000; stroke-width:59.0551; stroke-opacity:1; 
stroke-linecap:round; stroke-linejoin:round;">
<path d="M112545 78069
L112448 78069
L112399 78093
L112375 78117
L112326 78190
L112302 78288
L112302 78483
L112326 78532
L112350 78556
L112399 78580
L112497 78580
L112545 78556
L112570 78532
L112594 78483
L112594 78361
L112570 78312
L112545 78288
L112497 78263
L112399 78263
L112350 78288
L112326 78312
L112302 78361
" />
</g>
<g style="fill:#000000; fill-opacity:0.0; 
stroke:#000000; stroke-width:39.3701; stroke-opacity:1; 
stroke-linecap:round; stroke-linejoin:round;">
</g>
<g style="fill:#000000; fill-opacity:0.0; 
stroke:#000000; stroke-width:59.0551; stroke-opacity:1; 
stroke-linecap:round; stroke-linejoin:round;">
<path d="M3937 23622
L4724 23622
" />
</g>
<g style="fill:#000000; fill-opacity:0.0; 
stroke:#000000; stroke-width:39.3701; stroke-opacity:1; 
stroke-linecap:round; stroke-linejoin:round;">
</g>
<g style="fill:#000000; fill-opacity:0.0; 
stroke:#000000; stroke-width:59.0551; stroke-opacity:1; 
stroke-linecap:round; stroke-linejoin:round;">
<path d="M3937 43307
L4724 43307
" />
</g>
<g style="fill:#000000; fill-opacity:0.0; 
stroke:#000000; stroke-width:39.3701; stroke-opacity:1; 
stroke-linecap:round; stroke-linejoin:round;">
</g>
<g style="fill:#000000; fill-opacity:0.0; 
stroke:#000000; stroke-width:59.0551; stroke-opacity:1; 
stroke-linecap:round; stroke-linejoin:round;">
<path d="M3937 62992
L4724 62992
" />
</g>
<g style="fill:#000000; fill-opacity:0.0; 
stroke:#000000; stroke-width:39.3701; stroke-opacity:1; 
stroke-linecap:round; stroke-linejoin:round;">
</g>
<g style="fill:#000000; fill-opacity:0.0; 
stroke:#000000; stroke-width:59.0551; stroke-opacity:1; 
stroke-linecap:round; stroke-linejoin:round;">
<path d="M4208 13864
L4452 13864
" />
<path d="M4160 14011
L4330 13499
L4501 14011
" />
</g>
<g style="fill:#000000; fill-opacity:0.0; 
stroke:#000000; stroke-width:39.3701; stroke-opacity:1; 
stroke-linecap:round; stroke-linejoin:round;">
</g>
<g style="fill:#000000; fill-opacity:0.0; 
stroke:#000000; stroke-width:59.0551; stroke-opacity:1; 
stroke-linecap:round; stroke-linejoin:round;">
<path d="M4367 33428
L4440 33452
L4464 33476
L4489 33525
L4489 33598
L4464 33647
L4440 33671
L4391 33696
L4196 33696
L4196 33184
L4367 33184
L4416 33208
L4440 33233
L4464 33281
L4464 33330
L4440 33379
L4416 33403
L4367 33428
L4196 33428
" />
</g>
<g style="fill:#000000; fill-opacity:0.0; 
stroke:#000000; stroke-width:39.3701; stroke-opacity:1; 
stroke-linecap:round; stroke-linejoin:round;">
</g>
<g style="fill:#000000; fill-opacity:0.0; 
stroke:#000000; stroke-width:59.0551; stroke-opacity:1; 
stroke-linecap:round; stroke-linejoin:round;">
<path d="M4489 53332
L4464 53356
L4391 53381
L4342 53381
L4269 53356
L4221 53308
L4196 53259
L4172 53161
L4172 53088
L4196 52991
L4221 52942
L4269 52893
L4342 52869
L4391 52869
L4464 52893
L4489 52918
" />
</g>
<g style="fill:#000000; fill-opacity:0.0; 
stroke:#000000; stroke-width:39.3701; stroke-opacity:1; 
stroke-linecap:round; stroke-linejoin:round;">
</g>
<g style="fill:#000000; fill-opacity:0.0; 
stroke:#000000; stroke-width:59.0551; stroke-opacity:1; 
stroke-linecap:round; stroke-linejoin:round;">
<path d="M4196 73066
L4196 72554
L4318 72554
L4391 72578
L4440 72627
L4464 72676
L4489 72773
L4489 72846
L4464 72944
L4440 72993
L4391 73041
L4318 73066
L4196 73066
" />
</g>
<g style="fill:#000000; fill-opacity:0.0; 
stroke:#000000; stroke-width:39.3701; stroke-opacity:1; 
stroke-linecap:round; stroke-linejoin:round;">
</g>
<g style="fill:#000000; fill-opacity:0.0; 
stroke:#000000; stroke-width:59.0551; stroke-opacity:1; 
stroke-linecap:round; stroke-linejoin:round;">
<path d="M112992 23622
L112205 23622
" />
</g>
<g style="fill:#000000; fill-opacity:0.0; 
stroke:#000000; stroke-width:39.3701; stroke-opacity:1; 
stroke-linecap:round; stroke-linejoin:round;">
</g>
<g style="fill:#000000; fill-opacity:0.0; 
stroke:#000000; stroke-width:59.0551; stroke-opacity:1; 
stroke-linecap:round; stroke-linejoin:round;">
<path d="M112992 43307
L112205 43307
" />
</g>
<g style="fill:#000000; fill-opacity:0.0; 
stroke:#000000; stroke-width:39.3701; stroke-opacity:1; 
stroke-linecap:round; stroke-linejoin:round;">
</g>
<g style="fill:#000000; fill-opacity:0.0; 
stroke:#000000; stroke-width:59.0551; stroke-opacity:1; 
stroke-linecap:round; stroke-linejoin:round;">
<path d="M112992 62992
L112205 62992
" />
</g>
<g style="fill:#000000; fill-opacity:0.0; 
stroke:#000000; stroke-width:39.3701; stroke-opacity:1; 
stroke-linecap:round; stroke-linejoin:round;">
</g>
<g style="fill:#000000; fill-opacity:0.0; 
stroke:#000000; stroke-width:59.0551; stroke-opacity:1; 
stroke-linecap:round; stroke-linejoin:round;">
<path d="M112477 13864
L112721 13864
" />
<path d="M112428 14011
L112599 13499
L112769 14011
" />
</g>
<g style="fill:#000000; fill-opacity:0.0; 
stroke:#000000; stroke-width:39.3701; stroke-opacity:1; 
stroke-linecap:round; stroke-linejoin:round;">
</g>
<g style="fill:#000000; fill-opacity:0.0; 
stroke:#000000; stroke-width:59.0551; stroke-opacity:1; 
stroke-linecap:round; stroke-linejoin:round;">
<path d="M112635 33428
L112708 33452
L112733 33476
L112757 33525
L112757 33598
L112733 33647
L112708 33671
L112660 33696
L112465 33696
L112465 33184
L112635 33184
L112684 33208
L112708 33233
L112733 33281
L112733 33330
L112708 33379
L112684 33403
L112635 33428
L112465 33428
" />
</g>
<g style="fill:#000000; fill-opacity:0.0; 
stroke:#000000; stroke-width:39.3701; stroke-opacity:1; 
stroke-linecap:round; stroke-linejoin:round;">
</g>
<g style="fill:#000000; fill-opacity:0.0; 
stroke:#000000; stroke-width:59.0551; stroke-opacity:1; 
stroke-linecap:round; stroke-linejoin:round;">
<path d="M112757 53332
L112733 53356
L112660 53381
L112611 53381
L112538 53356
L112489 53308
L112465 53259
L112440 53161
L112440 53088
L112465 52991
L112489 52942
L112538 52893
L112611 52869
L112660 52869
L112733 52893
L112757 52918
" />
</g>
<g style="fill:#000000; fill-opacity:0.0; 
stroke:#000000; stroke-width:39.3701; stroke-opacity:1; 
stroke-linecap:round; stroke-linejoin:round;">
</g>
<g style="fill:#000000; fill-opacity:0.0; 
stroke:#000000; stroke-width:59.0551; stroke-opacity:1; 
stroke-linecap:round; stroke-linejoin:round;">
<path d="M112465 73066
L112465 72554
L112587 72554
L112660 72578
L112708 72627
L112733 72676
L112757 72773
L112757 72846
L112733 72944
L112708 72993
L112660 73041
L112587 73066
L112465 73066
" />
</g>
<g style="fill:#000000; fill-opacity:0.0; 
stroke:#000000; stroke-width:39.3701; stroke-opacity:1; 
stroke-linecap:round; stroke-linejoin:round;">
</g>
<g style="fill:#000000; fill-opacity:0.0; 
stroke:#000000; stroke-width:59.0551; stroke-opacity:1; 
stroke-linecap:round; stroke-linejoin:round;">
<path d="M78881 76293
L78881 75703
L79022 75703
L79106 75731
L79162 75787
L79190 75843
L79219 75956
L79219 76040
L79190 76153
L79162 76209
L79106 76265
L79022 76293
L78881 76293
" />
<path d="M79725 76293
L79725 75984
L79697 75928
L79640 75899
L79528 75899
L79472 75928
" />
<path d="M79725 76265
L79669 76293
L79528 76293
L79472 76265
L79444 76209
L79444 76153
L79472 76096
L79528 76068
L79669 76068
L79725 76040
" />
<path d="M79922 75899
L80147 75899
" />
<path d="M80006 75703
L80006 76209
L80034 76265
L80090 76293
L80147 76293
" />
<path d="M80568 76265
L80512 76293
L80400 76293
L80343 76265
L80315 76209
L80315 75984
L80343 75928
L80400 75899
L80512 75899
L80568 75928
L80597 75984
L80597 76040
L80315 76096
" />
<path d="M80850 76237
L80878 76265
L80850 76293
L80822 76265
L80850 76237
L80850 76293
" />
<path d="M80850 75928
L80878 75956
L80850 75984
L80822 75956
L80850 75928
L80850 75984
" />
</g>
<g style="fill:#000000; fill-opacity:0.0; 
stroke:#000000; stroke-width:39.3701; stroke-opacity:1; 
stroke-linecap:round; stroke-linejoin:round;">
</g>
<g style="fill:#000000; fill-opacity:0.0; 
stroke:#000000; stroke-width:59.0551; stroke-opacity:1; 
stroke-linecap:round; stroke-linejoin:round;">
<path d="M69685 76577
L112205 76577
" />
</g>
<g style="fill:#000000; fill-opacity:0.0; 
stroke:#000000; stroke-width:39.3701; stroke-opacity:1; 
stroke-linecap:round; stroke-linejoin:round;">
</g>
<g style="fill:#000000; fill-opacity:0.0; 
stroke:#000000; stroke-width:59.0551; stroke-opacity:1; 
stroke-linecap:round; stroke-linejoin:round;">
<path d="M70220 77395
L70220 76805
" />
<path d="M70557 77395
L70304 77058
" />
<path d="M70557 76805
L70220 77142
" />
<path d="M70810 77395
L70810 77002
" />
<path d="M70810 76805
L70782 76833
L70810 76861
L70838 76833
L70810 76805
L70810 76861
" />
<path d="M71429 77339
L71401 77367
L71316 77395
L71260 77395
L71176 77367
L71120 77311
L71091 77255
L71063 77142
L71063 77058
L71091 76946
L71120 76889
L71176 76833
L71260 76805
L71316 76805
L71401 76833
L71429 76861
" />
<path d="M71935 77395
L71935 77086
L71907 77030
L71851 77002
L71738 77002
L71682 77030
" />
<path d="M71935 77367
L71879 77395
L71738 77395
L71682 77367
L71654 77311
L71654 77255
L71682 77199
L71738 77171
L71879 77171
L71935 77142
" />
<path d="M72469 77395
L72469 76805
" />
<path d="M72469 77367
L72413 77395
L72301 77395
L72244 77367
L72216 77339
L72188 77283
L72188 77114
L72216 77058
L72244 77030
L72301 77002
L72413 77002
L72469 77030
" />
<path d="M73201 77086
L73397 77086
" />
<path d="M73482 77395
L73201 77395
L73201 76805
L73482 76805
" />
<path d="M73735 77339
L73763 77367
L73735 77395
L73707 77367
L73735 77339
L73735 77395
" />
<path d="M74016 77395
L74016 76805
L74157 76805
L74241 76833
L74297 76889
L74325 76946
L74354 77058
L74354 77142
L74325 77255
L74297 77311
L74241 77367
L74157 77395
L74016 77395
" />
<path d="M74607 77339
L74635 77367
L74607 77395
L74579 77367
L74607 77339
L74607 77395
" />
<path d="M74860 77227
L75141 77227
" />
<path d="M74804 77395
L75000 76805
L75197 77395
" />
<path d="M75394 77339
L75422 77367
L75394 77395
L75366 77367
L75394 77339
L75394 77395
" />
<path d="M76575 77395
L76575 76805
" />
<path d="M76631 77171
L76800 77395
" />
<path d="M76800 77002
L76575 77227
" />
<path d="M77053 77395
L77053 77002
" />
<path d="M77053 76805
L77025 76833
L77053 76861
L77081 76833
L77053 76805
L77053 76861
" />
<path d="M77588 77367
L77531 77395
L77419 77395
L77363 77367
L77334 77339
L77306 77283
L77306 77114
L77334 77058
L77363 77030
L77419 77002
L77531 77002
L77588 77030
" />
<path d="M78094 77395
L78094 77086
L78066 77030
L78009 77002
L77897 77002
L77841 77030
" />
<path d="M78094 77367
L78037 77395
L77897 77395
L77841 77367
L77813 77311
L77813 77255
L77841 77199
L77897 77171
L78037 77171
L78094 77142
" />
<path d="M78628 77395
L78628 76805
" />
<path d="M78628 77367
L78572 77395
L78459 77395
L78403 77367
L78375 77339
L78347 77283
L78347 77114
L78375 77058
L78403 77030
L78459 77002
L78572 77002
L78628 77030
" />
<path d="M79612 77002
L79612 77395
" />
<path d="M79472 76777
L79331 77199
L79697 77199
" />
<path d="M79922 77339
L79950 77367
L79922 77395
L79894 77367
L79922 77339
L79922 77395
" />
<path d="M80315 76805
L80372 76805
L80428 76833
L80456 76861
L80484 76917
L80512 77030
L80512 77171
L80484 77283
L80456 77339
L80428 77367
L80372 77395
L80315 77395
L80259 77367
L80231 77339
L80203 77283
L80175 77171
L80175 77030
L80203 76917
L80231 76861
L80259 76833
L80315 76805
" />
<path d="M80765 77339
L80793 77367
L80765 77395
L80737 77367
L80765 77339
L80765 77395
" />
<path d="M81159 76805
L81215 76805
L81271 76833
L81300 76861
L81328 76917
L81356 77030
L81356 77171
L81328 77283
L81300 77339
L81271 77367
L81215 77395
L81159 77395
L81103 77367
L81075 77339
L81046 77283
L81018 77171
L81018 77030
L81046 76917
L81075 76861
L81103 76833
L81159 76805
" />
<path d="M81609 77171
L82059 77171
" />
<path d="M82312 77367
L82368 77395
L82481 77395
L82537 77367
L82565 77311
L82565 77283
L82537 77227
L82481 77199
L82396 77199
L82340 77171
L82312 77114
L82312 77086
L82340 77030
L82396 77002
L82481 77002
L82537 77030
" />
<path d="M82734 77002
L82959 77002
" />
<path d="M82818 76805
L82818 77311
L82846 77367
L82903 77395
L82959 77395
" />
<path d="M83409 77395
L83409 77086
L83381 77030
L83324 77002
L83212 77002
L83156 77030
" />
<path d="M83409 77367
L83352 77395
L83212 77395
L83156 77367
L83127 77311
L83127 77255
L83156 77199
L83212 77171
L83352 77171
L83409 77142
" />
<path d="M83690 77395
L83690 76805
" />
<path d="M83690 77030
L83746 77002
L83859 77002
L83915 77030
L83943 77058
L83971 77114
L83971 77283
L83943 77339
L83915 77367
L83859 77395
L83746 77395
L83690 77367
" />
<path d="M84309 77395
L84252 77367
L84224 77311
L84224 76805
" />
<path d="M84759 77367
L84702 77395
L84590 77395
L84534 77367
L84505 77311
L84505 77086
L84534 77030
L84590 77002
L84702 77002
L84759 77030
L84787 77086
L84787 77142
L84505 77199
" />
</g>
<g style="fill:#000000; fill-opacity:0.0; 
stroke:#000000; stroke-width:39.3701; stroke-opacity:1; 
stroke-linecap:round; stroke-linejoin:round;">
</g>
<g style="fill:#000000; fill-opacity:0.0; 
stroke:#000000; stroke-width:59.0551; stroke-opacity:1; 
stroke-linecap:round; stroke-linejoin:round;">
<path d="M69685 75396
L112205 75396
" />
</g>
<g style="fill:#000000; fill-opacity:0.0; 
stroke:#000000; stroke-width:39.3701; stroke-opacity:1; 
stroke-linecap:round; stroke-linejoin:round;">
</g>
<g style="fill:#000000; fill-opacity:0.0; 
stroke:#000000; stroke-width:118.11; stroke-opacity:1; 
stroke-linecap:round; stroke-linejoin:round;">
<path d="M104022 76293
L103825 76012
" />
<path d="M103684 76293
L103684 75703
L103909 75703
L103965 75731
L103994 75759
L104022 75815
L104022 75899
L103994 75956
L103965 75984
L103909 76012
L103684 76012
" />
<path d="M104500 76265
L104444 76293
L104331 76293
L104275 76265
L104247 76209
L104247 75984
L104275 75928
L104331 75899
L104444 75899
L104500 75928
L104528 75984
L104528 76040
L104247 76096
" />
<path d="M104725 75899
L104865 76293
L105006 75899
" />
<path d="M105231 76237
L105259 76265
L105231 76293
L105203 76265
L105231 76237
L105231 76293
" />
<path d="M105231 75928
L105259 75956
L105231 75984
L105203 75956
L105231 75928
L105231 75984
" />
</g>
<g style="fill:#000000; fill-opacity:0.0; 
stroke:#000000; stroke-width:39.3701; stroke-opacity:1; 
stroke-linecap:round; stroke-linejoin:round;">
</g>
<g style="fill:#000000; fill-opacity:0.0; 
stroke:#000000; stroke-width:59.0551; stroke-opacity:1; 
stroke-linecap:round; stroke-linejoin:round;">
<path d="M70192 76265
L70276 76293
L70417 76293
L70473 76265
L70501 76237
L70529 76181
L70529 76124
L70501 76068
L70473 76040
L70417 76012
L70304 75984
L70248 75956
L70220 75928
L70192 75871
L70192 75815
L70220 75759
L70248 75731
L70304 75703
L70445 75703
L70529 75731
" />
<path d="M70782 76293
L70782 75899
" />
<path d="M70782 75703
L70754 75731
L70782 75759
L70810 75731
L70782 75703
L70782 75759
" />
<path d="M71007 75899
L71316 75899
L71007 76293
L71316 76293
" />
<path d="M71766 76265
L71710 76293
L71598 76293
L71541 76265
L71513 76209
L71513 75984
L71541 75928
L71598 75899
L71710 75899
L71766 75928
L71795 75984
L71795 76040
L71513 76096
" />
<path d="M72048 76237
L72076 76265
L72048 76293
L72019 76265
L72048 76237
L72048 76293
" />
<path d="M72048 75928
L72076 75956
L72048 75984
L72019 75956
L72048 75928
L72048 75984
" />
<path d="M72751 76124
L73032 76124
" />
<path d="M72694 76293
L72891 75703
L73088 76293
" />
<path d="M73538 75899
L73538 76293
" />
<path d="M73397 75674
L73257 76096
L73622 76096
" />
</g>
<g style="fill:#000000; fill-opacity:0.0; 
stroke:#000000; stroke-width:39.3701; stroke-opacity:1; 
stroke-linecap:round; stroke-linejoin:round;">
</g>
<g style="fill:#000000; fill-opacity:0.0; 
stroke:#000000; stroke-width:59.0551; stroke-opacity:1; 
stroke-linecap:round; stroke-linejoin:round;">
<path d="M103684 77395
L103684 76805
" />
<path d="M104219 77395
L104219 76805
" />
<path d="M104219 77367
L104162 77395
L104050 77395
L103994 77367
L103965 77339
L103937 77283
L103937 77114
L103965 77058
L103994 77030
L104050 77002
L104162 77002
L104219 77030
" />
<path d="M104500 77339
L104528 77367
L104500 77395
L104472 77367
L104500 77339
L104500 77395
" />
<path d="M104500 77030
L104528 77058
L104500 77086
L104472 77058
L104500 77030
L104500 77086
" />
<path d="M105540 77395
L105203 77395
" />
<path d="M105372 77395
L105372 76805
L105315 76889
L105259 76946
L105203 76974
" />
<path d="M106215 76777
L105709 77536
" />
<path d="M106721 77395
L106384 77395
" />
<path d="M106553 77395
L106553 76805
L106496 76889
L106440 76946
L106384 76974
" />
</g>
<g style="fill:#000000; fill-opacity:0.0; 
stroke:#000000; stroke-width:39.3701; stroke-opacity:1; 
stroke-linecap:round; stroke-linejoin:round;">
</g>
<g style="fill:#000000; fill-opacity:0.0; 
stroke:#000000; stroke-width:59.0551; stroke-opacity:1; 
stroke-linecap:round; stroke-linejoin:round;">
<path d="M69685 73821
L112205 73821
" />
</g>
<g style="fill:#000000; fill-opacity:0.0; 
stroke:#000000; stroke-width:39.3701; stroke-opacity:1; 
stroke-linecap:round; stroke-linejoin:round;">
</g>
<g style="fill:#000000; fill-opacity:0.0; 
stroke:#000000; stroke-width:157.48; stroke-opacity:1; 
stroke-linecap:round; stroke-linejoin:round;">
<path d="M70257 74099
L70707 74099
" />
<path d="M70384 74886
L70482 74099
" />
<path d="M70871 74886
L70937 74361
" />
<path d="M70970 74099
L70927 74136
L70960 74174
L71002 74136
L70970 74099
L70960 74174
" />
<path d="M71199 74361
L71499 74361
" />
<path d="M71345 74099
L71260 74774
L71288 74849
L71359 74886
L71434 74886
" />
<path d="M71809 74886
L71738 74849
L71710 74774
L71795 74099
" />
<path d="M72413 74849
L72334 74886
L72184 74886
L72113 74849
L72085 74774
L72123 74474
L72169 74399
L72249 74361
L72399 74361
L72469 74399
L72498 74474
L72488 74549
L72104 74624
" />
<path d="M72793 74811
L72826 74849
L72783 74886
L72751 74849
L72793 74811
L72783 74886
" />
<path d="M72844 74399
L72877 74436
L72835 74474
L72802 74436
L72844 74399
L72835 74474
" />
</g>
<g style="fill:#000000; fill-opacity:0.0; 
stroke:#000000; stroke-width:39.3701; stroke-opacity:1; 
stroke-linecap:round; stroke-linejoin:round;">
</g>
<g style="fill:#000000; fill-opacity:0.0; 
stroke:#000000; stroke-width:59.0551; stroke-opacity:1; 
stroke-linecap:round; stroke-linejoin:round;">
<path d="M70417 73070
L70220 73070
" />
<path d="M70220 73380
L70220 72789
L70501 72789
" />
<path d="M70726 73380
L70726 72986
" />
<path d="M70726 72789
L70698 72817
L70726 72845
L70754 72817
L70726 72789
L70726 72845
" />
<path d="M71091 73380
L71035 73352
L71007 73295
L71007 72789
" />
<path d="M71541 73352
L71485 73380
L71373 73380
L71316 73352
L71288 73295
L71288 73070
L71316 73014
L71373 72986
L71485 72986
L71541 73014
L71570 73070
L71570 73127
L71288 73183
" />
<path d="M71823 73323
L71851 73352
L71823 73380
L71795 73352
L71823 73323
L71823 73380
" />
<path d="M71823 73014
L71851 73042
L71823 73070
L71795 73042
L71823 73014
L71823 73070
" />
<path d="M72807 73380
L72807 72789
" />
<path d="M72807 73352
L72751 73380
L72638 73380
L72582 73352
L72554 73323
L72526 73267
L72526 73099
L72554 73042
L72582 73014
L72638 72986
L72751 72986
L72807 73014
" />
<path d="M73313 73352
L73257 73380
L73144 73380
L73088 73352
L73060 73295
L73060 73070
L73088 73014
L73144 72986
L73257 72986
L73313 73014
L73341 73070
L73341 73127
L73060 73183
" />
<path d="M73594 73380
L73594 72789
" />
<path d="M73594 73014
L73651 72986
L73763 72986
L73819 73014
L73847 73042
L73876 73099
L73876 73267
L73847 73323
L73819 73352
L73763 73380
L73651 73380
L73594 73352
" />
<path d="M74382 72986
L74382 73380
" />
<path d="M74129 72986
L74129 73295
L74157 73352
L74213 73380
L74297 73380
L74354 73352
L74382 73323
" />
<path d="M74916 72986
L74916 73464
L74888 73520
L74860 73548
L74804 73577
L74719 73577
L74663 73548
" />
<path d="M74916 73352
L74860 73380
L74747 73380
L74691 73352
L74663 73323
L74635 73267
L74635 73099
L74663 73042
L74691 73014
L74747 72986
L74860 72986
L74916 73014
" />
<path d="M75450 72986
L75450 73464
L75422 73520
L75394 73548
L75338 73577
L75253 73577
L75197 73548
" />
<path d="M75450 73352
L75394 73380
L75282 73380
L75225 73352
L75197 73323
L75169 73267
L75169 73099
L75197 73042
L75225 73014
L75282 72986
L75394 72986
L75450 73014
" />
<path d="M75956 73352
L75900 73380
L75788 73380
L75732 73352
L75703 73295
L75703 73070
L75732 73014
L75788 72986
L75900 72986
L75956 73014
L75985 73070
L75985 73127
L75703 73183
" />
<path d="M76238 73380
L76238 72986
" />
<path d="M76238 73099
L76266 73042
L76294 73014
L76350 72986
L76406 72986
" />
<path d="M76575 72845
L76603 72817
L76660 72789
L76800 72789
L76856 72817
L76885 72845
L76913 72902
L76913 72958
L76885 73042
L76547 73380
L76913 73380
" />
<path d="M77166 73323
L77194 73352
L77166 73380
L77138 73352
L77166 73323
L77166 73380
" />
<path d="M77447 73380
L77447 72789
" />
<path d="M77503 73155
L77672 73380
" />
<path d="M77672 72986
L77447 73211
" />
<path d="M77925 73380
L77925 72986
" />
<path d="M77925 72789
L77897 72817
L77925 72845
L77953 72817
L77925 72789
L77925 72845
" />
<path d="M78459 73352
L78403 73380
L78291 73380
L78234 73352
L78206 73323
L78178 73267
L78178 73099
L78206 73042
L78234 73014
L78291 72986
L78403 72986
L78459 73014
" />
<path d="M78965 73380
L78965 73070
L78937 73014
L78881 72986
L78769 72986
L78712 73014
" />
<path d="M78965 73352
L78909 73380
L78769 73380
L78712 73352
L78684 73295
L78684 73239
L78712 73183
L78769 73155
L78909 73155
L78965 73127
" />
<path d="M79500 73380
L79500 72789
" />
<path d="M79500 73352
L79444 73380
L79331 73380
L79275 73352
L79247 73323
L79219 73267
L79219 73099
L79247 73042
L79275 73014
L79331 72986
L79444 72986
L79500 73014
" />
<path d="M79640 73436
L80090 73436
" />
<path d="M80231 72986
L80231 73577
" />
<path d="M80231 73014
L80287 72986
L80400 72986
L80456 73014
L80484 73042
L80512 73099
L80512 73267
L80484 73323
L80456 73352
L80400 73380
L80287 73380
L80231 73352
" />
<path d="M81018 73352
L80962 73380
L80850 73380
L80793 73352
L80765 73323
L80737 73267
L80737 73099
L80765 73042
L80793 73014
L80850 72986
L80962 72986
L81018 73014
" />
<path d="M81271 73380
L81271 72789
" />
<path d="M81271 73014
L81328 72986
L81440 72986
L81496 73014
L81525 73042
L81553 73099
L81553 73267
L81525 73323
L81496 73352
L81440 73380
L81328 73380
L81271 73352
" />
</g>
<g style="fill:#000000; fill-opacity:0.0; 
stroke:#000000; stroke-width:39.3701; stroke-opacity:1; 
stroke-linecap:round; stroke-linejoin:round;">
</g>
<g style="fill:#000000; fill-opacity:0.0; 
stroke:#000000; stroke-width:59.0551; stroke-opacity:1; 
stroke-linecap:round; stroke-linejoin:round;">
<path d="M69685 71459
L112205 71459
" />
</g>
<g style="fill:#000000; fill-opacity:0.0; 
stroke:#000000; stroke-width:39.3701; stroke-opacity:1; 
stroke-linecap:round; stroke-linejoin:round;">
</g>
<g style="fill:#000000; fill-opacity:0.0; 
stroke:#000000; stroke-width:59.0551; stroke-opacity:1; 
stroke-linecap:round; stroke-linejoin:round;">
<path d="M70192 72289
L70276 72317
L70417 72317
L70473 72289
L70501 72260
L70529 72204
L70529 72148
L70501 72092
L70473 72064
L70417 72036
L70304 72007
L70248 71979
L70220 71951
L70192 71895
L70192 71839
L70220 71782
L70248 71754
L70304 71726
L70445 71726
L70529 71754
" />
<path d="M70782 72317
L70782 71726
" />
<path d="M71035 72317
L71035 72007
L71007 71951
L70951 71923
L70867 71923
L70810 71951
L70782 71979
" />
<path d="M71541 72289
L71485 72317
L71373 72317
L71316 72289
L71288 72232
L71288 72007
L71316 71951
L71373 71923
L71485 71923
L71541 71951
L71570 72007
L71570 72064
L71288 72120
" />
<path d="M72048 72289
L71991 72317
L71879 72317
L71823 72289
L71795 72232
L71795 72007
L71823 71951
L71879 71923
L71991 71923
L72048 71951
L72076 72007
L72076 72064
L71795 72120
" />
<path d="M72244 71923
L72469 71923
" />
<path d="M72329 71726
L72329 72232
L72357 72289
L72413 72317
L72469 72317
" />
<path d="M72666 72260
L72694 72289
L72666 72317
L72638 72289
L72666 72260
L72666 72317
" />
<path d="M72666 71951
L72694 71979
L72666 72007
L72638 71979
L72666 71951
L72666 72007
" />
</g>
<g style="fill:#000000; fill-opacity:0.0; 
stroke:#000000; stroke-width:39.3701; stroke-opacity:1; 
stroke-linecap:round; stroke-linejoin:round;">
</g>
<g style="fill:#000000; fill-opacity:0.0; 
stroke:#000000; stroke-width:59.0551; stroke-opacity:1; 
stroke-linecap:round; stroke-linejoin:round;">
<path d="M77559 75396
L77559 76577
" />
</g>
<g style="fill:#000000; fill-opacity:0.0; 
stroke:#000000; stroke-width:39.3701; stroke-opacity:1; 
stroke-linecap:round; stroke-linejoin:round;">
</g>
<g style="fill:#000000; fill-opacity:0.0; 
stroke:#000000; stroke-width:59.0551; stroke-opacity:1; 
stroke-linecap:round; stroke-linejoin:round;">
<path d="M102756 75396
L102756 77955
" />
</g>
<g style="fill:#C2C200; fill-opacity:0.0; 
stroke:#C2C200; stroke-width:59.0551; stroke-opacity:1; 
stroke-linecap:round; stroke-linejoin:round;">
</g>
<g style="fill:#C2C200; fill-opacity:0.0; 
stroke:#C2C200; stroke-width:3.93701; stroke-opacity:1; 
stroke-linecap:round; stroke-linejoin:round;">
<path d="M72834.6 36614.2 A1181.1 1181.1 0.0 0 0 71653.5 35433.1 " />
<path d="M71653.5 47244.1 A1181.1 1181.1 0.0 0 0 72834.6 46063 " />
<path d="M48425.2 35433.1 A1181.1 1181.1 0.0 0 0 47244.1 36614.2 " />
<path d="M47244.1 46063 A1181.1 1181.1 0.0 0 0 48425.2 47244.1 " />
<path d="M71653 47244
L48425 47244
" />
<path d="M72834 36614
L72834 46062
" />
<path d="M48425 35433
L71653 35433
" />
<path d="M47244 46062
L47244 36614
" />
</g>
<g style="fill:#840000; fill-opacity:0.0; 
stroke:#840000; stroke-width:3.93701; stroke-opacity:1; 
stroke-linecap:round; stroke-linejoin:round;">
</g>
<g style="fill:#840000; fill-opacity:0.0; 
stroke:#840000; stroke-width:0; stroke-opacity:1; 
stroke-linecap:round; stroke-linejoin:round;">
</g>
<g style="fill:#840000; fill-opacity:1.0; 
stroke:#840000; stroke-width:0; stroke-opacity:1; 
stroke-linecap:round; stroke-linejoin:round;">
<polyline style="fill-rule:evenodd;"
points="54533,44333
54450,44416
54032,43999
54115,43915
54533,44333
" /> 
<polyline style="fill-rule:evenodd;"
points="54672,44194
54589,44277
54171,43859
54255,43776
54672,44194
" /> 
<polyline style="fill-rule:evenodd;"
points="54811,44054
54728,44138
54310,43720
54394,43637
54811,44054
" /> 
<polyline style="fill-rule:evenodd;"
points="54951,43915
54867,43999
54450,43581
54533,43498
54951,43915
" /> 
<polyline style="fill-rule:evenodd;"
points="55090,43776
55006,43859
54589,43442
54672,43358
55090,43776
" /> 
<polyline style="fill-rule:evenodd;"
points="55229,43637
55146,43720
54728,43303
54811,43219
55229,43637
" /> 
<polyline style="fill-rule:evenodd;"
points="55368,43498
55285,43581
54867,43164
54951,43080
55368,43498
" /> 
<polyline style="fill-rule:evenodd;"
points="55507,43358
55424,43442
55006,43024
55090,42941
55507,43358
" /> 
<polyline style="fill-rule:evenodd;"
points="55647,43219
55563,43303
55146,42885
55229,42802
55647,43219
" /> 
<polyline style="fill-rule:evenodd;"
points="55786,43080
55702,43164
55285,42746
55368,42662
55786,43080
" /> 
<polyline style="fill-rule:evenodd;"
points="55925,42941
55841,43024
55424,42607
55507,42523
55925,42941
" /> 
<polyline style="fill-rule:evenodd;"
points="56064,42802
55981,42885
55563,42468
55647,42384
56064,42802
" /> 
<polyline style="fill-rule:evenodd;"
points="56203,42662
56120,42746
55702,42328
55786,42245
56203,42662
" /> 
<polyline style="fill-rule:evenodd;"
points="56343,42523
56259,42607
55841,42189
55925,42106
56343,42523
" /> 
<polyline style="fill-rule:evenodd;"
points="56482,42384
56398,42468
55981,42050
56064,41966
56482,42384
" /> 
<polyline style="fill-rule:evenodd;"
points="56621,42245
56537,42328
56120,41911
56203,41827
56621,42245
" /> 
<polyline style="fill-rule:evenodd;"
points="56537,40742
56621,40825
56203,41243
56120,41159
56537,40742
" /> 
<polyline style="fill-rule:evenodd;"
points="56398,40602
56482,40686
56064,41103
55981,41020
56398,40602
" /> 
<polyline style="fill-rule:evenodd;"
points="56259,40463
56343,40547
55925,40964
55841,40881
56259,40463
" /> 
<polyline style="fill-rule:evenodd;"
points="56120,40324
56203,40407
55786,40825
55702,40742
56120,40324
" /> 
<polyline style="fill-rule:evenodd;"
points="55981,40185
56064,40268
55647,40686
55563,40602
55981,40185
" /> 
<polyline style="fill-rule:evenodd;"
points="55841,40046
55925,40129
55507,40547
55424,40463
55841,40046
" /> 
<polyline style="fill-rule:evenodd;"
points="55702,39906
55786,39990
55368,40407
55285,40324
55702,39906
" /> 
<polyline style="fill-rule:evenodd;"
points="55563,39767
55647,39851
55229,40268
55146,40185
55563,39767
" /> 
<polyline style="fill-rule:evenodd;"
points="55424,39628
55507,39711
55090,40129
55006,40046
55424,39628
" /> 
<polyline style="fill-rule:evenodd;"
points="55285,39489
55368,39572
54951,39990
54867,39906
55285,39489
" /> 
<polyline style="fill-rule:evenodd;"
points="55146,39350
55229,39433
54811,39851
54728,39767
55146,39350
" /> 
<polyline style="fill-rule:evenodd;"
points="55006,39210
55090,39294
54672,39711
54589,39628
55006,39210
" /> 
<polyline style="fill-rule:evenodd;"
points="54867,39071
54951,39155
54533,39572
54450,39489
54867,39071
" /> 
<polyline style="fill-rule:evenodd;"
points="54728,38932
54811,39016
54394,39433
54310,39350
54728,38932
" /> 
<polyline style="fill-rule:evenodd;"
points="54589,38793
54672,38876
54255,39294
54171,39210
54589,38793
" /> 
<polyline style="fill-rule:evenodd;"
points="54450,38654
54533,38737
54115,39155
54032,39071
54450,38654
" /> 
<polyline style="fill-rule:evenodd;"
points="53447,39071
53364,39155
52946,38737
53030,38654
53447,39071
" /> 
<polyline style="fill-rule:evenodd;"
points="53308,39210
53225,39294
52807,38876
52891,38793
53308,39210
" /> 
<polyline style="fill-rule:evenodd;"
points="53169,39350
53085,39433
52668,39016
52751,38932
53169,39350
" /> 
<polyline style="fill-rule:evenodd;"
points="53030,39489
52946,39572
52529,39155
52612,39071
53030,39489
" /> 
<polyline style="fill-rule:evenodd;"
points="52891,39628
52807,39711
52389,39294
52473,39210
52891,39628
" /> 
<polyline style="fill-rule:evenodd;"
points="52751,39767
52668,39851
52250,39433
52334,39350
52751,39767
" /> 
<polyline style="fill-rule:evenodd;"
points="52612,39906
52529,39990
52111,39572
52195,39489
52612,39906
" /> 
<polyline style="fill-rule:evenodd;"
points="52473,40046
52389,40129
51972,39711
52055,39628
52473,40046
" /> 
<polyline style="fill-rule:evenodd;"
points="52334,40185
52250,40268
51833,39851
51916,39767
52334,40185
" /> 
<polyline style="fill-rule:evenodd;"
points="52195,40324
52111,40407
51694,39990
51777,39906
52195,40324
" /> 
<polyline style="fill-rule:evenodd;"
points="52055,40463
51972,40547
51554,40129
51638,40046
52055,40463
" /> 
<polyline style="fill-rule:evenodd;"
points="51916,40602
51833,40686
51415,40268
51499,40185
51916,40602
" /> 
<polyline style="fill-rule:evenodd;"
points="51777,40742
51694,40825
51276,40407
51359,40324
51777,40742
" /> 
<polyline style="fill-rule:evenodd;"
points="51638,40881
51554,40964
51137,40547
51220,40463
51638,40881
" /> 
<polyline style="fill-rule:evenodd;"
points="51499,41020
51415,41103
50998,40686
51081,40602
51499,41020
" /> 
<polyline style="fill-rule:evenodd;"
points="51359,41159
51276,41243
50858,40825
50942,40742
51359,41159
" /> 
<polyline style="fill-rule:evenodd;"
points="51276,41827
51359,41911
50942,42328
50858,42245
51276,41827
" /> 
<polyline style="fill-rule:evenodd;"
points="51415,41966
51499,42050
51081,42468
50998,42384
51415,41966
" /> 
<polyline style="fill-rule:evenodd;"
points="51554,42106
51638,42189
51220,42607
51137,42523
51554,42106
" /> 
<polyline style="fill-rule:evenodd;"
points="51694,42245
51777,42328
51359,42746
51276,42662
51694,42245
" /> 
<polyline style="fill-rule:evenodd;"
points="51833,42384
51916,42468
51499,42885
51415,42802
51833,42384
" /> 
<polyline style="fill-rule:evenodd;"
points="51972,42523
52055,42607
51638,43024
51554,42941
51972,42523
" /> 
<polyline style="fill-rule:evenodd;"
points="52111,42662
52195,42746
51777,43164
51694,43080
52111,42662
" /> 
<polyline style="fill-rule:evenodd;"
points="52250,42802
52334,42885
51916,43303
51833,43219
52250,42802
" /> 
<polyline style="fill-rule:evenodd;"
points="52389,42941
52473,43024
52055,43442
51972,43358
52389,42941
" /> 
<polyline style="fill-rule:evenodd;"
points="52529,43080
52612,43164
52195,43581
52111,43498
52529,43080
" /> 
<polyline style="fill-rule:evenodd;"
points="52668,43219
52751,43303
52334,43720
52250,43637
52668,43219
" /> 
<polyline style="fill-rule:evenodd;"
points="52807,43358
52891,43442
52473,43859
52389,43776
52807,43358
" /> 
<polyline style="fill-rule:evenodd;"
points="52946,43498
53030,43581
52612,43999
52529,43915
52946,43498
" /> 
<polyline style="fill-rule:evenodd;"
points="53085,43637
53169,43720
52751,44138
52668,44054
53085,43637
" /> 
<polyline style="fill-rule:evenodd;"
points="53225,43776
53308,43859
52891,44277
52807,44194
53225,43776
" /> 
<polyline style="fill-rule:evenodd;"
points="53364,43915
53447,43999
53030,44416
52946,44333
53364,43915
" /> 
<polyline style="fill-rule:evenodd;"
points="60216,43287
60216,43523
59862,43523
59862,43287
60216,43287
" /> 
<polyline style="fill-rule:evenodd;"
points="59468,43287
59468,43523
59271,43523
59271,43287
59468,43287
" /> 
<polyline style="fill-rule:evenodd;"
points="59468,44074
59468,44311
59271,44311
59271,44074
59468,44074
" /> 
<polyline style="fill-rule:evenodd;"
points="60216,44074
60216,44311
60019,44311
60019,44074
60216,44074
" /> 
<polyline style="fill-rule:evenodd;"
points="50561,43897
50561,44074
49990,44074
49990,43897
50561,43897
" /> 
<polyline style="fill-rule:evenodd;"
points="50561,43641
50561,43818
49990,43818
49990,43641
50561,43641
" /> 
<polyline style="fill-rule:evenodd;"
points="50561,43385
50561,43562
49990,43562
49990,43385
50561,43385
" /> 
<polyline style="fill-rule:evenodd;"
points="50561,43129
50561,43307
49990,43307
49990,43129
50561,43129
" /> 
<polyline style="fill-rule:evenodd;"
points="48238,43129
48238,43307
47667,43307
47667,43129
48238,43129
" /> 
<polyline style="fill-rule:evenodd;"
points="48238,43385
48238,43562
47667,43562
47667,43385
48238,43385
" /> 
<polyline style="fill-rule:evenodd;"
points="48238,43641
48238,43818
47667,43818
47667,43641
48238,43641
" /> 
<polyline style="fill-rule:evenodd;"
points="48238,43897
48238,44074
47667,44074
47667,43897
48238,43897
" /> 
<polyline style="fill-rule:evenodd;"
points="57421,44763
57933,44763
57933,45039
57421,45039
57421,44763
" /> 
<polyline style="fill-rule:evenodd;"
points="57421,45511
57933,45511
57933,45787
57421,45787
57421,45511
" /> 
<polyline style="fill-rule:evenodd;"
points="55649,44763
56161,44763
56161,45039
55649,45039
55649,44763
" /> 
<polyline style="fill-rule:evenodd;"
points="55649,45511
56161,45511
56161,45787
55649,45787
55649,45511
" /> 
<polyline style="fill-rule:evenodd;"
points="63779,42618
63385,42618
63385,41535
63779,41535
63779,42618
" /> 
<polyline style="fill-rule:evenodd;"
points="63779,44881
63385,44881
63385,43799
63779,43799
63779,44881
" /> 
<polyline style="fill-rule:evenodd;"
points="65354,44881
64960,44881
64960,43799
65354,43799
65354,44881
" /> 
<polyline style="fill-rule:evenodd;"
points="65354,42618
64960,42618
64960,41535
65354,41535
65354,42618
" /> 
<polyline style="fill-rule:evenodd;"
points="70374,43917
70374,44271
70177,44271
70177,43917
70374,43917
" /> 
<polyline style="fill-rule:evenodd;"
points="69783,43917
69783,44271
69586,44271
69586,43917
69783,43917
" /> 
<polyline style="fill-rule:evenodd;"
points="57125,38444
57125,38720
56889,38720
56889,38444
57125,38444
" /> 
<polyline style="fill-rule:evenodd;"
points="56574,38444
56574,38720
56338,38720
56338,38444
56574,38444
" /> 
<polyline style="fill-rule:evenodd;"
points="57125,38956
57125,39232
56889,39232
56889,38956
57125,38956
" /> 
<polyline style="fill-rule:evenodd;"
points="56574,38956
56574,39232
56338,39232
56338,38956
56574,38956
" /> 
<polyline style="fill-rule:evenodd;"
points="65009,38622
65305,38622
65305,38937
65009,38937
65009,38622
" /> 
<polyline style="fill-rule:evenodd;"
points="65009,39212
65305,39212
65305,39527
65009,39527
65009,39212
" /> 
<polyline style="fill-rule:evenodd;"
points="69901,38681
70255,38681
70255,38877
69901,38877
69901,38681
" /> 
<polyline style="fill-rule:evenodd;"
points="69901,39271
70255,39271
70255,39468
69901,39468
69901,39271
" /> 
<polyline style="fill-rule:evenodd;"
points="70688,38681
71043,38681
71043,38877
70688,38877
70688,38681
" /> 
<polyline style="fill-rule:evenodd;"
points="70688,39271
71043,39271
71043,39468
70688,39468
70688,39271
" /> 
<polyline style="fill-rule:evenodd;"
points="69114,38681
69468,38681
69468,38877
69114,38877
69114,38681
" /> 
<polyline style="fill-rule:evenodd;"
points="69114,39271
69468,39271
69468,39468
69114,39468
69114,39271
" /> 
<polyline style="fill-rule:evenodd;"
points="59106,41092
59106,41348
58688,41348
58688,41092
59106,41092
" /> 
<polyline style="fill-rule:evenodd;"
points="59106,40718
59106,40974
58688,40974
58688,40718
59106,40718
" /> 
<polyline style="fill-rule:evenodd;"
points="59106,40344
59106,40600
58688,40600
58688,40344
59106,40344
" /> 
<polyline style="fill-rule:evenodd;"
points="58240,40344
58240,40600
57822,40600
57822,40344
58240,40344
" /> 
<polyline style="fill-rule:evenodd;"
points="58240,41092
58240,41348
57822,41348
57822,41092
58240,41092
" /> 
<polyline style="fill-rule:evenodd;"
points="57923,41771
58218,41771
58218,42086
57923,42086
57923,41771
" /> 
<polyline style="fill-rule:evenodd;"
points="57923,42362
58218,42362
58218,42677
57923,42677
57923,42362
" /> 
<polyline style="fill-rule:evenodd;"
points="58710,41771
59005,41771
59005,42086
58710,42086
58710,41771
" /> 
<polyline style="fill-rule:evenodd;"
points="58710,42362
59005,42362
59005,42677
58710,42677
58710,42362
" /> 
<polyline style="fill-rule:evenodd;"
points="48818,39842
48818,39488
49015,39488
49015,39842
48818,39842
" /> 
<polyline style="fill-rule:evenodd;"
points="49409,39842
49409,39488
49606,39488
49606,39842
49409,39842
" /> 
<polyline style="fill-rule:evenodd;"
points="47579,39822
47579,39508
47893,39508
47893,39822
47579,39822
" /> 
<polyline style="fill-rule:evenodd;"
points="48169,39822
48169,39508
48483,39508
48483,39822
48169,39822
" /> 
<polyline style="fill-rule:evenodd;"
points="61240,41830
61594,41830
61594,42027
61240,42027
61240,41830
" /> 
<polyline style="fill-rule:evenodd;"
points="61240,42421
61594,42421
61594,42618
61240,42618
61240,42421
" /> 
<polyline style="fill-rule:evenodd;"
points="61594,41240
61240,41240
61240,41043
61594,41043
61594,41240
" /> 
<polyline style="fill-rule:evenodd;"
points="61594,40649
61240,40649
61240,40452
61594,40452
61594,40649
" /> 
<polyline style="fill-rule:evenodd;"
points="59594,40600
59594,40344
60011,40344
60011,40600
59594,40600
" /> 
<polyline style="fill-rule:evenodd;"
points="59594,40974
59594,40718
60011,40718
60011,40974
59594,40974
" /> 
<polyline style="fill-rule:evenodd;"
points="59594,41348
59594,41092
60011,41092
60011,41348
59594,41348
" /> 
<polyline style="fill-rule:evenodd;"
points="60460,41348
60460,41092
60877,41092
60877,41348
60460,41348
" /> 
<polyline style="fill-rule:evenodd;"
points="60460,40600
60460,40344
60877,40344
60877,40600
60460,40600
" /> 
<polyline style="fill-rule:evenodd;"
points="60460,40974
60460,40718
60877,40718
60877,40974
60460,40974
" /> 
<polyline style="fill-rule:evenodd;"
points="60767,41672
60767,41987
60452,41987
60452,41672
60767,41672
" /> 
<polyline style="fill-rule:evenodd;"
points="60019,41672
60019,41987
59704,41987
59704,41672
60019,41672
" /> 
<polyline style="fill-rule:evenodd;"
points="60393,42459
60393,42774
60078,42774
60078,42459
60393,42459
" /> 
<polyline style="fill-rule:evenodd;"
points="53031,46830
53031,46417
53543,46417
53543,46830
53031,46830
" /> 
<polyline style="fill-rule:evenodd;"
points="53937,46830
53937,46417
54448,46417
54448,46830
53937,46830
" /> 
<polyline style="fill-rule:evenodd;"
points="53937,46102
53937,45688
54448,45688
54448,46102
53937,46102
" /> 
<polyline style="fill-rule:evenodd;"
points="53031,46102
53031,45688
53543,45688
53543,46102
53031,46102
" /> 
<polyline style="fill-rule:evenodd;"
points="69123,42854
68828,42854
68828,42697
69123,42697
69123,42854
" /> 
<polyline style="fill-rule:evenodd;"
points="69123,42598
68828,42598
68828,42441
69123,42441
69123,42598
" /> 
<polyline style="fill-rule:evenodd;"
points="69123,42342
68828,42342
68828,42185
69123,42185
69123,42342
" /> 
<polyline style="fill-rule:evenodd;"
points="68375,42342
68080,42342
68080,42185
68375,42185
68375,42342
" /> 
<polyline style="fill-rule:evenodd;"
points="68375,42598
68080,42598
68080,42441
68375,42441
68375,42598
" /> 
<polyline style="fill-rule:evenodd;"
points="68375,42854
68080,42854
68080,42697
68375,42697
68375,42854
" /> 
<polyline style="fill-rule:evenodd;"
points="58070,44370
58070,44015
58267,44015
58267,44370
58070,44370
" /> 
<polyline style="fill-rule:evenodd;"
points="58661,44370
58661,44015
58858,44015
58858,44370
58661,44370
" /> 
<polyline style="fill-rule:evenodd;"
points="48818,41712
48818,41358
49015,41358
49015,41712
48818,41712
" /> 
<polyline style="fill-rule:evenodd;"
points="49409,41712
49409,41358
49606,41358
49606,41712
49409,41712
" /> 
<polyline style="fill-rule:evenodd;"
points="48818,40925
48818,40570
49015,40570
49015,40925
48818,40925
" /> 
<polyline style="fill-rule:evenodd;"
points="49409,40925
49409,40570
49606,40570
49606,40925
49409,40925
" /> 
<polyline style="fill-rule:evenodd;"
points="70787,42125
71141,42125
71141,42322
70787,42322
70787,42125
" /> 
<polyline style="fill-rule:evenodd;"
points="70787,42716
71141,42716
71141,42913
70787,42913
70787,42716
" /> 
<polyline style="fill-rule:evenodd;"
points="69645,42066
70314,42066
70314,42421
69645,42421
69645,42066
" /> 
<polyline style="fill-rule:evenodd;"
points="69645,43208
70314,43208
70314,43562
69645,43562
69645,43208
" /> 
<polyline style="fill-rule:evenodd;"
points="70787,43503
71141,43503
71141,43700
70787,43700
70787,43503
" /> 
<polyline style="fill-rule:evenodd;"
points="70787,44094
71141,44094
71141,44291
70787,44291
70787,44094
" /> 
<polyline style="fill-rule:evenodd;"
points="62421,38779
62775,38779
62775,38976
62421,38976
62421,38779
" /> 
<polyline style="fill-rule:evenodd;"
points="62421,39370
62775,39370
62775,39566
62421,39566
62421,39370
" /> 
<polyline style="fill-rule:evenodd;"
points="68818,43503
69173,43503
69173,43700
68818,43700
68818,43503
" /> 
<polyline style="fill-rule:evenodd;"
points="68818,44094
69173,44094
69173,44291
68818,44291
68818,44094
" /> 
<polyline style="fill-rule:evenodd;"
points="68385,44291
68031,44291
68031,44094
68385,44094
68385,44291
" /> 
<polyline style="fill-rule:evenodd;"
points="68385,43700
68031,43700
68031,43503
68385,43503
68385,43700
" /> 
<polyline style="fill-rule:evenodd;"
points="48818,42598
48818,42244
49015,42244
49015,42598
48818,42598
" /> 
<polyline style="fill-rule:evenodd;"
points="49409,42598
49409,42244
49606,42244
49606,42598
49409,42598
" /> 
<polyline style="fill-rule:evenodd;"
points="47637,42598
47637,42244
47834,42244
47834,42598
47637,42598
" /> 
<polyline style="fill-rule:evenodd;"
points="48228,42598
48228,42244
48425,42244
48425,42598
48228,42598
" /> 
<polyline style="fill-rule:evenodd;"
points="47579,41692
47579,41378
47893,41378
47893,41692
47579,41692
" /> 
<polyline style="fill-rule:evenodd;"
points="48169,41692
48169,41378
48483,41378
48483,41692
48169,41692
" /> 
<polyline style="fill-rule:evenodd;"
points="47579,40905
47579,40591
47893,40591
47893,40905
47579,40905
" /> 
<polyline style="fill-rule:evenodd;"
points="48169,40905
48169,40591
48483,40591
48483,40905
48169,40905
" /> 
<polyline style="fill-rule:evenodd;"
points="54773,45807
55068,45807
55068,46122
54773,46122
54773,45807
" /> 
<polyline style="fill-rule:evenodd;"
points="54773,46397
55068,46397
55068,46712
54773,46712
54773,46397
" /> 
<polyline style="fill-rule:evenodd;"
points="55757,46003
56053,46003
56053,46318
55757,46318
55757,46003
" /> 
<polyline style="fill-rule:evenodd;"
points="55757,46594
56053,46594
56053,46909
55757,46909
55757,46594
" /> 
<polyline style="fill-rule:evenodd;"
points="52706,46712
52411,46712
52411,46397
52706,46397
52706,46712
" /> 
<polyline style="fill-rule:evenodd;"
points="52706,46122
52411,46122
52411,45807
52706,45807
52706,46122
" /> 
<polyline style="fill-rule:evenodd;"
points="50541,41200
50246,41200
50246,40885
50541,40885
50541,41200
" /> 
<polyline style="fill-rule:evenodd;"
points="50541,40610
50246,40610
50246,40295
50541,40295
50541,40610
" /> 
<polyline style="fill-rule:evenodd;"
points="57529,46003
57824,46003
57824,46318
57529,46318
57529,46003
" /> 
<polyline style="fill-rule:evenodd;"
points="57529,46594
57824,46594
57824,46909
57529,46909
57529,46594
" /> 
<polyline style="fill-rule:evenodd;"
points="50541,42578
50246,42578
50246,42263
50541,42263
50541,42578
" /> 
<polyline style="fill-rule:evenodd;"
points="50541,41988
50246,41988
50246,41673
50541,41673
50541,41988
" /> 
<polyline style="fill-rule:evenodd;"
points="51131,43248
51427,43248
51427,43562
51131,43562
51131,43248
" /> 
<polyline style="fill-rule:evenodd;"
points="51131,43838
51427,43838
51427,44153
51131,44153
51131,43838
" /> 
<polyline style="fill-rule:evenodd;"
points="50236,39812
50236,39517
50551,39517
50551,39812
50236,39812
" /> 
<polyline style="fill-rule:evenodd;"
points="50826,39812
50826,39517
51141,39517
51141,39812
50826,39812
" /> 
<polyline style="fill-rule:evenodd;"
points="52411,44625
52706,44625
52706,44940
52411,44940
52411,44625
" /> 
<polyline style="fill-rule:evenodd;"
points="52411,45216
52706,45216
52706,45531
52411,45531
52411,45216
" /> 
<polyline style="fill-rule:evenodd;"
points="55019,38730
55019,38435
55334,38435
55334,38730
55019,38730
" /> 
<polyline style="fill-rule:evenodd;"
points="55610,38730
55610,38435
55925,38435
55925,38730
55610,38730
" /> 
<polyline style="fill-rule:evenodd;"
points="52381,38553
52381,38848
52066,38848
52066,38553
52381,38553
" /> 
<polyline style="fill-rule:evenodd;"
points="51791,38553
51791,38848
51476,38848
51476,38553
51791,38553
" /> 
<polyline style="fill-rule:evenodd;"
points="56279,39832
56279,39537
56594,39537
56594,39832
56279,39832
" /> 
<polyline style="fill-rule:evenodd;"
points="56870,39832
56870,39537
57185,39537
57185,39832
56870,39832
" /> 
<polyline style="fill-rule:evenodd;"
points="57431,42677
57135,42677
57135,42362
57431,42362
57431,42677
" /> 
<polyline style="fill-rule:evenodd;"
points="57431,42086
57135,42086
57135,41771
57431,41771
57431,42086
" /> 
<polyline style="fill-rule:evenodd;"
points="58070,43582
58070,43228
58267,43228
58267,43582
58070,43582
" /> 
<polyline style="fill-rule:evenodd;"
points="58661,43582
58661,43228
58858,43228
58858,43582
58661,43582
" /> 
<polyline style="fill-rule:evenodd;"
points="65777,38779
65777,38602
66348,38602
66348,38779
65777,38779
" /> 
<polyline style="fill-rule:evenodd;"
points="65777,39035
65777,38858
66348,38858
66348,39035
65777,39035
" /> 
<polyline style="fill-rule:evenodd;"
points="65777,39291
65777,39114
66348,39114
66348,39291
65777,39291
" /> 
<polyline style="fill-rule:evenodd;"
points="65777,39547
65777,39370
66348,39370
66348,39547
65777,39547
" /> 
<polyline style="fill-rule:evenodd;"
points="68100,39547
68100,39370
68671,39370
68671,39547
68100,39547
" /> 
<polyline style="fill-rule:evenodd;"
points="68100,39291
68100,39114
68671,39114
68671,39291
68100,39291
" /> 
<polyline style="fill-rule:evenodd;"
points="68100,39035
68100,38858
68671,38858
68671,39035
68100,39035
" /> 
<polyline style="fill-rule:evenodd;"
points="68100,38779
68100,38602
68671,38602
68671,38779
68100,38779
" /> 
<polyline style="fill-rule:evenodd;"
points="60590,45822
60432,45822
60432,45291
60590,45291
60590,45822
" /> 
<polyline style="fill-rule:evenodd;"
points="60846,45822
60688,45822
60688,45291
60846,45291
60846,45822
" /> 
<polyline style="fill-rule:evenodd;"
points="61102,45822
60944,45822
60944,45291
61102,45291
61102,45822
" /> 
<polyline style="fill-rule:evenodd;"
points="61357,45822
61200,45822
61200,45291
61357,45291
61357,45822
" /> 
<polyline style="fill-rule:evenodd;"
points="61613,45822
61456,45822
61456,45291
61613,45291
61613,45822
" /> 
<polyline style="fill-rule:evenodd;"
points="59074,46998
59074,46250
59783,46250
59783,46998
59074,46998
" /> 
<polyline style="fill-rule:evenodd;"
points="60196,46998
60196,46250
60905,46250
60905,46998
60196,46998
" /> 
<polyline style="fill-rule:evenodd;"
points="61141,46998
61141,46250
61850,46250
61850,46998
61141,46998
" /> 
<polyline style="fill-rule:evenodd;"
points="62263,46998
62263,46250
62972,46250
62972,46998
62263,46998
" /> 
<polyline style="fill-rule:evenodd;"
points="62263,45935
62263,45305
62972,45305
62972,45935
62263,45935
" /> 
<polyline style="fill-rule:evenodd;"
points="59074,45935
59074,45305
59783,45305
59783,45935
59074,45935
" /> 
<polyline style="fill-rule:evenodd;"
points="67007,42519
67637,42519
67637,42913
67007,42913
67007,42519
" /> 
<polyline style="fill-rule:evenodd;"
points="67007,43700
67637,43700
67637,44094
67007,44094
67007,43700
" /> 
<polyline style="fill-rule:evenodd;"
points="65925,42519
66555,42519
66555,42913
65925,42913
65925,42519
" /> 
<polyline style="fill-rule:evenodd;"
points="65925,43700
66555,43700
66555,44094
65925,44094
65925,43700
" /> 
<polyline style="fill-rule:evenodd;"
points="58149,45078
58779,45078
58779,45472
58149,45472
58149,45078
" /> 
<polyline style="fill-rule:evenodd;"
points="58149,46259
58779,46259
58779,46653
58149,46653
58149,46259
" /> 
<polyline style="fill-rule:evenodd;"
points="51358,45078
51988,45078
51988,45472
51358,45472
51358,45078
" /> 
<polyline style="fill-rule:evenodd;"
points="51358,46259
51988,46259
51988,46653
51358,46653
51358,46259
" /> 
<polyline style="fill-rule:evenodd;"
points="56377,45078
57007,45078
57007,45472
56377,45472
56377,45078
" /> 
<polyline style="fill-rule:evenodd;"
points="56377,46259
57007,46259
57007,46653
56377,46653
56377,46259
" /> 
</g> 
</svg>
