<?xml version="1.0" standalone="no"?>
 <!DOCTYPE svg PUBLIC "-//W3C//DTD SVG 1.1//EN" 
 "http://www.w3.org/Graphics/SVG/1.1/DTD/svg11.dtd"> 
<svg xmlns="http://www.w3.org/2000/svg" version="1.1" 
    width="29.7002cm" height="21.0007cm" viewBox="0 0 116930 82680 ">
<title>SVG Picture created as debugger2-F.SilkS.svg date 2016/07/20 14:42:32 </title>
  <desc>Picture generated by PCBNEW </desc>
<g style="fill:#000000; fill-opacity:1;stroke:#000000; stroke-opacity:1;
stroke-linecap:round; stroke-linejoin:round; "
 transform="translate(0 0) scale(1 1)">
</g>
<g style="fill:#000000; fill-opacity:0.0; 
stroke:#000000; stroke-width:-0.000393701; stroke-opacity:1; 
stroke-linecap:round; stroke-linejoin:round;">
</g>
<g style="fill:#000000; fill-opacity:0.0; 
stroke:#000000; stroke-width:39.3701; stroke-opacity:1; 
stroke-linecap:round; stroke-linejoin:round;">
</g>
<g style="fill:#000000; fill-opacity:0.0; 
stroke:#000000; stroke-width:59.0551; stroke-opacity:1; 
stroke-linecap:round; stroke-linejoin:round;">
<rect x="69685.9" y="65357.2" width="42519.7" height="12598.4" rx="0" />
</g>
<g style="fill:#000000; fill-opacity:0.0; 
stroke:#000000; stroke-width:39.3701; stroke-opacity:1; 
stroke-linecap:round; stroke-linejoin:round;">
</g>
<g style="fill:#000000; fill-opacity:0.0; 
stroke:#000000; stroke-width:59.0551; stroke-opacity:1; 
stroke-linecap:round; stroke-linejoin:round;">
<rect x="3937.01" y="3937.01" width="109056" height="74806" rx="0" />
</g>
<g style="fill:#000000; fill-opacity:0.0; 
stroke:#000000; stroke-width:39.3701; stroke-opacity:1; 
stroke-linecap:round; stroke-linejoin:round;">
</g>
<g style="fill:#000000; fill-opacity:0.0; 
stroke:#000000; stroke-width:59.0551; stroke-opacity:1; 
stroke-linecap:round; stroke-linejoin:round;">
<rect x="4724.41" y="4724.41" width="107481" height="73231.2" rx="0" />
</g>
<g style="fill:#000000; fill-opacity:0.0; 
stroke:#000000; stroke-width:39.3701; stroke-opacity:1; 
stroke-linecap:round; stroke-linejoin:round;">
</g>
<g style="fill:#000000; fill-opacity:0.0; 
stroke:#000000; stroke-width:59.0551; stroke-opacity:1; 
stroke-linecap:round; stroke-linejoin:round;">
<path d="M23622 4724
L23622 3937
" />
</g>
<g style="fill:#000000; fill-opacity:0.0; 
stroke:#000000; stroke-width:39.3701; stroke-opacity:1; 
stroke-linecap:round; stroke-linejoin:round;">
</g>
<g style="fill:#000000; fill-opacity:0.0; 
stroke:#000000; stroke-width:59.0551; stroke-opacity:1; 
stroke-linecap:round; stroke-linejoin:round;">
<path d="M43307 4724
L43307 3937
" />
</g>
<g style="fill:#000000; fill-opacity:0.0; 
stroke:#000000; stroke-width:39.3701; stroke-opacity:1; 
stroke-linecap:round; stroke-linejoin:round;">
</g>
<g style="fill:#000000; fill-opacity:0.0; 
stroke:#000000; stroke-width:59.0551; stroke-opacity:1; 
stroke-linecap:round; stroke-linejoin:round;">
<path d="M62992 4724
L62992 3937
" />
</g>
<g style="fill:#000000; fill-opacity:0.0; 
stroke:#000000; stroke-width:39.3701; stroke-opacity:1; 
stroke-linecap:round; stroke-linejoin:round;">
</g>
<g style="fill:#000000; fill-opacity:0.0; 
stroke:#000000; stroke-width:59.0551; stroke-opacity:1; 
stroke-linecap:round; stroke-linejoin:round;">
<path d="M82677 4724
L82677 3937
" />
</g>
<g style="fill:#000000; fill-opacity:0.0; 
stroke:#000000; stroke-width:39.3701; stroke-opacity:1; 
stroke-linecap:round; stroke-linejoin:round;">
</g>
<g style="fill:#000000; fill-opacity:0.0; 
stroke:#000000; stroke-width:59.0551; stroke-opacity:1; 
stroke-linecap:round; stroke-linejoin:round;">
<path d="M102362 4724
L102362 3937
" />
</g>
<g style="fill:#000000; fill-opacity:0.0; 
stroke:#000000; stroke-width:39.3701; stroke-opacity:1; 
stroke-linecap:round; stroke-linejoin:round;">
</g>
<g style="fill:#000000; fill-opacity:0.0; 
stroke:#000000; stroke-width:59.0551; stroke-opacity:1; 
stroke-linecap:round; stroke-linejoin:round;">
<path d="M14169 4562
L13877 4562
" />
<path d="M14023 4562
L14023 4050
L13974 4123
L13925 4172
L13877 4196
" />
</g>
<g style="fill:#000000; fill-opacity:0.0; 
stroke:#000000; stroke-width:39.3701; stroke-opacity:1; 
stroke-linecap:round; stroke-linejoin:round;">
</g>
<g style="fill:#000000; fill-opacity:0.0; 
stroke:#000000; stroke-width:59.0551; stroke-opacity:1; 
stroke-linecap:round; stroke-linejoin:round;">
<path d="M33562 4099
L33586 4074
L33635 4050
L33757 4050
L33805 4074
L33830 4099
L33854 4147
L33854 4196
L33830 4269
L33537 4562
L33854 4562
" />
</g>
<g style="fill:#000000; fill-opacity:0.0; 
stroke:#000000; stroke-width:39.3701; stroke-opacity:1; 
stroke-linecap:round; stroke-linejoin:round;">
</g>
<g style="fill:#000000; fill-opacity:0.0; 
stroke:#000000; stroke-width:59.0551; stroke-opacity:1; 
stroke-linecap:round; stroke-linejoin:round;">
<path d="M53222 4050
L53539 4050
L53368 4245
L53442 4245
L53490 4269
L53515 4294
L53539 4342
L53539 4464
L53515 4513
L53490 4537
L53442 4562
L53295 4562
L53247 4537
L53222 4513
" />
</g>
<g style="fill:#000000; fill-opacity:0.0; 
stroke:#000000; stroke-width:39.3701; stroke-opacity:1; 
stroke-linecap:round; stroke-linejoin:round;">
</g>
<g style="fill:#000000; fill-opacity:0.0; 
stroke:#000000; stroke-width:59.0551; stroke-opacity:1; 
stroke-linecap:round; stroke-linejoin:round;">
<path d="M73175 4221
L73175 4562
" />
<path d="M73053 4026
L72932 4391
L73248 4391
" />
</g>
<g style="fill:#000000; fill-opacity:0.0; 
stroke:#000000; stroke-width:39.3701; stroke-opacity:1; 
stroke-linecap:round; stroke-linejoin:round;">
</g>
<g style="fill:#000000; fill-opacity:0.0; 
stroke:#000000; stroke-width:59.0551; stroke-opacity:1; 
stroke-linecap:round; stroke-linejoin:round;">
<path d="M92885 4050
L92641 4050
L92617 4294
L92641 4269
L92690 4245
L92812 4245
L92860 4269
L92885 4294
L92909 4342
L92909 4464
L92885 4513
L92860 4537
L92812 4562
L92690 4562
L92641 4537
L92617 4513
" />
</g>
<g style="fill:#000000; fill-opacity:0.0; 
stroke:#000000; stroke-width:39.3701; stroke-opacity:1; 
stroke-linecap:round; stroke-linejoin:round;">
</g>
<g style="fill:#000000; fill-opacity:0.0; 
stroke:#000000; stroke-width:59.0551; stroke-opacity:1; 
stroke-linecap:round; stroke-linejoin:round;">
<path d="M112545 4050
L112448 4050
L112399 4074
L112375 4099
L112326 4172
L112302 4269
L112302 4464
L112326 4513
L112350 4537
L112399 4562
L112497 4562
L112545 4537
L112570 4513
L112594 4464
L112594 4342
L112570 4294
L112545 4269
L112497 4245
L112399 4245
L112350 4269
L112326 4294
L112302 4342
" />
</g>
<g style="fill:#000000; fill-opacity:0.0; 
stroke:#000000; stroke-width:39.3701; stroke-opacity:1; 
stroke-linecap:round; stroke-linejoin:round;">
</g>
<g style="fill:#000000; fill-opacity:0.0; 
stroke:#000000; stroke-width:59.0551; stroke-opacity:1; 
stroke-linecap:round; stroke-linejoin:round;">
<path d="M23622 77955
L23622 78742
" />
</g>
<g style="fill:#000000; fill-opacity:0.0; 
stroke:#000000; stroke-width:39.3701; stroke-opacity:1; 
stroke-linecap:round; stroke-linejoin:round;">
</g>
<g style="fill:#000000; fill-opacity:0.0; 
stroke:#000000; stroke-width:59.0551; stroke-opacity:1; 
stroke-linecap:round; stroke-linejoin:round;">
<path d="M43307 77955
L43307 78742
" />
</g>
<g style="fill:#000000; fill-opacity:0.0; 
stroke:#000000; stroke-width:39.3701; stroke-opacity:1; 
stroke-linecap:round; stroke-linejoin:round;">
</g>
<g style="fill:#000000; fill-opacity:0.0; 
stroke:#000000; stroke-width:59.0551; stroke-opacity:1; 
stroke-linecap:round; stroke-linejoin:round;">
<path d="M62992 77955
L62992 78742
" />
</g>
<g style="fill:#000000; fill-opacity:0.0; 
stroke:#000000; stroke-width:39.3701; stroke-opacity:1; 
stroke-linecap:round; stroke-linejoin:round;">
</g>
<g style="fill:#000000; fill-opacity:0.0; 
stroke:#000000; stroke-width:59.0551; stroke-opacity:1; 
stroke-linecap:round; stroke-linejoin:round;">
<path d="M82677 77955
L82677 78742
" />
</g>
<g style="fill:#000000; fill-opacity:0.0; 
stroke:#000000; stroke-width:39.3701; stroke-opacity:1; 
stroke-linecap:round; stroke-linejoin:round;">
</g>
<g style="fill:#000000; fill-opacity:0.0; 
stroke:#000000; stroke-width:59.0551; stroke-opacity:1; 
stroke-linecap:round; stroke-linejoin:round;">
<path d="M102362 77955
L102362 78742
" />
</g>
<g style="fill:#000000; fill-opacity:0.0; 
stroke:#000000; stroke-width:39.3701; stroke-opacity:1; 
stroke-linecap:round; stroke-linejoin:round;">
</g>
<g style="fill:#000000; fill-opacity:0.0; 
stroke:#000000; stroke-width:59.0551; stroke-opacity:1; 
stroke-linecap:round; stroke-linejoin:round;">
<path d="M14169 78580
L13877 78580
" />
<path d="M14023 78580
L14023 78069
L13974 78142
L13925 78190
L13877 78215
" />
</g>
<g style="fill:#000000; fill-opacity:0.0; 
stroke:#000000; stroke-width:39.3701; stroke-opacity:1; 
stroke-linecap:round; stroke-linejoin:round;">
</g>
<g style="fill:#000000; fill-opacity:0.0; 
stroke:#000000; stroke-width:59.0551; stroke-opacity:1; 
stroke-linecap:round; stroke-linejoin:round;">
<path d="M33562 78117
L33586 78093
L33635 78069
L33757 78069
L33805 78093
L33830 78117
L33854 78166
L33854 78215
L33830 78288
L33537 78580
L33854 78580
" />
</g>
<g style="fill:#000000; fill-opacity:0.0; 
stroke:#000000; stroke-width:39.3701; stroke-opacity:1; 
stroke-linecap:round; stroke-linejoin:round;">
</g>
<g style="fill:#000000; fill-opacity:0.0; 
stroke:#000000; stroke-width:59.0551; stroke-opacity:1; 
stroke-linecap:round; stroke-linejoin:round;">
<path d="M53222 78069
L53539 78069
L53368 78263
L53442 78263
L53490 78288
L53515 78312
L53539 78361
L53539 78483
L53515 78532
L53490 78556
L53442 78580
L53295 78580
L53247 78556
L53222 78532
" />
</g>
<g style="fill:#000000; fill-opacity:0.0; 
stroke:#000000; stroke-width:39.3701; stroke-opacity:1; 
stroke-linecap:round; stroke-linejoin:round;">
</g>
<g style="fill:#000000; fill-opacity:0.0; 
stroke:#000000; stroke-width:59.0551; stroke-opacity:1; 
stroke-linecap:round; stroke-linejoin:round;">
<path d="M73175 78239
L73175 78580
" />
<path d="M73053 78044
L72932 78410
L73248 78410
" />
</g>
<g style="fill:#000000; fill-opacity:0.0; 
stroke:#000000; stroke-width:39.3701; stroke-opacity:1; 
stroke-linecap:round; stroke-linejoin:round;">
</g>
<g style="fill:#000000; fill-opacity:0.0; 
stroke:#000000; stroke-width:59.0551; stroke-opacity:1; 
stroke-linecap:round; stroke-linejoin:round;">
<path d="M92885 78069
L92641 78069
L92617 78312
L92641 78288
L92690 78263
L92812 78263
L92860 78288
L92885 78312
L92909 78361
L92909 78483
L92885 78532
L92860 78556
L92812 78580
L92690 78580
L92641 78556
L92617 78532
" />
</g>
<g style="fill:#000000; fill-opacity:0.0; 
stroke:#000000; stroke-width:39.3701; stroke-opacity:1; 
stroke-linecap:round; stroke-linejoin:round;">
</g>
<g style="fill:#000000; fill-opacity:0.0; 
stroke:#000000; stroke-width:59.0551; stroke-opacity:1; 
stroke-linecap:round; stroke-linejoin:round;">
<path d="M112545 78069
L112448 78069
L112399 78093
L112375 78117
L112326 78190
L112302 78288
L112302 78483
L112326 78532
L112350 78556
L112399 78580
L112497 78580
L112545 78556
L112570 78532
L112594 78483
L112594 78361
L112570 78312
L112545 78288
L112497 78263
L112399 78263
L112350 78288
L112326 78312
L112302 78361
" />
</g>
<g style="fill:#000000; fill-opacity:0.0; 
stroke:#000000; stroke-width:39.3701; stroke-opacity:1; 
stroke-linecap:round; stroke-linejoin:round;">
</g>
<g style="fill:#000000; fill-opacity:0.0; 
stroke:#000000; stroke-width:59.0551; stroke-opacity:1; 
stroke-linecap:round; stroke-linejoin:round;">
<path d="M3937 23622
L4724 23622
" />
</g>
<g style="fill:#000000; fill-opacity:0.0; 
stroke:#000000; stroke-width:39.3701; stroke-opacity:1; 
stroke-linecap:round; stroke-linejoin:round;">
</g>
<g style="fill:#000000; fill-opacity:0.0; 
stroke:#000000; stroke-width:59.0551; stroke-opacity:1; 
stroke-linecap:round; stroke-linejoin:round;">
<path d="M3937 43307
L4724 43307
" />
</g>
<g style="fill:#000000; fill-opacity:0.0; 
stroke:#000000; stroke-width:39.3701; stroke-opacity:1; 
stroke-linecap:round; stroke-linejoin:round;">
</g>
<g style="fill:#000000; fill-opacity:0.0; 
stroke:#000000; stroke-width:59.0551; stroke-opacity:1; 
stroke-linecap:round; stroke-linejoin:round;">
<path d="M3937 62992
L4724 62992
" />
</g>
<g style="fill:#000000; fill-opacity:0.0; 
stroke:#000000; stroke-width:39.3701; stroke-opacity:1; 
stroke-linecap:round; stroke-linejoin:round;">
</g>
<g style="fill:#000000; fill-opacity:0.0; 
stroke:#000000; stroke-width:59.0551; stroke-opacity:1; 
stroke-linecap:round; stroke-linejoin:round;">
<path d="M4208 13864
L4452 13864
" />
<path d="M4160 14011
L4330 13499
L4501 14011
" />
</g>
<g style="fill:#000000; fill-opacity:0.0; 
stroke:#000000; stroke-width:39.3701; stroke-opacity:1; 
stroke-linecap:round; stroke-linejoin:round;">
</g>
<g style="fill:#000000; fill-opacity:0.0; 
stroke:#000000; stroke-width:59.0551; stroke-opacity:1; 
stroke-linecap:round; stroke-linejoin:round;">
<path d="M4367 33428
L4440 33452
L4464 33476
L4489 33525
L4489 33598
L4464 33647
L4440 33671
L4391 33696
L4196 33696
L4196 33184
L4367 33184
L4416 33208
L4440 33233
L4464 33281
L4464 33330
L4440 33379
L4416 33403
L4367 33428
L4196 33428
" />
</g>
<g style="fill:#000000; fill-opacity:0.0; 
stroke:#000000; stroke-width:39.3701; stroke-opacity:1; 
stroke-linecap:round; stroke-linejoin:round;">
</g>
<g style="fill:#000000; fill-opacity:0.0; 
stroke:#000000; stroke-width:59.0551; stroke-opacity:1; 
stroke-linecap:round; stroke-linejoin:round;">
<path d="M4489 53332
L4464 53356
L4391 53381
L4342 53381
L4269 53356
L4221 53308
L4196 53259
L4172 53161
L4172 53088
L4196 52991
L4221 52942
L4269 52893
L4342 52869
L4391 52869
L4464 52893
L4489 52918
" />
</g>
<g style="fill:#000000; fill-opacity:0.0; 
stroke:#000000; stroke-width:39.3701; stroke-opacity:1; 
stroke-linecap:round; stroke-linejoin:round;">
</g>
<g style="fill:#000000; fill-opacity:0.0; 
stroke:#000000; stroke-width:59.0551; stroke-opacity:1; 
stroke-linecap:round; stroke-linejoin:round;">
<path d="M4196 73066
L4196 72554
L4318 72554
L4391 72578
L4440 72627
L4464 72676
L4489 72773
L4489 72846
L4464 72944
L4440 72993
L4391 73041
L4318 73066
L4196 73066
" />
</g>
<g style="fill:#000000; fill-opacity:0.0; 
stroke:#000000; stroke-width:39.3701; stroke-opacity:1; 
stroke-linecap:round; stroke-linejoin:round;">
</g>
<g style="fill:#000000; fill-opacity:0.0; 
stroke:#000000; stroke-width:59.0551; stroke-opacity:1; 
stroke-linecap:round; stroke-linejoin:round;">
<path d="M112992 23622
L112205 23622
" />
</g>
<g style="fill:#000000; fill-opacity:0.0; 
stroke:#000000; stroke-width:39.3701; stroke-opacity:1; 
stroke-linecap:round; stroke-linejoin:round;">
</g>
<g style="fill:#000000; fill-opacity:0.0; 
stroke:#000000; stroke-width:59.0551; stroke-opacity:1; 
stroke-linecap:round; stroke-linejoin:round;">
<path d="M112992 43307
L112205 43307
" />
</g>
<g style="fill:#000000; fill-opacity:0.0; 
stroke:#000000; stroke-width:39.3701; stroke-opacity:1; 
stroke-linecap:round; stroke-linejoin:round;">
</g>
<g style="fill:#000000; fill-opacity:0.0; 
stroke:#000000; stroke-width:59.0551; stroke-opacity:1; 
stroke-linecap:round; stroke-linejoin:round;">
<path d="M112992 62992
L112205 62992
" />
</g>
<g style="fill:#000000; fill-opacity:0.0; 
stroke:#000000; stroke-width:39.3701; stroke-opacity:1; 
stroke-linecap:round; stroke-linejoin:round;">
</g>
<g style="fill:#000000; fill-opacity:0.0; 
stroke:#000000; stroke-width:59.0551; stroke-opacity:1; 
stroke-linecap:round; stroke-linejoin:round;">
<path d="M112477 13864
L112721 13864
" />
<path d="M112428 14011
L112599 13499
L112769 14011
" />
</g>
<g style="fill:#000000; fill-opacity:0.0; 
stroke:#000000; stroke-width:39.3701; stroke-opacity:1; 
stroke-linecap:round; stroke-linejoin:round;">
</g>
<g style="fill:#000000; fill-opacity:0.0; 
stroke:#000000; stroke-width:59.0551; stroke-opacity:1; 
stroke-linecap:round; stroke-linejoin:round;">
<path d="M112635 33428
L112708 33452
L112733 33476
L112757 33525
L112757 33598
L112733 33647
L112708 33671
L112660 33696
L112465 33696
L112465 33184
L112635 33184
L112684 33208
L112708 33233
L112733 33281
L112733 33330
L112708 33379
L112684 33403
L112635 33428
L112465 33428
" />
</g>
<g style="fill:#000000; fill-opacity:0.0; 
stroke:#000000; stroke-width:39.3701; stroke-opacity:1; 
stroke-linecap:round; stroke-linejoin:round;">
</g>
<g style="fill:#000000; fill-opacity:0.0; 
stroke:#000000; stroke-width:59.0551; stroke-opacity:1; 
stroke-linecap:round; stroke-linejoin:round;">
<path d="M112757 53332
L112733 53356
L112660 53381
L112611 53381
L112538 53356
L112489 53308
L112465 53259
L112440 53161
L112440 53088
L112465 52991
L112489 52942
L112538 52893
L112611 52869
L112660 52869
L112733 52893
L112757 52918
" />
</g>
<g style="fill:#000000; fill-opacity:0.0; 
stroke:#000000; stroke-width:39.3701; stroke-opacity:1; 
stroke-linecap:round; stroke-linejoin:round;">
</g>
<g style="fill:#000000; fill-opacity:0.0; 
stroke:#000000; stroke-width:59.0551; stroke-opacity:1; 
stroke-linecap:round; stroke-linejoin:round;">
<path d="M112465 73066
L112465 72554
L112587 72554
L112660 72578
L112708 72627
L112733 72676
L112757 72773
L112757 72846
L112733 72944
L112708 72993
L112660 73041
L112587 73066
L112465 73066
" />
</g>
<g style="fill:#000000; fill-opacity:0.0; 
stroke:#000000; stroke-width:39.3701; stroke-opacity:1; 
stroke-linecap:round; stroke-linejoin:round;">
</g>
<g style="fill:#000000; fill-opacity:0.0; 
stroke:#000000; stroke-width:59.0551; stroke-opacity:1; 
stroke-linecap:round; stroke-linejoin:round;">
<path d="M78881 76293
L78881 75703
L79022 75703
L79106 75731
L79162 75787
L79190 75843
L79219 75956
L79219 76040
L79190 76153
L79162 76209
L79106 76265
L79022 76293
L78881 76293
" />
<path d="M79725 76293
L79725 75984
L79697 75928
L79640 75899
L79528 75899
L79472 75928
" />
<path d="M79725 76265
L79669 76293
L79528 76293
L79472 76265
L79444 76209
L79444 76153
L79472 76096
L79528 76068
L79669 76068
L79725 76040
" />
<path d="M79922 75899
L80147 75899
" />
<path d="M80006 75703
L80006 76209
L80034 76265
L80090 76293
L80147 76293
" />
<path d="M80568 76265
L80512 76293
L80400 76293
L80343 76265
L80315 76209
L80315 75984
L80343 75928
L80400 75899
L80512 75899
L80568 75928
L80597 75984
L80597 76040
L80315 76096
" />
<path d="M80850 76237
L80878 76265
L80850 76293
L80822 76265
L80850 76237
L80850 76293
" />
<path d="M80850 75928
L80878 75956
L80850 75984
L80822 75956
L80850 75928
L80850 75984
" />
</g>
<g style="fill:#000000; fill-opacity:0.0; 
stroke:#000000; stroke-width:39.3701; stroke-opacity:1; 
stroke-linecap:round; stroke-linejoin:round;">
</g>
<g style="fill:#000000; fill-opacity:0.0; 
stroke:#000000; stroke-width:59.0551; stroke-opacity:1; 
stroke-linecap:round; stroke-linejoin:round;">
<path d="M69685 76577
L112205 76577
" />
</g>
<g style="fill:#000000; fill-opacity:0.0; 
stroke:#000000; stroke-width:39.3701; stroke-opacity:1; 
stroke-linecap:round; stroke-linejoin:round;">
</g>
<g style="fill:#000000; fill-opacity:0.0; 
stroke:#000000; stroke-width:59.0551; stroke-opacity:1; 
stroke-linecap:round; stroke-linejoin:round;">
<path d="M70220 77395
L70220 76805
" />
<path d="M70557 77395
L70304 77058
" />
<path d="M70557 76805
L70220 77142
" />
<path d="M70810 77395
L70810 77002
" />
<path d="M70810 76805
L70782 76833
L70810 76861
L70838 76833
L70810 76805
L70810 76861
" />
<path d="M71429 77339
L71401 77367
L71316 77395
L71260 77395
L71176 77367
L71120 77311
L71091 77255
L71063 77142
L71063 77058
L71091 76946
L71120 76889
L71176 76833
L71260 76805
L71316 76805
L71401 76833
L71429 76861
" />
<path d="M71935 77395
L71935 77086
L71907 77030
L71851 77002
L71738 77002
L71682 77030
" />
<path d="M71935 77367
L71879 77395
L71738 77395
L71682 77367
L71654 77311
L71654 77255
L71682 77199
L71738 77171
L71879 77171
L71935 77142
" />
<path d="M72469 77395
L72469 76805
" />
<path d="M72469 77367
L72413 77395
L72301 77395
L72244 77367
L72216 77339
L72188 77283
L72188 77114
L72216 77058
L72244 77030
L72301 77002
L72413 77002
L72469 77030
" />
<path d="M73201 77086
L73397 77086
" />
<path d="M73482 77395
L73201 77395
L73201 76805
L73482 76805
" />
<path d="M73735 77339
L73763 77367
L73735 77395
L73707 77367
L73735 77339
L73735 77395
" />
<path d="M74016 77395
L74016 76805
L74157 76805
L74241 76833
L74297 76889
L74325 76946
L74354 77058
L74354 77142
L74325 77255
L74297 77311
L74241 77367
L74157 77395
L74016 77395
" />
<path d="M74607 77339
L74635 77367
L74607 77395
L74579 77367
L74607 77339
L74607 77395
" />
<path d="M74860 77227
L75141 77227
" />
<path d="M74804 77395
L75000 76805
L75197 77395
" />
<path d="M75394 77339
L75422 77367
L75394 77395
L75366 77367
L75394 77339
L75394 77395
" />
<path d="M76575 77395
L76575 76805
" />
<path d="M76631 77171
L76800 77395
" />
<path d="M76800 77002
L76575 77227
" />
<path d="M77053 77395
L77053 77002
" />
<path d="M77053 76805
L77025 76833
L77053 76861
L77081 76833
L77053 76805
L77053 76861
" />
<path d="M77588 77367
L77531 77395
L77419 77395
L77363 77367
L77334 77339
L77306 77283
L77306 77114
L77334 77058
L77363 77030
L77419 77002
L77531 77002
L77588 77030
" />
<path d="M78094 77395
L78094 77086
L78066 77030
L78009 77002
L77897 77002
L77841 77030
" />
<path d="M78094 77367
L78037 77395
L77897 77395
L77841 77367
L77813 77311
L77813 77255
L77841 77199
L77897 77171
L78037 77171
L78094 77142
" />
<path d="M78628 77395
L78628 76805
" />
<path d="M78628 77367
L78572 77395
L78459 77395
L78403 77367
L78375 77339
L78347 77283
L78347 77114
L78375 77058
L78403 77030
L78459 77002
L78572 77002
L78628 77030
" />
<path d="M79612 77002
L79612 77395
" />
<path d="M79472 76777
L79331 77199
L79697 77199
" />
<path d="M79922 77339
L79950 77367
L79922 77395
L79894 77367
L79922 77339
L79922 77395
" />
<path d="M80315 76805
L80372 76805
L80428 76833
L80456 76861
L80484 76917
L80512 77030
L80512 77171
L80484 77283
L80456 77339
L80428 77367
L80372 77395
L80315 77395
L80259 77367
L80231 77339
L80203 77283
L80175 77171
L80175 77030
L80203 76917
L80231 76861
L80259 76833
L80315 76805
" />
<path d="M80765 77339
L80793 77367
L80765 77395
L80737 77367
L80765 77339
L80765 77395
" />
<path d="M81159 76805
L81215 76805
L81271 76833
L81300 76861
L81328 76917
L81356 77030
L81356 77171
L81328 77283
L81300 77339
L81271 77367
L81215 77395
L81159 77395
L81103 77367
L81075 77339
L81046 77283
L81018 77171
L81018 77030
L81046 76917
L81075 76861
L81103 76833
L81159 76805
" />
<path d="M81609 77171
L82059 77171
" />
<path d="M82312 77367
L82368 77395
L82481 77395
L82537 77367
L82565 77311
L82565 77283
L82537 77227
L82481 77199
L82396 77199
L82340 77171
L82312 77114
L82312 77086
L82340 77030
L82396 77002
L82481 77002
L82537 77030
" />
<path d="M82734 77002
L82959 77002
" />
<path d="M82818 76805
L82818 77311
L82846 77367
L82903 77395
L82959 77395
" />
<path d="M83409 77395
L83409 77086
L83381 77030
L83324 77002
L83212 77002
L83156 77030
" />
<path d="M83409 77367
L83352 77395
L83212 77395
L83156 77367
L83127 77311
L83127 77255
L83156 77199
L83212 77171
L83352 77171
L83409 77142
" />
<path d="M83690 77395
L83690 76805
" />
<path d="M83690 77030
L83746 77002
L83859 77002
L83915 77030
L83943 77058
L83971 77114
L83971 77283
L83943 77339
L83915 77367
L83859 77395
L83746 77395
L83690 77367
" />
<path d="M84309 77395
L84252 77367
L84224 77311
L84224 76805
" />
<path d="M84759 77367
L84702 77395
L84590 77395
L84534 77367
L84505 77311
L84505 77086
L84534 77030
L84590 77002
L84702 77002
L84759 77030
L84787 77086
L84787 77142
L84505 77199
" />
</g>
<g style="fill:#000000; fill-opacity:0.0; 
stroke:#000000; stroke-width:39.3701; stroke-opacity:1; 
stroke-linecap:round; stroke-linejoin:round;">
</g>
<g style="fill:#000000; fill-opacity:0.0; 
stroke:#000000; stroke-width:59.0551; stroke-opacity:1; 
stroke-linecap:round; stroke-linejoin:round;">
<path d="M69685 75396
L112205 75396
" />
</g>
<g style="fill:#000000; fill-opacity:0.0; 
stroke:#000000; stroke-width:39.3701; stroke-opacity:1; 
stroke-linecap:round; stroke-linejoin:round;">
</g>
<g style="fill:#000000; fill-opacity:0.0; 
stroke:#000000; stroke-width:118.11; stroke-opacity:1; 
stroke-linecap:round; stroke-linejoin:round;">
<path d="M104022 76293
L103825 76012
" />
<path d="M103684 76293
L103684 75703
L103909 75703
L103965 75731
L103994 75759
L104022 75815
L104022 75899
L103994 75956
L103965 75984
L103909 76012
L103684 76012
" />
<path d="M104500 76265
L104444 76293
L104331 76293
L104275 76265
L104247 76209
L104247 75984
L104275 75928
L104331 75899
L104444 75899
L104500 75928
L104528 75984
L104528 76040
L104247 76096
" />
<path d="M104725 75899
L104865 76293
L105006 75899
" />
<path d="M105231 76237
L105259 76265
L105231 76293
L105203 76265
L105231 76237
L105231 76293
" />
<path d="M105231 75928
L105259 75956
L105231 75984
L105203 75956
L105231 75928
L105231 75984
" />
</g>
<g style="fill:#000000; fill-opacity:0.0; 
stroke:#000000; stroke-width:39.3701; stroke-opacity:1; 
stroke-linecap:round; stroke-linejoin:round;">
</g>
<g style="fill:#000000; fill-opacity:0.0; 
stroke:#000000; stroke-width:59.0551; stroke-opacity:1; 
stroke-linecap:round; stroke-linejoin:round;">
<path d="M70192 76265
L70276 76293
L70417 76293
L70473 76265
L70501 76237
L70529 76181
L70529 76124
L70501 76068
L70473 76040
L70417 76012
L70304 75984
L70248 75956
L70220 75928
L70192 75871
L70192 75815
L70220 75759
L70248 75731
L70304 75703
L70445 75703
L70529 75731
" />
<path d="M70782 76293
L70782 75899
" />
<path d="M70782 75703
L70754 75731
L70782 75759
L70810 75731
L70782 75703
L70782 75759
" />
<path d="M71007 75899
L71316 75899
L71007 76293
L71316 76293
" />
<path d="M71766 76265
L71710 76293
L71598 76293
L71541 76265
L71513 76209
L71513 75984
L71541 75928
L71598 75899
L71710 75899
L71766 75928
L71795 75984
L71795 76040
L71513 76096
" />
<path d="M72048 76237
L72076 76265
L72048 76293
L72019 76265
L72048 76237
L72048 76293
" />
<path d="M72048 75928
L72076 75956
L72048 75984
L72019 75956
L72048 75928
L72048 75984
" />
<path d="M72751 76124
L73032 76124
" />
<path d="M72694 76293
L72891 75703
L73088 76293
" />
<path d="M73538 75899
L73538 76293
" />
<path d="M73397 75674
L73257 76096
L73622 76096
" />
</g>
<g style="fill:#000000; fill-opacity:0.0; 
stroke:#000000; stroke-width:39.3701; stroke-opacity:1; 
stroke-linecap:round; stroke-linejoin:round;">
</g>
<g style="fill:#000000; fill-opacity:0.0; 
stroke:#000000; stroke-width:59.0551; stroke-opacity:1; 
stroke-linecap:round; stroke-linejoin:round;">
<path d="M103684 77395
L103684 76805
" />
<path d="M104219 77395
L104219 76805
" />
<path d="M104219 77367
L104162 77395
L104050 77395
L103994 77367
L103965 77339
L103937 77283
L103937 77114
L103965 77058
L103994 77030
L104050 77002
L104162 77002
L104219 77030
" />
<path d="M104500 77339
L104528 77367
L104500 77395
L104472 77367
L104500 77339
L104500 77395
" />
<path d="M104500 77030
L104528 77058
L104500 77086
L104472 77058
L104500 77030
L104500 77086
" />
<path d="M105540 77395
L105203 77395
" />
<path d="M105372 77395
L105372 76805
L105315 76889
L105259 76946
L105203 76974
" />
<path d="M106215 76777
L105709 77536
" />
<path d="M106721 77395
L106384 77395
" />
<path d="M106553 77395
L106553 76805
L106496 76889
L106440 76946
L106384 76974
" />
</g>
<g style="fill:#000000; fill-opacity:0.0; 
stroke:#000000; stroke-width:39.3701; stroke-opacity:1; 
stroke-linecap:round; stroke-linejoin:round;">
</g>
<g style="fill:#000000; fill-opacity:0.0; 
stroke:#000000; stroke-width:59.0551; stroke-opacity:1; 
stroke-linecap:round; stroke-linejoin:round;">
<path d="M69685 73821
L112205 73821
" />
</g>
<g style="fill:#000000; fill-opacity:0.0; 
stroke:#000000; stroke-width:39.3701; stroke-opacity:1; 
stroke-linecap:round; stroke-linejoin:round;">
</g>
<g style="fill:#000000; fill-opacity:0.0; 
stroke:#000000; stroke-width:157.48; stroke-opacity:1; 
stroke-linecap:round; stroke-linejoin:round;">
<path d="M70257 74099
L70707 74099
" />
<path d="M70384 74886
L70482 74099
" />
<path d="M70871 74886
L70937 74361
" />
<path d="M70970 74099
L70927 74136
L70960 74174
L71002 74136
L70970 74099
L70960 74174
" />
<path d="M71199 74361
L71499 74361
" />
<path d="M71345 74099
L71260 74774
L71288 74849
L71359 74886
L71434 74886
" />
<path d="M71809 74886
L71738 74849
L71710 74774
L71795 74099
" />
<path d="M72413 74849
L72334 74886
L72184 74886
L72113 74849
L72085 74774
L72123 74474
L72169 74399
L72249 74361
L72399 74361
L72469 74399
L72498 74474
L72488 74549
L72104 74624
" />
<path d="M72793 74811
L72826 74849
L72783 74886
L72751 74849
L72793 74811
L72783 74886
" />
<path d="M72844 74399
L72877 74436
L72835 74474
L72802 74436
L72844 74399
L72835 74474
" />
</g>
<g style="fill:#000000; fill-opacity:0.0; 
stroke:#000000; stroke-width:39.3701; stroke-opacity:1; 
stroke-linecap:round; stroke-linejoin:round;">
</g>
<g style="fill:#000000; fill-opacity:0.0; 
stroke:#000000; stroke-width:59.0551; stroke-opacity:1; 
stroke-linecap:round; stroke-linejoin:round;">
<path d="M70417 73070
L70220 73070
" />
<path d="M70220 73380
L70220 72789
L70501 72789
" />
<path d="M70726 73380
L70726 72986
" />
<path d="M70726 72789
L70698 72817
L70726 72845
L70754 72817
L70726 72789
L70726 72845
" />
<path d="M71091 73380
L71035 73352
L71007 73295
L71007 72789
" />
<path d="M71541 73352
L71485 73380
L71373 73380
L71316 73352
L71288 73295
L71288 73070
L71316 73014
L71373 72986
L71485 72986
L71541 73014
L71570 73070
L71570 73127
L71288 73183
" />
<path d="M71823 73323
L71851 73352
L71823 73380
L71795 73352
L71823 73323
L71823 73380
" />
<path d="M71823 73014
L71851 73042
L71823 73070
L71795 73042
L71823 73014
L71823 73070
" />
<path d="M72807 73380
L72807 72789
" />
<path d="M72807 73352
L72751 73380
L72638 73380
L72582 73352
L72554 73323
L72526 73267
L72526 73099
L72554 73042
L72582 73014
L72638 72986
L72751 72986
L72807 73014
" />
<path d="M73313 73352
L73257 73380
L73144 73380
L73088 73352
L73060 73295
L73060 73070
L73088 73014
L73144 72986
L73257 72986
L73313 73014
L73341 73070
L73341 73127
L73060 73183
" />
<path d="M73594 73380
L73594 72789
" />
<path d="M73594 73014
L73651 72986
L73763 72986
L73819 73014
L73847 73042
L73876 73099
L73876 73267
L73847 73323
L73819 73352
L73763 73380
L73651 73380
L73594 73352
" />
<path d="M74382 72986
L74382 73380
" />
<path d="M74129 72986
L74129 73295
L74157 73352
L74213 73380
L74297 73380
L74354 73352
L74382 73323
" />
<path d="M74916 72986
L74916 73464
L74888 73520
L74860 73548
L74804 73577
L74719 73577
L74663 73548
" />
<path d="M74916 73352
L74860 73380
L74747 73380
L74691 73352
L74663 73323
L74635 73267
L74635 73099
L74663 73042
L74691 73014
L74747 72986
L74860 72986
L74916 73014
" />
<path d="M75450 72986
L75450 73464
L75422 73520
L75394 73548
L75338 73577
L75253 73577
L75197 73548
" />
<path d="M75450 73352
L75394 73380
L75282 73380
L75225 73352
L75197 73323
L75169 73267
L75169 73099
L75197 73042
L75225 73014
L75282 72986
L75394 72986
L75450 73014
" />
<path d="M75956 73352
L75900 73380
L75788 73380
L75732 73352
L75703 73295
L75703 73070
L75732 73014
L75788 72986
L75900 72986
L75956 73014
L75985 73070
L75985 73127
L75703 73183
" />
<path d="M76238 73380
L76238 72986
" />
<path d="M76238 73099
L76266 73042
L76294 73014
L76350 72986
L76406 72986
" />
<path d="M76575 72845
L76603 72817
L76660 72789
L76800 72789
L76856 72817
L76885 72845
L76913 72902
L76913 72958
L76885 73042
L76547 73380
L76913 73380
" />
<path d="M77166 73323
L77194 73352
L77166 73380
L77138 73352
L77166 73323
L77166 73380
" />
<path d="M77447 73380
L77447 72789
" />
<path d="M77503 73155
L77672 73380
" />
<path d="M77672 72986
L77447 73211
" />
<path d="M77925 73380
L77925 72986
" />
<path d="M77925 72789
L77897 72817
L77925 72845
L77953 72817
L77925 72789
L77925 72845
" />
<path d="M78459 73352
L78403 73380
L78291 73380
L78234 73352
L78206 73323
L78178 73267
L78178 73099
L78206 73042
L78234 73014
L78291 72986
L78403 72986
L78459 73014
" />
<path d="M78965 73380
L78965 73070
L78937 73014
L78881 72986
L78769 72986
L78712 73014
" />
<path d="M78965 73352
L78909 73380
L78769 73380
L78712 73352
L78684 73295
L78684 73239
L78712 73183
L78769 73155
L78909 73155
L78965 73127
" />
<path d="M79500 73380
L79500 72789
" />
<path d="M79500 73352
L79444 73380
L79331 73380
L79275 73352
L79247 73323
L79219 73267
L79219 73099
L79247 73042
L79275 73014
L79331 72986
L79444 72986
L79500 73014
" />
<path d="M79640 73436
L80090 73436
" />
<path d="M80231 72986
L80231 73577
" />
<path d="M80231 73014
L80287 72986
L80400 72986
L80456 73014
L80484 73042
L80512 73099
L80512 73267
L80484 73323
L80456 73352
L80400 73380
L80287 73380
L80231 73352
" />
<path d="M81018 73352
L80962 73380
L80850 73380
L80793 73352
L80765 73323
L80737 73267
L80737 73099
L80765 73042
L80793 73014
L80850 72986
L80962 72986
L81018 73014
" />
<path d="M81271 73380
L81271 72789
" />
<path d="M81271 73014
L81328 72986
L81440 72986
L81496 73014
L81525 73042
L81553 73099
L81553 73267
L81525 73323
L81496 73352
L81440 73380
L81328 73380
L81271 73352
" />
</g>
<g style="fill:#000000; fill-opacity:0.0; 
stroke:#000000; stroke-width:39.3701; stroke-opacity:1; 
stroke-linecap:round; stroke-linejoin:round;">
</g>
<g style="fill:#000000; fill-opacity:0.0; 
stroke:#000000; stroke-width:59.0551; stroke-opacity:1; 
stroke-linecap:round; stroke-linejoin:round;">
<path d="M69685 71459
L112205 71459
" />
</g>
<g style="fill:#000000; fill-opacity:0.0; 
stroke:#000000; stroke-width:39.3701; stroke-opacity:1; 
stroke-linecap:round; stroke-linejoin:round;">
</g>
<g style="fill:#000000; fill-opacity:0.0; 
stroke:#000000; stroke-width:59.0551; stroke-opacity:1; 
stroke-linecap:round; stroke-linejoin:round;">
<path d="M70192 72289
L70276 72317
L70417 72317
L70473 72289
L70501 72260
L70529 72204
L70529 72148
L70501 72092
L70473 72064
L70417 72036
L70304 72007
L70248 71979
L70220 71951
L70192 71895
L70192 71839
L70220 71782
L70248 71754
L70304 71726
L70445 71726
L70529 71754
" />
<path d="M70782 72317
L70782 71726
" />
<path d="M71035 72317
L71035 72007
L71007 71951
L70951 71923
L70867 71923
L70810 71951
L70782 71979
" />
<path d="M71541 72289
L71485 72317
L71373 72317
L71316 72289
L71288 72232
L71288 72007
L71316 71951
L71373 71923
L71485 71923
L71541 71951
L71570 72007
L71570 72064
L71288 72120
" />
<path d="M72048 72289
L71991 72317
L71879 72317
L71823 72289
L71795 72232
L71795 72007
L71823 71951
L71879 71923
L71991 71923
L72048 71951
L72076 72007
L72076 72064
L71795 72120
" />
<path d="M72244 71923
L72469 71923
" />
<path d="M72329 71726
L72329 72232
L72357 72289
L72413 72317
L72469 72317
" />
<path d="M72666 72260
L72694 72289
L72666 72317
L72638 72289
L72666 72260
L72666 72317
" />
<path d="M72666 71951
L72694 71979
L72666 72007
L72638 71979
L72666 71951
L72666 72007
" />
</g>
<g style="fill:#000000; fill-opacity:0.0; 
stroke:#000000; stroke-width:39.3701; stroke-opacity:1; 
stroke-linecap:round; stroke-linejoin:round;">
</g>
<g style="fill:#000000; fill-opacity:0.0; 
stroke:#000000; stroke-width:59.0551; stroke-opacity:1; 
stroke-linecap:round; stroke-linejoin:round;">
<path d="M77559 75396
L77559 76577
" />
</g>
<g style="fill:#000000; fill-opacity:0.0; 
stroke:#000000; stroke-width:39.3701; stroke-opacity:1; 
stroke-linecap:round; stroke-linejoin:round;">
</g>
<g style="fill:#000000; fill-opacity:0.0; 
stroke:#000000; stroke-width:59.0551; stroke-opacity:1; 
stroke-linecap:round; stroke-linejoin:round;">
<path d="M102756 75396
L102756 77955
" />
</g>
<g style="fill:#008484; fill-opacity:0.0; 
stroke:#008484; stroke-width:59.0551; stroke-opacity:1; 
stroke-linecap:round; stroke-linejoin:round;">
<path d="M70039 46666
L70026 46692
L70026 46732
L70039 46771
L70065 46797
L70091 46811
L70144 46824
L70183 46824
L70236 46811
L70262 46797
L70288 46771
L70301 46732
L70301 46706
L70288 46666
L70275 46653
L70183 46653
L70183 46706
" />
<path d="M70301 46535
L70026 46535
L70301 46377
L70026 46377
" />
<path d="M70301 46246
L70026 46246
L70026 46181
L70039 46141
L70065 46115
L70091 46102
L70144 46089
L70183 46089
L70236 46102
L70262 46115
L70288 46141
L70301 46181
L70301 46246
" />
<path d="M63149 46666
L63136 46692
L63136 46732
L63149 46771
L63175 46797
L63202 46811
L63254 46824
L63293 46824
L63346 46811
L63372 46797
L63398 46771
L63412 46732
L63412 46706
L63398 46666
L63385 46653
L63293 46653
L63293 46706
" />
<path d="M63412 46535
L63136 46535
L63412 46377
L63136 46377
" />
<path d="M63412 46246
L63136 46246
L63136 46181
L63149 46141
L63175 46115
L63202 46102
L63254 46089
L63293 46089
L63346 46102
L63372 46115
L63398 46141
L63412 46181
L63412 46246
" />
<path d="M63562 41325
L63471 41194
" />
<path d="M63405 41325
L63405 41049
L63510 41049
L63536 41062
L63549 41076
L63562 41102
L63562 41141
L63549 41167
L63536 41181
L63510 41194
L63405 41194
" />
<path d="M63681 41325
L63681 41049
L63786 41049
L63812 41062
L63825 41076
L63838 41102
L63838 41141
L63825 41167
L63812 41181
L63786 41194
L63681 41194
" />
<path d="M63956 41325
L63956 41141
" />
<path d="M63956 41049
L63943 41062
L63956 41076
L63969 41062
L63956 41049
L63956 41076
" />
<path d="M64455 41325
L64363 41194
" />
<path d="M64297 41325
L64297 41049
L64402 41049
L64429 41062
L64442 41076
L64455 41102
L64455 41141
L64442 41167
L64429 41181
L64402 41194
L64297 41194
" />
<path d="M64678 41312
L64652 41325
L64599 41325
L64573 41312
L64560 41286
L64560 41181
L64573 41154
L64599 41141
L64652 41141
L64678 41154
L64691 41181
L64691 41207
L64560 41233
" />
<path d="M64796 41312
L64822 41325
L64875 41325
L64901 41312
L64914 41286
L64914 41272
L64901 41246
L64875 41233
L64835 41233
L64809 41220
L64796 41194
L64796 41181
L64809 41154
L64835 41141
L64875 41141
L64901 41154
" />
<path d="M65137 41312
L65111 41325
L65059 41325
L65032 41312
L65019 41286
L65019 41181
L65032 41154
L65059 41141
L65111 41141
L65137 41154
L65150 41181
L65150 41207
L65019 41233
" />
<path d="M65229 41141
L65334 41141
" />
<path d="M65269 41049
L65269 41286
L65282 41312
L65308 41325
L65334 41325
" />
<path d="M63707 45374
L63615 45243
" />
<path d="M63549 45374
L63549 45099
L63654 45099
L63681 45112
L63694 45125
L63707 45151
L63707 45190
L63694 45217
L63681 45230
L63654 45243
L63549 45243
" />
<path d="M63825 45374
L63825 45099
L63930 45099
L63956 45112
L63969 45125
L63982 45151
L63982 45190
L63969 45217
L63956 45230
L63930 45243
L63825 45243
" />
<path d="M64101 45374
L64101 45190
" />
<path d="M64101 45099
L64087 45112
L64101 45125
L64114 45112
L64101 45099
L64101 45125
" />
<path d="M64442 45374
L64442 45099
L64507 45099
L64547 45112
L64573 45138
L64586 45164
L64599 45217
L64599 45256
L64586 45309
L64573 45335
L64547 45361
L64507 45374
L64442 45374
" />
<path d="M64822 45361
L64796 45374
L64744 45374
L64717 45361
L64704 45335
L64704 45230
L64717 45204
L64744 45190
L64796 45190
L64822 45204
L64835 45230
L64835 45256
L64704 45282
" />
<path d="M64954 45374
L64954 45099
" />
<path d="M64954 45204
L64980 45190
L65032 45190
L65059 45204
L65072 45217
L65085 45243
L65085 45322
L65072 45348
L65059 45361
L65032 45374
L64980 45374
L64954 45361
" />
<path d="M65321 45190
L65321 45374
" />
<path d="M65203 45190
L65203 45335
L65216 45361
L65242 45374
L65282 45374
L65308 45361
L65321 45348
" />
<path d="M65570 45190
L65570 45414
L65557 45440
L65544 45453
L65518 45466
L65479 45466
L65452 45453
" />
<path d="M65570 45361
L65544 45374
L65492 45374
L65465 45361
L65452 45348
L65439 45322
L65439 45243
L65452 45217
L65465 45204
L65492 45190
L65544 45190
L65570 45204
" />
<path d="M65820 45190
L65820 45414
L65807 45440
L65793 45453
L65767 45466
L65728 45466
L65702 45453
" />
<path d="M65820 45361
L65793 45374
L65741 45374
L65715 45361
L65702 45348
L65688 45322
L65688 45243
L65702 45217
L65715 45204
L65741 45190
L65793 45190
L65820 45204
" />
<path d="M66056 45361
L66030 45374
L65977 45374
L65951 45361
L65938 45335
L65938 45230
L65951 45204
L65977 45190
L66030 45190
L66056 45204
L66069 45230
L66069 45256
L65938 45282
" />
<path d="M66187 45374
L66187 45190
" />
<path d="M66187 45243
L66200 45217
L66213 45204
L66240 45190
L66266 45190
" />
<path d="M66568 45269
L66778 45269
" />
<path d="M67276 45374
L67185 45243
" />
<path d="M67119 45374
L67119 45099
L67224 45099
L67250 45112
L67263 45125
L67276 45151
L67276 45190
L67263 45217
L67250 45230
L67224 45243
L67119 45243
" />
<path d="M67499 45361
L67473 45374
L67421 45374
L67395 45361
L67381 45335
L67381 45230
L67395 45204
L67421 45190
L67473 45190
L67499 45204
L67513 45230
L67513 45256
L67381 45282
" />
<path d="M67604 45190
L67670 45374
L67736 45190
" />
<path d="M68038 45125
L68051 45112
L68077 45099
L68143 45099
L68169 45112
L68182 45125
L68195 45151
L68195 45177
L68182 45217
L68024 45374
L68195 45374
" />
<path d="M68313 45348
L68326 45361
L68313 45374
L68300 45361
L68313 45348
L68313 45374
" />
<path d="M68589 45374
L68431 45374
" />
<path d="M68510 45374
L68510 45099
L68484 45138
L68458 45164
L68431 45177
" />
<path d="M63549 45819
L63549 45543
" />
<path d="M63799 45819
L63799 45675
L63786 45648
L63759 45635
L63707 45635
L63681 45648
" />
<path d="M63799 45806
L63772 45819
L63707 45819
L63681 45806
L63667 45780
L63667 45753
L63681 45727
L63707 45714
L63772 45714
L63799 45701
" />
<path d="M63930 45635
L63930 45819
" />
<path d="M63930 45662
L63943 45648
L63969 45635
L64009 45635
L64035 45648
L64048 45675
L64048 45819
" />
<path d="M64389 45819
L64389 45543
" />
<path d="M64389 45675
L64547 45675
" />
<path d="M64547 45819
L64547 45543
" />
<path d="M64796 45819
L64796 45675
L64783 45648
L64757 45635
L64704 45635
L64678 45648
" />
<path d="M64796 45806
L64770 45819
L64704 45819
L64678 45806
L64665 45780
L64665 45753
L64678 45727
L64704 45714
L64770 45714
L64796 45701
" />
<path d="M64927 45819
L64927 45635
" />
<path d="M64927 45688
L64940 45662
L64954 45648
L64980 45635
L65006 45635
" />
<path d="M65059 45635
L65164 45635
" />
<path d="M65098 45543
L65098 45780
L65111 45806
L65137 45819
L65164 45819
" />
<path d="M65229 45635
L65282 45819
L65334 45688
L65387 45819
L65439 45635
" />
<path d="M65544 45819
L65544 45635
" />
<path d="M65544 45543
L65531 45557
L65544 45570
L65557 45557
L65544 45543
L65544 45570
" />
<path d="M65793 45635
L65793 45858
L65780 45885
L65767 45898
L65741 45911
L65702 45911
L65675 45898
" />
<path d="M65793 45806
L65767 45819
L65715 45819
L65688 45806
L65675 45793
L65662 45767
L65662 45688
L65675 45662
L65688 45648
L65715 45635
L65767 45635
L65793 45648
" />
<path d="M66135 45714
L66345 45714
" />
<path d="M66843 45793
L66830 45806
L66791 45819
L66765 45819
L66725 45806
L66699 45780
L66686 45753
L66673 45701
L66673 45662
L66686 45609
L66699 45583
L66725 45557
L66765 45543
L66791 45543
L66830 45557
L66843 45570
" />
<path d="M67080 45819
L67080 45675
L67066 45648
L67040 45635
L66988 45635
L66961 45648
" />
<path d="M67080 45806
L67053 45819
L66988 45819
L66961 45806
L66948 45780
L66948 45753
L66961 45727
L66988 45714
L67053 45714
L67080 45701
" />
<path d="M67211 45819
L67211 45635
" />
<path d="M67211 45688
L67224 45662
L67237 45648
L67263 45635
L67290 45635
" />
<path d="M67381 45635
L67381 45819
" />
<path d="M67381 45662
L67395 45648
L67421 45635
L67460 45635
L67486 45648
L67499 45675
L67499 45819
" />
<path d="M67736 45806
L67709 45819
L67657 45819
L67631 45806
L67618 45780
L67618 45675
L67631 45648
L67657 45635
L67709 45635
L67736 45648
L67749 45675
L67749 45701
L67618 45727
" />
<path d="M67985 45635
L67985 45858
L67972 45885
L67959 45898
L67933 45911
L67893 45911
L67867 45898
" />
<path d="M67985 45806
L67959 45819
L67906 45819
L67880 45806
L67867 45793
L67854 45767
L67854 45688
L67867 45662
L67880 45648
L67906 45635
L67959 45635
L67985 45648
" />
<path d="M68116 45819
L68116 45635
" />
<path d="M68116 45543
L68103 45557
L68116 45570
L68129 45557
L68116 45543
L68116 45570
" />
<path d="M68353 45806
L68326 45819
L68274 45819
L68248 45806
L68234 45780
L68234 45675
L68248 45648
L68274 45635
L68326 45635
L68353 45648
L68366 45675
L68366 45701
L68234 45727
" />
<path d="M68694 45819
L68694 45543
L68786 45740
L68877 45543
L68877 45819
" />
<path d="M69114 45806
L69087 45819
L69035 45819
L69009 45806
L68996 45780
L68996 45675
L69009 45648
L69035 45635
L69087 45635
L69114 45648
L69127 45675
L69127 45701
L68996 45727
" />
<path d="M69284 45819
L69258 45806
L69245 45780
L69245 45543
" />
<path d="M69429 45819
L69402 45806
L69389 45780
L69389 45543
" />
<path d="M69573 45819
L69547 45806
L69534 45793
L69520 45767
L69520 45688
L69534 45662
L69547 45648
L69573 45635
L69612 45635
L69639 45648
L69652 45662
L69665 45688
L69665 45767
L69652 45793
L69639 45806
L69612 45819
L69573 45819
" />
<path d="M69783 45635
L69783 45819
" />
<path d="M69783 45662
L69796 45648
L69822 45635
L69862 45635
L69888 45648
L69901 45675
L69901 45819
" />
<path d="M47506 41817
L47664 41817
" />
<path d="M47585 42093
L47585 41817
" />
<path d="M47729 41817
L47913 42093
" />
<path d="M47913 41817
L47729 42093
" />
<path d="M47664 40439
L47572 40308
" />
<path d="M47506 40439
L47506 40164
L47611 40164
L47637 40177
L47650 40190
L47664 40216
L47664 40255
L47650 40282
L47637 40295
L47611 40308
L47506 40308
" />
<path d="M47755 40164
L47939 40439
" />
<path d="M47939 40164
L47755 40439
" />
<path d="M47506 39376
L47506 39101
L47611 39101
L47637 39114
L47650 39127
L47664 39153
L47664 39192
L47650 39219
L47637 39232
L47611 39245
L47506 39245
" />
<path d="M47755 39101
L47821 39376
L47874 39179
L47926 39376
L47992 39101
" />
<path d="M48254 39376
L48162 39245
" />
<path d="M48097 39376
L48097 39101
L48202 39101
L48228 39114
L48241 39127
L48254 39153
L48254 39192
L48241 39219
L48228 39232
L48202 39245
L48097 39245
" />
<path d="M63549 40099
L63549 39823
L63654 39823
L63681 39836
L63694 39849
L63707 39875
L63707 39915
L63694 39941
L63681 39954
L63654 39967
L63549 39967
" />
<path d="M63825 40099
L63825 39915
" />
<path d="M63825 39823
L63812 39836
L63825 39849
L63838 39836
L63825 39823
L63825 39849
" />
<path d="M64311 40099
L64153 40099
" />
<path d="M64232 40099
L64232 39823
L64206 39862
L64179 39889
L64153 39902
" />
<path d="M64429 40072
L64442 40085
L64429 40099
L64416 40085
L64429 40072
L64429 40099
" />
<path d="M64429 39928
L64442 39941
L64429 39954
L64416 39941
L64429 39928
L64429 39954
" />
<path d="M64770 40099
L64770 39823
L64875 39823
L64901 39836
L64914 39849
L64927 39875
L64927 39915
L64914 39941
L64901 39954
L64875 39967
L64770 39967
" />
<path d="M65085 40099
L65059 40085
L65045 40072
L65032 40046
L65032 39967
L65045 39941
L65059 39928
L65085 39915
L65124 39915
L65150 39928
L65164 39941
L65177 39967
L65177 40046
L65164 40072
L65150 40085
L65124 40099
L65085 40099
" />
<path d="M65295 39915
L65295 40190
" />
<path d="M65295 39928
L65321 39915
L65374 39915
L65400 39928
L65413 39941
L65426 39967
L65426 40046
L65413 40072
L65400 40085
L65374 40099
L65321 40099
L65295 40085
" />
<path d="M65662 39915
L65662 40099
" />
<path d="M65544 39915
L65544 40059
L65557 40085
L65583 40099
L65623 40099
L65649 40085
L65662 40072
" />
<path d="M65833 40099
L65807 40085
L65793 40059
L65793 39823
" />
<path d="M66056 40099
L66056 39954
L66043 39928
L66017 39915
L65964 39915
L65938 39928
" />
<path d="M66056 40085
L66030 40099
L65964 40099
L65938 40085
L65925 40059
L65925 40033
L65938 40007
L65964 39994
L66030 39994
L66056 39980
" />
<path d="M66148 39915
L66253 39915
" />
<path d="M66187 39823
L66187 40059
L66200 40085
L66227 40099
L66253 40099
" />
<path d="M66450 40085
L66423 40099
L66371 40099
L66345 40085
L66332 40059
L66332 39954
L66345 39928
L66371 39915
L66423 39915
L66450 39928
L66463 39954
L66463 39980
L66332 40007
" />
<path d="M66948 40099
L66856 39967
" />
<path d="M66791 40099
L66791 39823
L66896 39823
L66922 39836
L66935 39849
L66948 39875
L66948 39915
L66935 39941
L66922 39954
L66896 39967
L66791 39967
" />
<path d="M67198 39823
L67066 39823
L67053 39954
L67066 39941
L67093 39928
L67158 39928
L67185 39941
L67198 39954
L67211 39980
L67211 40046
L67198 40072
L67185 40085
L67158 40099
L67093 40099
L67066 40085
L67053 40072
" />
<path d="M67329 40072
L67342 40085
L67329 40099
L67316 40085
L67329 40072
L67329 40099
" />
<path d="M63707 40543
L63615 40412
" />
<path d="M63549 40543
L63549 40268
L63654 40268
L63681 40281
L63694 40294
L63707 40320
L63707 40360
L63694 40386
L63681 40399
L63654 40412
L63549 40412
" />
<path d="M63930 40530
L63904 40543
L63851 40543
L63825 40530
L63812 40504
L63812 40399
L63825 40373
L63851 40360
L63904 40360
L63930 40373
L63943 40399
L63943 40425
L63812 40452
" />
<path d="M64061 40543
L64061 40360
" />
<path d="M64061 40386
L64074 40373
L64101 40360
L64140 40360
L64166 40373
L64179 40399
L64179 40543
" />
<path d="M64179 40399
L64192 40373
L64219 40360
L64258 40360
L64284 40373
L64297 40399
L64297 40543
" />
<path d="M64468 40543
L64442 40530
L64429 40517
L64416 40491
L64416 40412
L64429 40386
L64442 40373
L64468 40360
L64507 40360
L64534 40373
L64547 40386
L64560 40412
L64560 40491
L64547 40517
L64534 40530
L64507 40543
L64468 40543
" />
<path d="M64652 40360
L64717 40543
L64783 40360
" />
<path d="M64993 40530
L64967 40543
L64914 40543
L64888 40530
L64875 40504
L64875 40399
L64888 40373
L64914 40360
L64967 40360
L64993 40373
L65006 40399
L65006 40425
L64875 40452
" />
<path d="M65295 40360
L65400 40360
" />
<path d="M65334 40268
L65334 40504
L65347 40530
L65374 40543
L65400 40543
" />
<path d="M65492 40543
L65492 40268
" />
<path d="M65610 40543
L65610 40399
L65597 40373
L65570 40360
L65531 40360
L65505 40373
L65492 40386
" />
<path d="M65741 40543
L65741 40360
" />
<path d="M65741 40268
L65728 40281
L65741 40294
L65754 40281
L65741 40268
L65741 40294
" />
<path d="M65859 40530
L65885 40543
L65938 40543
L65964 40530
L65977 40504
L65977 40491
L65964 40465
L65938 40452
L65898 40452
L65872 40438
L65859 40412
L65859 40399
L65872 40373
L65898 40360
L65938 40360
L65964 40373
" />
<path d="M66292 40530
L66318 40543
L66371 40543
L66397 40530
L66410 40504
L66410 40491
L66397 40465
L66371 40452
L66332 40452
L66305 40438
L66292 40412
L66292 40399
L66305 40373
L66332 40360
L66371 40360
L66397 40373
" />
<path d="M66528 40543
L66528 40360
" />
<path d="M66528 40268
L66515 40281
L66528 40294
L66541 40281
L66528 40268
L66528 40294
" />
<path d="M66778 40543
L66778 40268
" />
<path d="M66778 40530
L66751 40543
L66699 40543
L66673 40530
L66660 40517
L66646 40491
L66646 40412
L66660 40386
L66673 40373
L66699 40360
L66751 40360
L66778 40373
" />
<path d="M67014 40530
L66988 40543
L66935 40543
L66909 40530
L66896 40504
L66896 40399
L66909 40373
L66935 40360
L66988 40360
L67014 40373
L67027 40399
L67027 40425
L66896 40452
" />
<path d="M67145 40517
L67158 40530
L67145 40543
L67132 40530
L67145 40517
L67145 40543
" />
<path d="M63039 38811
L63039 46311
" />
</g>
<g style="fill:#C2C200; fill-opacity:0.0; 
stroke:#C2C200; stroke-width:59.0551; stroke-opacity:1; 
stroke-linecap:round; stroke-linejoin:round;">
</g>
<g style="fill:#C2C200; fill-opacity:0.0; 
stroke:#C2C200; stroke-width:3.93701; stroke-opacity:1; 
stroke-linecap:round; stroke-linejoin:round;">
<path d="M72834.6 36614.2 A1181.1 1181.1 0.0 0 0 71653.5 35433.1 " />
<path d="M71653.5 47244.1 A1181.1 1181.1 0.0 0 0 72834.6 46063 " />
<path d="M48425.2 35433.1 A1181.1 1181.1 0.0 0 0 47244.1 36614.2 " />
<path d="M47244.1 46063 A1181.1 1181.1 0.0 0 0 48425.2 47244.1 " />
<path d="M71653 47244
L48425 47244
" />
<path d="M72834 36614
L72834 46062
" />
<path d="M48425 35433
L71653 35433
" />
<path d="M47244 46062
L47244 36614
" />
</g>
<g style="fill:#C2C200; fill-opacity:0.0; 
stroke:#C2C200; stroke-width:59.0551; stroke-opacity:1; 
stroke-linecap:round; stroke-linejoin:round;">
<path d="M54013 44311
L53855 44469
L53846 44497
L53846 44515
L53855 44543
L53892 44580
L53920 44590
L53939 44590
L53966 44580
L54124 44423
" />
<path d="M54198 44497
L54319 44617
L54180 44627
L54208 44655
L54217 44682
L54217 44701
L54208 44729
L54161 44775
L54133 44785
L54115 44785
L54087 44775
L54031 44720
L54022 44692
L54022 44673
" />
<path d="M59514 44455
L59514 44678
L59527 44704
L59540 44717
L59566 44730
L59619 44730
L59645 44717
L59658 44704
L59671 44678
L59671 44455
" />
<path d="M59934 44455
L59803 44455
L59790 44586
L59803 44573
L59829 44560
L59895 44560
L59921 44573
L59934 44586
L59947 44612
L59947 44678
L59934 44704
L59921 44717
L59895 44730
L59829 44730
L59803 44717
L59790 44704
" />
<path d="M50144 44258
L50144 44481
L50157 44507
L50170 44520
L50196 44534
L50249 44534
L50275 44520
L50288 44507
L50301 44481
L50301 44258
" />
<path d="M50577 44534
L50419 44534
" />
<path d="M50498 44534
L50498 44258
L50472 44297
L50446 44324
L50419 44337
" />
<path d="M59114 45229
L59114 45321
" />
<path d="M59258 45321
L58982 45321
L58982 45190
" />
<path d="M59114 44993
L59127 44954
L59140 44940
L59166 44927
L59206 44927
L59232 44940
L59245 44954
L59258 44980
L59258 45085
L58982 45085
L58982 44993
L58996 44967
L59009 44954
L59035 44940
L59061 44940
L59087 44954
L59101 44967
L59114 44993
L59114 45085
" />
<path d="M59009 44822
L58996 44809
L58982 44783
L58982 44717
L58996 44691
L59009 44678
L59035 44665
L59061 44665
L59101 44678
L59258 44835
L59258 44665
" />
<path d="M55334 45229
L55334 45321
" />
<path d="M55479 45321
L55203 45321
L55203 45190
" />
<path d="M55334 44993
L55347 44954
L55360 44940
L55387 44927
L55426 44927
L55452 44940
L55465 44954
L55479 44980
L55479 45085
L55203 45085
L55203 44993
L55216 44967
L55229 44954
L55255 44940
L55282 44940
L55308 44954
L55321 44967
L55334 44993
L55334 45085
" />
<path d="M55479 44665
L55479 44822
" />
<path d="M55479 44744
L55203 44744
L55242 44770
L55269 44796
L55282 44822
" />
<path d="M64002 41804
L64041 41817
L64107 41817
L64133 41804
L64146 41791
L64160 41765
L64160 41738
L64146 41712
L64133 41699
L64107 41686
L64055 41673
L64028 41660
L64015 41646
L64002 41620
L64002 41594
L64015 41568
L64028 41555
L64055 41541
L64120 41541
L64160 41555
" />
<path d="M64251 41541
L64317 41817
L64370 41620
L64422 41817
L64488 41541
" />
<path d="M64737 41817
L64580 41817
" />
<path d="M64658 41817
L64658 41541
L64632 41581
L64606 41607
L64580 41620
" />
<path d="M69822 44809
L69730 44678
" />
<path d="M69665 44809
L69665 44534
L69770 44534
L69796 44547
L69809 44560
L69822 44586
L69822 44625
L69809 44652
L69796 44665
L69770 44678
L69665 44678
" />
<path d="M70085 44809
L69927 44809
" />
<path d="M70006 44809
L70006 44534
L69980 44573
L69954 44599
L69927 44612
" />
<path d="M70216 44809
L70269 44809
L70295 44796
L70308 44783
L70334 44744
L70347 44691
L70347 44586
L70334 44560
L70321 44547
L70295 44534
L70242 44534
L70216 44547
L70203 44560
L70190 44586
L70190 44652
L70203 44678
L70216 44691
L70242 44704
L70295 44704
L70321 44691
L70334 44678
L70347 44652
" />
<path d="M57355 38707
L57355 38431
L57421 38431
L57460 38444
L57486 38471
L57500 38497
L57513 38549
L57513 38589
L57500 38641
L57486 38667
L57460 38694
L57421 38707
L57355 38707
" />
<path d="M57762 38431
L57631 38431
L57618 38562
L57631 38549
L57657 38536
L57723 38536
L57749 38549
L57762 38562
L57775 38589
L57775 38654
L57762 38681
L57749 38694
L57723 38707
L57657 38707
L57631 38694
L57618 38681
" />
<path d="M57355 39219
L57355 38943
L57421 38943
L57460 38956
L57486 38982
L57500 39009
L57513 39061
L57513 39101
L57500 39153
L57486 39179
L57460 39206
L57421 39219
L57355 39219
" />
<path d="M57749 39035
L57749 39219
" />
<path d="M57683 38930
L57618 39127
L57788 39127
" />
<path d="M64232 38799
L64219 38812
L64179 38825
L64153 38825
L64114 38812
L64087 38786
L64074 38759
L64061 38707
L64061 38667
L64074 38615
L64087 38589
L64114 38562
L64153 38549
L64179 38549
L64219 38562
L64232 38576
" />
<path d="M64337 38576
L64350 38562
L64376 38549
L64442 38549
L64468 38562
L64481 38576
L64494 38602
L64494 38628
L64481 38667
L64324 38825
L64494 38825
" />
<path d="M64599 38576
L64612 38562
L64639 38549
L64704 38549
L64730 38562
L64744 38576
L64757 38602
L64757 38628
L64744 38667
L64586 38825
L64757 38825
" />
<path d="M69901 40085
L69809 39954
" />
<path d="M69744 40085
L69744 39809
L69849 39809
L69875 39822
L69888 39835
L69901 39862
L69901 39901
L69888 39927
L69875 39940
L69849 39954
L69744 39954
" />
<path d="M70164 40085
L70006 40085
" />
<path d="M70085 40085
L70085 39809
L70059 39849
L70032 39875
L70006 39888
" />
<path d="M70321 39927
L70295 39914
L70282 39901
L70269 39875
L70269 39862
L70282 39835
L70295 39822
L70321 39809
L70374 39809
L70400 39822
L70413 39835
L70426 39862
L70426 39875
L70413 39901
L70400 39914
L70374 39927
L70321 39927
L70295 39940
L70282 39954
L70269 39980
L70269 40032
L70282 40059
L70295 40072
L70321 40085
L70374 40085
L70400 40072
L70413 40059
L70426 40032
L70426 39980
L70413 39954
L70400 39940
L70374 39927
" />
<path d="M70688 40085
L70597 39954
" />
<path d="M70531 40085
L70531 39809
L70636 39809
L70662 39822
L70675 39835
L70688 39862
L70688 39901
L70675 39927
L70662 39940
L70636 39954
L70531 39954
" />
<path d="M70951 40085
L70793 40085
" />
<path d="M70872 40085
L70872 39809
L70846 39849
L70820 39875
L70793 39888
" />
<path d="M71043 39809
L71227 39809
L71108 40085
" />
<path d="M69114 40085
L69022 39954
" />
<path d="M68956 40085
L68956 39809
L69061 39809
L69087 39822
L69101 39835
L69114 39862
L69114 39901
L69101 39927
L69087 39940
L69061 39954
L68956 39954
" />
<path d="M69376 40085
L69219 40085
" />
<path d="M69297 40085
L69297 39809
L69271 39849
L69245 39875
L69219 39888
" />
<path d="M69612 39809
L69560 39809
L69534 39822
L69520 39835
L69494 39875
L69481 39927
L69481 40032
L69494 40059
L69507 40072
L69534 40085
L69586 40085
L69612 40072
L69625 40059
L69639 40032
L69639 39967
L69625 39940
L69612 39927
L69586 39914
L69534 39914
L69507 39927
L69494 39940
L69481 39967
" />
<path d="M71835 40675
L71835 40400
L71940 40400
L71967 40413
L71980 40426
L71993 40452
L71993 40492
L71980 40518
L71967 40531
L71940 40544
L71835 40544
" />
<path d="M72242 40400
L72111 40400
L72098 40531
L72111 40518
L72137 40505
L72203 40505
L72229 40518
L72242 40531
L72255 40557
L72255 40623
L72242 40649
L72229 40662
L72203 40675
L72137 40675
L72111 40662
L72098 40649
" />
<path d="M58254 39770
L58254 39993
L58267 40019
L58280 40032
L58307 40045
L58359 40045
L58385 40032
L58398 40019
L58412 39993
L58412 39770
" />
<path d="M58661 39862
L58661 40045
" />
<path d="M58595 39757
L58530 39954
L58700 39954
" />
<path d="M58562 42145
L58576 42158
L58589 42198
L58589 42224
L58576 42263
L58549 42290
L58523 42303
L58471 42316
L58431 42316
L58379 42303
L58353 42290
L58326 42263
L58313 42224
L58313 42198
L58326 42158
L58339 42145
" />
<path d="M58339 42040
L58326 42027
L58313 42001
L58313 41935
L58326 41909
L58339 41896
L58366 41883
L58392 41883
L58431 41896
L58589 42053
L58589 41883
" />
<path d="M58589 41620
L58589 41778
" />
<path d="M58589 41699
L58313 41699
L58353 41725
L58379 41751
L58392 41778
" />
<path d="M59429 42145
L59442 42158
L59455 42198
L59455 42224
L59442 42263
L59416 42290
L59389 42303
L59337 42316
L59297 42316
L59245 42303
L59219 42290
L59192 42263
L59179 42224
L59179 42198
L59192 42158
L59206 42145
" />
<path d="M59206 42040
L59192 42027
L59179 42001
L59179 41935
L59192 41909
L59206 41896
L59232 41883
L59258 41883
L59297 41896
L59455 42053
L59455 41883
" />
<path d="M59179 41712
L59179 41686
L59192 41660
L59206 41646
L59232 41633
L59284 41620
L59350 41620
L59402 41633
L59429 41646
L59442 41660
L59455 41686
L59455 41712
L59442 41738
L59429 41751
L59402 41765
L59350 41778
L59284 41778
L59232 41765
L59206 41751
L59192 41738
L59179 41712
" />
<path d="M49350 38274
L49258 38143
" />
<path d="M49192 38274
L49192 37998
L49297 37998
L49324 38011
L49337 38024
L49350 38051
L49350 38090
L49337 38116
L49324 38129
L49297 38143
L49192 38143
" />
<path d="M49612 38274
L49455 38274
" />
<path d="M49534 38274
L49534 37998
L49507 38038
L49481 38064
L49455 38077
" />
<path d="M49862 37998
L49730 37998
L49717 38129
L49730 38116
L49757 38103
L49822 38103
L49849 38116
L49862 38129
L49875 38156
L49875 38221
L49862 38248
L49849 38261
L49822 38274
L49757 38274
L49730 38261
L49717 38248
" />
<path d="M48576 38274
L48576 37998
L48641 37998
L48681 38011
L48707 38038
L48720 38064
L48733 38116
L48733 38156
L48720 38208
L48707 38234
L48681 38261
L48641 38274
L48576 38274
" />
<path d="M48825 37998
L48996 37998
L48904 38103
L48943 38103
L48969 38116
L48982 38129
L48996 38156
L48996 38221
L48982 38248
L48969 38261
L48943 38274
L48864 38274
L48838 38261
L48825 38248
" />
<path d="M62093 42145
L61961 42237
" />
<path d="M62093 42303
L61817 42303
L61817 42198
L61830 42171
L61843 42158
L61870 42145
L61909 42145
L61935 42158
L61948 42171
L61961 42198
L61961 42303
" />
<path d="M62093 41883
L62093 42040
" />
<path d="M62093 41961
L61817 41961
L61856 41988
L61883 42014
L61896 42040
" />
<path d="M61909 41646
L62093 41646
" />
<path d="M61804 41712
L62001 41778
L62001 41607
" />
<path d="M62093 41299
L61961 41391
" />
<path d="M62093 41456
L61817 41456
L61817 41351
L61830 41325
L61843 41312
L61870 41299
L61909 41299
L61935 41312
L61948 41325
L61961 41351
L61961 41456
" />
<path d="M62093 41036
L62093 41194
" />
<path d="M62093 41115
L61817 41115
L61856 41141
L61883 41167
L61896 41194
" />
<path d="M61817 40944
L61817 40774
L61922 40866
L61922 40826
L61935 40800
L61948 40787
L61975 40774
L62040 40774
L62066 40787
L62080 40800
L62093 40826
L62093 40905
L62080 40931
L62066 40944
" />
<path d="M60206 40072
L60179 40059
L60153 40032
L60114 39993
L60087 39980
L60061 39980
" />
<path d="M60074 40045
L60048 40032
L60022 40006
L60009 39954
L60009 39862
L60022 39809
L60048 39783
L60074 39770
L60127 39770
L60153 39783
L60179 39809
L60192 39862
L60192 39954
L60179 40006
L60153 40032
L60127 40045
L60074 40045
" />
<path d="M60297 39796
L60311 39783
L60337 39770
L60402 39770
L60429 39783
L60442 39796
L60455 39822
L60455 39849
L60442 39888
L60284 40045
L60455 40045
" />
<path d="M60761 42867
L60734 42854
L60708 42828
L60669 42788
L60643 42775
L60616 42775
" />
<path d="M60629 42841
L60603 42828
L60577 42801
L60564 42749
L60564 42657
L60577 42604
L60603 42578
L60629 42565
L60682 42565
L60708 42578
L60734 42604
L60748 42657
L60748 42749
L60734 42801
L60708 42828
L60682 42841
L60629 42841
" />
<path d="M61010 42841
L60853 42841
" />
<path d="M60931 42841
L60931 42565
L60905 42604
L60879 42631
L60853 42644
" />
<path d="M53608 45308
L53608 45439
" />
<path d="M53517 45164
L53608 45308
L53700 45164
" />
<path d="M53937 45439
L53779 45439
" />
<path d="M53858 45439
L53858 45164
L53832 45203
L53805 45229
L53779 45242
" />
<path d="M68392 41581
L68392 41804
L68405 41830
L68418 41843
L68444 41856
L68497 41856
L68523 41843
L68536 41830
L68549 41804
L68549 41581
" />
<path d="M68667 41607
L68681 41594
L68707 41581
L68772 41581
L68799 41594
L68812 41607
L68825 41633
L68825 41660
L68812 41699
L68654 41856
L68825 41856
" />
<path d="M57880 44389
L57749 44481
" />
<path d="M57880 44547
L57604 44547
L57604 44442
L57618 44416
L57631 44402
L57657 44389
L57696 44389
L57723 44402
L57736 44416
L57749 44442
L57749 44547
" />
<path d="M57880 44127
L57880 44284
" />
<path d="M57880 44206
L57604 44206
L57644 44232
L57670 44258
L57683 44284
" />
<path d="M57880 43864
L57880 44022
" />
<path d="M57880 43943
L57604 43943
L57644 43969
L57670 43996
L57683 44022
" />
<path d="M49350 38982
L49258 38851
" />
<path d="M49192 38982
L49192 38707
L49297 38707
L49324 38720
L49337 38733
L49350 38759
L49350 38799
L49337 38825
L49324 38838
L49297 38851
L49192 38851
" />
<path d="M49612 38982
L49455 38982
" />
<path d="M49534 38982
L49534 38707
L49507 38746
L49481 38772
L49455 38786
" />
<path d="M49783 38707
L49809 38707
L49835 38720
L49849 38733
L49862 38759
L49875 38812
L49875 38877
L49862 38930
L49849 38956
L49835 38969
L49809 38982
L49783 38982
L49757 38969
L49744 38956
L49730 38930
L49717 38877
L49717 38812
L49730 38759
L49744 38733
L49757 38720
L49783 38707
" />
<path d="M49481 38628
L49389 38497
" />
<path d="M49324 38628
L49324 38353
L49429 38353
L49455 38366
L49468 38379
L49481 38405
L49481 38444
L49468 38471
L49455 38484
L49429 38497
L49324 38497
" />
<path d="M49612 38628
L49665 38628
L49691 38615
L49704 38602
L49730 38562
L49744 38510
L49744 38405
L49730 38379
L49717 38366
L49691 38353
L49639 38353
L49612 38366
L49599 38379
L49586 38405
L49586 38471
L49599 38497
L49612 38510
L49639 38523
L49691 38523
L49717 38510
L49730 38497
L49744 38471
" />
<path d="M70918 41856
L70826 41725
" />
<path d="M70761 41856
L70761 41581
L70866 41581
L70892 41594
L70905 41607
L70918 41633
L70918 41673
L70905 41699
L70892 41712
L70866 41725
L70761 41725
" />
<path d="M71076 41699
L71049 41686
L71036 41673
L71023 41646
L71023 41633
L71036 41607
L71049 41594
L71076 41581
L71128 41581
L71154 41594
L71167 41607
L71181 41633
L71181 41646
L71167 41673
L71154 41686
L71128 41699
L71076 41699
L71049 41712
L71036 41725
L71023 41751
L71023 41804
L71036 41830
L71049 41843
L71076 41856
L71128 41856
L71154 41843
L71167 41830
L71181 41804
L71181 41751
L71167 41725
L71154 41712
L71128 41699
" />
<path d="M69934 41856
L69842 41725
" />
<path d="M69776 41856
L69776 41581
L69881 41581
L69908 41594
L69921 41607
L69934 41633
L69934 41673
L69921 41699
L69908 41712
L69881 41725
L69776 41725
" />
<path d="M70026 41581
L70209 41581
L70091 41856
" />
<path d="M70898 43353
L70807 43221
" />
<path d="M70741 43353
L70741 43077
L70846 43077
L70872 43090
L70885 43103
L70898 43129
L70898 43169
L70885 43195
L70872 43208
L70846 43221
L70741 43221
" />
<path d="M71135 43077
L71082 43077
L71056 43090
L71043 43103
L71017 43143
L71003 43195
L71003 43300
L71017 43326
L71030 43339
L71056 43353
L71108 43353
L71135 43339
L71148 43326
L71161 43300
L71161 43234
L71148 43208
L71135 43195
L71108 43182
L71056 43182
L71030 43195
L71017 43208
L71003 43234
" />
<path d="M62552 40045
L62460 39914
" />
<path d="M62395 40045
L62395 39770
L62500 39770
L62526 39783
L62539 39796
L62552 39822
L62552 39862
L62539 39888
L62526 39901
L62500 39914
L62395 39914
" />
<path d="M62801 39770
L62670 39770
L62657 39901
L62670 39888
L62696 39875
L62762 39875
L62788 39888
L62801 39901
L62814 39927
L62814 39993
L62801 40019
L62788 40032
L62762 40045
L62696 40045
L62670 40032
L62657 40019
" />
<path d="M68950 44809
L68858 44678
" />
<path d="M68792 44809
L68792 44534
L68897 44534
L68923 44547
L68937 44560
L68950 44586
L68950 44625
L68937 44652
L68923 44665
L68897 44678
L68792 44678
" />
<path d="M69186 44625
L69186 44809
" />
<path d="M69120 44520
L69055 44717
L69225 44717
" />
<path d="M68162 44809
L68070 44678
" />
<path d="M68005 44809
L68005 44534
L68110 44534
L68136 44547
L68149 44560
L68162 44586
L68162 44625
L68149 44652
L68136 44665
L68110 44678
L68005 44678
" />
<path d="M68254 44534
L68425 44534
L68333 44639
L68372 44639
L68398 44652
L68412 44665
L68425 44691
L68425 44757
L68412 44783
L68398 44796
L68372 44809
L68293 44809
L68267 44796
L68254 44783
" />
<path d="M49481 39337
L49389 39206
" />
<path d="M49324 39337
L49324 39061
L49429 39061
L49455 39074
L49468 39087
L49481 39114
L49481 39153
L49468 39179
L49455 39192
L49429 39206
L49324 39206
" />
<path d="M49586 39087
L49599 39074
L49625 39061
L49691 39061
L49717 39074
L49730 39087
L49744 39114
L49744 39140
L49730 39179
L49573 39337
L49744 39337
" />
<path d="M48733 39337
L48641 39206
" />
<path d="M48576 39337
L48576 39061
L48681 39061
L48707 39074
L48720 39087
L48733 39114
L48733 39153
L48720 39179
L48707 39192
L48681 39206
L48576 39206
" />
<path d="M48996 39337
L48838 39337
" />
<path d="M48917 39337
L48917 39061
L48891 39101
L48864 39127
L48838 39140
" />
<path d="M48576 38982
L48576 38707
L48641 38707
L48681 38720
L48707 38746
L48720 38772
L48733 38825
L48733 38864
L48720 38917
L48707 38943
L48681 38969
L48641 38982
L48576 38982
" />
<path d="M48838 38733
L48851 38720
L48877 38707
L48943 38707
L48969 38720
L48982 38733
L48996 38759
L48996 38786
L48982 38825
L48825 38982
L48996 38982
" />
<path d="M48576 38628
L48576 38353
L48641 38353
L48681 38366
L48707 38392
L48720 38418
L48733 38471
L48733 38510
L48720 38562
L48707 38589
L48681 38615
L48641 38628
L48576 38628
" />
<path d="M48996 38628
L48838 38628
" />
<path d="M48917 38628
L48917 38353
L48891 38392
L48864 38418
L48838 38431
" />
<path d="M54547 45413
L54534 45426
L54494 45439
L54468 45439
L54429 45426
L54402 45400
L54389 45374
L54376 45321
L54376 45282
L54389 45229
L54402 45203
L54429 45177
L54468 45164
L54494 45164
L54534 45177
L54547 45190
" />
<path d="M54809 45439
L54652 45439
" />
<path d="M54730 45439
L54730 45164
L54704 45203
L54678 45229
L54652 45242
" />
<path d="M54940 45439
L54993 45439
L55019 45426
L55032 45413
L55059 45374
L55072 45321
L55072 45216
L55059 45190
L55045 45177
L55019 45164
L54967 45164
L54940 45177
L54927 45190
L54914 45216
L54914 45282
L54927 45308
L54940 45321
L54967 45334
L55019 45334
L55045 45321
L55059 45308
L55072 45282
" />
<path d="M55452 46003
L55465 46017
L55479 46056
L55479 46082
L55465 46122
L55439 46148
L55413 46161
L55360 46174
L55321 46174
L55269 46161
L55242 46148
L55216 46122
L55203 46082
L55203 46056
L55216 46017
L55229 46003
" />
<path d="M55479 45741
L55479 45898
" />
<path d="M55479 45820
L55203 45820
L55242 45846
L55269 45872
L55282 45898
" />
<path d="M55321 45583
L55308 45610
L55295 45623
L55269 45636
L55255 45636
L55229 45623
L55216 45610
L55203 45583
L55203 45531
L55216 45505
L55229 45492
L55255 45479
L55269 45479
L55295 45492
L55308 45505
L55321 45531
L55321 45583
L55334 45610
L55347 45623
L55374 45636
L55426 45636
L55452 45623
L55465 45610
L55479 45583
L55479 45531
L55465 45505
L55452 45492
L55426 45479
L55374 45479
L55347 45492
L55334 45505
L55321 45531
" />
<path d="M51003 46515
L51017 46528
L51030 46568
L51030 46594
L51017 46633
L50990 46660
L50964 46673
L50912 46686
L50872 46686
L50820 46673
L50793 46660
L50767 46633
L50754 46594
L50754 46568
L50767 46528
L50780 46515
" />
<path d="M51030 46253
L51030 46410
" />
<path d="M51030 46332
L50754 46332
L50793 46358
L50820 46384
L50833 46410
" />
<path d="M50754 46161
L50754 45977
L51030 46095
" />
<path d="M50019 40925
L50032 40938
L50045 40977
L50045 41003
L50032 41043
L50006 41069
L49980 41082
L49927 41095
L49888 41095
L49835 41082
L49809 41069
L49783 41043
L49770 41003
L49770 40977
L49783 40938
L49796 40925
" />
<path d="M50045 40662
L50045 40820
" />
<path d="M50045 40741
L49770 40741
L49809 40767
L49835 40793
L49849 40820
" />
<path d="M49770 40426
L49770 40479
L49783 40505
L49796 40518
L49835 40544
L49888 40557
L49993 40557
L50019 40544
L50032 40531
L50045 40505
L50045 40452
L50032 40426
L50019 40413
L49993 40400
L49927 40400
L49901 40413
L49888 40426
L49875 40452
L49875 40505
L49888 40531
L49901 40544
L49927 40557
" />
<path d="M59232 46003
L59245 46017
L59258 46056
L59258 46082
L59245 46122
L59219 46148
L59192 46161
L59140 46174
L59101 46174
L59048 46161
L59022 46148
L58996 46122
L58982 46082
L58982 46056
L58996 46017
L59009 46003
" />
<path d="M59258 45741
L59258 45898
" />
<path d="M59258 45820
L58982 45820
L59022 45846
L59048 45872
L59061 45898
" />
<path d="M58982 45649
L58982 45479
L59087 45570
L59087 45531
L59101 45505
L59114 45492
L59140 45479
L59206 45479
L59232 45492
L59245 45505
L59258 45531
L59258 45610
L59245 45636
L59232 45649
" />
<path d="M50019 42303
L50032 42316
L50045 42355
L50045 42381
L50032 42421
L50006 42447
L49980 42460
L49927 42473
L49888 42473
L49835 42460
L49809 42447
L49783 42421
L49770 42381
L49770 42355
L49783 42316
L49796 42303
" />
<path d="M50045 42040
L50045 42198
" />
<path d="M50045 42119
L49770 42119
L49809 42145
L49835 42171
L49849 42198
" />
<path d="M49796 41935
L49783 41922
L49770 41896
L49770 41830
L49783 41804
L49796 41791
L49822 41778
L49849 41778
L49888 41791
L50045 41948
L50045 41778
" />
<path d="M51213 44507
L51200 44520
L51161 44534
L51135 44534
L51095 44520
L51069 44494
L51056 44468
L51043 44416
L51043 44376
L51056 44324
L51069 44297
L51095 44271
L51135 44258
L51161 44258
L51200 44271
L51213 44284
" />
<path d="M51345 44534
L51397 44534
L51423 44520
L51437 44507
L51463 44468
L51476 44416
L51476 44311
L51463 44284
L51450 44271
L51423 44258
L51371 44258
L51345 44271
L51332 44284
L51318 44311
L51318 44376
L51332 44402
L51345 44416
L51371 44429
L51423 44429
L51450 44416
L51463 44402
L51476 44376
" />
<path d="M50643 39311
L50629 39324
L50590 39337
L50564 39337
L50524 39324
L50498 39297
L50485 39271
L50472 39219
L50472 39179
L50485 39127
L50498 39101
L50524 39074
L50564 39061
L50590 39061
L50629 39074
L50643 39087
" />
<path d="M50734 39061
L50918 39061
L50800 39337
" />
<path d="M51003 45282
L51017 45295
L51030 45334
L51030 45360
L51017 45400
L50990 45426
L50964 45439
L50912 45452
L50872 45452
L50820 45439
L50793 45426
L50767 45400
L50754 45360
L50754 45334
L50767 45295
L50780 45282
" />
<path d="M50754 45045
L50754 45098
L50767 45124
L50780 45137
L50820 45164
L50872 45177
L50977 45177
L51003 45164
L51017 45150
L51030 45124
L51030 45072
L51017 45045
L51003 45032
L50977 45019
L50912 45019
L50885 45032
L50872 45045
L50859 45072
L50859 45124
L50872 45150
L50885 45164
L50912 45177
" />
<path d="M55859 39192
L55846 39206
L55807 39219
L55780 39219
L55741 39206
L55715 39179
L55702 39153
L55688 39101
L55688 39061
L55702 39009
L55715 38982
L55741 38956
L55780 38943
L55807 38943
L55846 38956
L55859 38969
" />
<path d="M56095 39035
L56095 39219
" />
<path d="M56030 38930
L55964 39127
L56135 39127
" />
<path d="M51056 38799
L51043 38812
L51003 38825
L50977 38825
L50938 38812
L50912 38786
L50898 38759
L50885 38707
L50885 38667
L50898 38615
L50912 38589
L50938 38562
L50977 38549
L51003 38549
L51043 38562
L51056 38576
" />
<path d="M51148 38549
L51318 38549
L51227 38654
L51266 38654
L51292 38667
L51305 38681
L51318 38707
L51318 38772
L51305 38799
L51292 38812
L51266 38825
L51187 38825
L51161 38812
L51148 38799
" />
<path d="M57513 39783
L57500 39796
L57460 39809
L57434 39809
L57395 39796
L57368 39770
L57355 39744
L57342 39691
L57342 39652
L57355 39599
L57368 39573
L57395 39547
L57434 39534
L57460 39534
L57500 39547
L57513 39560
" />
<path d="M57618 39560
L57631 39547
L57657 39534
L57723 39534
L57749 39547
L57762 39560
L57775 39586
L57775 39612
L57762 39652
L57604 39809
L57775 39809
" />
<path d="M56909 41935
L56922 41948
L56935 41988
L56935 42014
L56922 42053
L56896 42080
L56870 42093
L56817 42106
L56778 42106
L56725 42093
L56699 42080
L56673 42053
L56660 42014
L56660 41988
L56673 41948
L56686 41935
" />
<path d="M56935 41673
L56935 41830
" />
<path d="M56935 41751
L56660 41751
L56699 41778
L56725 41804
L56738 41830
" />
<path d="M57880 43523
L57749 43615
" />
<path d="M57880 43681
L57604 43681
L57604 43576
L57618 43549
L57631 43536
L57657 43523
L57696 43523
L57723 43536
L57736 43549
L57749 43576
L57749 43681
" />
<path d="M57880 43261
L57880 43418
" />
<path d="M57880 43339
L57604 43339
L57644 43366
L57670 43392
L57683 43418
" />
<path d="M57631 43156
L57618 43143
L57604 43116
L57604 43051
L57618 43024
L57631 43011
L57657 42998
L57683 42998
L57723 43011
L57880 43169
L57880 42998
" />
<path d="M68215 39809
L68215 40032
L68228 40059
L68241 40072
L68267 40085
L68320 40085
L68346 40072
L68359 40059
L68372 40032
L68372 39809
" />
<path d="M68622 39809
L68569 39809
L68543 39822
L68530 39835
L68503 39875
L68490 39927
L68490 40032
L68503 40059
L68517 40072
L68543 40085
L68595 40085
L68622 40072
L68635 40059
L68648 40032
L68648 39967
L68635 39940
L68622 39927
L68595 39914
L68543 39914
L68517 39927
L68503 39940
L68490 39967
" />
<path d="M60733 44991
L60733 44598
L60883 44598
L60920 44616
L60939 44635
L60958 44673
L60958 44729
L60939 44766
L60920 44785
L60883 44804
L60733 44804
" />
<path d="M61089 44598
L61332 44598
L61201 44748
L61257 44748
L61295 44766
L61314 44785
L61332 44823
L61332 44916
L61314 44954
L61295 44973
L61257 44991
L61145 44991
L61107 44973
L61089 44954
" />
<path d="M68368 43372
L68387 43391
L68406 43447
L68406 43485
L68387 43541
L68350 43578
L68312 43597
L68237 43616
L68181 43616
L68106 43597
L68068 43578
L68031 43541
L68012 43485
L68012 43447
L68031 43391
L68050 43372
" />
<path d="M68012 43016
L68012 43203
L68200 43222
L68181 43203
L68162 43166
L68162 43072
L68181 43035
L68200 43016
L68237 42997
L68331 42997
L68368 43016
L68387 43035
L68406 43072
L68406 43166
L68387 43203
L68368 43222
" />
<path d="M67286 43372
L67305 43391
L67323 43447
L67323 43485
L67305 43541
L67267 43578
L67230 43597
L67155 43616
L67098 43616
L67023 43597
L66986 43578
L66948 43541
L66930 43485
L66930 43447
L66948 43391
L66967 43372
" />
<path d="M67098 43147
L67080 43185
L67061 43203
L67023 43222
L67005 43222
L66967 43203
L66948 43185
L66930 43147
L66930 43072
L66948 43035
L66967 43016
L67005 42997
L67023 42997
L67061 43016
L67080 43035
L67098 43072
L67098 43147
L67117 43185
L67136 43203
L67173 43222
L67248 43222
L67286 43203
L67305 43185
L67323 43147
L67323 43072
L67305 43035
L67286 43016
L67248 42997
L67173 42997
L67136 43016
L67117 43035
L67098 43072
" />
<path d="M59510 46119
L59529 46137
L59548 46194
L59548 46231
L59529 46287
L59491 46325
L59454 46344
L59379 46362
L59323 46362
L59248 46344
L59210 46325
L59173 46287
L59154 46231
L59154 46194
L59173 46137
L59191 46119
" />
<path d="M59548 45744
L59548 45969
" />
<path d="M59548 45856
L59154 45856
L59210 45894
L59248 45931
L59266 45969
" />
<path d="M59548 45369
L59548 45594
" />
<path d="M59548 45481
L59154 45481
L59210 45519
L59248 45556
L59266 45594
" />
<path d="M52719 46119
L52738 46137
L52756 46194
L52756 46231
L52738 46287
L52700 46325
L52663 46344
L52588 46362
L52531 46362
L52456 46344
L52419 46325
L52381 46287
L52363 46231
L52363 46194
L52381 46137
L52400 46119
" />
<path d="M52756 45744
L52756 45969
" />
<path d="M52756 45856
L52363 45856
L52419 45894
L52456 45931
L52475 45969
" />
<path d="M52494 45406
L52756 45406
" />
<path d="M52344 45500
L52625 45594
L52625 45350
" />
<path d="M57739 46119
L57757 46137
L57776 46194
L57776 46231
L57757 46287
L57720 46325
L57682 46344
L57607 46362
L57551 46362
L57476 46344
L57439 46325
L57401 46287
L57382 46231
L57382 46194
L57401 46137
L57420 46119
" />
<path d="M57776 45744
L57776 45969
" />
<path d="M57776 45856
L57382 45856
L57439 45894
L57476 45931
L57495 45969
" />
<path d="M57382 45388
L57382 45575
L57570 45594
L57551 45575
L57532 45538
L57532 45444
L57551 45406
L57570 45388
L57607 45369
L57701 45369
L57739 45388
L57757 45406
L57776 45444
L57776 45538
L57757 45575
L57739 45594
" />
<path d="M71748 45997
L71748 45603
L71898 45603
L71936 45622
L71955 45640
L71973 45678
L71973 45734
L71955 45772
L71936 45790
L71898 45809
L71748 45809
" />
<path d="M72348 45997
L72123 45997
" />
<path d="M72236 45997
L72236 45603
L72198 45659
L72161 45697
L72123 45715
" />
<path d="M48709 37601
L48315 37601
L48315 37451
L48334 37414
L48353 37395
L48390 37376
L48447 37376
L48484 37395
L48503 37414
L48522 37451
L48522 37601
" />
<path d="M48447 37039
L48709 37039
" />
<path d="M48297 37132
L48578 37226
L48578 36982
" />
</g>
<g style="fill:#008484; fill-opacity:0.0; 
stroke:#008484; stroke-width:59.0551; stroke-opacity:1; 
stroke-linecap:round; stroke-linejoin:round;">
<path d="M53740 44416
L54032 44124
" />
<path d="M50858 41535
L51151 41243
" />
<path d="M53740 38654
L53447 38946
" />
<path d="M56621 41535
L56329 41827
" />
<path d="M53740 44416
L53447 44124
" />
<path d="M56621 41535
L56329 41243
" />
<path d="M53740 38654
L54032 38946
" />
<path d="M50858 41535
L51151 41827
" />
<path d="M54032 44124
L54387 44479
" />
<path d="M60531 43602
L60531 43110
" />
<path d="M60531 43110
L60334 43110
" />
<path d="M50029 44242
L50029 44163
" />
<path d="M48198 44242
L48198 44163
" />
<path d="M48198 42962
L48198 43041
" />
<path d="M50029 42962
L50029 43041
" />
<path d="M50029 44242
L48198 44242
" />
<path d="M50029 42962
L48198 42962
" />
<path d="M50029 44163
L50561 44163
" />
<path d="M57332 45511
L57332 45039
" />
<path d="M58021 45039
L58021 45511
" />
<path d="M55561 45511
L55561 45039
" />
<path d="M56250 45039
L56250 45511
" />
<path d="M63188 42027
L63267 42027
" />
<path d="M65551 42027
L65472 42027
" />
<path d="M65551 44389
L65472 44389
" />
<path d="M63188 44389
L63267 44389
" />
<path d="M63897 44389
L64842 44389
" />
<path d="M63897 42027
L64842 42027
" />
<path d="M63188 42027
L63188 44389
" />
<path d="M65551 44389
L65551 42027
" />
<circle cx="64370.1" cy="43208.7" r="669.291" /> 
<path d="M69783 43828
L70177 43828
" />
<path d="M70177 44360
L69783 44360
" />
<path d="M56889 38346
L56279 38346
" />
<path d="M56889 38818
L56279 38818
" />
<path d="M56889 38858
L56279 38858
" />
<path d="M56889 39330
L56279 39330
" />
<path d="M65393 38937
L65393 39212
" />
<path d="M64921 39212
L64921 38937
" />
<path d="M69812 39271
L69812 38877
" />
<path d="M70344 38877
L70344 39271
" />
<path d="M70600 39271
L70600 38877
" />
<path d="M71131 38877
L71131 39271
" />
<path d="M69025 39271
L69025 38877
" />
<path d="M69557 38877
L69557 39271
" />
<path d="M72539 39311
L72539 40311
" />
<path d="M72649 38200
L72649 38811
" />
<path d="M72539 39311
L71539 39311
" />
<path d="M71429 38811
L71429 38200
" />
<path d="M71429 38200
L72649 38200
" />
<path d="M71539 39311
L71539 40311
" />
<path d="M71539 40311
L72539 40311
" />
<circle cx="58582.7" cy="41515.7" r="39.3701" /> 
<path d="M58366 41417
L58562 41417
" />
<path d="M58366 40275
L58366 41417
" />
<path d="M58562 40275
L58366 40275
" />
<path d="M58562 41417
L58562 40275
" />
<path d="M58307 42086
L58307 42362
" />
<path d="M57834 42362
L57834 42086
" />
<path d="M59094 42086
L59094 42362
" />
<path d="M58622 42362
L58622 42086
" />
<path d="M49409 39931
L49015 39931
" />
<path d="M49015 39399
L49409 39399
" />
<path d="M48464 39448
L47716 39448
" />
<path d="M48464 39881
L47716 39881
" />
<path d="M48110 39665
L47933 39665
" />
<path d="M48129 39763
L48129 39566
" />
<path d="M48129 39665
L48031 39763
" />
<path d="M48031 39763
L48031 39566
" />
<path d="M48031 39566
L48129 39665
" />
<path d="M61151 42421
L61151 42027
" />
<path d="M61683 42027
L61683 42421
" />
<path d="M61683 40649
L61683 41043
" />
<path d="M61151 41043
L61151 40649
" />
<circle cx="60078.7" cy="40177.2" r="39.3701" /> 
<path d="M60334 40275
L60137 40275
" />
<path d="M60334 41417
L60334 40275
" />
<path d="M60137 41417
L60334 41417
" />
<path d="M60137 40275
L60137 41417
" />
<path d="M59724 42480
L59743 42480
" />
<path d="M60826 42204
L60826 42480
" />
<path d="M60826 42480
L60728 42480
" />
<path d="M59724 42480
L59645 42480
" />
<path d="M59645 42480
L59645 42204
" />
<path d="M69059 43043
L69299 43043
" />
<path d="M69299 43043
L69303 42873
" />
<path d="M58661 44458
L58267 44458
" />
<path d="M58267 43927
L58661 43927
" />
<path d="M49409 41801
L49015 41801
" />
<path d="M49015 41269
L49409 41269
" />
<path d="M49409 41013
L49015 41013
" />
<path d="M49015 40482
L49409 40482
" />
<path d="M70698 42716
L70698 42322
" />
<path d="M71230 42322
L71230 42716
" />
<path d="M69557 43208
L69557 42421
" />
<path d="M70403 42421
L70403 43208
" />
<path d="M70698 44094
L70698 43700
" />
<path d="M71230 43700
L71230 44094
" />
<path d="M62332 39370
L62332 38976
" />
<path d="M62864 38976
L62864 39370
" />
<path d="M68730 44094
L68730 43700
" />
<path d="M69261 43700
L69261 44094
" />
<path d="M68474 43700
L68474 44094
" />
<path d="M67942 44094
L67942 43700
" />
<path d="M49409 42687
L49015 42687
" />
<path d="M49015 42155
L49409 42155
" />
<path d="M48228 42687
L47834 42687
" />
<path d="M47834 42155
L48228 42155
" />
<path d="M48464 41318
L47716 41318
" />
<path d="M48464 41751
L47716 41751
" />
<path d="M48110 41535
L47933 41535
" />
<path d="M48129 41633
L48129 41437
" />
<path d="M48129 41535
L48031 41633
" />
<path d="M48031 41633
L48031 41437
" />
<path d="M48031 41437
L48129 41535
" />
<path d="M48464 40531
L47716 40531
" />
<path d="M48464 40964
L47716 40964
" />
<path d="M48110 40748
L47933 40748
" />
<path d="M48129 40846
L48129 40649
" />
<path d="M48129 40748
L48031 40846
" />
<path d="M48031 40846
L48031 40649
" />
<path d="M48031 40649
L48129 40748
" />
<path d="M55157 46122
L55157 46397
" />
<path d="M54685 46397
L54685 46122
" />
<path d="M56141 46318
L56141 46594
" />
<path d="M55669 46594
L55669 46318
" />
<path d="M52322 46397
L52322 46122
" />
<path d="M52795 46122
L52795 46397
" />
<path d="M50157 40885
L50157 40610
" />
<path d="M50629 40610
L50629 40885
" />
<path d="M57913 46318
L57913 46594
" />
<path d="M57440 46594
L57440 46318
" />
<path d="M50157 42263
L50157 41988
" />
<path d="M50629 41988
L50629 42263
" />
<path d="M51515 43562
L51515 43838
" />
<path d="M51043 43838
L51043 43562
" />
<path d="M50551 39429
L50826 39429
" />
<path d="M50826 39901
L50551 39901
" />
<path d="M52795 44940
L52795 45216
" />
<path d="M52322 45216
L52322 44940
" />
<path d="M55334 38346
L55610 38346
" />
<path d="M55610 38818
L55334 38818
" />
<path d="M52066 38937
L51791 38937
" />
<path d="M51791 38464
L52066 38464
" />
<path d="M56594 39448
L56870 39448
" />
<path d="M56870 39921
L56594 39921
" />
<path d="M57047 42362
L57047 42086
" />
<path d="M57519 42086
L57519 42362
" />
<path d="M58661 43671
L58267 43671
" />
<path d="M58267 43139
L58661 43139
" />
<path d="M66309 38435
L66309 38513
" />
<path d="M68139 38435
L68139 38513
" />
<path d="M68139 39714
L68139 39635
" />
<path d="M66309 39714
L66309 39635
" />
<path d="M66309 38435
L68139 38435
" />
<path d="M66309 39714
L68139 39714
" />
<path d="M66309 38513
L65777 38513
" />
<path d="M59310 47675
L62735 47675
" />
<path d="M59310 45153
L62735 45153
" />
<path d="M62735 45153
L62735 47675
" />
<path d="M62735 47190
L59310 47190
" />
<path d="M59310 47675
L59310 45153
" />
<path d="M67726 43700
L67726 42913
" />
<path d="M66919 42913
L66919 43700
" />
<path d="M66643 43700
L66643 42913
" />
<path d="M65836 42913
L65836 43700
" />
<path d="M58868 46259
L58868 45472
" />
<path d="M58061 45472
L58061 46259
" />
<path d="M52076 46259
L52076 45472
" />
<path d="M51269 45472
L51269 46259
" />
<path d="M57096 46259
L57096 45472
" />
<path d="M56289 45472
L56289 46259
" />
<path d="M71539 43311
L71539 42311
" />
<path d="M71429 44421
L71429 43811
" />
<path d="M71539 43311
L72539 43311
" />
<path d="M72649 43811
L72649 44421
" />
<path d="M72649 44421
L71429 44421
" />
<path d="M72539 43311
L72539 42311
" />
<path d="M72539 42311
L71539 42311
" />
<path d="M70039 35811
L70039 37811
" />
<path d="M49929 37311
L49929 38311
" />
<path d="M50039 35811
L50039 38311
" />
<path d="M63039 35811
L63039 37811
" />
</g>
<g style="fill:#840000; fill-opacity:0.0; 
stroke:#840000; stroke-width:59.0551; stroke-opacity:1; 
stroke-linecap:round; stroke-linejoin:round;">
</g>
<g style="fill:#840000; fill-opacity:1.0; 
stroke:#840000; stroke-width:0; stroke-opacity:1; 
stroke-linecap:round; stroke-linejoin:round;">
<circle cx="48622" cy="45866.1" r="1181.1" /> 
</g>
<g style="fill:#840000; fill-opacity:1.0; 
stroke:#840000; stroke-width:39.3701; stroke-opacity:1; 
stroke-linecap:round; stroke-linejoin:round;">
</g>
<g style="fill:#840000; fill-opacity:1.0; 
stroke:#840000; stroke-width:0; stroke-opacity:1; 
stroke-linecap:round; stroke-linejoin:round;">
<polyline style="fill-rule:evenodd;"
points="71639,39211
71639,38411
72439,38411
72439,39211
71639,39211
" /> 
</g>
<g style="fill:#840000; fill-opacity:1.0; 
stroke:#840000; stroke-width:800; stroke-opacity:1; 
stroke-linecap:round; stroke-linejoin:round;">
</g>
<g style="fill:#840000; fill-opacity:0.0; 
stroke:#840000; stroke-width:800; stroke-opacity:1; 
stroke-linecap:round; stroke-linejoin:round;">
<path d="M72039 39811
L72039 39811
" />
</g>
<g style="fill:#840000; fill-opacity:1.0; 
stroke:#840000; stroke-width:0; stroke-opacity:1; 
stroke-linecap:round; stroke-linejoin:round;">
<circle cx="48622" cy="36811" r="1181.1" /> 
</g>
<g style="fill:#840000; fill-opacity:1.0; 
stroke:#840000; stroke-width:39.3701; stroke-opacity:1; 
stroke-linecap:round; stroke-linejoin:round;">
</g>
<g style="fill:#840000; fill-opacity:1.0; 
stroke:#840000; stroke-width:0; stroke-opacity:1; 
stroke-linecap:round; stroke-linejoin:round;">
<circle cx="71456.7" cy="36811" r="1181.1" /> 
</g>
<g style="fill:#840000; fill-opacity:1.0; 
stroke:#840000; stroke-width:39.3701; stroke-opacity:1; 
stroke-linecap:round; stroke-linejoin:round;">
</g>
<g style="fill:#840000; fill-opacity:1.0; 
stroke:#840000; stroke-width:0; stroke-opacity:1; 
stroke-linecap:round; stroke-linejoin:round;">
<circle cx="71456.7" cy="45866.1" r="1181.1" /> 
</g>
<g style="fill:#840000; fill-opacity:1.0; 
stroke:#840000; stroke-width:39.3701; stroke-opacity:1; 
stroke-linecap:round; stroke-linejoin:round;">
</g>
<g style="fill:#840000; fill-opacity:1.0; 
stroke:#840000; stroke-width:0; stroke-opacity:1; 
stroke-linecap:round; stroke-linejoin:round;">
<circle cx="61840.6" cy="45660.3" r="137.795" /> 
</g>
<g style="fill:#840000; fill-opacity:1.0; 
stroke:#840000; stroke-width:39.3701; stroke-opacity:1; 
stroke-linecap:round; stroke-linejoin:round;">
</g>
<g style="fill:#840000; fill-opacity:1.0; 
stroke:#840000; stroke-width:0; stroke-opacity:1; 
stroke-linecap:round; stroke-linejoin:round;">
<circle cx="60206.7" cy="45660.3" r="137.795" /> 
</g>
<g style="fill:#840000; fill-opacity:1.0; 
stroke:#840000; stroke-width:39.3701; stroke-opacity:1; 
stroke-linecap:round; stroke-linejoin:round;">
</g>
<g style="fill:#840000; fill-opacity:1.0; 
stroke:#840000; stroke-width:0; stroke-opacity:1; 
stroke-linecap:round; stroke-linejoin:round;">
<polyline style="fill-rule:evenodd;"
points="72439,43411
72439,44211
71639,44211
71639,43411
72439,43411
" /> 
</g>
<g style="fill:#840000; fill-opacity:1.0; 
stroke:#840000; stroke-width:800; stroke-opacity:1; 
stroke-linecap:round; stroke-linejoin:round;">
</g>
<g style="fill:#840000; fill-opacity:0.0; 
stroke:#840000; stroke-width:800; stroke-opacity:1; 
stroke-linecap:round; stroke-linejoin:round;">
<path d="M72039 42811
L72039 42811
" />
</g> 
</svg>
