G04 #@! TF.FileFunction,Paste,Top*
%FSLAX46Y46*%
G04 Gerber Fmt 4.6, Leading zero omitted, Abs format (unit mm)*
G04 Created by KiCad (PCBNEW 4.0.2-stable) date Tuesday, August 23, 2016 'PMt' 07:55:18 PM*
%MOMM*%
G01*
G04 APERTURE LIST*
%ADD10C,0.100000*%
%ADD11R,1.120000X2.440000*%
%ADD12R,1.700000X0.900000*%
%ADD13R,0.295000X1.000000*%
%ADD14R,1.000000X0.295000*%
%ADD15R,0.500000X0.900000*%
%ADD16R,2.800000X2.000000*%
%ADD17R,2.800000X2.200000*%
%ADD18R,2.800000X2.800000*%
%ADD19R,2.750000X1.000000*%
%ADD20R,3.599180X1.600200*%
%ADD21R,0.750000X0.800000*%
%ADD22R,0.800000X0.750000*%
%ADD23R,0.797560X0.797560*%
%ADD24R,0.700000X0.600000*%
%ADD25R,0.600000X0.700000*%
%ADD26R,0.800100X0.800100*%
%ADD27R,0.900000X0.500000*%
%ADD28R,1.000000X2.750000*%
%ADD29R,0.650000X1.060000*%
%ADD30R,0.300000X1.400000*%
%ADD31R,1.000000X1.250000*%
%ADD32R,1.250000X1.000000*%
%ADD33R,0.700000X0.250000*%
%ADD34R,0.250000X0.700000*%
%ADD35R,0.538800X0.996000*%
%ADD36R,0.576600X0.538800*%
%ADD37R,0.538800X0.348000*%
%ADD38R,0.203200X0.538800*%
%ADD39R,1.700000X0.700000*%
%ADD40R,1.746000X1.288800*%
%ADD41R,1.288800X0.203200*%
%ADD42R,1.288800X2.203200*%
%ADD43R,0.601600X1.288800*%
%ADD44R,3.000000X1.144400*%
%ADD45R,0.900000X1.700000*%
%ADD46R,4.240000X3.810000*%
%ADD47R,2.500000X1.000000*%
%ADD48R,1.500000X1.500000*%
%ADD49R,1.400000X0.295000*%
%ADD50R,2.300000X2.650000*%
%ADD51R,0.445000X1.000000*%
G04 APERTURE END LIST*
D10*
D11*
X112865000Y43370000D03*
X110325000Y43370000D03*
X107785000Y43370000D03*
X105245000Y43370000D03*
X105245000Y34750000D03*
X107785000Y34750000D03*
X110325000Y34750000D03*
X112865000Y34750000D03*
D12*
X51000000Y32200000D03*
X51000000Y29300000D03*
D13*
X10000000Y75150000D03*
X10500000Y75150000D03*
X11000000Y75150000D03*
X11500000Y75150000D03*
X12000000Y72350000D03*
D14*
X12400000Y74250000D03*
X12400000Y73750000D03*
X9600000Y73250000D03*
D13*
X12000000Y75150000D03*
D14*
X12400000Y73250000D03*
D13*
X11500000Y72350000D03*
X11000000Y72350000D03*
X10500000Y72350000D03*
X10000000Y72350000D03*
D14*
X9600000Y73750000D03*
X9600000Y74250000D03*
D15*
X20000000Y80500000D03*
X21500000Y80500000D03*
X20000000Y83000000D03*
X21500000Y83000000D03*
D16*
X118300000Y3500000D03*
X125700000Y1600000D03*
D17*
X118300000Y6300000D03*
X125700000Y4400000D03*
D18*
X125700000Y13800000D03*
X121250000Y17900000D03*
D19*
X136625000Y20000000D03*
X142375000Y20000000D03*
X142375000Y24000000D03*
X136625000Y24000000D03*
D11*
X92545000Y43370000D03*
X90005000Y43370000D03*
X87465000Y43370000D03*
X84925000Y43370000D03*
X84925000Y34750000D03*
X87465000Y34750000D03*
X90005000Y34750000D03*
X92545000Y34750000D03*
D20*
X65750820Y10500000D03*
X60249180Y10500000D03*
D21*
X121250000Y28750000D03*
X121250000Y27250000D03*
D22*
X33750000Y22750000D03*
X32250000Y22750000D03*
X32250000Y30000000D03*
X33750000Y30000000D03*
X34000000Y75500000D03*
X35500000Y75500000D03*
X16500000Y83000000D03*
X18000000Y83000000D03*
X16500000Y69500000D03*
X18000000Y69500000D03*
X4750000Y69500000D03*
X3250000Y69500000D03*
X3250000Y67000000D03*
X4750000Y67000000D03*
D21*
X91500000Y17750000D03*
X91500000Y16250000D03*
X70000000Y21500000D03*
X70000000Y23000000D03*
X47500000Y26250000D03*
X47500000Y27750000D03*
X45000000Y26250000D03*
X45000000Y27750000D03*
X42500000Y26250000D03*
X42500000Y27750000D03*
X143000000Y51750000D03*
X143000000Y53250000D03*
X140500000Y51750000D03*
X140500000Y53250000D03*
X119000000Y28750000D03*
X119000000Y27250000D03*
D22*
X128750000Y19250000D03*
X127250000Y19250000D03*
X128750000Y21250000D03*
X127250000Y21250000D03*
X132000000Y3750000D03*
X133500000Y3750000D03*
X131250000Y26500000D03*
X132750000Y26500000D03*
X128500000Y6250000D03*
X130000000Y6250000D03*
X131250000Y24000000D03*
X132750000Y24000000D03*
X131250000Y29000000D03*
X132750000Y29000000D03*
D21*
X135250000Y11250000D03*
X135250000Y9750000D03*
X143750000Y17250000D03*
X143750000Y15750000D03*
X135250000Y15750000D03*
X135250000Y17250000D03*
X143750000Y9750000D03*
X143750000Y11250000D03*
D22*
X147250000Y8000000D03*
X148750000Y8000000D03*
D23*
X35000000Y62499300D03*
X35000000Y61000700D03*
X3250700Y54250000D03*
X4749300Y54250000D03*
X97250000Y15999300D03*
X97250000Y14500700D03*
X90549300Y64000000D03*
X89050700Y64000000D03*
X86249300Y64000000D03*
X84750700Y64000000D03*
X81999300Y64000000D03*
X80500700Y64000000D03*
X77749300Y64000000D03*
X76250700Y64000000D03*
X98999300Y64000000D03*
X97500700Y64000000D03*
X94749300Y64000000D03*
X93250700Y64000000D03*
X52249300Y64000000D03*
X50750700Y64000000D03*
X56499300Y64050000D03*
X55000700Y64050000D03*
X107750700Y27000000D03*
X109249300Y27000000D03*
D24*
X112865000Y30870000D03*
X112865000Y29470000D03*
X110325000Y30870000D03*
X110325000Y29470000D03*
X107785000Y30870000D03*
X107785000Y29470000D03*
D23*
X60749300Y64000000D03*
X59250700Y64000000D03*
X53250700Y27250000D03*
X54749300Y27250000D03*
X64999300Y64000000D03*
X63500700Y64000000D03*
X69249300Y64000000D03*
X67750700Y64000000D03*
D25*
X48665000Y4770000D03*
X50065000Y4770000D03*
X44855000Y4770000D03*
X46255000Y4770000D03*
X41045000Y4770000D03*
X42445000Y4770000D03*
X63905000Y4770000D03*
X65305000Y4770000D03*
X60095000Y4770000D03*
X61495000Y4770000D03*
X56285000Y4770000D03*
X57685000Y4770000D03*
X54700000Y29000000D03*
X53300000Y29000000D03*
X54700000Y30750000D03*
X53300000Y30750000D03*
X54700000Y32500000D03*
X53300000Y32500000D03*
D23*
X73499300Y64000000D03*
X72000700Y64000000D03*
X64500700Y32750000D03*
X65999300Y32750000D03*
X133499300Y1250000D03*
X132000700Y1250000D03*
X40749300Y68000000D03*
X39250700Y68000000D03*
D26*
X88800000Y56999240D03*
X90700000Y56999240D03*
X89750000Y58998220D03*
X84550000Y56999240D03*
X86450000Y56999240D03*
X85500000Y58998220D03*
X80300000Y56999240D03*
X82200000Y56999240D03*
X81250000Y58998220D03*
X76050000Y56999240D03*
X77950000Y56999240D03*
X77000000Y58998220D03*
X97300000Y56999240D03*
X99200000Y56999240D03*
X98250000Y58998220D03*
X93050000Y56999240D03*
X94950000Y56999240D03*
X94000000Y58998220D03*
X50550000Y56999240D03*
X52450000Y56999240D03*
X51500000Y58998220D03*
X54800000Y56999240D03*
X56700000Y56999240D03*
X55750000Y58998220D03*
X59050000Y56999240D03*
X60950000Y56999240D03*
X60000000Y58998220D03*
X63300000Y56999240D03*
X65200000Y56999240D03*
X64250000Y58998220D03*
X67550000Y56999240D03*
X69450000Y56999240D03*
X68500000Y58998220D03*
X71800000Y56999240D03*
X73700000Y56999240D03*
X72750000Y58998220D03*
X60249240Y32450000D03*
X60249240Y30550000D03*
X62248220Y31500000D03*
D27*
X35000000Y56250000D03*
X35000000Y57750000D03*
X32500000Y56250000D03*
X32500000Y57750000D03*
D15*
X45250000Y68000000D03*
X43750000Y68000000D03*
D27*
X32500000Y61000000D03*
X32500000Y62500000D03*
D15*
X133750000Y73250000D03*
X135250000Y73250000D03*
X137000000Y78250000D03*
X138500000Y78250000D03*
X133750000Y78250000D03*
X135250000Y78250000D03*
X4750000Y56750000D03*
X3250000Y56750000D03*
D27*
X99750000Y42500000D03*
X99750000Y44000000D03*
X97250000Y42500000D03*
X97250000Y44000000D03*
D15*
X89000000Y54750000D03*
X90500000Y54750000D03*
X84750000Y54750000D03*
X86250000Y54750000D03*
X89050000Y61500000D03*
X90550000Y61500000D03*
X84750000Y61500000D03*
X86250000Y61500000D03*
D27*
X99750000Y14500000D03*
X99750000Y16000000D03*
X97250000Y34000000D03*
X97250000Y35500000D03*
X99750000Y34000000D03*
X99750000Y35500000D03*
D15*
X80500000Y54750000D03*
X82000000Y54750000D03*
X76250000Y54750000D03*
X77750000Y54750000D03*
X80500000Y61500000D03*
X82000000Y61500000D03*
X76250000Y61500000D03*
X77750000Y61500000D03*
D12*
X92000000Y26550000D03*
X92000000Y29450000D03*
X70000000Y26550000D03*
X70000000Y29450000D03*
D15*
X97500000Y54750000D03*
X99000000Y54750000D03*
X93250000Y54750000D03*
X94750000Y54750000D03*
X97500000Y61500000D03*
X99000000Y61500000D03*
X93250000Y61500000D03*
X94750000Y61500000D03*
X50750000Y54750000D03*
X52250000Y54750000D03*
X55000000Y54750000D03*
X56500000Y54750000D03*
X50750000Y61500000D03*
X52250000Y61500000D03*
X55000000Y61500000D03*
X56500000Y61500000D03*
X111250000Y27000000D03*
X112750000Y27000000D03*
X59250000Y54750000D03*
X60750000Y54750000D03*
X59250000Y61500000D03*
X60750000Y61500000D03*
X54750000Y25500000D03*
X53250000Y25500000D03*
X63500000Y54750000D03*
X65000000Y54750000D03*
X67750000Y54750000D03*
X69250000Y54750000D03*
X63500000Y61500000D03*
X65000000Y61500000D03*
X67750000Y61500000D03*
X69250000Y61500000D03*
X72000000Y54750000D03*
X73500000Y54750000D03*
D27*
X58000000Y30750000D03*
X58000000Y32250000D03*
D15*
X72000000Y61500000D03*
X73500000Y61500000D03*
X66000000Y30500000D03*
X64500000Y30500000D03*
X128500000Y1250000D03*
X130000000Y1250000D03*
X130000000Y3750000D03*
X128500000Y3750000D03*
X133500000Y6250000D03*
X132000000Y6250000D03*
D11*
X46825000Y63690000D03*
X44285000Y63690000D03*
X41745000Y63690000D03*
X39205000Y63690000D03*
X39205000Y55070000D03*
X41745000Y55070000D03*
X44285000Y55070000D03*
X46825000Y55070000D03*
X105245000Y55070000D03*
X107785000Y55070000D03*
X110325000Y55070000D03*
X112865000Y55070000D03*
X112865000Y63690000D03*
X110325000Y63690000D03*
X107785000Y63690000D03*
X105245000Y63690000D03*
X16345000Y63690000D03*
X13805000Y63690000D03*
X11265000Y63690000D03*
X8725000Y63690000D03*
X8725000Y55070000D03*
X11265000Y55070000D03*
X13805000Y55070000D03*
X16345000Y55070000D03*
X79845000Y43370000D03*
X77305000Y43370000D03*
X74765000Y43370000D03*
X72225000Y43370000D03*
X72225000Y34750000D03*
X74765000Y34750000D03*
X77305000Y34750000D03*
X79845000Y34750000D03*
X46825000Y43370000D03*
X44285000Y43370000D03*
X41745000Y43370000D03*
X39205000Y43370000D03*
X39205000Y34750000D03*
X41745000Y34750000D03*
X44285000Y34750000D03*
X46825000Y34750000D03*
X59525000Y43370000D03*
X56985000Y43370000D03*
X54445000Y43370000D03*
X51905000Y43370000D03*
X51905000Y34750000D03*
X54445000Y34750000D03*
X56985000Y34750000D03*
X59525000Y34750000D03*
X128105000Y43370000D03*
X125565000Y43370000D03*
X123025000Y43370000D03*
X120485000Y43370000D03*
X120485000Y34750000D03*
X123025000Y34750000D03*
X125565000Y34750000D03*
X128105000Y34750000D03*
X140805000Y43370000D03*
X138265000Y43370000D03*
X135725000Y43370000D03*
X133185000Y43370000D03*
X133185000Y34750000D03*
X135725000Y34750000D03*
X138265000Y34750000D03*
X140805000Y34750000D03*
D28*
X133000000Y10625000D03*
X133000000Y16375000D03*
X129000000Y16375000D03*
X129000000Y10625000D03*
X137500000Y16375000D03*
X137500000Y10625000D03*
X141500000Y10625000D03*
X141500000Y16375000D03*
D19*
X142375000Y7000000D03*
X136625000Y7000000D03*
X136625000Y3000000D03*
X142375000Y3000000D03*
D28*
X146000000Y16375000D03*
X146000000Y10625000D03*
X150000000Y10625000D03*
X150000000Y16375000D03*
D29*
X32050000Y25400000D03*
X33000000Y25400000D03*
X33950000Y25400000D03*
X33950000Y27600000D03*
X32050000Y27600000D03*
D30*
X33750000Y78050000D03*
X34250000Y78050000D03*
X34750000Y78050000D03*
X35250000Y78050000D03*
X35750000Y78050000D03*
X35750000Y82450000D03*
X35250000Y82450000D03*
X34750000Y82450000D03*
X34250000Y82450000D03*
X33750000Y82450000D03*
D20*
X65750820Y19000000D03*
X60249180Y19000000D03*
X111250820Y11000000D03*
X105749180Y11000000D03*
X111250820Y19500000D03*
X105749180Y19500000D03*
D31*
X16250000Y80500000D03*
X18250000Y80500000D03*
X121250000Y24500000D03*
X119250000Y24500000D03*
D32*
X124500000Y21250000D03*
X124500000Y19250000D03*
X138500000Y27000000D03*
X138500000Y29000000D03*
X141500000Y27000000D03*
X141500000Y29000000D03*
X135500000Y27000000D03*
X135500000Y29000000D03*
D31*
X16250000Y67000000D03*
X18250000Y67000000D03*
X8250000Y80500000D03*
X10250000Y80500000D03*
X8250000Y67000000D03*
X10250000Y67000000D03*
D22*
X8500000Y78000000D03*
X10000000Y78000000D03*
X8500000Y69500000D03*
X10000000Y69500000D03*
X8500000Y83000000D03*
X10000000Y83000000D03*
X20000000Y69500000D03*
X21500000Y69500000D03*
D26*
X32550000Y67249240D03*
X34450000Y67249240D03*
X33500000Y69248220D03*
X32550000Y71249240D03*
X34450000Y71249240D03*
X33500000Y73248220D03*
D27*
X36750000Y67500000D03*
X36750000Y69000000D03*
X36750000Y71500000D03*
X36750000Y73000000D03*
D15*
X4750000Y77250000D03*
X3250000Y77250000D03*
X3250000Y64500000D03*
X4750000Y64500000D03*
X4750000Y62000000D03*
X3250000Y62000000D03*
X13500000Y80500000D03*
X12000000Y80500000D03*
X20000000Y78000000D03*
X21500000Y78000000D03*
X13500000Y83000000D03*
X12000000Y83000000D03*
X13500000Y78000000D03*
X12000000Y78000000D03*
X20000000Y64500000D03*
X21500000Y64500000D03*
X21500000Y67000000D03*
X20000000Y67000000D03*
X13500000Y69500000D03*
X12000000Y69500000D03*
X12000000Y67000000D03*
X13500000Y67000000D03*
D31*
X16250000Y78000000D03*
X18250000Y78000000D03*
D13*
X18000000Y75150000D03*
X18500000Y75150000D03*
X19000000Y75150000D03*
X19500000Y75150000D03*
X20000000Y72350000D03*
D14*
X20400000Y74250000D03*
X20400000Y73750000D03*
X17600000Y73250000D03*
D13*
X20000000Y75150000D03*
D14*
X20400000Y73250000D03*
D13*
X19500000Y72350000D03*
X19000000Y72350000D03*
X18500000Y72350000D03*
X18000000Y72350000D03*
D14*
X17600000Y73750000D03*
X17600000Y74250000D03*
D33*
X124100000Y28250000D03*
X124100000Y27750000D03*
X124100000Y27250000D03*
X124100000Y26750000D03*
X124100000Y26250000D03*
X124100000Y25750000D03*
X124100000Y25250000D03*
X124100000Y24750000D03*
D34*
X124750000Y24100000D03*
X125250000Y24100000D03*
X125750000Y24100000D03*
X126250000Y24100000D03*
X126750000Y24100000D03*
X127250000Y24100000D03*
X127750000Y24100000D03*
X128250000Y24100000D03*
D33*
X128900000Y24750000D03*
X128900000Y25250000D03*
X128900000Y25750000D03*
X128900000Y26250000D03*
X128900000Y26750000D03*
X128900000Y27250000D03*
X128900000Y27750000D03*
X128900000Y28250000D03*
D34*
X128250000Y28900000D03*
X127750000Y28900000D03*
X127250000Y28900000D03*
X126750000Y28900000D03*
X126250000Y28900000D03*
X125750000Y28900000D03*
X125250000Y28900000D03*
X124750000Y28900000D03*
D35*
X125875000Y27125000D03*
X125875000Y25875000D03*
X127125000Y27125000D03*
X127125000Y25875000D03*
D36*
X127936700Y27125000D03*
X127936700Y25875000D03*
X125063300Y25875000D03*
X125063300Y27125000D03*
D37*
X125875000Y24949000D03*
X127125000Y24949000D03*
X127125000Y28051000D03*
X125875000Y28051000D03*
D38*
X126500000Y25875000D03*
X126500000Y27125000D03*
D39*
X74140000Y27715000D03*
X74140000Y26445000D03*
X74140000Y25175000D03*
X74140000Y23905000D03*
X74140000Y22635000D03*
X74140000Y21365000D03*
X74140000Y20095000D03*
X74140000Y18825000D03*
X74140000Y17555000D03*
X74140000Y16285000D03*
X87840000Y16285000D03*
X87840000Y17555000D03*
X87840000Y18825000D03*
X87840000Y20095000D03*
X87840000Y21365000D03*
X87840000Y22635000D03*
X87840000Y23905000D03*
X87840000Y25175000D03*
X87840000Y26445000D03*
X87840000Y27715000D03*
D40*
X82990000Y26000000D03*
X82990000Y24000000D03*
X82990000Y22000000D03*
X82990000Y20000000D03*
X82990000Y18000000D03*
X80990000Y26000000D03*
X80990000Y24000000D03*
X80990000Y22000000D03*
X80990000Y20000000D03*
X80990000Y18000000D03*
X78990000Y26000000D03*
X78990000Y24000000D03*
X78990000Y22000000D03*
X78990000Y20000000D03*
X78990000Y18000000D03*
D41*
X82990000Y25000000D03*
X82990000Y23000000D03*
X82990000Y21000000D03*
X82990000Y19000000D03*
X80990000Y25000000D03*
X80990000Y23000000D03*
X80990000Y21000000D03*
X80990000Y19000000D03*
X78990000Y25000000D03*
X78990000Y23000000D03*
X78990000Y21000000D03*
X78990000Y19000000D03*
D42*
X80990000Y28000000D03*
X80990000Y16000000D03*
D43*
X79790800Y28000000D03*
X82189200Y28000000D03*
X82189200Y16000000D03*
X79790800Y16000000D03*
D44*
X80990000Y29927800D03*
X80990000Y14072200D03*
D45*
X35200000Y64750000D03*
X32300000Y64750000D03*
D46*
X59815000Y26500000D03*
X66185000Y26500000D03*
D12*
X115250000Y29950000D03*
X115250000Y27050000D03*
D45*
X121950000Y31500000D03*
X119050000Y31500000D03*
D47*
X116750000Y18750000D03*
X116750000Y15750000D03*
X116750000Y9250000D03*
X116750000Y12250000D03*
D48*
X143375000Y57750000D03*
X140125000Y57750000D03*
X140125000Y55250000D03*
X143375000Y55250000D03*
D21*
X140000000Y68750000D03*
X140000000Y67250000D03*
X143750000Y61250000D03*
X143750000Y59750000D03*
X143750000Y65000000D03*
X143750000Y63500000D03*
D45*
X103300000Y67500000D03*
X106200000Y67500000D03*
D12*
X20750000Y58700000D03*
X20750000Y55800000D03*
D45*
X99950000Y18500000D03*
X97050000Y18500000D03*
D27*
X141750000Y68750000D03*
X141750000Y67250000D03*
X143750000Y67250000D03*
X143750000Y68750000D03*
X142000000Y61250000D03*
X142000000Y59750000D03*
X140000000Y59750000D03*
X140000000Y61250000D03*
D29*
X141700000Y65350000D03*
X140750000Y65350000D03*
X139800000Y65350000D03*
X139800000Y63150000D03*
X141700000Y63150000D03*
D49*
X126500000Y78500000D03*
X126500000Y78000000D03*
X126500000Y77500000D03*
X126500000Y77000000D03*
X126500000Y76500000D03*
X126500000Y76000000D03*
X126500000Y75500000D03*
X126500000Y75000000D03*
X126500000Y74500000D03*
X126500000Y74000000D03*
X126500000Y73500000D03*
X126500000Y73000000D03*
D50*
X125250000Y80275000D03*
X125250000Y71225000D03*
D51*
X3025000Y74650000D03*
X3675000Y74650000D03*
X4325000Y74650000D03*
X4975000Y74650000D03*
X3025000Y72850000D03*
X3675000Y72850000D03*
X4325000Y72850000D03*
X4975000Y72850000D03*
D31*
X141750000Y72000000D03*
X143750000Y72000000D03*
D15*
X133750000Y75750000D03*
X135250000Y75750000D03*
X138500000Y73250000D03*
X137000000Y73250000D03*
X137000000Y75750000D03*
X138500000Y75750000D03*
M02*
