G04 #@! TF.FileFunction,Legend,Bot*
%FSLAX46Y46*%
G04 Gerber Fmt 4.6, Leading zero omitted, Abs format (unit mm)*
G04 Created by KiCad (PCBNEW 4.0.2-stable) date Tuesday, August 23, 2016 'PMt' 07:55:18 PM*
%MOMM*%
G01*
G04 APERTURE LIST*
%ADD10C,0.100000*%
%ADD11C,0.150000*%
G04 APERTURE END LIST*
D10*
D11*
X31375000Y55575000D02*
X31575000Y55575000D01*
X31375000Y50925000D02*
X31575000Y50925000D01*
X34625000Y50925000D02*
X34425000Y50925000D01*
X34625000Y55575000D02*
X34425000Y55575000D01*
X31375000Y55575000D02*
X31375000Y50925000D01*
X34625000Y55575000D02*
X34625000Y50925000D01*
X31575000Y55575000D02*
X31575000Y56925000D01*
X33500000Y48175000D02*
X32500000Y48175000D01*
X32500000Y46825000D02*
X33500000Y46825000D01*
X32500000Y41825000D02*
X33500000Y41825000D01*
X33500000Y43175000D02*
X32500000Y43175000D01*
X32500000Y44325000D02*
X33500000Y44325000D01*
X33500000Y45675000D02*
X32500000Y45675000D01*
X31066667Y54600000D02*
X30366667Y54600000D01*
X31000000Y53866667D02*
X31033333Y53900001D01*
X31066667Y54000001D01*
X31066667Y54066667D01*
X31033333Y54166667D01*
X30966667Y54233334D01*
X30900000Y54266667D01*
X30766667Y54300001D01*
X30666667Y54300001D01*
X30533333Y54266667D01*
X30466667Y54233334D01*
X30400000Y54166667D01*
X30366667Y54066667D01*
X30366667Y54000001D01*
X30400000Y53900001D01*
X30433333Y53866667D01*
X30433333Y53600001D02*
X30400000Y53566667D01*
X30366667Y53500001D01*
X30366667Y53333334D01*
X30400000Y53266667D01*
X30433333Y53233334D01*
X30500000Y53200001D01*
X30566667Y53200001D01*
X30666667Y53233334D01*
X31066667Y53633334D01*
X31066667Y53200001D01*
X30366667Y52766667D02*
X30366667Y52700000D01*
X30400000Y52633334D01*
X30433333Y52600000D01*
X30500000Y52566667D01*
X30633333Y52533334D01*
X30800000Y52533334D01*
X30933333Y52566667D01*
X31000000Y52600000D01*
X31033333Y52633334D01*
X31066667Y52700000D01*
X31066667Y52766667D01*
X31033333Y52833334D01*
X31000000Y52866667D01*
X30933333Y52900000D01*
X30800000Y52933334D01*
X30633333Y52933334D01*
X30500000Y52900000D01*
X30433333Y52866667D01*
X30400000Y52833334D01*
X30366667Y52766667D01*
X31066667Y51866667D02*
X31066667Y52266667D01*
X31066667Y52066667D02*
X30366667Y52066667D01*
X30466667Y52133333D01*
X30533333Y52200000D01*
X30566667Y52266667D01*
X33783333Y48433333D02*
X34016667Y48766667D01*
X34183333Y48433333D02*
X34183333Y49133333D01*
X33916667Y49133333D01*
X33850000Y49100000D01*
X33816667Y49066667D01*
X33783333Y49000000D01*
X33783333Y48900000D01*
X33816667Y48833333D01*
X33850000Y48800000D01*
X33916667Y48766667D01*
X34183333Y48766667D01*
X33516667Y49066667D02*
X33483333Y49100000D01*
X33416667Y49133333D01*
X33250000Y49133333D01*
X33183333Y49100000D01*
X33150000Y49066667D01*
X33116667Y49000000D01*
X33116667Y48933333D01*
X33150000Y48833333D01*
X33550000Y48433333D01*
X33116667Y48433333D01*
X32683333Y49133333D02*
X32616666Y49133333D01*
X32550000Y49100000D01*
X32516666Y49066667D01*
X32483333Y49000000D01*
X32450000Y48866667D01*
X32450000Y48700000D01*
X32483333Y48566667D01*
X32516666Y48500000D01*
X32550000Y48466667D01*
X32616666Y48433333D01*
X32683333Y48433333D01*
X32750000Y48466667D01*
X32783333Y48500000D01*
X32816666Y48566667D01*
X32850000Y48700000D01*
X32850000Y48866667D01*
X32816666Y49000000D01*
X32783333Y49066667D01*
X32750000Y49100000D01*
X32683333Y49133333D01*
X32216666Y49133333D02*
X31783333Y49133333D01*
X32016666Y48866667D01*
X31916666Y48866667D01*
X31849999Y48833333D01*
X31816666Y48800000D01*
X31783333Y48733333D01*
X31783333Y48566667D01*
X31816666Y48500000D01*
X31849999Y48466667D01*
X31916666Y48433333D01*
X32116666Y48433333D01*
X32183333Y48466667D01*
X32216666Y48500000D01*
X33783333Y43433333D02*
X34016667Y43766667D01*
X34183333Y43433333D02*
X34183333Y44133333D01*
X33916667Y44133333D01*
X33850000Y44100000D01*
X33816667Y44066667D01*
X33783333Y44000000D01*
X33783333Y43900000D01*
X33816667Y43833333D01*
X33850000Y43800000D01*
X33916667Y43766667D01*
X34183333Y43766667D01*
X33516667Y44066667D02*
X33483333Y44100000D01*
X33416667Y44133333D01*
X33250000Y44133333D01*
X33183333Y44100000D01*
X33150000Y44066667D01*
X33116667Y44000000D01*
X33116667Y43933333D01*
X33150000Y43833333D01*
X33550000Y43433333D01*
X33116667Y43433333D01*
X32683333Y44133333D02*
X32616666Y44133333D01*
X32550000Y44100000D01*
X32516666Y44066667D01*
X32483333Y44000000D01*
X32450000Y43866667D01*
X32450000Y43700000D01*
X32483333Y43566667D01*
X32516666Y43500000D01*
X32550000Y43466667D01*
X32616666Y43433333D01*
X32683333Y43433333D01*
X32750000Y43466667D01*
X32783333Y43500000D01*
X32816666Y43566667D01*
X32850000Y43700000D01*
X32850000Y43866667D01*
X32816666Y44000000D01*
X32783333Y44066667D01*
X32750000Y44100000D01*
X32683333Y44133333D01*
X31849999Y43900000D02*
X31849999Y43433333D01*
X32016666Y44166667D02*
X32183333Y43666667D01*
X31749999Y43666667D01*
X33783333Y45933333D02*
X34016667Y46266667D01*
X34183333Y45933333D02*
X34183333Y46633333D01*
X33916667Y46633333D01*
X33850000Y46600000D01*
X33816667Y46566667D01*
X33783333Y46500000D01*
X33783333Y46400000D01*
X33816667Y46333333D01*
X33850000Y46300000D01*
X33916667Y46266667D01*
X34183333Y46266667D01*
X33516667Y46566667D02*
X33483333Y46600000D01*
X33416667Y46633333D01*
X33250000Y46633333D01*
X33183333Y46600000D01*
X33150000Y46566667D01*
X33116667Y46500000D01*
X33116667Y46433333D01*
X33150000Y46333333D01*
X33550000Y45933333D01*
X33116667Y45933333D01*
X32683333Y46633333D02*
X32616666Y46633333D01*
X32550000Y46600000D01*
X32516666Y46566667D01*
X32483333Y46500000D01*
X32450000Y46366667D01*
X32450000Y46200000D01*
X32483333Y46066667D01*
X32516666Y46000000D01*
X32550000Y45966667D01*
X32616666Y45933333D01*
X32683333Y45933333D01*
X32750000Y45966667D01*
X32783333Y46000000D01*
X32816666Y46066667D01*
X32850000Y46200000D01*
X32850000Y46366667D01*
X32816666Y46500000D01*
X32783333Y46566667D01*
X32750000Y46600000D01*
X32683333Y46633333D01*
X31816666Y46633333D02*
X32149999Y46633333D01*
X32183333Y46300000D01*
X32149999Y46333333D01*
X32083333Y46366667D01*
X31916666Y46366667D01*
X31849999Y46333333D01*
X31816666Y46300000D01*
X31783333Y46233333D01*
X31783333Y46066667D01*
X31816666Y46000000D01*
X31849999Y45966667D01*
X31916666Y45933333D01*
X32083333Y45933333D01*
X32149999Y45966667D01*
X32183333Y46000000D01*
X37116667Y56300000D02*
X37816667Y56133333D01*
X37316667Y56000000D01*
X37816667Y55866667D01*
X37116667Y55700000D01*
X37183333Y55466667D02*
X37150000Y55433333D01*
X37116667Y55366667D01*
X37116667Y55200000D01*
X37150000Y55133333D01*
X37183333Y55100000D01*
X37250000Y55066667D01*
X37316667Y55066667D01*
X37416667Y55100000D01*
X37816667Y55500000D01*
X37816667Y55066667D01*
X37116667Y54633333D02*
X37116667Y54566666D01*
X37150000Y54500000D01*
X37183333Y54466666D01*
X37250000Y54433333D01*
X37383333Y54400000D01*
X37550000Y54400000D01*
X37683333Y54433333D01*
X37750000Y54466666D01*
X37783333Y54500000D01*
X37816667Y54566666D01*
X37816667Y54633333D01*
X37783333Y54700000D01*
X37750000Y54733333D01*
X37683333Y54766666D01*
X37550000Y54800000D01*
X37383333Y54800000D01*
X37250000Y54766666D01*
X37183333Y54733333D01*
X37150000Y54700000D01*
X37116667Y54633333D01*
X37816667Y53733333D02*
X37816667Y54133333D01*
X37816667Y53933333D02*
X37116667Y53933333D01*
X37216667Y53999999D01*
X37283333Y54066666D01*
X37316667Y54133333D01*
X37116667Y52800000D02*
X37816667Y52633333D01*
X37316667Y52500000D01*
X37816667Y52366667D01*
X37116667Y52200000D01*
X37183333Y51966667D02*
X37150000Y51933333D01*
X37116667Y51866667D01*
X37116667Y51700000D01*
X37150000Y51633333D01*
X37183333Y51600000D01*
X37250000Y51566667D01*
X37316667Y51566667D01*
X37416667Y51600000D01*
X37816667Y52000000D01*
X37816667Y51566667D01*
X37116667Y51133333D02*
X37116667Y51066666D01*
X37150000Y51000000D01*
X37183333Y50966666D01*
X37250000Y50933333D01*
X37383333Y50900000D01*
X37550000Y50900000D01*
X37683333Y50933333D01*
X37750000Y50966666D01*
X37783333Y51000000D01*
X37816667Y51066666D01*
X37816667Y51133333D01*
X37783333Y51200000D01*
X37750000Y51233333D01*
X37683333Y51266666D01*
X37550000Y51300000D01*
X37383333Y51300000D01*
X37250000Y51266666D01*
X37183333Y51233333D01*
X37150000Y51200000D01*
X37116667Y51133333D01*
X37183333Y50633333D02*
X37150000Y50599999D01*
X37116667Y50533333D01*
X37116667Y50366666D01*
X37150000Y50299999D01*
X37183333Y50266666D01*
X37250000Y50233333D01*
X37316667Y50233333D01*
X37416667Y50266666D01*
X37816667Y50666666D01*
X37816667Y50233333D01*
M02*
